<?xml version="1.0" encoding="UTF-8" standalone="no"?>
<svg
   xmlns:dc="http://purl.org/dc/elements/1.1/"
   xmlns:cc="http://creativecommons.org/ns#"
   xmlns:rdf="http://www.w3.org/1999/02/22-rdf-syntax-ns#"
   xmlns:svg="http://www.w3.org/2000/svg"
   xmlns="http://www.w3.org/2000/svg"
   xmlns:xlink="http://www.w3.org/1999/xlink"
   id="svg2"
   width="613.22974pt"
   viewBox="0 0 613.22975 570.46844"
   version="1.1"
   height="570.46844pt">
  <metadata
     id="metadata718">
    <rdf:RDF>
      <cc:Work
         rdf:about="">
        <dc:format>image/svg+xml</dc:format>
        <dc:type
           rdf:resource="http://purl.org/dc/dcmitype/StillImage" />
        <dc:title></dc:title>
      </cc:Work>
    </rdf:RDF>
  </metadata>
  <defs
     style="stroke-linecap:butt;stroke-linejoin:round"
     id="defs4">
    <style
       id="style6"
       type="text/css">
*{stroke-linecap:butt;stroke-linejoin:round;}
  </style>
    <defs
       id="defs691">
      <path
         d="M 52,44.1875 Q 55.375,50.25 60.0625,53.125 64.75,56 71.0938,56 q 8.5468,0 13.1874,-5.9844 4.6407,-5.9687 4.6407,-17 l 0,-33.0156 -9.0313,0 0,32.7188 q 0,7.8593 -2.7968,11.6562 -2.7813,3.8125 -8.4844,3.8125 -6.9844,0 -11.0469,-4.6406 -4.0469,-4.625 -4.0469,-12.6407 l 0,-30.9062 -9.0312,0 0,32.7188 q 0,7.9062 -2.7813,11.6874 -2.7812,3.7813 -8.5937,3.7813 -6.8906,0 -10.9532,-4.6563 -4.0468,-4.6562 -4.0468,-12.625 l 0,-30.9062 -9.03128,0 0,54.6875 9.03128,0 0,-8.5 q 3.0781,5.0313 7.375,7.4219 Q 29.7812,56 35.6875,56 41.6562,56 45.8281,52.9688 50,49.9531 52,44.1875"
         id="BitstreamVeraSans-Roman-6d"
         style="stroke-linecap:butt;stroke-linejoin:round" />
      <path
         d="m 18.1094,8.20312 0,-29.00002 -9.03128,0 0,75.4844 9.03128,0 0,-8.2969 q 2.8437,4.875 7.1562,7.2344 Q 29.5938,56 35.5938,56 q 9.9687,0 16.1874,-7.9062 6.2344,-7.9063 6.2344,-20.7969 0,-12.8907 -6.2344,-20.81252 -6.2187,-7.90626 -16.1874,-7.90626 -6,0 -10.3282,2.375005 Q 20.9531,3.32812 18.1094,8.20312 M 48.6875,27.2969 q 0,9.9062 -4.0781,15.5469 -4.0782,5.6406 -11.2032,5.6406 -7.1406,0 -11.2187,-5.6406 -4.0781,-5.6407 -4.0781,-15.5469 0,-9.9063 4.0781,-15.5469 4.0781,-5.64062 11.2187,-5.64062 7.125,0 11.2032,5.64062 4.0781,5.6406 4.0781,15.5469"
         id="BitstreamVeraSans-Roman-70"
         style="stroke-linecap:butt;stroke-linejoin:round" />
      <path
         d="m 34.2812,27.4844 q -10.8906,0 -15.0937,-2.4844 -4.2031,-2.4844 -4.2031,-8.5 0,-4.7812 3.1562,-7.59375 3.1563,-2.79687 8.5625,-2.79687 7.4844,0 12,5.29682 4.5157,5.2969 4.5157,14.0782 l 0,2 z m 17.9219,3.7187 0,-31.2031 -8.9843,0 0,8.29688 Q 40.1406,3.32812 35.5469,0.953125 30.9531,-1.42188 24.3125,-1.42188 q -8.3906,0 -13.3594,4.71876 Q 6,8.01562 6,15.9219 q 0,9.2187 6.1719,13.9062 6.1875,4.6875 18.4375,4.6875 l 12.6094,0 0,0.8906 q 0,6.2032 -4.0782,9.5938 -4.0781,3.3906 -11.4531,3.3906 -4.6875,0 -9.1406,-1.125 -4.4375,-1.125 -8.5313,-3.375 l 0,8.3125 q 4.9219,1.9063 9.5625,2.8438 Q 24.2188,56 28.6094,56 q 11.875,0 17.7344,-6.1562 5.8593,-6.1407 5.8593,-18.6407"
         id="BitstreamVeraSans-Roman-61"
         style="stroke-linecap:butt;stroke-linejoin:round" />
      <path
         d="m 41.1094,46.2969 q -1.5156,0.875 -3.2969,1.2812 Q 36.0312,48 33.8906,48 26.2656,48 22.1875,43.0469 18.1094,38.0938 18.1094,28.8125 l 0,-28.8125 -9.03128,0 0,54.6875 9.03128,0 0,-8.5 q 2.8437,4.9844 7.375,7.3906 Q 30.0312,56 36.5312,56 q 0.9219,0 2.0469,-0.125 1.125,-0.1094 2.4844,-0.3594 z"
         id="BitstreamVeraSans-Roman-72"
         style="stroke-linecap:butt;stroke-linejoin:round" />
    </defs>
    <clipPath
       style="stroke-linecap:butt;stroke-linejoin:round"
       id="pad603626a5-3">
      <rect
         style="stroke-linecap:butt;stroke-linejoin:round"
         id="rect714-6"
         y="7.1999998"
         x="191.39824"
         width="1116"
         height="558" />
    </clipPath>
  </defs>
  <defs
     id="defs711">
    <clipPath
       style="stroke-linecap:butt;stroke-linejoin:round"
       id="pad603626a5">
      <rect
         style="stroke-linecap:butt;stroke-linejoin:round"
         id="rect714"
         y="7.1999998"
         x="191.39824"
         width="1116"
         height="558" />
    </clipPath>
  </defs>
  <g
     transform="translate(2.0484407,0.99999999)"
     style="stroke-linecap:butt;stroke-linejoin:round"
     id="g4217">
    <g
       id="line2d_13"
       style="stroke-linecap:butt;stroke-linejoin:round"
       transform="translate(-135.10011,-7.1999998)">
      <defs
         id="defs162">
        <path
           d="M 0,0 -4,0"
           id="m5191f13a99"
           style="stroke:#555555;stroke-width:0.5;stroke-linecap:butt;stroke-linejoin:round" />
      </defs>
      <g
         id="g165"
         style="stroke-linecap:butt;stroke-linejoin:round">
        <use
           style="fill:#555555;stroke:#555555;stroke-width:0.5;stroke-linecap:butt;stroke-linejoin:round"
           x="191.39824"
           xlink:href="#m5191f13a99"
           y="534.20001"
           id="use167"
           width="100%"
           height="100%" />
      </g>
    </g>
    <g
       id="line2d_15"
       style="stroke-linecap:butt;stroke-linejoin:round"
       transform="translate(-135.10011,-7.1999998)">
      <g
         id="g233"
         style="stroke-linecap:butt;stroke-linejoin:round">
        <use
           style="fill:#555555;stroke:#555555;stroke-width:0.5;stroke-linecap:butt;stroke-linejoin:round"
           x="191.39824"
           xlink:href="#m5191f13a99"
           y="472.20001"
           id="use235"
           width="100%"
           height="100%" />
      </g>
    </g>
    <g
       id="line2d_17"
       style="stroke-linecap:butt;stroke-linejoin:round"
       transform="translate(-135.10011,-7.1999998)">
      <g
         id="g288"
         style="stroke-linecap:butt;stroke-linejoin:round">
        <use
           style="fill:#555555;stroke:#555555;stroke-width:0.5;stroke-linecap:butt;stroke-linejoin:round"
           x="191.39824"
           xlink:href="#m5191f13a99"
           y="410.20001"
           id="use290"
           width="100%"
           height="100%" />
      </g>
    </g>
    <g
       id="line2d_19"
       style="stroke-linecap:butt;stroke-linejoin:round"
       transform="translate(-135.10011,-7.1999998)">
      <g
         id="g343"
         style="stroke-linecap:butt;stroke-linejoin:round">
        <use
           style="fill:#555555;stroke:#555555;stroke-width:0.5;stroke-linecap:butt;stroke-linejoin:round"
           x="191.39824"
           xlink:href="#m5191f13a99"
           y="348.20001"
           id="use345"
           width="100%"
           height="100%" />
      </g>
    </g>
    <g
       id="line2d_21"
       style="stroke-linecap:butt;stroke-linejoin:round"
       transform="translate(-135.10011,-7.1999998)">
      <g
         id="g398"
         style="stroke-linecap:butt;stroke-linejoin:round">
        <use
           style="fill:#555555;stroke:#555555;stroke-width:0.5;stroke-linecap:butt;stroke-linejoin:round"
           x="191.39824"
           xlink:href="#m5191f13a99"
           y="286.20001"
           id="use400"
           width="100%"
           height="100%" />
      </g>
    </g>
    <g
       id="line2d_23"
       style="stroke-linecap:butt;stroke-linejoin:round"
       transform="translate(-135.10011,-7.1999998)">
      <g
         id="g450"
         style="stroke-linecap:butt;stroke-linejoin:round">
        <use
           style="fill:#555555;stroke:#555555;stroke-width:0.5;stroke-linecap:butt;stroke-linejoin:round"
           x="191.39824"
           xlink:href="#m5191f13a99"
           y="224.2"
           id="use452"
           width="100%"
           height="100%" />
      </g>
    </g>
    <g
       id="line2d_25"
       style="stroke-linecap:butt;stroke-linejoin:round"
       transform="translate(-135.10011,-7.1999998)">
      <g
         id="g500"
         style="stroke-linecap:butt;stroke-linejoin:round">
        <use
           style="fill:#555555;stroke:#555555;stroke-width:0.5;stroke-linecap:butt;stroke-linejoin:round"
           x="191.39824"
           xlink:href="#m5191f13a99"
           y="162.2"
           id="use502"
           width="100%"
           height="100%" />
      </g>
    </g>
    <g
       id="line2d_27"
       style="stroke-linecap:butt;stroke-linejoin:round"
       transform="translate(-135.10011,-7.1999998)">
      <g
         id="g550"
         style="stroke-linecap:butt;stroke-linejoin:round">
        <use
           style="fill:#555555;stroke:#555555;stroke-width:0.5;stroke-linecap:butt;stroke-linejoin:round"
           x="191.39824"
           xlink:href="#m5191f13a99"
           y="100.2"
           id="use552"
           width="100%"
           height="100%" />
      </g>
    </g>
    <g
       id="line2d_29"
       style="stroke-linecap:butt;stroke-linejoin:round"
       transform="translate(-135.10011,-7.1999998)">
      <g
         id="g600"
         style="stroke-linecap:butt;stroke-linejoin:round">
        <use
           style="fill:#555555;stroke:#555555;stroke-width:0.5;stroke-linecap:butt;stroke-linejoin:round"
           x="191.39824"
           xlink:href="#m5191f13a99"
           y="38.200001"
           id="use602"
           width="100%"
           height="100%" />
      </g>
    </g>
    <path
       id="path649"
       style="fill:#ff0000;fill-opacity:1;stroke:#eeeeee;stroke-width:0.5;stroke-linecap:butt;stroke-linejoin:miter"
       d="m 191.398,549.7 22.767,0 0,-31 -22.767,0 z"
       clip-path="url(#pad603626a5)"
       transform="matrix(0.49753645,0,0,1.0047254,-38.929521,-9.7242911)" />
    <path
       id="path652"
       style="fill:#ff0000;fill-opacity:1;stroke:#eeeeee;stroke-width:0.5;stroke-linecap:butt;stroke-linejoin:miter"
       d="m 191.398,487.7 1066.892,0 0,-31 -1066.892,0 z"
       clip-path="url(#pad603626a5)"
       transform="matrix(0.50222758,0,0,1.004672,-39.827395,-9.4061355)" />
    <path
       id="path655"
       style="fill:#ff0000;fill-opacity:1;stroke:#eeeeee;stroke-width:0.5;stroke-linecap:butt;stroke-linejoin:miter"
       d="m 191.398,425.7 1068.682,0 0,-31 -1068.682,0 z"
       clip-path="url(#pad603626a5)"
       transform="matrix(0.50013276,0,0,1.0015712,-39.426449,-7.7958005)" />
    <path
       id="path658"
       style="fill:#ff0000;fill-opacity:1;stroke:#ff0000;stroke-width:0.5;stroke-linecap:butt;stroke-linejoin:miter;stroke-opacity:1"
       d="m 191.398,363.7 1071.362,0 0,-31 -1071.362,0 z"
       clip-path="url(#pad603626a5)"
       transform="matrix(0.50013276,0,0,1.0015712,-39.426449,-7.7958005)" />
    <path
       id="path661"
       style="fill:#ff0000;fill-opacity:1;stroke:#eeeeee;stroke-width:0.5;stroke-linecap:butt;stroke-linejoin:miter"
       d="m 191.398,301.7 1.786,0 0,-31 -1.786,0 z"
       clip-path="url(#pad603626a5)"
       transform="matrix(0.47250147,0,0,1.0050144,-34.137872,-8.6351143)" />
    <path
       id="path664"
       style="fill:#00ff00;fill-opacity:1;stroke:#eeeeee;stroke-width:0.5;stroke-linecap:butt;stroke-linejoin:miter"
       d="m 191.398,239.7 292.392,0 0,-31 -292.392,0 z"
       clip-path="url(#pad603626a5)"
       transform="matrix(0.49982151,0,0,1.0046994,-39.366877,-8.2535959)" />
    <path
       id="path667"
       style="fill:#00ff00;fill-opacity:1;stroke:#eeeeee;stroke-width:0.5;stroke-linecap:butt;stroke-linejoin:miter"
       d="m 191.398,177.7 1070.912,0 0,-31 -1070.912,0 z"
       clip-path="url(#pad603626a5)"
       transform="matrix(0.50034262,0,0,1.0046934,-39.466618,-7.961275)" />
    <path
       id="path670"
       style="fill:#00ff00;fill-opacity:1;stroke:#eeeeee;stroke-width:0.5;stroke-linecap:butt;stroke-linejoin:miter"
       d="m 191.398,115.7 1071.362,0 0,-31 -1071.362,0 z"
       clip-path="url(#pad603626a5)"
       transform="matrix(0.5001325,0,0,1.0046958,-39.4264,-7.6705213)" />
    <path
       id="path673"
       style="fill:#00ff00;fill-opacity:1;stroke:#eeeeee;stroke-width:0.5;stroke-linecap:butt;stroke-linejoin:miter"
       d="m 191.398,53.7 17.856,0 0,-31 -17.856,0 z"
       clip-path="url(#pad603626a5)"
       transform="matrix(0.49710398,0,0,1.0047303,-38.846747,-7.3806971)" />
    <path
       id="path676"
       style="fill:none;stroke:#000000;stroke-width:2;stroke-linecap:butt;stroke-linejoin:round;stroke-dasharray:6, 6;stroke-dashoffset:0"
       d="m 369.958,596.2 m 0,-0.289 0,-596.911"
       clip-path="url(#pad603626a5)"
       transform="translate(-216.70011,-7.1999998)" />
    <text
       xml:space="preserve"
       style="font-style:normal;font-variant:normal;font-weight:normal;font-stretch:normal;font-size:17.27141571px;line-height:125%;font-family:Arial;-inkscape-font-specification:Arial;letter-spacing:0px;word-spacing:0px;fill:#000000;fill-opacity:1;stroke:none;stroke-width:1px;stroke-linecap:butt;stroke-linejoin:miter;stroke-opacity:1"
       x="135.49184"
       y="577.17493"
       id="text5582"
       transform="scale(1.0190248,0.98133039)"><tspan
         id="tspan5584"
         style="stroke-linecap:butt;stroke-linejoin:round"
         x="135.49184"
         y="577.17493">400</tspan></text>
    <path
       transform="translate(222.85631,-3.2591799)"
       id="path676-7"
       style="fill:none;stroke:#000000;stroke-width:2;stroke-linecap:butt;stroke-linejoin:round;stroke-dasharray:6, 6;stroke-dashoffset:0"
       d="m 369.958,596.2 m 0,-0.289 0,-596.911"
       clip-path="url(#pad603626a5-3)" />
    <text
       xml:space="preserve"
       style="font-style:normal;font-variant:normal;font-weight:normal;font-stretch:normal;font-size:17.27141571px;line-height:125%;font-family:Arial;-inkscape-font-specification:Arial;letter-spacing:0px;word-spacing:0px;fill:#000000;fill-opacity:1;stroke:none;stroke-width:1px;stroke-linecap:butt;stroke-linejoin:miter;stroke-opacity:1"
       x="561.01666"
       y="579.11475"
       id="text5582-5"
       transform="scale(1.0190248,0.98133039)"><tspan
         id="tspan5584-3"
         style="stroke-linecap:butt;stroke-linejoin:round"
         x="561.01666"
         y="579.11475">2400</tspan></text>
    <text
       xml:space="preserve"
       style="font-style:normal;font-variant:normal;font-weight:normal;font-stretch:normal;font-size:17.60000038px;line-height:125%;font-family:Arial;-inkscape-font-specification:Arial;letter-spacing:0px;word-spacing:0px;fill:#000000;fill-opacity:1;stroke:none;stroke-width:1px;stroke-linecap:butt;stroke-linejoin:miter;stroke-opacity:1"
       x="0.65057665"
       y="36.579086"
       id="text5747"><tspan
         id="tspan5749"
         style="stroke-linecap:butt;stroke-linejoin:round"
         x="0.65057665"
         y="36.579086">Flu3</tspan></text>
    <text
       xml:space="preserve"
       style="font-style:normal;font-variant:normal;font-weight:normal;font-stretch:normal;font-size:17.60000038px;line-height:125%;font-family:Arial;-inkscape-font-specification:Arial;letter-spacing:0px;word-spacing:0px;fill:#000000;fill-opacity:1;stroke:none;stroke-width:1px;stroke-linecap:butt;stroke-linejoin:miter;stroke-opacity:1"
       x="-1.4437532"
       y="99.062492"
       id="text5751"><tspan
         id="tspan5753"
         style="stroke-linecap:butt;stroke-linejoin:round"
         x="-1.4437532"
         y="99.062492">TPF3</tspan></text>
    <text
       xml:space="preserve"
       style="font-style:normal;font-variant:normal;font-weight:normal;font-stretch:normal;font-size:17.60000038px;line-height:125%;font-family:Arial;-inkscape-font-specification:Arial;letter-spacing:0px;word-spacing:0px;fill:#000000;fill-opacity:1;stroke:none;stroke-width:1px;stroke-linecap:butt;stroke-linejoin:miter;stroke-opacity:1"
       x="-0.68497938"
       y="160.24501"
       id="text5755"><tspan
         id="tspan5757"
         style="stroke-linecap:butt;stroke-linejoin:round"
         x="-0.68497938"
         y="160.24501">TPF1</tspan></text>
    <text
       xml:space="preserve"
       style="font-style:normal;font-variant:normal;font-weight:normal;font-stretch:normal;font-size:17.60000038px;line-height:125%;font-family:Arial;-inkscape-font-specification:Arial;letter-spacing:0px;word-spacing:0px;fill:#000000;fill-opacity:1;stroke:none;stroke-width:1px;stroke-linecap:butt;stroke-linejoin:miter;stroke-opacity:1"
       x="0.023486191"
       y="222.1174"
       id="text5759"><tspan
         id="tspan5761"
         style="stroke-linecap:butt;stroke-linejoin:round"
         x="0.023486191"
         y="222.1174">Fus</tspan></text>
    <text
       xml:space="preserve"
       style="font-style:normal;font-variant:normal;font-weight:normal;font-stretch:normal;font-size:17.60000038px;line-height:125%;font-family:Arial;-inkscape-font-specification:Arial;letter-spacing:0px;word-spacing:0px;fill:#000000;fill-opacity:1;stroke:#000000;stroke-width:1px;stroke-linecap:butt;stroke-linejoin:miter;stroke-opacity:1"
       x="254.20461"
       y="20.110483"
       id="text6605"><tspan
         id="tspan6607"
         style="fill:#00ff00;fill-opacity:1;stroke:none;stroke-linecap:butt;stroke-linejoin:round;stroke-opacity:1"
         x="254.20461"
         y="20.110483">Watdiv 100M</tspan></text>
    <text
       xml:space="preserve"
       style="font-style:normal;font-variant:normal;font-weight:normal;font-stretch:normal;font-size:17.60000038px;line-height:125%;font-family:Arial;-inkscape-font-specification:Arial;letter-spacing:0px;word-spacing:0px;fill:#000000;fill-opacity:1;stroke:#000000;stroke-width:1px;stroke-linecap:butt;stroke-linejoin:miter;stroke-opacity:1"
       x="254.08238"
       y="540.10687"
       id="text6605-9"><tspan
         id="tspan6607-3"
         style="fill:#ff0000;fill-opacity:1;stroke:none;stroke-linecap:butt;stroke-linejoin:round;stroke-opacity:1"
         x="254.08238"
         y="540.10687">Watdiv 1000M</tspan></text>
    <text
       xml:space="preserve"
       style="font-style:normal;font-variant:normal;font-weight:bold;font-stretch:normal;font-size:17.60000038px;line-height:125%;font-family:Arial;-inkscape-font-specification:'Arial, Bold';text-align:start;letter-spacing:0px;word-spacing:0px;writing-mode:lr-tb;text-anchor:start;fill:#000000;fill-opacity:1;stroke:none;stroke-width:1px;stroke-linecap:butt;stroke-linejoin:miter;stroke-opacity:1"
       x="73.525856"
       y="276.439"
       id="text6633"><tspan
         id="tspan6635"
         style="font-style:normal;font-variant:normal;font-weight:bold;font-stretch:normal;font-size:17.60000038px;line-height:125%;font-family:Arial;-inkscape-font-specification:'Arial, Bold';text-align:start;writing-mode:lr-tb;text-anchor:start;stroke-linecap:butt;stroke-linejoin:round"
         x="73.525856"
         y="276.439">Warmup</tspan></text>
    <text
       xml:space="preserve"
       style="font-style:normal;font-variant:normal;font-weight:bold;font-stretch:normal;font-size:17.60000038px;line-height:125%;font-family:Arial;-inkscape-font-specification:'Arial, Bold';text-align:start;letter-spacing:0px;word-spacing:0px;writing-mode:lr-tb;text-anchor:start;fill:#000000;fill-opacity:1;stroke:none;stroke-width:1px;stroke-linecap:butt;stroke-linejoin:miter;stroke-opacity:1"
       x="167.25652"
       y="275.47812"
       id="text6637"><tspan
         id="tspan6639"
         style="font-style:normal;font-variant:normal;font-weight:bold;font-stretch:normal;font-size:17.60000038px;line-height:125%;font-family:Arial;-inkscape-font-specification:'Arial, Bold';text-align:start;writing-mode:lr-tb;text-anchor:start;stroke-linecap:butt;stroke-linejoin:round"
         x="167.25652"
         y="275.47812">Stress</tspan></text>
    <text
       xml:space="preserve"
       style="font-style:normal;font-variant:normal;font-weight:normal;font-stretch:normal;font-size:17.60000038px;line-height:125%;font-family:Arial;-inkscape-font-specification:Arial;letter-spacing:0px;word-spacing:0px;fill:#000000;fill-opacity:1;stroke:none;stroke-width:1px;stroke-linecap:butt;stroke-linejoin:miter;stroke-opacity:1"
       x="-0.10598464"
       y="284.65134"
       id="text5747-4"><tspan
         id="tspan5749-3"
         style="stroke-linecap:butt;stroke-linejoin:round"
         x="-0.10598464"
         y="284.65134">Flu3</tspan></text>
    <text
       xml:space="preserve"
       style="font-style:normal;font-variant:normal;font-weight:normal;font-stretch:normal;font-size:17.60000038px;line-height:125%;font-family:Arial;-inkscape-font-specification:Arial;letter-spacing:0px;word-spacing:0px;fill:#000000;fill-opacity:1;stroke:none;stroke-width:1px;stroke-linecap:butt;stroke-linejoin:miter;stroke-opacity:1"
       x="-0.44073194"
       y="345.18616"
       id="text5747-3"><tspan
         id="tspan5749-38"
         style="stroke-linecap:butt;stroke-linejoin:round"
         x="-0.44073194"
         y="345.18616">Flu1</tspan></text>
    <text
       xml:space="preserve"
       style="font-style:normal;font-variant:normal;font-weight:normal;font-stretch:normal;font-size:17.60000038px;line-height:125%;font-family:Arial;-inkscape-font-specification:Arial;letter-spacing:0px;word-spacing:0px;fill:#000000;fill-opacity:1;stroke:none;stroke-width:1px;stroke-linecap:butt;stroke-linejoin:miter;stroke-opacity:1"
       x="-0.042386003"
       y="407.6532"
       id="text5751-6"><tspan
         id="tspan5753-0"
         style="stroke-linecap:butt;stroke-linejoin:round"
         x="-0.042386003"
         y="407.6532">TPF3</tspan></text>
    <text
       xml:space="preserve"
       style="font-style:normal;font-variant:normal;font-weight:normal;font-stretch:normal;font-size:17.60000038px;line-height:125%;font-family:Arial;-inkscape-font-specification:Arial;letter-spacing:0px;word-spacing:0px;fill:#000000;fill-opacity:1;stroke:none;stroke-width:1px;stroke-linecap:butt;stroke-linejoin:miter;stroke-opacity:1"
       x="0.71638781"
       y="468.83569"
       id="text5755-4"><tspan
         id="tspan5757-8"
         style="stroke-linecap:butt;stroke-linejoin:round"
         x="0.71638781"
         y="468.83569">TPF1</tspan></text>
    <text
       xml:space="preserve"
       style="font-style:normal;font-variant:normal;font-weight:normal;font-stretch:normal;font-size:17.60000038px;line-height:125%;font-family:Arial;-inkscape-font-specification:Arial;letter-spacing:0px;word-spacing:0px;fill:#000000;fill-opacity:1;stroke:none;stroke-width:1px;stroke-linecap:butt;stroke-linejoin:miter;stroke-opacity:1"
       x="0.048312239"
       y="529.35095"
       id="text5759-8"><tspan
         id="tspan5761-8"
         style="stroke-linecap:butt;stroke-linejoin:round"
         x="0.048312239"
         y="529.35095">Fus</tspan></text>
    <text
       id="text4309"
       y="269.81836"
       x="401.39108"
       style="font-style:normal;font-variant:normal;font-weight:normal;font-stretch:normal;font-size:15px;line-height:125%;font-family:Arial;-inkscape-font-specification:Arial;letter-spacing:0px;word-spacing:0px;fill:#000000;fill-opacity:1;stroke:none;stroke-width:1px;stroke-linecap:butt;stroke-linejoin:miter;stroke-opacity:1"
       xml:space="preserve"><tspan
         y="269.81836"
         x="401.39108"
         style="stroke-linecap:butt;stroke-linejoin:round"
         id="tspan4311">#queries until system failure</tspan></text>
  </g>
</svg>
