<?xml version="1.0" encoding="UTF-8" standalone="no"?>
<!DOCTYPE svg PUBLIC "-//W3C//DTD SVG 1.1//EN"
 "http://www.w3.org/Graphics/SVG/1.1/DTD/svg11.dtd">
<!-- Generated by graphviz version 2.38.0 (20140413.2041)
 -->
<!-- Title: Tree Pages: 1 -->
<svg width="837pt" height="373pt"
 viewBox="0.00 0.00 836.50 373.00" xmlns="http://www.w3.org/2000/svg" xmlns:xlink="http://www.w3.org/1999/xlink">
<g id="graph0" class="graph" transform="scale(1 1) rotate(0) translate(4 369)">
<title>Tree</title>
<polygon fill="white" stroke="none" points="-4,4 -4,-369 832.5,-369 832.5,4 -4,4"/>
<!-- 0 -->
<g id="node1" class="node"><title>0</title>
<polygon fill="#399de5" fill-opacity="0.537255" stroke="black" points="604.5,-365 465.5,-365 465.5,-297 604.5,-297 604.5,-365"/>
<text text-anchor="middle" x="535" y="-349.8" font-family="Times,serif" font-size="14.00">sim &lt;= 2.5</text>
<text text-anchor="middle" x="535" y="-334.8" font-family="Times,serif" font-size="14.00">gini = 0.433</text>
<text text-anchor="middle" x="535" y="-319.8" font-family="Times,serif" font-size="14.00">samples = 19099</text>
<text text-anchor="middle" x="535" y="-304.8" font-family="Times,serif" font-size="14.00">value = [6041, 13058]</text>
</g>
<!-- 1 -->
<g id="node2" class="node"><title>1</title>
<polygon fill="#e58139" fill-opacity="0.003922" stroke="black" points="494,-261 362,-261 362,-193 494,-193 494,-261"/>
<text text-anchor="middle" x="428" y="-245.8" font-family="Times,serif" font-size="14.00">query &lt;= 1.5</text>
<text text-anchor="middle" x="428" y="-230.8" font-family="Times,serif" font-size="14.00">gini = 0.5</text>
<text text-anchor="middle" x="428" y="-215.8" font-family="Times,serif" font-size="14.00">samples = 11761</text>
<text text-anchor="middle" x="428" y="-200.8" font-family="Times,serif" font-size="14.00">value = [5892, 5869]</text>
</g>
<!-- 0&#45;&gt;1 -->
<g id="edge1" class="edge"><title>0&#45;&gt;1</title>
<path fill="none" stroke="black" d="M500.26,-296.884C490.729,-287.798 480.289,-277.845 470.381,-268.4"/>
<polygon fill="black" stroke="black" points="472.585,-265.666 462.932,-261.299 467.755,-270.733 472.585,-265.666"/>
<text text-anchor="middle" x="463.53" y="-282.592" font-family="Times,serif" font-size="14.00">True</text>
</g>
<!-- 8 -->
<g id="node9" class="node"><title>8</title>
<polygon fill="#399de5" fill-opacity="0.980392" stroke="black" points="708.5,-261 577.5,-261 577.5,-193 708.5,-193 708.5,-261"/>
<text text-anchor="middle" x="643" y="-245.8" font-family="Times,serif" font-size="14.00">triplePattern &lt;= 36.0</text>
<text text-anchor="middle" x="643" y="-230.8" font-family="Times,serif" font-size="14.00">gini = 0.04</text>
<text text-anchor="middle" x="643" y="-215.8" font-family="Times,serif" font-size="14.00">samples = 7338</text>
<text text-anchor="middle" x="643" y="-200.8" font-family="Times,serif" font-size="14.00">value = [149, 7189]</text>
</g>
<!-- 0&#45;&gt;8 -->
<g id="edge8" class="edge"><title>0&#45;&gt;8</title>
<path fill="none" stroke="black" d="M570.065,-296.884C579.684,-287.798 590.222,-277.845 600.223,-268.4"/>
<polygon fill="black" stroke="black" points="602.875,-270.71 607.742,-261.299 598.069,-265.621 602.875,-270.71"/>
<text text-anchor="middle" x="607.028" y="-282.589" font-family="Times,serif" font-size="14.00">False</text>
</g>
<!-- 2 -->
<g id="node3" class="node"><title>2</title>
<polygon fill="#399de5" fill-opacity="0.407843" stroke="black" points="282,-157 150,-157 150,-89 282,-89 282,-157"/>
<text text-anchor="middle" x="216" y="-141.8" font-family="Times,serif" font-size="14.00">sim &lt;= 1.5</text>
<text text-anchor="middle" x="216" y="-126.8" font-family="Times,serif" font-size="14.00">gini = 0.467</text>
<text text-anchor="middle" x="216" y="-111.8" font-family="Times,serif" font-size="14.00">samples = 7812</text>
<text text-anchor="middle" x="216" y="-96.8" font-family="Times,serif" font-size="14.00">value = [2910, 4902]</text>
</g>
<!-- 1&#45;&gt;2 -->
<g id="edge2" class="edge"><title>1&#45;&gt;2</title>
<path fill="none" stroke="black" d="M361.794,-194.146C339.378,-183.361 314.184,-171.24 291.126,-160.146"/>
<polygon fill="black" stroke="black" points="292.597,-156.969 282.068,-155.788 289.562,-163.277 292.597,-156.969"/>
</g>
<!-- 5 -->
<g id="node6" class="node"><title>5</title>
<polygon fill="#e58139" fill-opacity="0.674510" stroke="black" points="490.5,-157 365.5,-157 365.5,-89 490.5,-89 490.5,-157"/>
<text text-anchor="middle" x="428" y="-141.8" font-family="Times,serif" font-size="14.00">optional &lt;= 1.5</text>
<text text-anchor="middle" x="428" y="-126.8" font-family="Times,serif" font-size="14.00">gini = 0.37</text>
<text text-anchor="middle" x="428" y="-111.8" font-family="Times,serif" font-size="14.00">samples = 3949</text>
<text text-anchor="middle" x="428" y="-96.8" font-family="Times,serif" font-size="14.00">value = [2982, 967]</text>
</g>
<!-- 1&#45;&gt;5 -->
<g id="edge5" class="edge"><title>1&#45;&gt;5</title>
<path fill="none" stroke="black" d="M428,-192.884C428,-184.778 428,-175.982 428,-167.472"/>
<polygon fill="black" stroke="black" points="431.5,-167.299 428,-157.299 424.5,-167.299 431.5,-167.299"/>
</g>
<!-- 3 -->
<g id="node4" class="node"><title>3</title>
<polygon fill="#399de5" fill-opacity="0.600000" stroke="black" points="132,-53 0,-53 0,-0 132,-0 132,-53"/>
<text text-anchor="middle" x="66" y="-37.8" font-family="Times,serif" font-size="14.00">gini = 0.408</text>
<text text-anchor="middle" x="66" y="-22.8" font-family="Times,serif" font-size="14.00">samples = 5172</text>
<text text-anchor="middle" x="66" y="-7.8" font-family="Times,serif" font-size="14.00">value = [1474, 3698]</text>
</g>
<!-- 2&#45;&gt;3 -->
<g id="edge3" class="edge"><title>2&#45;&gt;3</title>
<path fill="none" stroke="black" d="M163.537,-88.9485C148,-79.1601 131.041,-68.4756 115.685,-58.8015"/>
<polygon fill="black" stroke="black" points="117.178,-55.6058 106.852,-53.2367 113.447,-61.5285 117.178,-55.6058"/>
</g>
<!-- 4 -->
<g id="node5" class="node"><title>4</title>
<polygon fill="#e58139" fill-opacity="0.160784" stroke="black" points="282,-53 150,-53 150,-0 282,-0 282,-53"/>
<text text-anchor="middle" x="216" y="-37.8" font-family="Times,serif" font-size="14.00">gini = 0.496</text>
<text text-anchor="middle" x="216" y="-22.8" font-family="Times,serif" font-size="14.00">samples = 2640</text>
<text text-anchor="middle" x="216" y="-7.8" font-family="Times,serif" font-size="14.00">value = [1436, 1204]</text>
</g>
<!-- 2&#45;&gt;4 -->
<g id="edge4" class="edge"><title>2&#45;&gt;4</title>
<path fill="none" stroke="black" d="M216,-88.9485C216,-80.7153 216,-71.848 216,-63.4814"/>
<polygon fill="black" stroke="black" points="219.5,-63.2367 216,-53.2367 212.5,-63.2367 219.5,-63.2367"/>
</g>
<!-- 6 -->
<g id="node7" class="node"><title>6</title>
<polygon fill="#e58139" fill-opacity="0.192157" stroke="black" points="419.5,-53 300.5,-53 300.5,-0 419.5,-0 419.5,-53"/>
<text text-anchor="middle" x="360" y="-37.8" font-family="Times,serif" font-size="14.00">gini = 0.494</text>
<text text-anchor="middle" x="360" y="-22.8" font-family="Times,serif" font-size="14.00">samples = 1775</text>
<text text-anchor="middle" x="360" y="-7.8" font-family="Times,serif" font-size="14.00">value = [981, 794]</text>
</g>
<!-- 5&#45;&gt;6 -->
<g id="edge6" class="edge"><title>5&#45;&gt;6</title>
<path fill="none" stroke="black" d="M404.217,-88.9485C397.832,-80.0749 390.916,-70.4648 384.493,-61.5388"/>
<polygon fill="black" stroke="black" points="387.201,-59.3094 378.52,-53.2367 381.519,-63.398 387.201,-59.3094"/>
</g>
<!-- 7 -->
<g id="node8" class="node"><title>7</title>
<polygon fill="#e58139" fill-opacity="0.913725" stroke="black" points="562.5,-53 437.5,-53 437.5,-0 562.5,-0 562.5,-53"/>
<text text-anchor="middle" x="500" y="-37.8" font-family="Times,serif" font-size="14.00">gini = 0.146</text>
<text text-anchor="middle" x="500" y="-22.8" font-family="Times,serif" font-size="14.00">samples = 2174</text>
<text text-anchor="middle" x="500" y="-7.8" font-family="Times,serif" font-size="14.00">value = [2001, 173]</text>
</g>
<!-- 5&#45;&gt;7 -->
<g id="edge7" class="edge"><title>5&#45;&gt;7</title>
<path fill="none" stroke="black" d="M453.182,-88.9485C460.013,-79.9834 467.416,-70.2666 474.276,-61.2629"/>
<polygon fill="black" stroke="black" points="477.115,-63.3122 480.391,-53.2367 471.547,-59.0699 477.115,-63.3122"/>
</g>
<!-- 9 -->
<g id="node10" class="node"><title>9</title>
<polygon fill="#399de5" fill-opacity="0.980392" stroke="black" points="705.5,-157 580.5,-157 580.5,-89 705.5,-89 705.5,-157"/>
<text text-anchor="middle" x="643" y="-141.8" font-family="Times,serif" font-size="14.00">optional &lt;= 5.5</text>
<text text-anchor="middle" x="643" y="-126.8" font-family="Times,serif" font-size="14.00">gini = 0.035</text>
<text text-anchor="middle" x="643" y="-111.8" font-family="Times,serif" font-size="14.00">samples = 7320</text>
<text text-anchor="middle" x="643" y="-96.8" font-family="Times,serif" font-size="14.00">value = [131, 7189]</text>
</g>
<!-- 8&#45;&gt;9 -->
<g id="edge9" class="edge"><title>8&#45;&gt;9</title>
<path fill="none" stroke="black" d="M643,-192.884C643,-184.778 643,-175.982 643,-167.472"/>
<polygon fill="black" stroke="black" points="646.5,-167.299 643,-157.299 639.5,-167.299 646.5,-167.299"/>
</g>
<!-- 12 -->
<g id="node13" class="node"><title>12</title>
<polygon fill="#e58139" stroke="black" points="822,-149.5 724,-149.5 724,-96.5 822,-96.5 822,-149.5"/>
<text text-anchor="middle" x="773" y="-134.3" font-family="Times,serif" font-size="14.00">gini = 0.0</text>
<text text-anchor="middle" x="773" y="-119.3" font-family="Times,serif" font-size="14.00">samples = 18</text>
<text text-anchor="middle" x="773" y="-104.3" font-family="Times,serif" font-size="14.00">value = [18, 0]</text>
</g>
<!-- 8&#45;&gt;12 -->
<g id="edge12" class="edge"><title>8&#45;&gt;12</title>
<path fill="none" stroke="black" d="M685.207,-192.884C700.346,-181.006 717.372,-167.646 732.374,-155.876"/>
<polygon fill="black" stroke="black" points="734.768,-158.446 740.475,-149.52 730.447,-152.939 734.768,-158.446"/>
</g>
<!-- 10 -->
<g id="node11" class="node"><title>10</title>
<polygon fill="#399de5" fill-opacity="0.984314" stroke="black" points="705.5,-53 580.5,-53 580.5,-0 705.5,-0 705.5,-53"/>
<text text-anchor="middle" x="643" y="-37.8" font-family="Times,serif" font-size="14.00">gini = 0.027</text>
<text text-anchor="middle" x="643" y="-22.8" font-family="Times,serif" font-size="14.00">samples = 7254</text>
<text text-anchor="middle" x="643" y="-7.8" font-family="Times,serif" font-size="14.00">value = [101, 7153]</text>
</g>
<!-- 9&#45;&gt;10 -->
<g id="edge10" class="edge"><title>9&#45;&gt;10</title>
<path fill="none" stroke="black" d="M643,-88.9485C643,-80.7153 643,-71.848 643,-63.4814"/>
<polygon fill="black" stroke="black" points="646.5,-63.2367 643,-53.2367 639.5,-63.2367 646.5,-63.2367"/>
</g>
<!-- 11 -->
<g id="node12" class="node"><title>11</title>
<polygon fill="#399de5" fill-opacity="0.164706" stroke="black" points="828.5,-53 723.5,-53 723.5,-0 828.5,-0 828.5,-53"/>
<text text-anchor="middle" x="776" y="-37.8" font-family="Times,serif" font-size="14.00">gini = 0.496</text>
<text text-anchor="middle" x="776" y="-22.8" font-family="Times,serif" font-size="14.00">samples = 66</text>
<text text-anchor="middle" x="776" y="-7.8" font-family="Times,serif" font-size="14.00">value = [30, 36]</text>
</g>
<!-- 9&#45;&gt;11 -->
<g id="edge11" class="edge"><title>9&#45;&gt;11</title>
<path fill="none" stroke="black" d="M689.517,-88.9485C703.164,-79.2516 718.05,-68.6752 731.564,-59.073"/>
<polygon fill="black" stroke="black" points="733.653,-61.882 739.778,-53.2367 729.599,-56.1757 733.653,-61.882"/>
</g>
</g>
</svg>
