<?xml version="1.0" encoding="UTF-8" standalone="no"?>
<!DOCTYPE svg PUBLIC "-//W3C//DTD SVG 1.1//EN"
 "http://www.w3.org/Graphics/SVG/1.1/DTD/svg11.dtd">
<!-- Generated by graphviz version 2.38.0 (20140413.2041)
 -->
<!-- Title: Tree Pages: 1 -->
<svg width="1376pt" height="477pt"
 viewBox="0.00 0.00 1376.00 477.00" xmlns="http://www.w3.org/2000/svg" xmlns:xlink="http://www.w3.org/1999/xlink">
<g id="graph0" class="graph" transform="scale(1 1) rotate(0) translate(4 473)">
<title>Tree</title>
<polygon fill="white" stroke="none" points="-4,4 -4,-473 1372,-473 1372,4 -4,4"/>
<!-- 0 -->
<g id="node1" class="node"><title>0</title>
<polygon fill="#8139e5" fill-opacity="0.533333" stroke="black" points="796,-469 643,-469 643,-401 796,-401 796,-469"/>
<text text-anchor="middle" x="719.5" y="-453.8" font-family="Times,serif" font-size="14.00">sim &lt;= 1.5</text>
<text text-anchor="middle" x="719.5" y="-438.8" font-family="Times,serif" font-size="14.00">gini = 0.442</text>
<text text-anchor="middle" x="719.5" y="-423.8" font-family="Times,serif" font-size="14.00">samples = 6041</text>
<text text-anchor="middle" x="719.5" y="-408.8" font-family="Times,serif" font-size="14.00">value = [62, 1878, 4101]</text>
</g>
<!-- 1 -->
<g id="node2" class="node"><title>1</title>
<polygon fill="#39e581" fill-opacity="0.078431" stroke="black" points="704.5,-365 558.5,-365 558.5,-297 704.5,-297 704.5,-365"/>
<text text-anchor="middle" x="631.5" y="-349.8" font-family="Times,serif" font-size="14.00">query &lt;= 2.5</text>
<text text-anchor="middle" x="631.5" y="-334.8" font-family="Times,serif" font-size="14.00">gini = 0.5</text>
<text text-anchor="middle" x="631.5" y="-319.8" font-family="Times,serif" font-size="14.00">samples = 3520</text>
<text text-anchor="middle" x="631.5" y="-304.8" font-family="Times,serif" font-size="14.00">value = [2, 1830, 1688]</text>
</g>
<!-- 0&#45;&gt;1 -->
<g id="edge1" class="edge"><title>0&#45;&gt;1</title>
<path fill="none" stroke="black" d="M690.929,-400.884C683.244,-391.976 674.84,-382.235 666.835,-372.957"/>
<polygon fill="black" stroke="black" points="669.411,-370.585 660.229,-365.299 664.111,-375.157 669.411,-370.585"/>
<text text-anchor="middle" x="658.392" y="-386.532" font-family="Times,serif" font-size="14.00">True</text>
</g>
<!-- 14 -->
<g id="node15" class="node"><title>14</title>
<polygon fill="#8139e5" fill-opacity="0.956863" stroke="black" points="877.5,-365 737.5,-365 737.5,-297 877.5,-297 877.5,-365"/>
<text text-anchor="middle" x="807.5" y="-349.8" font-family="Times,serif" font-size="14.00">sim &lt;= 2.5</text>
<text text-anchor="middle" x="807.5" y="-334.8" font-family="Times,serif" font-size="14.00">gini = 0.083</text>
<text text-anchor="middle" x="807.5" y="-319.8" font-family="Times,serif" font-size="14.00">samples = 2521</text>
<text text-anchor="middle" x="807.5" y="-304.8" font-family="Times,serif" font-size="14.00">value = [60, 48, 2413]</text>
</g>
<!-- 0&#45;&gt;14 -->
<g id="edge14" class="edge"><title>0&#45;&gt;14</title>
<path fill="none" stroke="black" d="M748.071,-400.884C755.756,-391.976 764.16,-382.235 772.165,-372.957"/>
<polygon fill="black" stroke="black" points="774.889,-375.157 778.771,-365.299 769.589,-370.585 774.889,-375.157"/>
<text text-anchor="middle" x="780.608" y="-386.532" font-family="Times,serif" font-size="14.00">False</text>
</g>
<!-- 2 -->
<g id="node3" class="node"><title>2</title>
<polygon fill="#8139e5" fill-opacity="0.552941" stroke="black" points="481.5,-261 341.5,-261 341.5,-193 481.5,-193 481.5,-261"/>
<text text-anchor="middle" x="411.5" y="-245.8" font-family="Times,serif" font-size="14.00">sim &lt;= 0.5</text>
<text text-anchor="middle" x="411.5" y="-230.8" font-family="Times,serif" font-size="14.00">gini = 0.428</text>
<text text-anchor="middle" x="411.5" y="-215.8" font-family="Times,serif" font-size="14.00">samples = 1735</text>
<text text-anchor="middle" x="411.5" y="-200.8" font-family="Times,serif" font-size="14.00">value = [2, 534, 1199]</text>
</g>
<!-- 1&#45;&gt;2 -->
<g id="edge2" class="edge"><title>1&#45;&gt;2</title>
<path fill="none" stroke="black" d="M560.072,-296.884C538.018,-286.658 513.595,-275.335 491.029,-264.872"/>
<polygon fill="black" stroke="black" points="492.363,-261.633 481.818,-260.602 489.418,-267.984 492.363,-261.633"/>
</g>
<!-- 9 -->
<g id="node10" class="node"><title>9</title>
<polygon fill="#39e581" fill-opacity="0.623529" stroke="black" points="701.5,-261 561.5,-261 561.5,-193 701.5,-193 701.5,-261"/>
<text text-anchor="middle" x="631.5" y="-245.8" font-family="Times,serif" font-size="14.00">sim &lt;= 0.5</text>
<text text-anchor="middle" x="631.5" y="-230.8" font-family="Times,serif" font-size="14.00">gini = 0.398</text>
<text text-anchor="middle" x="631.5" y="-215.8" font-family="Times,serif" font-size="14.00">samples = 1785</text>
<text text-anchor="middle" x="631.5" y="-200.8" font-family="Times,serif" font-size="14.00">value = [0, 1296, 489]</text>
</g>
<!-- 1&#45;&gt;9 -->
<g id="edge9" class="edge"><title>1&#45;&gt;9</title>
<path fill="none" stroke="black" d="M631.5,-296.884C631.5,-288.778 631.5,-279.982 631.5,-271.472"/>
<polygon fill="black" stroke="black" points="635,-271.299 631.5,-261.299 628,-271.299 635,-271.299"/>
</g>
<!-- 3 -->
<g id="node4" class="node"><title>3</title>
<polygon fill="#8139e5" fill-opacity="0.996078" stroke="black" points="250,-157 131,-157 131,-89 250,-89 250,-157"/>
<text text-anchor="middle" x="190.5" y="-141.8" font-family="Times,serif" font-size="14.00">graph &lt;= 0.5</text>
<text text-anchor="middle" x="190.5" y="-126.8" font-family="Times,serif" font-size="14.00">gini = 0.007</text>
<text text-anchor="middle" x="190.5" y="-111.8" font-family="Times,serif" font-size="14.00">samples = 280</text>
<text text-anchor="middle" x="190.5" y="-96.8" font-family="Times,serif" font-size="14.00">value = [1, 0, 279]</text>
</g>
<!-- 2&#45;&gt;3 -->
<g id="edge3" class="edge"><title>2&#45;&gt;3</title>
<path fill="none" stroke="black" d="M341.271,-193.586C315.155,-181.533 285.563,-167.875 259.554,-155.871"/>
<polygon fill="black" stroke="black" points="260.693,-152.542 250.147,-151.529 257.759,-158.898 260.693,-152.542"/>
</g>
<!-- 6 -->
<g id="node7" class="node"><title>6</title>
<polygon fill="#8139e5" fill-opacity="0.419608" stroke="black" points="478,-157 345,-157 345,-89 478,-89 478,-157"/>
<text text-anchor="middle" x="411.5" y="-141.8" font-family="Times,serif" font-size="14.00">query &lt;= 1.5</text>
<text text-anchor="middle" x="411.5" y="-126.8" font-family="Times,serif" font-size="14.00">gini = 0.465</text>
<text text-anchor="middle" x="411.5" y="-111.8" font-family="Times,serif" font-size="14.00">samples = 1455</text>
<text text-anchor="middle" x="411.5" y="-96.8" font-family="Times,serif" font-size="14.00">value = [1, 534, 920]</text>
</g>
<!-- 2&#45;&gt;6 -->
<g id="edge6" class="edge"><title>2&#45;&gt;6</title>
<path fill="none" stroke="black" d="M411.5,-192.884C411.5,-184.778 411.5,-175.982 411.5,-167.472"/>
<polygon fill="black" stroke="black" points="415,-167.299 411.5,-157.299 408,-167.299 415,-167.299"/>
</g>
<!-- 4 -->
<g id="node5" class="node"><title>4</title>
<polygon fill="#8139e5" stroke="black" points="119,-53 0,-53 0,-0 119,-0 119,-53"/>
<text text-anchor="middle" x="59.5" y="-37.8" font-family="Times,serif" font-size="14.00">gini = 0.0</text>
<text text-anchor="middle" x="59.5" y="-22.8" font-family="Times,serif" font-size="14.00">samples = 276</text>
<text text-anchor="middle" x="59.5" y="-7.8" font-family="Times,serif" font-size="14.00">value = [0, 0, 276]</text>
</g>
<!-- 3&#45;&gt;4 -->
<g id="edge4" class="edge"><title>3&#45;&gt;4</title>
<path fill="none" stroke="black" d="M144.683,-88.9485C131.367,-79.3431 116.855,-68.8747 103.645,-59.345"/>
<polygon fill="black" stroke="black" points="105.335,-56.2486 95.1773,-53.2367 101.24,-61.9257 105.335,-56.2486"/>
</g>
<!-- 5 -->
<g id="node6" class="node"><title>5</title>
<polygon fill="#8139e5" fill-opacity="0.666667" stroke="black" points="243.5,-53 137.5,-53 137.5,-0 243.5,-0 243.5,-53"/>
<text text-anchor="middle" x="190.5" y="-37.8" font-family="Times,serif" font-size="14.00">gini = 0.375</text>
<text text-anchor="middle" x="190.5" y="-22.8" font-family="Times,serif" font-size="14.00">samples = 4</text>
<text text-anchor="middle" x="190.5" y="-7.8" font-family="Times,serif" font-size="14.00">value = [1, 0, 3]</text>
</g>
<!-- 3&#45;&gt;5 -->
<g id="edge5" class="edge"><title>3&#45;&gt;5</title>
<path fill="none" stroke="black" d="M190.5,-88.9485C190.5,-80.7153 190.5,-71.848 190.5,-63.4814"/>
<polygon fill="black" stroke="black" points="194,-63.2367 190.5,-53.2367 187,-63.2367 194,-63.2367"/>
</g>
<!-- 7 -->
<g id="node8" class="node"><title>7</title>
<polygon fill="#8139e5" fill-opacity="0.345098" stroke="black" points="395,-53 262,-53 262,-0 395,-0 395,-53"/>
<text text-anchor="middle" x="328.5" y="-37.8" font-family="Times,serif" font-size="14.00">gini = 0.479</text>
<text text-anchor="middle" x="328.5" y="-22.8" font-family="Times,serif" font-size="14.00">samples = 1209</text>
<text text-anchor="middle" x="328.5" y="-7.8" font-family="Times,serif" font-size="14.00">value = [1, 478, 730]</text>
</g>
<!-- 6&#45;&gt;7 -->
<g id="edge7" class="edge"><title>6&#45;&gt;7</title>
<path fill="none" stroke="black" d="M382.471,-88.9485C374.516,-79.892 365.888,-70.0682 357.912,-60.9875"/>
<polygon fill="black" stroke="black" points="360.334,-58.4405 351.105,-53.2367 355.074,-63.0599 360.334,-58.4405"/>
</g>
<!-- 8 -->
<g id="node9" class="node"><title>8</title>
<polygon fill="#8139e5" fill-opacity="0.705882" stroke="black" points="539.5,-53 413.5,-53 413.5,-0 539.5,-0 539.5,-53"/>
<text text-anchor="middle" x="476.5" y="-37.8" font-family="Times,serif" font-size="14.00">gini = 0.352</text>
<text text-anchor="middle" x="476.5" y="-22.8" font-family="Times,serif" font-size="14.00">samples = 246</text>
<text text-anchor="middle" x="476.5" y="-7.8" font-family="Times,serif" font-size="14.00">value = [0, 56, 190]</text>
</g>
<!-- 6&#45;&gt;8 -->
<g id="edge8" class="edge"><title>6&#45;&gt;8</title>
<path fill="none" stroke="black" d="M434.234,-88.9485C440.337,-80.0749 446.947,-70.4648 453.087,-61.5388"/>
<polygon fill="black" stroke="black" points="456.014,-63.4594 458.798,-53.2367 450.247,-59.4924 456.014,-63.4594"/>
</g>
<!-- 10 -->
<g id="node11" class="node"><title>10</title>
<polygon fill="#8139e5" stroke="black" points="622,-149.5 503,-149.5 503,-96.5 622,-96.5 622,-149.5"/>
<text text-anchor="middle" x="562.5" y="-134.3" font-family="Times,serif" font-size="14.00">gini = 0.0</text>
<text text-anchor="middle" x="562.5" y="-119.3" font-family="Times,serif" font-size="14.00">samples = 152</text>
<text text-anchor="middle" x="562.5" y="-104.3" font-family="Times,serif" font-size="14.00">value = [0, 0, 152]</text>
</g>
<!-- 9&#45;&gt;10 -->
<g id="edge10" class="edge"><title>9&#45;&gt;10</title>
<path fill="none" stroke="black" d="M609.098,-192.884C601.509,-181.666 593.027,-169.126 585.4,-157.852"/>
<polygon fill="black" stroke="black" points="588.266,-155.842 579.763,-149.52 582.468,-159.764 588.266,-155.842"/>
</g>
<!-- 11 -->
<g id="node12" class="node"><title>11</title>
<polygon fill="#39e581" fill-opacity="0.741176" stroke="black" points="780.5,-157 640.5,-157 640.5,-89 780.5,-89 780.5,-157"/>
<text text-anchor="middle" x="710.5" y="-141.8" font-family="Times,serif" font-size="14.00">optional &lt;= 1.5</text>
<text text-anchor="middle" x="710.5" y="-126.8" font-family="Times,serif" font-size="14.00">gini = 0.328</text>
<text text-anchor="middle" x="710.5" y="-111.8" font-family="Times,serif" font-size="14.00">samples = 1633</text>
<text text-anchor="middle" x="710.5" y="-96.8" font-family="Times,serif" font-size="14.00">value = [0, 1296, 337]</text>
</g>
<!-- 9&#45;&gt;11 -->
<g id="edge11" class="edge"><title>9&#45;&gt;11</title>
<path fill="none" stroke="black" d="M657.149,-192.884C663.979,-184.065 671.441,-174.43 678.563,-165.235"/>
<polygon fill="black" stroke="black" points="681.353,-167.349 684.709,-157.299 675.819,-163.062 681.353,-167.349"/>
</g>
<!-- 12 -->
<g id="node13" class="node"><title>12</title>
<polygon fill="#39e581" fill-opacity="0.447059" stroke="black" points="691,-53 558,-53 558,-0 691,-0 691,-53"/>
<text text-anchor="middle" x="624.5" y="-37.8" font-family="Times,serif" font-size="14.00">gini = 0.459</text>
<text text-anchor="middle" x="624.5" y="-22.8" font-family="Times,serif" font-size="14.00">samples = 457</text>
<text text-anchor="middle" x="624.5" y="-7.8" font-family="Times,serif" font-size="14.00">value = [0, 294, 163]</text>
</g>
<!-- 11&#45;&gt;12 -->
<g id="edge12" class="edge"><title>11&#45;&gt;12</title>
<path fill="none" stroke="black" d="M680.421,-88.9485C672.096,-79.8005 663.059,-69.8697 654.725,-60.7126"/>
<polygon fill="black" stroke="black" points="657.241,-58.2769 647.922,-53.2367 652.064,-62.9883 657.241,-58.2769"/>
</g>
<!-- 13 -->
<g id="node14" class="node"><title>13</title>
<polygon fill="#39e581" fill-opacity="0.827451" stroke="black" points="849.5,-53 709.5,-53 709.5,-0 849.5,-0 849.5,-53"/>
<text text-anchor="middle" x="779.5" y="-37.8" font-family="Times,serif" font-size="14.00">gini = 0.252</text>
<text text-anchor="middle" x="779.5" y="-22.8" font-family="Times,serif" font-size="14.00">samples = 1176</text>
<text text-anchor="middle" x="779.5" y="-7.8" font-family="Times,serif" font-size="14.00">value = [0, 1002, 174]</text>
</g>
<!-- 11&#45;&gt;13 -->
<g id="edge13" class="edge"><title>11&#45;&gt;13</title>
<path fill="none" stroke="black" d="M734.633,-88.9485C741.112,-80.0749 748.129,-70.4648 754.646,-61.5388"/>
<polygon fill="black" stroke="black" points="757.638,-63.3769 760.708,-53.2367 751.984,-59.249 757.638,-63.3769"/>
</g>
<!-- 15 -->
<g id="node16" class="node"><title>15</title>
<polygon fill="#8139e5" stroke="black" points="870.5,-253.5 744.5,-253.5 744.5,-200.5 870.5,-200.5 870.5,-253.5"/>
<text text-anchor="middle" x="807.5" y="-238.3" font-family="Times,serif" font-size="14.00">gini = 0.0</text>
<text text-anchor="middle" x="807.5" y="-223.3" font-family="Times,serif" font-size="14.00">samples = 2372</text>
<text text-anchor="middle" x="807.5" y="-208.3" font-family="Times,serif" font-size="14.00">value = [0, 0, 2372]</text>
</g>
<!-- 14&#45;&gt;15 -->
<g id="edge15" class="edge"><title>14&#45;&gt;15</title>
<path fill="none" stroke="black" d="M807.5,-296.884C807.5,-286.326 807.5,-274.597 807.5,-263.854"/>
<polygon fill="black" stroke="black" points="811,-263.52 807.5,-253.52 804,-263.52 811,-263.52"/>
</g>
<!-- 16 -->
<g id="node17" class="node"><title>16</title>
<polygon fill="#e58139" fill-opacity="0.117647" stroke="black" points="1051,-261 920,-261 920,-193 1051,-193 1051,-261"/>
<text text-anchor="middle" x="985.5" y="-245.8" font-family="Times,serif" font-size="14.00">triplePattern &lt;= 21.5</text>
<text text-anchor="middle" x="985.5" y="-230.8" font-family="Times,serif" font-size="14.00">gini = 0.658</text>
<text text-anchor="middle" x="985.5" y="-215.8" font-family="Times,serif" font-size="14.00">samples = 149</text>
<text text-anchor="middle" x="985.5" y="-200.8" font-family="Times,serif" font-size="14.00">value = [60, 48, 41]</text>
</g>
<!-- 14&#45;&gt;16 -->
<g id="edge16" class="edge"><title>14&#45;&gt;16</title>
<path fill="none" stroke="black" d="M865.291,-296.884C882.321,-287.125 901.096,-276.366 918.645,-266.31"/>
<polygon fill="black" stroke="black" points="920.758,-269.133 927.694,-261.125 917.277,-263.06 920.758,-269.133"/>
</g>
<!-- 17 -->
<g id="node18" class="node"><title>17</title>
<polygon fill="#e58139" fill-opacity="0.145098" stroke="black" points="1045,-157 926,-157 926,-89 1045,-89 1045,-157"/>
<text text-anchor="middle" x="985.5" y="-141.8" font-family="Times,serif" font-size="14.00">filter_in &lt;= 1.5</text>
<text text-anchor="middle" x="985.5" y="-126.8" font-family="Times,serif" font-size="14.00">gini = 0.497</text>
<text text-anchor="middle" x="985.5" y="-111.8" font-family="Times,serif" font-size="14.00">samples = 89</text>
<text text-anchor="middle" x="985.5" y="-96.8" font-family="Times,serif" font-size="14.00">value = [48, 0, 41]</text>
</g>
<!-- 16&#45;&gt;17 -->
<g id="edge17" class="edge"><title>16&#45;&gt;17</title>
<path fill="none" stroke="black" d="M985.5,-192.884C985.5,-184.778 985.5,-175.982 985.5,-167.472"/>
<polygon fill="black" stroke="black" points="989,-167.299 985.5,-157.299 982,-167.299 989,-167.299"/>
</g>
<!-- 20 -->
<g id="node21" class="node"><title>20</title>
<polygon fill="#39e581" fill-opacity="0.749020" stroke="black" points="1243,-157 1124,-157 1124,-89 1243,-89 1243,-157"/>
<text text-anchor="middle" x="1183.5" y="-141.8" font-family="Times,serif" font-size="14.00">filter &lt;= 17.5</text>
<text text-anchor="middle" x="1183.5" y="-126.8" font-family="Times,serif" font-size="14.00">gini = 0.32</text>
<text text-anchor="middle" x="1183.5" y="-111.8" font-family="Times,serif" font-size="14.00">samples = 60</text>
<text text-anchor="middle" x="1183.5" y="-96.8" font-family="Times,serif" font-size="14.00">value = [12, 48, 0]</text>
</g>
<!-- 16&#45;&gt;20 -->
<g id="edge20" class="edge"><title>16&#45;&gt;20</title>
<path fill="none" stroke="black" d="M1049.78,-192.884C1070.63,-182.144 1093.83,-170.193 1114.98,-159.3"/>
<polygon fill="black" stroke="black" points="1116.61,-162.394 1123.9,-154.703 1113.41,-156.172 1116.61,-162.394"/>
</g>
<!-- 18 -->
<g id="node19" class="node"><title>18</title>
<polygon fill="#e58139" stroke="black" points="981,-53 868,-53 868,-0 981,-0 981,-53"/>
<text text-anchor="middle" x="924.5" y="-37.8" font-family="Times,serif" font-size="14.00">gini = 0.0</text>
<text text-anchor="middle" x="924.5" y="-22.8" font-family="Times,serif" font-size="14.00">samples = 42</text>
<text text-anchor="middle" x="924.5" y="-7.8" font-family="Times,serif" font-size="14.00">value = [42, 0, 0]</text>
</g>
<!-- 17&#45;&gt;18 -->
<g id="edge18" class="edge"><title>17&#45;&gt;18</title>
<path fill="none" stroke="black" d="M964.165,-88.9485C958.496,-80.1664 952.362,-70.6629 946.65,-61.815"/>
<polygon fill="black" stroke="black" points="949.477,-59.7402 941.113,-53.2367 943.596,-63.5365 949.477,-59.7402"/>
</g>
<!-- 19 -->
<g id="node20" class="node"><title>19</title>
<polygon fill="#8139e5" fill-opacity="0.854902" stroke="black" points="1112,-53 999,-53 999,-0 1112,-0 1112,-53"/>
<text text-anchor="middle" x="1055.5" y="-37.8" font-family="Times,serif" font-size="14.00">gini = 0.223</text>
<text text-anchor="middle" x="1055.5" y="-22.8" font-family="Times,serif" font-size="14.00">samples = 47</text>
<text text-anchor="middle" x="1055.5" y="-7.8" font-family="Times,serif" font-size="14.00">value = [6, 0, 41]</text>
</g>
<!-- 17&#45;&gt;19 -->
<g id="edge19" class="edge"><title>17&#45;&gt;19</title>
<path fill="none" stroke="black" d="M1009.98,-88.9485C1016.56,-80.0749 1023.67,-70.4648 1030.29,-61.5388"/>
<polygon fill="black" stroke="black" points="1033.3,-63.3556 1036.44,-53.2367 1027.67,-59.189 1033.3,-63.3556"/>
</g>
<!-- 21 -->
<g id="node22" class="node"><title>21</title>
<polygon fill="#e58139" stroke="black" points="1236.5,-53 1130.5,-53 1130.5,-0 1236.5,-0 1236.5,-53"/>
<text text-anchor="middle" x="1183.5" y="-37.8" font-family="Times,serif" font-size="14.00">gini = 0.0</text>
<text text-anchor="middle" x="1183.5" y="-22.8" font-family="Times,serif" font-size="14.00">samples = 6</text>
<text text-anchor="middle" x="1183.5" y="-7.8" font-family="Times,serif" font-size="14.00">value = [6, 0, 0]</text>
</g>
<!-- 20&#45;&gt;21 -->
<g id="edge21" class="edge"><title>20&#45;&gt;21</title>
<path fill="none" stroke="black" d="M1183.5,-88.9485C1183.5,-80.7153 1183.5,-71.848 1183.5,-63.4814"/>
<polygon fill="black" stroke="black" points="1187,-63.2367 1183.5,-53.2367 1180,-63.2367 1187,-63.2367"/>
</g>
<!-- 22 -->
<g id="node23" class="node"><title>22</title>
<polygon fill="#39e581" fill-opacity="0.874510" stroke="black" points="1368,-53 1255,-53 1255,-0 1368,-0 1368,-53"/>
<text text-anchor="middle" x="1311.5" y="-37.8" font-family="Times,serif" font-size="14.00">gini = 0.198</text>
<text text-anchor="middle" x="1311.5" y="-22.8" font-family="Times,serif" font-size="14.00">samples = 54</text>
<text text-anchor="middle" x="1311.5" y="-7.8" font-family="Times,serif" font-size="14.00">value = [6, 48, 0]</text>
</g>
<!-- 20&#45;&gt;22 -->
<g id="edge22" class="edge"><title>20&#45;&gt;22</title>
<path fill="none" stroke="black" d="M1228.27,-88.9485C1241.28,-79.3431 1255.46,-68.8747 1268.37,-59.345"/>
<polygon fill="black" stroke="black" points="1270.67,-61.992 1276.64,-53.2367 1266.52,-56.3605 1270.67,-61.992"/>
</g>
</g>
</svg>
