<?xml version="1.0" encoding="UTF-8" standalone="no"?>
<!DOCTYPE svg PUBLIC "-//W3C//DTD SVG 1.1//EN"
 "http://www.w3.org/Graphics/SVG/1.1/DTD/svg11.dtd">
<!-- Generated by graphviz version 2.38.0 (20140413.2041)
 -->
<!-- Title: Tree Pages: 1 -->
<svg width="1571pt" height="477pt"
 viewBox="0.00 0.00 1571.00 477.00" xmlns="http://www.w3.org/2000/svg" xmlns:xlink="http://www.w3.org/1999/xlink">
<g id="graph0" class="graph" transform="scale(1 1) rotate(0) translate(4 473)">
<title>Tree</title>
<polygon fill="white" stroke="none" points="-4,4 -4,-473 1567,-473 1567,4 -4,4"/>
<!-- 0 -->
<g id="node1" class="node"><title>0</title>
<polygon fill="#399de5" fill-opacity="0.537255" stroke="black" points="1058.5,-469 919.5,-469 919.5,-401 1058.5,-401 1058.5,-469"/>
<text text-anchor="middle" x="989" y="-453.8" font-family="Times,serif" font-size="14.00">sim &lt;= 2.5</text>
<text text-anchor="middle" x="989" y="-438.8" font-family="Times,serif" font-size="14.00">gini = 0.433</text>
<text text-anchor="middle" x="989" y="-423.8" font-family="Times,serif" font-size="14.00">samples = 19099</text>
<text text-anchor="middle" x="989" y="-408.8" font-family="Times,serif" font-size="14.00">value = [6041, 13058]</text>
</g>
<!-- 1 -->
<g id="node2" class="node"><title>1</title>
<polygon fill="#e58139" fill-opacity="0.003922" stroke="black" points="885,-365 753,-365 753,-297 885,-297 885,-365"/>
<text text-anchor="middle" x="819" y="-349.8" font-family="Times,serif" font-size="14.00">query &lt;= 1.5</text>
<text text-anchor="middle" x="819" y="-334.8" font-family="Times,serif" font-size="14.00">gini = 0.5</text>
<text text-anchor="middle" x="819" y="-319.8" font-family="Times,serif" font-size="14.00">samples = 11761</text>
<text text-anchor="middle" x="819" y="-304.8" font-family="Times,serif" font-size="14.00">value = [5892, 5869]</text>
</g>
<!-- 0&#45;&gt;1 -->
<g id="edge1" class="edge"><title>0&#45;&gt;1</title>
<path fill="none" stroke="black" d="M933.806,-400.884C917.542,-391.125 899.61,-380.366 882.85,-370.31"/>
<polygon fill="black" stroke="black" points="884.584,-367.269 874.208,-365.125 880.982,-373.271 884.584,-367.269"/>
<text text-anchor="middle" x="880.271" y="-385.678" font-family="Times,serif" font-size="14.00">True</text>
</g>
<!-- 16 -->
<g id="node17" class="node"><title>16</title>
<polygon fill="#399de5" fill-opacity="0.980392" stroke="black" points="1275.5,-365 1144.5,-365 1144.5,-297 1275.5,-297 1275.5,-365"/>
<text text-anchor="middle" x="1210" y="-349.8" font-family="Times,serif" font-size="14.00">triplePattern &lt;= 36.0</text>
<text text-anchor="middle" x="1210" y="-334.8" font-family="Times,serif" font-size="14.00">gini = 0.04</text>
<text text-anchor="middle" x="1210" y="-319.8" font-family="Times,serif" font-size="14.00">samples = 7338</text>
<text text-anchor="middle" x="1210" y="-304.8" font-family="Times,serif" font-size="14.00">value = [149, 7189]</text>
</g>
<!-- 0&#45;&gt;16 -->
<g id="edge16" class="edge"><title>0&#45;&gt;16</title>
<path fill="none" stroke="black" d="M1058.62,-401.867C1082.97,-390.63 1110.39,-377.972 1135.15,-366.547"/>
<polygon fill="black" stroke="black" points="1136.88,-369.603 1144.49,-362.234 1133.95,-363.247 1136.88,-369.603"/>
<text text-anchor="middle" x="1135.85" y="-381.993" font-family="Times,serif" font-size="14.00">False</text>
</g>
<!-- 2 -->
<g id="node3" class="node"><title>2</title>
<polygon fill="#399de5" fill-opacity="0.407843" stroke="black" points="481,-261 349,-261 349,-193 481,-193 481,-261"/>
<text text-anchor="middle" x="415" y="-245.8" font-family="Times,serif" font-size="14.00">sim &lt;= 1.5</text>
<text text-anchor="middle" x="415" y="-230.8" font-family="Times,serif" font-size="14.00">gini = 0.467</text>
<text text-anchor="middle" x="415" y="-215.8" font-family="Times,serif" font-size="14.00">samples = 7812</text>
<text text-anchor="middle" x="415" y="-200.8" font-family="Times,serif" font-size="14.00">value = [2910, 4902]</text>
</g>
<!-- 1&#45;&gt;2 -->
<g id="edge2" class="edge"><title>1&#45;&gt;2</title>
<path fill="none" stroke="black" d="M752.74,-313.271C680.971,-295.151 566.654,-266.289 491.215,-247.242"/>
<polygon fill="black" stroke="black" points="491.849,-243.793 481.296,-244.738 490.135,-250.58 491.849,-243.793"/>
</g>
<!-- 9 -->
<g id="node10" class="node"><title>9</title>
<polygon fill="#e58139" fill-opacity="0.674510" stroke="black" points="881.5,-261 756.5,-261 756.5,-193 881.5,-193 881.5,-261"/>
<text text-anchor="middle" x="819" y="-245.8" font-family="Times,serif" font-size="14.00">optional &lt;= 1.5</text>
<text text-anchor="middle" x="819" y="-230.8" font-family="Times,serif" font-size="14.00">gini = 0.37</text>
<text text-anchor="middle" x="819" y="-215.8" font-family="Times,serif" font-size="14.00">samples = 3949</text>
<text text-anchor="middle" x="819" y="-200.8" font-family="Times,serif" font-size="14.00">value = [2982, 967]</text>
</g>
<!-- 1&#45;&gt;9 -->
<g id="edge9" class="edge"><title>1&#45;&gt;9</title>
<path fill="none" stroke="black" d="M819,-296.884C819,-288.778 819,-279.982 819,-271.472"/>
<polygon fill="black" stroke="black" points="822.5,-271.299 819,-261.299 815.5,-271.299 822.5,-271.299"/>
</g>
<!-- 3 -->
<g id="node4" class="node"><title>3</title>
<polygon fill="#399de5" fill-opacity="0.600000" stroke="black" points="262,-157 130,-157 130,-89 262,-89 262,-157"/>
<text text-anchor="middle" x="196" y="-141.8" font-family="Times,serif" font-size="14.00">sim &lt;= 0.5</text>
<text text-anchor="middle" x="196" y="-126.8" font-family="Times,serif" font-size="14.00">gini = 0.408</text>
<text text-anchor="middle" x="196" y="-111.8" font-family="Times,serif" font-size="14.00">samples = 5172</text>
<text text-anchor="middle" x="196" y="-96.8" font-family="Times,serif" font-size="14.00">value = [1474, 3698]</text>
</g>
<!-- 2&#45;&gt;3 -->
<g id="edge3" class="edge"><title>2&#45;&gt;3</title>
<path fill="none" stroke="black" d="M348.996,-195.258C324.543,-183.869 296.635,-170.871 271.408,-159.122"/>
<polygon fill="black" stroke="black" points="272.79,-155.904 262.247,-154.855 269.834,-162.25 272.79,-155.904"/>
</g>
<!-- 6 -->
<g id="node7" class="node"><title>6</title>
<polygon fill="#e58139" fill-opacity="0.160784" stroke="black" points="481,-157 349,-157 349,-89 481,-89 481,-157"/>
<text text-anchor="middle" x="415" y="-141.8" font-family="Times,serif" font-size="14.00">count &lt;= 0.5</text>
<text text-anchor="middle" x="415" y="-126.8" font-family="Times,serif" font-size="14.00">gini = 0.496</text>
<text text-anchor="middle" x="415" y="-111.8" font-family="Times,serif" font-size="14.00">samples = 2640</text>
<text text-anchor="middle" x="415" y="-96.8" font-family="Times,serif" font-size="14.00">value = [1436, 1204]</text>
</g>
<!-- 2&#45;&gt;6 -->
<g id="edge6" class="edge"><title>2&#45;&gt;6</title>
<path fill="none" stroke="black" d="M415,-192.884C415,-184.778 415,-175.982 415,-167.472"/>
<polygon fill="black" stroke="black" points="418.5,-167.299 415,-157.299 411.5,-167.299 418.5,-167.299"/>
</g>
<!-- 4 -->
<g id="node5" class="node"><title>4</title>
<polygon fill="#e58139" fill-opacity="0.890196" stroke="black" points="112,-53 0,-53 0,-0 112,-0 112,-53"/>
<text text-anchor="middle" x="56" y="-37.8" font-family="Times,serif" font-size="14.00">gini = 0.178</text>
<text text-anchor="middle" x="56" y="-22.8" font-family="Times,serif" font-size="14.00">samples = 294</text>
<text text-anchor="middle" x="56" y="-7.8" font-family="Times,serif" font-size="14.00">value = [265, 29]</text>
</g>
<!-- 3&#45;&gt;4 -->
<g id="edge4" class="edge"><title>3&#45;&gt;4</title>
<path fill="none" stroke="black" d="M147.035,-88.9485C132.669,-79.2516 117,-68.6752 102.775,-59.073"/>
<polygon fill="black" stroke="black" points="104.375,-55.9305 94.1285,-53.2367 100.459,-61.7325 104.375,-55.9305"/>
</g>
<!-- 5 -->
<g id="node6" class="node"><title>5</title>
<polygon fill="#399de5" fill-opacity="0.670588" stroke="black" points="262,-53 130,-53 130,-0 262,-0 262,-53"/>
<text text-anchor="middle" x="196" y="-37.8" font-family="Times,serif" font-size="14.00">gini = 0.373</text>
<text text-anchor="middle" x="196" y="-22.8" font-family="Times,serif" font-size="14.00">samples = 4878</text>
<text text-anchor="middle" x="196" y="-7.8" font-family="Times,serif" font-size="14.00">value = [1209, 3669]</text>
</g>
<!-- 3&#45;&gt;5 -->
<g id="edge5" class="edge"><title>3&#45;&gt;5</title>
<path fill="none" stroke="black" d="M196,-88.9485C196,-80.7153 196,-71.848 196,-63.4814"/>
<polygon fill="black" stroke="black" points="199.5,-63.2367 196,-53.2367 192.5,-63.2367 199.5,-63.2367"/>
</g>
<!-- 7 -->
<g id="node8" class="node"><title>7</title>
<polygon fill="#399de5" fill-opacity="0.050980" stroke="black" points="405.5,-53 280.5,-53 280.5,-0 405.5,-0 405.5,-53"/>
<text text-anchor="middle" x="343" y="-37.8" font-family="Times,serif" font-size="14.00">gini = 0.5</text>
<text text-anchor="middle" x="343" y="-22.8" font-family="Times,serif" font-size="14.00">samples = 2007</text>
<text text-anchor="middle" x="343" y="-7.8" font-family="Times,serif" font-size="14.00">value = [977, 1030]</text>
</g>
<!-- 6&#45;&gt;7 -->
<g id="edge7" class="edge"><title>6&#45;&gt;7</title>
<path fill="none" stroke="black" d="M389.818,-88.9485C382.987,-79.9834 375.584,-70.2666 368.724,-61.2629"/>
<polygon fill="black" stroke="black" points="371.453,-59.0699 362.609,-53.2367 365.885,-63.3122 371.453,-59.0699"/>
</g>
<!-- 8 -->
<g id="node9" class="node"><title>8</title>
<polygon fill="#e58139" fill-opacity="0.619608" stroke="black" points="542.5,-53 423.5,-53 423.5,-0 542.5,-0 542.5,-53"/>
<text text-anchor="middle" x="483" y="-37.8" font-family="Times,serif" font-size="14.00">gini = 0.399</text>
<text text-anchor="middle" x="483" y="-22.8" font-family="Times,serif" font-size="14.00">samples = 633</text>
<text text-anchor="middle" x="483" y="-7.8" font-family="Times,serif" font-size="14.00">value = [459, 174]</text>
</g>
<!-- 6&#45;&gt;8 -->
<g id="edge8" class="edge"><title>6&#45;&gt;8</title>
<path fill="none" stroke="black" d="M438.783,-88.9485C445.168,-80.0749 452.084,-70.4648 458.507,-61.5388"/>
<polygon fill="black" stroke="black" points="461.481,-63.398 464.48,-53.2367 455.799,-59.3094 461.481,-63.398"/>
</g>
<!-- 10 -->
<g id="node11" class="node"><title>10</title>
<polygon fill="#e58139" fill-opacity="0.192157" stroke="black" points="808.5,-157 689.5,-157 689.5,-89 808.5,-89 808.5,-157"/>
<text text-anchor="middle" x="749" y="-141.8" font-family="Times,serif" font-size="14.00">filter_in &lt;= 3.0</text>
<text text-anchor="middle" x="749" y="-126.8" font-family="Times,serif" font-size="14.00">gini = 0.494</text>
<text text-anchor="middle" x="749" y="-111.8" font-family="Times,serif" font-size="14.00">samples = 1775</text>
<text text-anchor="middle" x="749" y="-96.8" font-family="Times,serif" font-size="14.00">value = [981, 794]</text>
</g>
<!-- 9&#45;&gt;10 -->
<g id="edge10" class="edge"><title>9&#45;&gt;10</title>
<path fill="none" stroke="black" d="M796.273,-192.884C790.343,-184.243 783.876,-174.819 777.681,-165.793"/>
<polygon fill="black" stroke="black" points="780.397,-163.564 771.853,-157.299 774.625,-167.525 780.397,-163.564"/>
</g>
<!-- 13 -->
<g id="node14" class="node"><title>13</title>
<polygon fill="#e58139" fill-opacity="0.913725" stroke="black" points="951.5,-157 826.5,-157 826.5,-89 951.5,-89 951.5,-157"/>
<text text-anchor="middle" x="889" y="-141.8" font-family="Times,serif" font-size="14.00">sim &lt;= 1.5</text>
<text text-anchor="middle" x="889" y="-126.8" font-family="Times,serif" font-size="14.00">gini = 0.146</text>
<text text-anchor="middle" x="889" y="-111.8" font-family="Times,serif" font-size="14.00">samples = 2174</text>
<text text-anchor="middle" x="889" y="-96.8" font-family="Times,serif" font-size="14.00">value = [2001, 173]</text>
</g>
<!-- 9&#45;&gt;13 -->
<g id="edge13" class="edge"><title>9&#45;&gt;13</title>
<path fill="none" stroke="black" d="M841.727,-192.884C847.657,-184.243 854.124,-174.819 860.319,-165.793"/>
<polygon fill="black" stroke="black" points="863.375,-167.525 866.147,-157.299 857.603,-163.564 863.375,-167.525"/>
</g>
<!-- 11 -->
<g id="node12" class="node"><title>11</title>
<polygon fill="#399de5" fill-opacity="0.101961" stroke="black" points="679.5,-53 560.5,-53 560.5,-0 679.5,-0 679.5,-53"/>
<text text-anchor="middle" x="620" y="-37.8" font-family="Times,serif" font-size="14.00">gini = 0.499</text>
<text text-anchor="middle" x="620" y="-22.8" font-family="Times,serif" font-size="14.00">samples = 1485</text>
<text text-anchor="middle" x="620" y="-7.8" font-family="Times,serif" font-size="14.00">value = [702, 783]</text>
</g>
<!-- 10&#45;&gt;11 -->
<g id="edge11" class="edge"><title>10&#45;&gt;11</title>
<path fill="none" stroke="black" d="M703.882,-88.9485C690.77,-79.3431 676.48,-68.8747 663.471,-59.345"/>
<polygon fill="black" stroke="black" points="665.268,-56.3228 655.133,-53.2367 661.131,-61.9698 665.268,-56.3228"/>
</g>
<!-- 12 -->
<g id="node13" class="node"><title>12</title>
<polygon fill="#e58139" fill-opacity="0.960784" stroke="black" points="810,-53 698,-53 698,-0 810,-0 810,-53"/>
<text text-anchor="middle" x="754" y="-37.8" font-family="Times,serif" font-size="14.00">gini = 0.073</text>
<text text-anchor="middle" x="754" y="-22.8" font-family="Times,serif" font-size="14.00">samples = 290</text>
<text text-anchor="middle" x="754" y="-7.8" font-family="Times,serif" font-size="14.00">value = [279, 11]</text>
</g>
<!-- 10&#45;&gt;12 -->
<g id="edge12" class="edge"><title>10&#45;&gt;12</title>
<path fill="none" stroke="black" d="M750.749,-88.9485C751.184,-80.7153 751.654,-71.848 752.096,-63.4814"/>
<polygon fill="black" stroke="black" points="755.605,-63.4077 752.638,-53.2367 748.615,-63.0378 755.605,-63.4077"/>
</g>
<!-- 14 -->
<g id="node15" class="node"><title>14</title>
<polygon fill="#e58139" fill-opacity="0.996078" stroke="black" points="940,-53 828,-53 828,-0 940,-0 940,-53"/>
<text text-anchor="middle" x="884" y="-37.8" font-family="Times,serif" font-size="14.00">gini = 0.004</text>
<text text-anchor="middle" x="884" y="-22.8" font-family="Times,serif" font-size="14.00">samples = 1450</text>
<text text-anchor="middle" x="884" y="-7.8" font-family="Times,serif" font-size="14.00">value = [1447, 3]</text>
</g>
<!-- 13&#45;&gt;14 -->
<g id="edge14" class="edge"><title>13&#45;&gt;14</title>
<path fill="none" stroke="black" d="M887.251,-88.9485C886.816,-80.7153 886.346,-71.848 885.904,-63.4814"/>
<polygon fill="black" stroke="black" points="889.385,-63.0378 885.362,-53.2367 882.395,-63.4077 889.385,-63.0378"/>
</g>
<!-- 15 -->
<g id="node16" class="node"><title>15</title>
<polygon fill="#e58139" fill-opacity="0.694118" stroke="black" points="1077.5,-53 958.5,-53 958.5,-0 1077.5,-0 1077.5,-53"/>
<text text-anchor="middle" x="1018" y="-37.8" font-family="Times,serif" font-size="14.00">gini = 0.359</text>
<text text-anchor="middle" x="1018" y="-22.8" font-family="Times,serif" font-size="14.00">samples = 724</text>
<text text-anchor="middle" x="1018" y="-7.8" font-family="Times,serif" font-size="14.00">value = [554, 170]</text>
</g>
<!-- 13&#45;&gt;15 -->
<g id="edge15" class="edge"><title>13&#45;&gt;15</title>
<path fill="none" stroke="black" d="M934.118,-88.9485C947.23,-79.3431 961.52,-68.8747 974.529,-59.345"/>
<polygon fill="black" stroke="black" points="976.869,-61.9698 982.867,-53.2367 972.732,-56.3228 976.869,-61.9698"/>
</g>
<!-- 17 -->
<g id="node18" class="node"><title>17</title>
<polygon fill="#399de5" fill-opacity="0.980392" stroke="black" points="1272.5,-261 1147.5,-261 1147.5,-193 1272.5,-193 1272.5,-261"/>
<text text-anchor="middle" x="1210" y="-245.8" font-family="Times,serif" font-size="14.00">optional &lt;= 5.5</text>
<text text-anchor="middle" x="1210" y="-230.8" font-family="Times,serif" font-size="14.00">gini = 0.035</text>
<text text-anchor="middle" x="1210" y="-215.8" font-family="Times,serif" font-size="14.00">samples = 7320</text>
<text text-anchor="middle" x="1210" y="-200.8" font-family="Times,serif" font-size="14.00">value = [131, 7189]</text>
</g>
<!-- 16&#45;&gt;17 -->
<g id="edge17" class="edge"><title>16&#45;&gt;17</title>
<path fill="none" stroke="black" d="M1210,-296.884C1210,-288.778 1210,-279.982 1210,-271.472"/>
<polygon fill="black" stroke="black" points="1213.5,-271.299 1210,-261.299 1206.5,-271.299 1213.5,-271.299"/>
</g>
<!-- 24 -->
<g id="node25" class="node"><title>24</title>
<polygon fill="#e58139" stroke="black" points="1389,-253.5 1291,-253.5 1291,-200.5 1389,-200.5 1389,-253.5"/>
<text text-anchor="middle" x="1340" y="-238.3" font-family="Times,serif" font-size="14.00">gini = 0.0</text>
<text text-anchor="middle" x="1340" y="-223.3" font-family="Times,serif" font-size="14.00">samples = 18</text>
<text text-anchor="middle" x="1340" y="-208.3" font-family="Times,serif" font-size="14.00">value = [18, 0]</text>
</g>
<!-- 16&#45;&gt;24 -->
<g id="edge24" class="edge"><title>16&#45;&gt;24</title>
<path fill="none" stroke="black" d="M1252.21,-296.884C1267.35,-285.006 1284.37,-271.646 1299.37,-259.876"/>
<polygon fill="black" stroke="black" points="1301.77,-262.446 1307.47,-253.52 1297.45,-256.939 1301.77,-262.446"/>
</g>
<!-- 18 -->
<g id="node19" class="node"><title>18</title>
<polygon fill="#399de5" fill-opacity="0.984314" stroke="black" points="1272.5,-157 1147.5,-157 1147.5,-89 1272.5,-89 1272.5,-157"/>
<text text-anchor="middle" x="1210" y="-141.8" font-family="Times,serif" font-size="14.00">graph &lt;= 0.5</text>
<text text-anchor="middle" x="1210" y="-126.8" font-family="Times,serif" font-size="14.00">gini = 0.027</text>
<text text-anchor="middle" x="1210" y="-111.8" font-family="Times,serif" font-size="14.00">samples = 7254</text>
<text text-anchor="middle" x="1210" y="-96.8" font-family="Times,serif" font-size="14.00">value = [101, 7153]</text>
</g>
<!-- 17&#45;&gt;18 -->
<g id="edge18" class="edge"><title>17&#45;&gt;18</title>
<path fill="none" stroke="black" d="M1210,-192.884C1210,-184.778 1210,-175.982 1210,-167.472"/>
<polygon fill="black" stroke="black" points="1213.5,-167.299 1210,-157.299 1206.5,-167.299 1213.5,-167.299"/>
</g>
<!-- 21 -->
<g id="node22" class="node"><title>21</title>
<polygon fill="#399de5" fill-opacity="0.164706" stroke="black" points="1450.5,-157 1345.5,-157 1345.5,-89 1450.5,-89 1450.5,-157"/>
<text text-anchor="middle" x="1398" y="-141.8" font-family="Times,serif" font-size="14.00">count &lt;= 0.5</text>
<text text-anchor="middle" x="1398" y="-126.8" font-family="Times,serif" font-size="14.00">gini = 0.496</text>
<text text-anchor="middle" x="1398" y="-111.8" font-family="Times,serif" font-size="14.00">samples = 66</text>
<text text-anchor="middle" x="1398" y="-96.8" font-family="Times,serif" font-size="14.00">value = [30, 36]</text>
</g>
<!-- 17&#45;&gt;21 -->
<g id="edge21" class="edge"><title>17&#45;&gt;21</title>
<path fill="none" stroke="black" d="M1271.04,-192.884C1292.05,-181.482 1315.58,-168.715 1336.62,-157.299"/>
<polygon fill="black" stroke="black" points="1338.35,-160.343 1345.48,-152.497 1335.02,-154.19 1338.35,-160.343"/>
</g>
<!-- 19 -->
<g id="node20" class="node"><title>19</title>
<polygon fill="#399de5" fill-opacity="0.988235" stroke="black" points="1214.5,-53 1095.5,-53 1095.5,-0 1214.5,-0 1214.5,-53"/>
<text text-anchor="middle" x="1155" y="-37.8" font-family="Times,serif" font-size="14.00">gini = 0.021</text>
<text text-anchor="middle" x="1155" y="-22.8" font-family="Times,serif" font-size="14.00">samples = 7224</text>
<text text-anchor="middle" x="1155" y="-7.8" font-family="Times,serif" font-size="14.00">value = [77, 7147]</text>
</g>
<!-- 18&#45;&gt;19 -->
<g id="edge19" class="edge"><title>18&#45;&gt;19</title>
<path fill="none" stroke="black" d="M1190.76,-88.9485C1185.71,-80.2579 1180.24,-70.8608 1175.13,-62.0917"/>
<polygon fill="black" stroke="black" points="1178.03,-60.1189 1169.98,-53.2367 1171.98,-63.6401 1178.03,-60.1189"/>
</g>
<!-- 20 -->
<g id="node21" class="node"><title>20</title>
<polygon fill="#e58139" fill-opacity="0.749020" stroke="black" points="1331,-53 1233,-53 1233,-0 1331,-0 1331,-53"/>
<text text-anchor="middle" x="1282" y="-37.8" font-family="Times,serif" font-size="14.00">gini = 0.32</text>
<text text-anchor="middle" x="1282" y="-22.8" font-family="Times,serif" font-size="14.00">samples = 30</text>
<text text-anchor="middle" x="1282" y="-7.8" font-family="Times,serif" font-size="14.00">value = [24, 6]</text>
</g>
<!-- 18&#45;&gt;20 -->
<g id="edge20" class="edge"><title>18&#45;&gt;20</title>
<path fill="none" stroke="black" d="M1235.18,-88.9485C1242.01,-79.9834 1249.42,-70.2666 1256.28,-61.2629"/>
<polygon fill="black" stroke="black" points="1259.11,-63.3122 1262.39,-53.2367 1253.55,-59.0699 1259.11,-63.3122"/>
</g>
<!-- 22 -->
<g id="node23" class="node"><title>22</title>
<polygon fill="#399de5" stroke="black" points="1447,-53 1349,-53 1349,-0 1447,-0 1447,-53"/>
<text text-anchor="middle" x="1398" y="-37.8" font-family="Times,serif" font-size="14.00">gini = 0.0</text>
<text text-anchor="middle" x="1398" y="-22.8" font-family="Times,serif" font-size="14.00">samples = 36</text>
<text text-anchor="middle" x="1398" y="-7.8" font-family="Times,serif" font-size="14.00">value = [0, 36]</text>
</g>
<!-- 21&#45;&gt;22 -->
<g id="edge22" class="edge"><title>21&#45;&gt;22</title>
<path fill="none" stroke="black" d="M1398,-88.9485C1398,-80.7153 1398,-71.848 1398,-63.4814"/>
<polygon fill="black" stroke="black" points="1401.5,-63.2367 1398,-53.2367 1394.5,-63.2367 1401.5,-63.2367"/>
</g>
<!-- 23 -->
<g id="node24" class="node"><title>23</title>
<polygon fill="#e58139" stroke="black" points="1563,-53 1465,-53 1465,-0 1563,-0 1563,-53"/>
<text text-anchor="middle" x="1514" y="-37.8" font-family="Times,serif" font-size="14.00">gini = 0.0</text>
<text text-anchor="middle" x="1514" y="-22.8" font-family="Times,serif" font-size="14.00">samples = 30</text>
<text text-anchor="middle" x="1514" y="-7.8" font-family="Times,serif" font-size="14.00">value = [30, 0]</text>
</g>
<!-- 21&#45;&gt;23 -->
<g id="edge23" class="edge"><title>21&#45;&gt;23</title>
<path fill="none" stroke="black" d="M1438.57,-88.9485C1450.25,-79.4346 1462.97,-69.074 1474.58,-59.6175"/>
<polygon fill="black" stroke="black" points="1476.87,-62.2663 1482.41,-53.2367 1472.44,-56.8392 1476.87,-62.2663"/>
</g>
</g>
</svg>
