<?xml version="1.0" encoding="UTF-8" standalone="no"?>
<!DOCTYPE svg PUBLIC "-//W3C//DTD SVG 1.1//EN"
 "http://www.w3.org/Graphics/SVG/1.1/DTD/svg11.dtd">
<!-- Generated by graphviz version 2.38.0 (20140413.2041)
 -->
<!-- Title: Tree Pages: 1 -->
<svg width="2667pt" height="581pt"
 viewBox="0.00 0.00 2667.00 581.00" xmlns="http://www.w3.org/2000/svg" xmlns:xlink="http://www.w3.org/1999/xlink">
<g id="graph0" class="graph" transform="scale(1 1) rotate(0) translate(4 577)">
<title>Tree</title>
<polygon fill="white" stroke="none" points="-4,4 -4,-577 2663,-577 2663,4 -4,4"/>
<!-- 0 -->
<g id="node1" class="node"><title>0</title>
<polygon fill="#399de5" fill-opacity="0.537255" stroke="black" points="1997.5,-573 1858.5,-573 1858.5,-505 1997.5,-505 1997.5,-573"/>
<text text-anchor="middle" x="1928" y="-557.8" font-family="Times,serif" font-size="14.00">sim &lt;= 2.5</text>
<text text-anchor="middle" x="1928" y="-542.8" font-family="Times,serif" font-size="14.00">gini = 0.433</text>
<text text-anchor="middle" x="1928" y="-527.8" font-family="Times,serif" font-size="14.00">samples = 19099</text>
<text text-anchor="middle" x="1928" y="-512.8" font-family="Times,serif" font-size="14.00">value = [6041, 13058]</text>
</g>
<!-- 1 -->
<g id="node2" class="node"><title>1</title>
<polygon fill="#e58139" fill-opacity="0.003922" stroke="black" points="1612,-469 1480,-469 1480,-401 1612,-401 1612,-469"/>
<text text-anchor="middle" x="1546" y="-453.8" font-family="Times,serif" font-size="14.00">query &lt;= 1.5</text>
<text text-anchor="middle" x="1546" y="-438.8" font-family="Times,serif" font-size="14.00">gini = 0.5</text>
<text text-anchor="middle" x="1546" y="-423.8" font-family="Times,serif" font-size="14.00">samples = 11761</text>
<text text-anchor="middle" x="1546" y="-408.8" font-family="Times,serif" font-size="14.00">value = [5892, 5869]</text>
</g>
<!-- 0&#45;&gt;1 -->
<g id="edge1" class="edge"><title>0&#45;&gt;1</title>
<path fill="none" stroke="black" d="M1858.38,-519.41C1791.62,-501.583 1691.07,-474.735 1622.19,-456.344"/>
<polygon fill="black" stroke="black" points="1622.83,-452.892 1612.27,-453.694 1621.02,-459.655 1622.83,-452.892"/>
<text text-anchor="middle" x="1624.78" y="-471.634" font-family="Times,serif" font-size="14.00">True</text>
</g>
<!-- 32 -->
<g id="node33" class="node"><title>32</title>
<polygon fill="#399de5" fill-opacity="0.980392" stroke="black" points="2369.5,-469 2238.5,-469 2238.5,-401 2369.5,-401 2369.5,-469"/>
<text text-anchor="middle" x="2304" y="-453.8" font-family="Times,serif" font-size="14.00">triplePattern &lt;= 36.0</text>
<text text-anchor="middle" x="2304" y="-438.8" font-family="Times,serif" font-size="14.00">gini = 0.04</text>
<text text-anchor="middle" x="2304" y="-423.8" font-family="Times,serif" font-size="14.00">samples = 7338</text>
<text text-anchor="middle" x="2304" y="-408.8" font-family="Times,serif" font-size="14.00">value = [149, 7189]</text>
</g>
<!-- 0&#45;&gt;32 -->
<g id="edge32" class="edge"><title>0&#45;&gt;32</title>
<path fill="none" stroke="black" d="M1997.84,-519.054C2063.43,-501.262 2161.27,-474.718 2228.61,-456.453"/>
<polygon fill="black" stroke="black" points="2229.58,-459.816 2238.31,-453.82 2227.74,-453.06 2229.58,-459.816"/>
<text text-anchor="middle" x="2225.88" y="-471.809" font-family="Times,serif" font-size="14.00">False</text>
</g>
<!-- 2 -->
<g id="node3" class="node"><title>2</title>
<polygon fill="#399de5" fill-opacity="0.407843" stroke="black" points="832,-365 700,-365 700,-297 832,-297 832,-365"/>
<text text-anchor="middle" x="766" y="-349.8" font-family="Times,serif" font-size="14.00">sim &lt;= 1.5</text>
<text text-anchor="middle" x="766" y="-334.8" font-family="Times,serif" font-size="14.00">gini = 0.467</text>
<text text-anchor="middle" x="766" y="-319.8" font-family="Times,serif" font-size="14.00">samples = 7812</text>
<text text-anchor="middle" x="766" y="-304.8" font-family="Times,serif" font-size="14.00">value = [2910, 4902]</text>
</g>
<!-- 1&#45;&gt;2 -->
<g id="edge2" class="edge"><title>1&#45;&gt;2</title>
<path fill="none" stroke="black" d="M1479.83,-425.348C1335.91,-406.527 995.096,-361.959 842.357,-341.985"/>
<polygon fill="black" stroke="black" points="842.501,-338.474 832.132,-340.648 841.593,-345.415 842.501,-338.474"/>
</g>
<!-- 17 -->
<g id="node18" class="node"><title>17</title>
<polygon fill="#e58139" fill-opacity="0.674510" stroke="black" points="1608.5,-365 1483.5,-365 1483.5,-297 1608.5,-297 1608.5,-365"/>
<text text-anchor="middle" x="1546" y="-349.8" font-family="Times,serif" font-size="14.00">optional &lt;= 1.5</text>
<text text-anchor="middle" x="1546" y="-334.8" font-family="Times,serif" font-size="14.00">gini = 0.37</text>
<text text-anchor="middle" x="1546" y="-319.8" font-family="Times,serif" font-size="14.00">samples = 3949</text>
<text text-anchor="middle" x="1546" y="-304.8" font-family="Times,serif" font-size="14.00">value = [2982, 967]</text>
</g>
<!-- 1&#45;&gt;17 -->
<g id="edge17" class="edge"><title>1&#45;&gt;17</title>
<path fill="none" stroke="black" d="M1546,-400.884C1546,-392.778 1546,-383.982 1546,-375.472"/>
<polygon fill="black" stroke="black" points="1549.5,-375.299 1546,-365.299 1542.5,-375.299 1549.5,-375.299"/>
</g>
<!-- 3 -->
<g id="node4" class="node"><title>3</title>
<polygon fill="#399de5" fill-opacity="0.600000" stroke="black" points="437,-261 305,-261 305,-193 437,-193 437,-261"/>
<text text-anchor="middle" x="371" y="-245.8" font-family="Times,serif" font-size="14.00">sim &lt;= 0.5</text>
<text text-anchor="middle" x="371" y="-230.8" font-family="Times,serif" font-size="14.00">gini = 0.408</text>
<text text-anchor="middle" x="371" y="-215.8" font-family="Times,serif" font-size="14.00">samples = 5172</text>
<text text-anchor="middle" x="371" y="-200.8" font-family="Times,serif" font-size="14.00">value = [1474, 3698]</text>
</g>
<!-- 2&#45;&gt;3 -->
<g id="edge3" class="edge"><title>2&#45;&gt;3</title>
<path fill="none" stroke="black" d="M699.886,-312.927C630.142,-294.918 520.392,-266.577 447.093,-247.649"/>
<polygon fill="black" stroke="black" points="447.558,-244.155 437,-245.043 445.808,-250.932 447.558,-244.155"/>
</g>
<!-- 10 -->
<g id="node11" class="node"><title>10</title>
<polygon fill="#e58139" fill-opacity="0.160784" stroke="black" points="832,-261 700,-261 700,-193 832,-193 832,-261"/>
<text text-anchor="middle" x="766" y="-245.8" font-family="Times,serif" font-size="14.00">count &lt;= 0.5</text>
<text text-anchor="middle" x="766" y="-230.8" font-family="Times,serif" font-size="14.00">gini = 0.496</text>
<text text-anchor="middle" x="766" y="-215.8" font-family="Times,serif" font-size="14.00">samples = 2640</text>
<text text-anchor="middle" x="766" y="-200.8" font-family="Times,serif" font-size="14.00">value = [1436, 1204]</text>
</g>
<!-- 2&#45;&gt;10 -->
<g id="edge10" class="edge"><title>2&#45;&gt;10</title>
<path fill="none" stroke="black" d="M766,-296.884C766,-288.778 766,-279.982 766,-271.472"/>
<polygon fill="black" stroke="black" points="769.5,-271.299 766,-261.299 762.5,-271.299 769.5,-271.299"/>
</g>
<!-- 4 -->
<g id="node5" class="node"><title>4</title>
<polygon fill="#e58139" fill-opacity="0.890196" stroke="black" points="235,-157 123,-157 123,-89 235,-89 235,-157"/>
<text text-anchor="middle" x="179" y="-141.8" font-family="Times,serif" font-size="14.00">filter &lt;= 6.5</text>
<text text-anchor="middle" x="179" y="-126.8" font-family="Times,serif" font-size="14.00">gini = 0.178</text>
<text text-anchor="middle" x="179" y="-111.8" font-family="Times,serif" font-size="14.00">samples = 294</text>
<text text-anchor="middle" x="179" y="-96.8" font-family="Times,serif" font-size="14.00">value = [265, 29]</text>
</g>
<!-- 3&#45;&gt;4 -->
<g id="edge4" class="edge"><title>3&#45;&gt;4</title>
<path fill="none" stroke="black" d="M308.663,-192.884C288.06,-181.938 265.089,-169.735 244.273,-158.676"/>
<polygon fill="black" stroke="black" points="245.661,-155.45 235.188,-153.85 242.377,-161.632 245.661,-155.45"/>
</g>
<!-- 7 -->
<g id="node8" class="node"><title>7</title>
<polygon fill="#399de5" fill-opacity="0.670588" stroke="black" points="437,-157 305,-157 305,-89 437,-89 437,-157"/>
<text text-anchor="middle" x="371" y="-141.8" font-family="Times,serif" font-size="14.00">triplePattern &lt;= 0.5</text>
<text text-anchor="middle" x="371" y="-126.8" font-family="Times,serif" font-size="14.00">gini = 0.373</text>
<text text-anchor="middle" x="371" y="-111.8" font-family="Times,serif" font-size="14.00">samples = 4878</text>
<text text-anchor="middle" x="371" y="-96.8" font-family="Times,serif" font-size="14.00">value = [1209, 3669]</text>
</g>
<!-- 3&#45;&gt;7 -->
<g id="edge7" class="edge"><title>3&#45;&gt;7</title>
<path fill="none" stroke="black" d="M371,-192.884C371,-184.778 371,-175.982 371,-167.472"/>
<polygon fill="black" stroke="black" points="374.5,-167.299 371,-157.299 367.5,-167.299 374.5,-167.299"/>
</g>
<!-- 5 -->
<g id="node6" class="node"><title>5</title>
<polygon fill="#e58139" fill-opacity="0.898039" stroke="black" points="112,-53 0,-53 0,-0 112,-0 112,-53"/>
<text text-anchor="middle" x="56" y="-37.8" font-family="Times,serif" font-size="14.00">gini = 0.169</text>
<text text-anchor="middle" x="56" y="-22.8" font-family="Times,serif" font-size="14.00">samples = 279</text>
<text text-anchor="middle" x="56" y="-7.8" font-family="Times,serif" font-size="14.00">value = [253, 26]</text>
</g>
<!-- 4&#45;&gt;5 -->
<g id="edge5" class="edge"><title>4&#45;&gt;5</title>
<path fill="none" stroke="black" d="M135.981,-88.9485C123.478,-79.3431 109.853,-68.8747 97.449,-59.345"/>
<polygon fill="black" stroke="black" points="99.5608,-56.5537 89.4986,-53.2367 95.2961,-62.1046 99.5608,-56.5537"/>
</g>
<!-- 6 -->
<g id="node7" class="node"><title>6</title>
<polygon fill="#e58139" fill-opacity="0.749020" stroke="black" points="228,-53 130,-53 130,-0 228,-0 228,-53"/>
<text text-anchor="middle" x="179" y="-37.8" font-family="Times,serif" font-size="14.00">gini = 0.32</text>
<text text-anchor="middle" x="179" y="-22.8" font-family="Times,serif" font-size="14.00">samples = 15</text>
<text text-anchor="middle" x="179" y="-7.8" font-family="Times,serif" font-size="14.00">value = [12, 3]</text>
</g>
<!-- 4&#45;&gt;6 -->
<g id="edge6" class="edge"><title>4&#45;&gt;6</title>
<path fill="none" stroke="black" d="M179,-88.9485C179,-80.7153 179,-71.848 179,-63.4814"/>
<polygon fill="black" stroke="black" points="182.5,-63.2367 179,-53.2367 175.5,-63.2367 182.5,-63.2367"/>
</g>
<!-- 8 -->
<g id="node9" class="node"><title>8</title>
<polygon fill="#e58139" stroke="black" points="338,-53 246,-53 246,-0 338,-0 338,-53"/>
<text text-anchor="middle" x="292" y="-37.8" font-family="Times,serif" font-size="14.00">gini = 0.0</text>
<text text-anchor="middle" x="292" y="-22.8" font-family="Times,serif" font-size="14.00">samples = 6</text>
<text text-anchor="middle" x="292" y="-7.8" font-family="Times,serif" font-size="14.00">value = [6, 0]</text>
</g>
<!-- 7&#45;&gt;8 -->
<g id="edge8" class="edge"><title>7&#45;&gt;8</title>
<path fill="none" stroke="black" d="M343.37,-88.9485C335.799,-79.892 327.586,-70.0682 319.995,-60.9875"/>
<polygon fill="black" stroke="black" points="322.614,-58.6641 313.515,-53.2367 317.244,-63.1538 322.614,-58.6641"/>
</g>
<!-- 9 -->
<g id="node10" class="node"><title>9</title>
<polygon fill="#399de5" fill-opacity="0.670588" stroke="black" points="488,-53 356,-53 356,-0 488,-0 488,-53"/>
<text text-anchor="middle" x="422" y="-37.8" font-family="Times,serif" font-size="14.00">gini = 0.372</text>
<text text-anchor="middle" x="422" y="-22.8" font-family="Times,serif" font-size="14.00">samples = 4872</text>
<text text-anchor="middle" x="422" y="-7.8" font-family="Times,serif" font-size="14.00">value = [1203, 3669]</text>
</g>
<!-- 7&#45;&gt;9 -->
<g id="edge9" class="edge"><title>7&#45;&gt;9</title>
<path fill="none" stroke="black" d="M388.837,-88.9485C393.527,-80.2579 398.599,-70.8608 403.331,-62.0917"/>
<polygon fill="black" stroke="black" points="406.441,-63.6992 408.11,-53.2367 400.281,-60.3747 406.441,-63.6992"/>
</g>
<!-- 11 -->
<g id="node12" class="node"><title>11</title>
<polygon fill="#399de5" fill-opacity="0.050980" stroke="black" points="758.5,-157 633.5,-157 633.5,-89 758.5,-89 758.5,-157"/>
<text text-anchor="middle" x="696" y="-141.8" font-family="Times,serif" font-size="14.00">filter &lt;= 4.5</text>
<text text-anchor="middle" x="696" y="-126.8" font-family="Times,serif" font-size="14.00">gini = 0.5</text>
<text text-anchor="middle" x="696" y="-111.8" font-family="Times,serif" font-size="14.00">samples = 2007</text>
<text text-anchor="middle" x="696" y="-96.8" font-family="Times,serif" font-size="14.00">value = [977, 1030]</text>
</g>
<!-- 10&#45;&gt;11 -->
<g id="edge11" class="edge"><title>10&#45;&gt;11</title>
<path fill="none" stroke="black" d="M743.273,-192.884C737.343,-184.243 730.876,-174.819 724.681,-165.793"/>
<polygon fill="black" stroke="black" points="727.397,-163.564 718.853,-157.299 721.625,-167.525 727.397,-163.564"/>
</g>
<!-- 14 -->
<g id="node15" class="node"><title>14</title>
<polygon fill="#e58139" fill-opacity="0.619608" stroke="black" points="895.5,-157 776.5,-157 776.5,-89 895.5,-89 895.5,-157"/>
<text text-anchor="middle" x="836" y="-141.8" font-family="Times,serif" font-size="14.00">filter &lt;= 4.5</text>
<text text-anchor="middle" x="836" y="-126.8" font-family="Times,serif" font-size="14.00">gini = 0.399</text>
<text text-anchor="middle" x="836" y="-111.8" font-family="Times,serif" font-size="14.00">samples = 633</text>
<text text-anchor="middle" x="836" y="-96.8" font-family="Times,serif" font-size="14.00">value = [459, 174]</text>
</g>
<!-- 10&#45;&gt;14 -->
<g id="edge14" class="edge"><title>10&#45;&gt;14</title>
<path fill="none" stroke="black" d="M788.727,-192.884C794.657,-184.243 801.124,-174.819 807.319,-165.793"/>
<polygon fill="black" stroke="black" points="810.375,-167.525 813.147,-157.299 804.603,-163.564 810.375,-167.525"/>
</g>
<!-- 12 -->
<g id="node13" class="node"><title>12</title>
<polygon fill="#399de5" fill-opacity="0.062745" stroke="black" points="631.5,-53 506.5,-53 506.5,-0 631.5,-0 631.5,-53"/>
<text text-anchor="middle" x="569" y="-37.8" font-family="Times,serif" font-size="14.00">gini = 0.499</text>
<text text-anchor="middle" x="569" y="-22.8" font-family="Times,serif" font-size="14.00">samples = 1975</text>
<text text-anchor="middle" x="569" y="-7.8" font-family="Times,serif" font-size="14.00">value = [955, 1020]</text>
</g>
<!-- 11&#45;&gt;12 -->
<g id="edge12" class="edge"><title>11&#45;&gt;12</title>
<path fill="none" stroke="black" d="M651.582,-88.9485C638.673,-79.3431 624.604,-68.8747 611.797,-59.345"/>
<polygon fill="black" stroke="black" points="613.7,-56.3984 603.588,-53.2367 609.521,-62.0143 613.7,-56.3984"/>
</g>
<!-- 13 -->
<g id="node14" class="node"><title>13</title>
<polygon fill="#e58139" fill-opacity="0.545098" stroke="black" points="754.5,-53 649.5,-53 649.5,-0 754.5,-0 754.5,-53"/>
<text text-anchor="middle" x="702" y="-37.8" font-family="Times,serif" font-size="14.00">gini = 0.43</text>
<text text-anchor="middle" x="702" y="-22.8" font-family="Times,serif" font-size="14.00">samples = 32</text>
<text text-anchor="middle" x="702" y="-7.8" font-family="Times,serif" font-size="14.00">value = [22, 10]</text>
</g>
<!-- 11&#45;&gt;13 -->
<g id="edge13" class="edge"><title>11&#45;&gt;13</title>
<path fill="none" stroke="black" d="M698.099,-88.9485C698.621,-80.7153 699.184,-71.848 699.715,-63.4814"/>
<polygon fill="black" stroke="black" points="703.225,-63.4384 700.366,-53.2367 696.239,-62.9948 703.225,-63.4384"/>
</g>
<!-- 15 -->
<g id="node16" class="node"><title>15</title>
<polygon fill="#e58139" fill-opacity="0.784314" stroke="black" points="885,-53 773,-53 773,-0 885,-0 885,-53"/>
<text text-anchor="middle" x="829" y="-37.8" font-family="Times,serif" font-size="14.00">gini = 0.293</text>
<text text-anchor="middle" x="829" y="-22.8" font-family="Times,serif" font-size="14.00">samples = 219</text>
<text text-anchor="middle" x="829" y="-7.8" font-family="Times,serif" font-size="14.00">value = [180, 39]</text>
</g>
<!-- 14&#45;&gt;15 -->
<g id="edge15" class="edge"><title>14&#45;&gt;15</title>
<path fill="none" stroke="black" d="M833.552,-88.9485C832.942,-80.7153 832.285,-71.848 831.665,-63.4814"/>
<polygon fill="black" stroke="black" points="835.136,-62.9508 830.906,-53.2367 828.155,-63.468 835.136,-62.9508"/>
</g>
<!-- 16 -->
<g id="node17" class="node"><title>16</title>
<polygon fill="#e58139" fill-opacity="0.517647" stroke="black" points="1022.5,-53 903.5,-53 903.5,-0 1022.5,-0 1022.5,-53"/>
<text text-anchor="middle" x="963" y="-37.8" font-family="Times,serif" font-size="14.00">gini = 0.44</text>
<text text-anchor="middle" x="963" y="-22.8" font-family="Times,serif" font-size="14.00">samples = 414</text>
<text text-anchor="middle" x="963" y="-7.8" font-family="Times,serif" font-size="14.00">value = [279, 135]</text>
</g>
<!-- 14&#45;&gt;16 -->
<g id="edge16" class="edge"><title>14&#45;&gt;16</title>
<path fill="none" stroke="black" d="M880.418,-88.9485C893.327,-79.3431 907.396,-68.8747 920.203,-59.345"/>
<polygon fill="black" stroke="black" points="922.479,-62.0143 928.412,-53.2367 918.3,-56.3984 922.479,-62.0143"/>
</g>
<!-- 18 -->
<g id="node19" class="node"><title>18</title>
<polygon fill="#e58139" fill-opacity="0.192157" stroke="black" points="1472.5,-261 1353.5,-261 1353.5,-193 1472.5,-193 1472.5,-261"/>
<text text-anchor="middle" x="1413" y="-245.8" font-family="Times,serif" font-size="14.00">filter_in &lt;= 3.0</text>
<text text-anchor="middle" x="1413" y="-230.8" font-family="Times,serif" font-size="14.00">gini = 0.494</text>
<text text-anchor="middle" x="1413" y="-215.8" font-family="Times,serif" font-size="14.00">samples = 1775</text>
<text text-anchor="middle" x="1413" y="-200.8" font-family="Times,serif" font-size="14.00">value = [981, 794]</text>
</g>
<!-- 17&#45;&gt;18 -->
<g id="edge18" class="edge"><title>17&#45;&gt;18</title>
<path fill="none" stroke="black" d="M1502.82,-296.884C1490.62,-287.531 1477.23,-277.259 1464.59,-267.568"/>
<polygon fill="black" stroke="black" points="1466.48,-264.608 1456.42,-261.299 1462.22,-270.162 1466.48,-264.608"/>
</g>
<!-- 25 -->
<g id="node26" class="node"><title>25</title>
<polygon fill="#e58139" fill-opacity="0.913725" stroke="black" points="1726.5,-261 1601.5,-261 1601.5,-193 1726.5,-193 1726.5,-261"/>
<text text-anchor="middle" x="1664" y="-245.8" font-family="Times,serif" font-size="14.00">sim &lt;= 1.5</text>
<text text-anchor="middle" x="1664" y="-230.8" font-family="Times,serif" font-size="14.00">gini = 0.146</text>
<text text-anchor="middle" x="1664" y="-215.8" font-family="Times,serif" font-size="14.00">samples = 2174</text>
<text text-anchor="middle" x="1664" y="-200.8" font-family="Times,serif" font-size="14.00">value = [2001, 173]</text>
</g>
<!-- 17&#45;&gt;25 -->
<g id="edge25" class="edge"><title>17&#45;&gt;25</title>
<path fill="none" stroke="black" d="M1584.31,-296.884C1595.03,-287.62 1606.79,-277.455 1617.9,-267.845"/>
<polygon fill="black" stroke="black" points="1620.2,-270.487 1625.48,-261.299 1615.62,-265.191 1620.2,-270.487"/>
</g>
<!-- 19 -->
<g id="node20" class="node"><title>19</title>
<polygon fill="#399de5" fill-opacity="0.101961" stroke="black" points="1290.5,-157 1171.5,-157 1171.5,-89 1290.5,-89 1290.5,-157"/>
<text text-anchor="middle" x="1231" y="-141.8" font-family="Times,serif" font-size="14.00">filter &lt;= 8.0</text>
<text text-anchor="middle" x="1231" y="-126.8" font-family="Times,serif" font-size="14.00">gini = 0.499</text>
<text text-anchor="middle" x="1231" y="-111.8" font-family="Times,serif" font-size="14.00">samples = 1485</text>
<text text-anchor="middle" x="1231" y="-96.8" font-family="Times,serif" font-size="14.00">value = [702, 783]</text>
</g>
<!-- 18&#45;&gt;19 -->
<g id="edge19" class="edge"><title>18&#45;&gt;19</title>
<path fill="none" stroke="black" d="M1353.91,-192.884C1336.34,-183.035 1316.95,-172.169 1298.86,-162.034"/>
<polygon fill="black" stroke="black" points="1300.54,-158.961 1290.1,-157.125 1297.12,-165.067 1300.54,-158.961"/>
</g>
<!-- 22 -->
<g id="node23" class="node"><title>22</title>
<polygon fill="#e58139" fill-opacity="0.960784" stroke="black" points="1469,-157 1357,-157 1357,-89 1469,-89 1469,-157"/>
<text text-anchor="middle" x="1413" y="-141.8" font-family="Times,serif" font-size="14.00">query &lt;= 6.5</text>
<text text-anchor="middle" x="1413" y="-126.8" font-family="Times,serif" font-size="14.00">gini = 0.073</text>
<text text-anchor="middle" x="1413" y="-111.8" font-family="Times,serif" font-size="14.00">samples = 290</text>
<text text-anchor="middle" x="1413" y="-96.8" font-family="Times,serif" font-size="14.00">value = [279, 11]</text>
</g>
<!-- 18&#45;&gt;22 -->
<g id="edge22" class="edge"><title>18&#45;&gt;22</title>
<path fill="none" stroke="black" d="M1413,-192.884C1413,-184.778 1413,-175.982 1413,-167.472"/>
<polygon fill="black" stroke="black" points="1416.5,-167.299 1413,-157.299 1409.5,-167.299 1416.5,-167.299"/>
</g>
<!-- 20 -->
<g id="node21" class="node"><title>20</title>
<polygon fill="#e58139" fill-opacity="0.737255" stroke="black" points="1153,-53 1041,-53 1041,-0 1153,-0 1153,-53"/>
<text text-anchor="middle" x="1097" y="-37.8" font-family="Times,serif" font-size="14.00">gini = 0.33</text>
<text text-anchor="middle" x="1097" y="-22.8" font-family="Times,serif" font-size="14.00">samples = 394</text>
<text text-anchor="middle" x="1097" y="-7.8" font-family="Times,serif" font-size="14.00">value = [312, 82]</text>
</g>
<!-- 19&#45;&gt;20 -->
<g id="edge20" class="edge"><title>19&#45;&gt;20</title>
<path fill="none" stroke="black" d="M1184.13,-88.9485C1170.38,-79.2516 1155.39,-68.6752 1141.77,-59.073"/>
<polygon fill="black" stroke="black" points="1143.68,-56.1397 1133.49,-53.2367 1139.65,-61.8603 1143.68,-56.1397"/>
</g>
<!-- 21 -->
<g id="node22" class="node"><title>21</title>
<polygon fill="#399de5" fill-opacity="0.443137" stroke="black" points="1290.5,-53 1171.5,-53 1171.5,-0 1290.5,-0 1290.5,-53"/>
<text text-anchor="middle" x="1231" y="-37.8" font-family="Times,serif" font-size="14.00">gini = 0.459</text>
<text text-anchor="middle" x="1231" y="-22.8" font-family="Times,serif" font-size="14.00">samples = 1091</text>
<text text-anchor="middle" x="1231" y="-7.8" font-family="Times,serif" font-size="14.00">value = [390, 701]</text>
</g>
<!-- 19&#45;&gt;21 -->
<g id="edge21" class="edge"><title>19&#45;&gt;21</title>
<path fill="none" stroke="black" d="M1231,-88.9485C1231,-80.7153 1231,-71.848 1231,-63.4814"/>
<polygon fill="black" stroke="black" points="1234.5,-63.2367 1231,-53.2367 1227.5,-63.2367 1234.5,-63.2367"/>
</g>
<!-- 23 -->
<g id="node24" class="node"><title>23</title>
<polygon fill="#e58139" fill-opacity="0.882353" stroke="black" points="1407,-53 1309,-53 1309,-0 1407,-0 1407,-53"/>
<text text-anchor="middle" x="1358" y="-37.8" font-family="Times,serif" font-size="14.00">gini = 0.188</text>
<text text-anchor="middle" x="1358" y="-22.8" font-family="Times,serif" font-size="14.00">samples = 38</text>
<text text-anchor="middle" x="1358" y="-7.8" font-family="Times,serif" font-size="14.00">value = [34, 4]</text>
</g>
<!-- 22&#45;&gt;23 -->
<g id="edge23" class="edge"><title>22&#45;&gt;23</title>
<path fill="none" stroke="black" d="M1393.76,-88.9485C1388.71,-80.2579 1383.24,-70.8608 1378.13,-62.0917"/>
<polygon fill="black" stroke="black" points="1381.03,-60.1189 1372.98,-53.2367 1374.98,-63.6401 1381.03,-60.1189"/>
</g>
<!-- 24 -->
<g id="node25" class="node"><title>24</title>
<polygon fill="#e58139" fill-opacity="0.972549" stroke="black" points="1530.5,-53 1425.5,-53 1425.5,-0 1530.5,-0 1530.5,-53"/>
<text text-anchor="middle" x="1478" y="-37.8" font-family="Times,serif" font-size="14.00">gini = 0.054</text>
<text text-anchor="middle" x="1478" y="-22.8" font-family="Times,serif" font-size="14.00">samples = 252</text>
<text text-anchor="middle" x="1478" y="-7.8" font-family="Times,serif" font-size="14.00">value = [245, 7]</text>
</g>
<!-- 22&#45;&gt;24 -->
<g id="edge24" class="edge"><title>22&#45;&gt;24</title>
<path fill="none" stroke="black" d="M1435.73,-88.9485C1441.84,-80.0749 1448.45,-70.4648 1454.59,-61.5388"/>
<polygon fill="black" stroke="black" points="1457.51,-63.4594 1460.3,-53.2367 1451.75,-59.4924 1457.51,-63.4594"/>
</g>
<!-- 26 -->
<g id="node27" class="node"><title>26</title>
<polygon fill="#e58139" fill-opacity="0.996078" stroke="black" points="1720,-157 1608,-157 1608,-89 1720,-89 1720,-157"/>
<text text-anchor="middle" x="1664" y="-141.8" font-family="Times,serif" font-size="14.00">sim &lt;= 0.5</text>
<text text-anchor="middle" x="1664" y="-126.8" font-family="Times,serif" font-size="14.00">gini = 0.004</text>
<text text-anchor="middle" x="1664" y="-111.8" font-family="Times,serif" font-size="14.00">samples = 1450</text>
<text text-anchor="middle" x="1664" y="-96.8" font-family="Times,serif" font-size="14.00">value = [1447, 3]</text>
</g>
<!-- 25&#45;&gt;26 -->
<g id="edge26" class="edge"><title>25&#45;&gt;26</title>
<path fill="none" stroke="black" d="M1664,-192.884C1664,-184.778 1664,-175.982 1664,-167.472"/>
<polygon fill="black" stroke="black" points="1667.5,-167.299 1664,-157.299 1660.5,-167.299 1667.5,-167.299"/>
</g>
<!-- 29 -->
<g id="node30" class="node"><title>29</title>
<polygon fill="#e58139" fill-opacity="0.694118" stroke="black" points="1921.5,-157 1802.5,-157 1802.5,-89 1921.5,-89 1921.5,-157"/>
<text text-anchor="middle" x="1862" y="-141.8" font-family="Times,serif" font-size="14.00">query &lt;= 3.5</text>
<text text-anchor="middle" x="1862" y="-126.8" font-family="Times,serif" font-size="14.00">gini = 0.359</text>
<text text-anchor="middle" x="1862" y="-111.8" font-family="Times,serif" font-size="14.00">samples = 724</text>
<text text-anchor="middle" x="1862" y="-96.8" font-family="Times,serif" font-size="14.00">value = [554, 170]</text>
</g>
<!-- 25&#45;&gt;29 -->
<g id="edge29" class="edge"><title>25&#45;&gt;29</title>
<path fill="none" stroke="black" d="M1726.65,-193.727C1747.86,-182.798 1771.66,-170.537 1793.32,-159.379"/>
<polygon fill="black" stroke="black" points="1795.17,-162.364 1802.46,-154.673 1791.97,-156.141 1795.17,-162.364"/>
</g>
<!-- 27 -->
<g id="node28" class="node"><title>27</title>
<polygon fill="#e58139" fill-opacity="0.972549" stroke="black" points="1653.5,-53 1548.5,-53 1548.5,-0 1653.5,-0 1653.5,-53"/>
<text text-anchor="middle" x="1601" y="-37.8" font-family="Times,serif" font-size="14.00">gini = 0.055</text>
<text text-anchor="middle" x="1601" y="-22.8" font-family="Times,serif" font-size="14.00">samples = 106</text>
<text text-anchor="middle" x="1601" y="-7.8" font-family="Times,serif" font-size="14.00">value = [103, 3]</text>
</g>
<!-- 26&#45;&gt;27 -->
<g id="edge27" class="edge"><title>26&#45;&gt;27</title>
<path fill="none" stroke="black" d="M1641.97,-88.9485C1636.11,-80.1664 1629.78,-70.6629 1623.88,-61.815"/>
<polygon fill="black" stroke="black" points="1626.62,-59.6158 1618.16,-53.2367 1620.79,-63.4987 1626.62,-59.6158"/>
</g>
<!-- 28 -->
<g id="node29" class="node"><title>28</title>
<polygon fill="#e58139" stroke="black" points="1784,-53 1672,-53 1672,-0 1784,-0 1784,-53"/>
<text text-anchor="middle" x="1728" y="-37.8" font-family="Times,serif" font-size="14.00">gini = 0.0</text>
<text text-anchor="middle" x="1728" y="-22.8" font-family="Times,serif" font-size="14.00">samples = 1344</text>
<text text-anchor="middle" x="1728" y="-7.8" font-family="Times,serif" font-size="14.00">value = [1344, 0]</text>
</g>
<!-- 26&#45;&gt;28 -->
<g id="edge28" class="edge"><title>26&#45;&gt;28</title>
<path fill="none" stroke="black" d="M1686.38,-88.9485C1692.39,-80.0749 1698.9,-70.4648 1704.95,-61.5388"/>
<polygon fill="black" stroke="black" points="1707.86,-63.4792 1710.57,-53.2367 1702.06,-59.5539 1707.86,-63.4792"/>
</g>
<!-- 30 -->
<g id="node31" class="node"><title>30</title>
<polygon fill="#e58139" fill-opacity="0.552941" stroke="black" points="1921.5,-53 1802.5,-53 1802.5,-0 1921.5,-0 1921.5,-53"/>
<text text-anchor="middle" x="1862" y="-37.8" font-family="Times,serif" font-size="14.00">gini = 0.426</text>
<text text-anchor="middle" x="1862" y="-22.8" font-family="Times,serif" font-size="14.00">samples = 542</text>
<text text-anchor="middle" x="1862" y="-7.8" font-family="Times,serif" font-size="14.00">value = [375, 167]</text>
</g>
<!-- 29&#45;&gt;30 -->
<g id="edge30" class="edge"><title>29&#45;&gt;30</title>
<path fill="none" stroke="black" d="M1862,-88.9485C1862,-80.7153 1862,-71.848 1862,-63.4814"/>
<polygon fill="black" stroke="black" points="1865.5,-63.2367 1862,-53.2367 1858.5,-63.2367 1865.5,-63.2367"/>
</g>
<!-- 31 -->
<g id="node32" class="node"><title>31</title>
<polygon fill="#e58139" fill-opacity="0.984314" stroke="black" points="2044.5,-53 1939.5,-53 1939.5,-0 2044.5,-0 2044.5,-53"/>
<text text-anchor="middle" x="1992" y="-37.8" font-family="Times,serif" font-size="14.00">gini = 0.032</text>
<text text-anchor="middle" x="1992" y="-22.8" font-family="Times,serif" font-size="14.00">samples = 182</text>
<text text-anchor="middle" x="1992" y="-7.8" font-family="Times,serif" font-size="14.00">value = [179, 3]</text>
</g>
<!-- 29&#45;&gt;31 -->
<g id="edge31" class="edge"><title>29&#45;&gt;31</title>
<path fill="none" stroke="black" d="M1907.47,-88.9485C1920.68,-79.3431 1935.08,-68.8747 1948.19,-59.345"/>
<polygon fill="black" stroke="black" points="1950.56,-61.9477 1956.6,-53.2367 1946.45,-56.2856 1950.56,-61.9477"/>
</g>
<!-- 33 -->
<g id="node34" class="node"><title>33</title>
<polygon fill="#399de5" fill-opacity="0.980392" stroke="black" points="2366.5,-365 2241.5,-365 2241.5,-297 2366.5,-297 2366.5,-365"/>
<text text-anchor="middle" x="2304" y="-349.8" font-family="Times,serif" font-size="14.00">optional &lt;= 5.5</text>
<text text-anchor="middle" x="2304" y="-334.8" font-family="Times,serif" font-size="14.00">gini = 0.035</text>
<text text-anchor="middle" x="2304" y="-319.8" font-family="Times,serif" font-size="14.00">samples = 7320</text>
<text text-anchor="middle" x="2304" y="-304.8" font-family="Times,serif" font-size="14.00">value = [131, 7189]</text>
</g>
<!-- 32&#45;&gt;33 -->
<g id="edge33" class="edge"><title>32&#45;&gt;33</title>
<path fill="none" stroke="black" d="M2304,-400.884C2304,-392.778 2304,-383.982 2304,-375.472"/>
<polygon fill="black" stroke="black" points="2307.5,-375.299 2304,-365.299 2300.5,-375.299 2307.5,-375.299"/>
</g>
<!-- 44 -->
<g id="node45" class="node"><title>44</title>
<polygon fill="#e58139" stroke="black" points="2483,-357.5 2385,-357.5 2385,-304.5 2483,-304.5 2483,-357.5"/>
<text text-anchor="middle" x="2434" y="-342.3" font-family="Times,serif" font-size="14.00">gini = 0.0</text>
<text text-anchor="middle" x="2434" y="-327.3" font-family="Times,serif" font-size="14.00">samples = 18</text>
<text text-anchor="middle" x="2434" y="-312.3" font-family="Times,serif" font-size="14.00">value = [18, 0]</text>
</g>
<!-- 32&#45;&gt;44 -->
<g id="edge44" class="edge"><title>32&#45;&gt;44</title>
<path fill="none" stroke="black" d="M2346.21,-400.884C2361.35,-389.006 2378.37,-375.646 2393.37,-363.876"/>
<polygon fill="black" stroke="black" points="2395.77,-366.446 2401.47,-357.52 2391.45,-360.939 2395.77,-366.446"/>
</g>
<!-- 34 -->
<g id="node35" class="node"><title>34</title>
<polygon fill="#399de5" fill-opacity="0.984314" stroke="black" points="2366.5,-261 2241.5,-261 2241.5,-193 2366.5,-193 2366.5,-261"/>
<text text-anchor="middle" x="2304" y="-245.8" font-family="Times,serif" font-size="14.00">graph &lt;= 0.5</text>
<text text-anchor="middle" x="2304" y="-230.8" font-family="Times,serif" font-size="14.00">gini = 0.027</text>
<text text-anchor="middle" x="2304" y="-215.8" font-family="Times,serif" font-size="14.00">samples = 7254</text>
<text text-anchor="middle" x="2304" y="-200.8" font-family="Times,serif" font-size="14.00">value = [101, 7153]</text>
</g>
<!-- 33&#45;&gt;34 -->
<g id="edge34" class="edge"><title>33&#45;&gt;34</title>
<path fill="none" stroke="black" d="M2304,-296.884C2304,-288.778 2304,-279.982 2304,-271.472"/>
<polygon fill="black" stroke="black" points="2307.5,-271.299 2304,-261.299 2300.5,-271.299 2307.5,-271.299"/>
</g>
<!-- 41 -->
<g id="node42" class="node"><title>41</title>
<polygon fill="#399de5" fill-opacity="0.164706" stroke="black" points="2546.5,-261 2441.5,-261 2441.5,-193 2546.5,-193 2546.5,-261"/>
<text text-anchor="middle" x="2494" y="-245.8" font-family="Times,serif" font-size="14.00">filter_in &lt;= 1.0</text>
<text text-anchor="middle" x="2494" y="-230.8" font-family="Times,serif" font-size="14.00">gini = 0.496</text>
<text text-anchor="middle" x="2494" y="-215.8" font-family="Times,serif" font-size="14.00">samples = 66</text>
<text text-anchor="middle" x="2494" y="-200.8" font-family="Times,serif" font-size="14.00">value = [30, 36]</text>
</g>
<!-- 33&#45;&gt;41 -->
<g id="edge41" class="edge"><title>33&#45;&gt;41</title>
<path fill="none" stroke="black" d="M2365.69,-296.884C2387.02,-285.431 2410.92,-272.601 2432.26,-261.147"/>
<polygon fill="black" stroke="black" points="2434.07,-264.143 2441.23,-256.33 2430.76,-257.976 2434.07,-264.143"/>
</g>
<!-- 35 -->
<g id="node36" class="node"><title>35</title>
<polygon fill="#399de5" fill-opacity="0.988235" stroke="black" points="2306.5,-157 2187.5,-157 2187.5,-89 2306.5,-89 2306.5,-157"/>
<text text-anchor="middle" x="2247" y="-141.8" font-family="Times,serif" font-size="14.00">filter_in &lt;= 3.0</text>
<text text-anchor="middle" x="2247" y="-126.8" font-family="Times,serif" font-size="14.00">gini = 0.021</text>
<text text-anchor="middle" x="2247" y="-111.8" font-family="Times,serif" font-size="14.00">samples = 7224</text>
<text text-anchor="middle" x="2247" y="-96.8" font-family="Times,serif" font-size="14.00">value = [77, 7147]</text>
</g>
<!-- 34&#45;&gt;35 -->
<g id="edge35" class="edge"><title>34&#45;&gt;35</title>
<path fill="none" stroke="black" d="M2285.49,-192.884C2280.72,-184.332 2275.51,-175.013 2270.51,-166.072"/>
<polygon fill="black" stroke="black" points="2273.54,-164.321 2265.61,-157.299 2267.43,-167.736 2273.54,-164.321"/>
</g>
<!-- 38 -->
<g id="node39" class="node"><title>38</title>
<polygon fill="#e58139" fill-opacity="0.749020" stroke="black" points="2427,-157 2325,-157 2325,-89 2427,-89 2427,-157"/>
<text text-anchor="middle" x="2376" y="-141.8" font-family="Times,serif" font-size="14.00">optional &lt;= 1.5</text>
<text text-anchor="middle" x="2376" y="-126.8" font-family="Times,serif" font-size="14.00">gini = 0.32</text>
<text text-anchor="middle" x="2376" y="-111.8" font-family="Times,serif" font-size="14.00">samples = 30</text>
<text text-anchor="middle" x="2376" y="-96.8" font-family="Times,serif" font-size="14.00">value = [24, 6]</text>
</g>
<!-- 34&#45;&gt;38 -->
<g id="edge38" class="edge"><title>34&#45;&gt;38</title>
<path fill="none" stroke="black" d="M2327.38,-192.884C2333.54,-184.154 2340.26,-174.625 2346.7,-165.514"/>
<polygon fill="black" stroke="black" points="2349.59,-167.487 2352.49,-157.299 2343.87,-163.451 2349.59,-167.487"/>
</g>
<!-- 36 -->
<g id="node37" class="node"><title>36</title>
<polygon fill="#399de5" fill-opacity="0.992157" stroke="black" points="2181.5,-53 2062.5,-53 2062.5,-0 2181.5,-0 2181.5,-53"/>
<text text-anchor="middle" x="2122" y="-37.8" font-family="Times,serif" font-size="14.00">gini = 0.012</text>
<text text-anchor="middle" x="2122" y="-22.8" font-family="Times,serif" font-size="14.00">samples = 6918</text>
<text text-anchor="middle" x="2122" y="-7.8" font-family="Times,serif" font-size="14.00">value = [41, 6877]</text>
</g>
<!-- 35&#45;&gt;36 -->
<g id="edge36" class="edge"><title>35&#45;&gt;36</title>
<path fill="none" stroke="black" d="M2203.28,-88.9485C2190.58,-79.3431 2176.73,-68.8747 2164.12,-59.345"/>
<polygon fill="black" stroke="black" points="2166.13,-56.4754 2156.04,-53.2367 2161.91,-62.0593 2166.13,-56.4754"/>
</g>
<!-- 37 -->
<g id="node38" class="node"><title>37</title>
<polygon fill="#399de5" fill-opacity="0.866667" stroke="black" points="2312,-53 2200,-53 2200,-0 2312,-0 2312,-53"/>
<text text-anchor="middle" x="2256" y="-37.8" font-family="Times,serif" font-size="14.00">gini = 0.208</text>
<text text-anchor="middle" x="2256" y="-22.8" font-family="Times,serif" font-size="14.00">samples = 306</text>
<text text-anchor="middle" x="2256" y="-7.8" font-family="Times,serif" font-size="14.00">value = [36, 270]</text>
</g>
<!-- 35&#45;&gt;37 -->
<g id="edge37" class="edge"><title>35&#45;&gt;37</title>
<path fill="none" stroke="black" d="M2250.15,-88.9485C2250.94,-80.6238 2251.8,-71.6509 2252.6,-63.2027"/>
<polygon fill="black" stroke="black" points="2256.08,-63.5235 2253.55,-53.2367 2249.12,-62.8598 2256.08,-63.5235"/>
</g>
<!-- 39 -->
<g id="node40" class="node"><title>39</title>
<polygon fill="#399de5" stroke="black" points="2422,-53 2330,-53 2330,-0 2422,-0 2422,-53"/>
<text text-anchor="middle" x="2376" y="-37.8" font-family="Times,serif" font-size="14.00">gini = 0.0</text>
<text text-anchor="middle" x="2376" y="-22.8" font-family="Times,serif" font-size="14.00">samples = 6</text>
<text text-anchor="middle" x="2376" y="-7.8" font-family="Times,serif" font-size="14.00">value = [0, 6]</text>
</g>
<!-- 38&#45;&gt;39 -->
<g id="edge39" class="edge"><title>38&#45;&gt;39</title>
<path fill="none" stroke="black" d="M2376,-88.9485C2376,-80.7153 2376,-71.848 2376,-63.4814"/>
<polygon fill="black" stroke="black" points="2379.5,-63.2367 2376,-53.2367 2372.5,-63.2367 2379.5,-63.2367"/>
</g>
<!-- 40 -->
<g id="node41" class="node"><title>40</title>
<polygon fill="#e58139" stroke="black" points="2538,-53 2440,-53 2440,-0 2538,-0 2538,-53"/>
<text text-anchor="middle" x="2489" y="-37.8" font-family="Times,serif" font-size="14.00">gini = 0.0</text>
<text text-anchor="middle" x="2489" y="-22.8" font-family="Times,serif" font-size="14.00">samples = 24</text>
<text text-anchor="middle" x="2489" y="-7.8" font-family="Times,serif" font-size="14.00">value = [24, 0]</text>
</g>
<!-- 38&#45;&gt;40 -->
<g id="edge40" class="edge"><title>38&#45;&gt;40</title>
<path fill="none" stroke="black" d="M2415.52,-88.9485C2426.79,-79.526 2439.05,-69.2731 2450.27,-59.8906"/>
<polygon fill="black" stroke="black" points="2452.8,-62.3368 2458.22,-53.2367 2448.31,-56.967 2452.8,-62.3368"/>
</g>
<!-- 42 -->
<g id="node43" class="node"><title>42</title>
<polygon fill="#399de5" stroke="black" points="2543,-149.5 2445,-149.5 2445,-96.5 2543,-96.5 2543,-149.5"/>
<text text-anchor="middle" x="2494" y="-134.3" font-family="Times,serif" font-size="14.00">gini = 0.0</text>
<text text-anchor="middle" x="2494" y="-119.3" font-family="Times,serif" font-size="14.00">samples = 36</text>
<text text-anchor="middle" x="2494" y="-104.3" font-family="Times,serif" font-size="14.00">value = [0, 36]</text>
</g>
<!-- 41&#45;&gt;42 -->
<g id="edge42" class="edge"><title>41&#45;&gt;42</title>
<path fill="none" stroke="black" d="M2494,-192.884C2494,-182.326 2494,-170.597 2494,-159.854"/>
<polygon fill="black" stroke="black" points="2497.5,-159.52 2494,-149.52 2490.5,-159.52 2497.5,-159.52"/>
</g>
<!-- 43 -->
<g id="node44" class="node"><title>43</title>
<polygon fill="#e58139" stroke="black" points="2659,-149.5 2561,-149.5 2561,-96.5 2659,-96.5 2659,-149.5"/>
<text text-anchor="middle" x="2610" y="-134.3" font-family="Times,serif" font-size="14.00">gini = 0.0</text>
<text text-anchor="middle" x="2610" y="-119.3" font-family="Times,serif" font-size="14.00">samples = 30</text>
<text text-anchor="middle" x="2610" y="-104.3" font-family="Times,serif" font-size="14.00">value = [30, 0]</text>
</g>
<!-- 41&#45;&gt;43 -->
<g id="edge43" class="edge"><title>41&#45;&gt;43</title>
<path fill="none" stroke="black" d="M2531.66,-192.884C2545.04,-181.116 2560.08,-167.894 2573.38,-156.203"/>
<polygon fill="black" stroke="black" points="2575.78,-158.752 2580.98,-149.52 2571.16,-153.495 2575.78,-158.752"/>
</g>
</g>
</svg>
