<?xml version="1.0" encoding="UTF-8" standalone="no"?>
<!DOCTYPE svg PUBLIC "-//W3C//DTD SVG 1.1//EN"
 "http://www.w3.org/Graphics/SVG/1.1/DTD/svg11.dtd">
<!-- Generated by graphviz version 2.38.0 (20140413.2041)
 -->
<!-- Title: Tree Pages: 1 -->
<svg width="2691pt" height="477pt"
 viewBox="0.00 0.00 2690.50 477.00" xmlns="http://www.w3.org/2000/svg" xmlns:xlink="http://www.w3.org/1999/xlink">
<g id="graph0" class="graph" transform="scale(1 1) rotate(0) translate(4 473)">
<title>Tree</title>
<polygon fill="white" stroke="none" points="-4,4 -4,-473 2686.5,-473 2686.5,4 -4,4"/>
<!-- 0 -->
<g id="node1" class="node"><title>0</title>
<polygon fill="#e58139" fill-opacity="0.615686" stroke="black" points="1479.5,-469 1285.5,-469 1285.5,-401 1479.5,-401 1479.5,-469"/>
<text text-anchor="middle" x="1382.5" y="-453.8" font-family="Times,serif" font-size="14.00">sim &lt;= 2.5</text>
<text text-anchor="middle" x="1382.5" y="-438.8" font-family="Times,serif" font-size="14.00">gini = 0.514</text>
<text text-anchor="middle" x="1382.5" y="-423.8" font-family="Times,serif" font-size="14.00">samples = 13058</text>
<text text-anchor="middle" x="1382.5" y="-408.8" font-family="Times,serif" font-size="14.00">value = [8726, 1790, 1649, 893]</text>
</g>
<!-- 1 -->
<g id="node2" class="node"><title>1</title>
<polygon fill="#e58139" fill-opacity="0.294118" stroke="black" points="1159.5,-365 965.5,-365 965.5,-297 1159.5,-297 1159.5,-365"/>
<text text-anchor="middle" x="1062.5" y="-349.8" font-family="Times,serif" font-size="14.00">filter &lt;= 1.5</text>
<text text-anchor="middle" x="1062.5" y="-334.8" font-family="Times,serif" font-size="14.00">gini = 0.679</text>
<text text-anchor="middle" x="1062.5" y="-319.8" font-family="Times,serif" font-size="14.00">samples = 5869</text>
<text text-anchor="middle" x="1062.5" y="-304.8" font-family="Times,serif" font-size="14.00">value = [2734, 1055, 1432, 648]</text>
</g>
<!-- 0&#45;&gt;1 -->
<g id="edge1" class="edge"><title>0&#45;&gt;1</title>
<path fill="none" stroke="black" d="M1285.19,-402.981C1248.64,-391.333 1206.92,-378.033 1169.54,-366.118"/>
<polygon fill="black" stroke="black" points="1170.22,-362.661 1159.63,-362.959 1168.09,-369.331 1170.22,-362.661"/>
<text text-anchor="middle" x="1171.1" y="-381.47" font-family="Times,serif" font-size="14.00">True</text>
</g>
<!-- 16 -->
<g id="node17" class="node"><title>16</title>
<polygon fill="#e58139" fill-opacity="0.815686" stroke="black" points="1804,-365 1623,-365 1623,-297 1804,-297 1804,-365"/>
<text text-anchor="middle" x="1713.5" y="-349.8" font-family="Times,serif" font-size="14.00">triplePattern &lt;= 14.5</text>
<text text-anchor="middle" x="1713.5" y="-334.8" font-family="Times,serif" font-size="14.00">gini = 0.293</text>
<text text-anchor="middle" x="1713.5" y="-319.8" font-family="Times,serif" font-size="14.00">samples = 7189</text>
<text text-anchor="middle" x="1713.5" y="-304.8" font-family="Times,serif" font-size="14.00">value = [5992, 735, 217, 245]</text>
</g>
<!-- 0&#45;&gt;16 -->
<g id="edge16" class="edge"><title>0&#45;&gt;16</title>
<path fill="none" stroke="black" d="M1479.57,-404.086C1521.61,-391.134 1570.78,-375.979 1613.17,-362.917"/>
<polygon fill="black" stroke="black" points="1614.42,-366.194 1622.95,-359.904 1612.36,-359.504 1614.42,-366.194"/>
<text text-anchor="middle" x="1611.26" y="-378.304" font-family="Times,serif" font-size="14.00">False</text>
</g>
<!-- 2 -->
<g id="node3" class="node"><title>2</title>
<polygon fill="#e58139" fill-opacity="0.568627" stroke="black" points="624,-261 443,-261 443,-193 624,-193 624,-261"/>
<text text-anchor="middle" x="533.5" y="-245.8" font-family="Times,serif" font-size="14.00">sim &lt;= 1.5</text>
<text text-anchor="middle" x="533.5" y="-230.8" font-family="Times,serif" font-size="14.00">gini = 0.534</text>
<text text-anchor="middle" x="533.5" y="-215.8" font-family="Times,serif" font-size="14.00">samples = 3772</text>
<text text-anchor="middle" x="533.5" y="-200.8" font-family="Times,serif" font-size="14.00">value = [2437, 400, 678, 257]</text>
</g>
<!-- 1&#45;&gt;2 -->
<g id="edge2" class="edge"><title>1&#45;&gt;2</title>
<path fill="none" stroke="black" d="M965.473,-311.292C871.414,-293.156 729.356,-265.764 634.103,-247.398"/>
<polygon fill="black" stroke="black" points="634.652,-243.939 624.171,-245.483 633.327,-250.813 634.652,-243.939"/>
</g>
<!-- 9 -->
<g id="node10" class="node"><title>9</title>
<polygon fill="#399de5" fill-opacity="0.070588" stroke="black" points="1149.5,-261 975.5,-261 975.5,-193 1149.5,-193 1149.5,-261"/>
<text text-anchor="middle" x="1062.5" y="-245.8" font-family="Times,serif" font-size="14.00">sim &lt;= 1.5</text>
<text text-anchor="middle" x="1062.5" y="-230.8" font-family="Times,serif" font-size="14.00">gini = 0.718</text>
<text text-anchor="middle" x="1062.5" y="-215.8" font-family="Times,serif" font-size="14.00">samples = 2097</text>
<text text-anchor="middle" x="1062.5" y="-200.8" font-family="Times,serif" font-size="14.00">value = [297, 655, 754, 391]</text>
</g>
<!-- 1&#45;&gt;9 -->
<g id="edge9" class="edge"><title>1&#45;&gt;9</title>
<path fill="none" stroke="black" d="M1062.5,-296.884C1062.5,-288.778 1062.5,-279.982 1062.5,-271.472"/>
<polygon fill="black" stroke="black" points="1066,-271.299 1062.5,-261.299 1059,-271.299 1066,-271.299"/>
</g>
<!-- 3 -->
<g id="node4" class="node"><title>3</title>
<polygon fill="#e58139" fill-opacity="0.682353" stroke="black" points="357,-157 176,-157 176,-89 357,-89 357,-157"/>
<text text-anchor="middle" x="266.5" y="-141.8" font-family="Times,serif" font-size="14.00">triplePattern &lt;= 3.5</text>
<text text-anchor="middle" x="266.5" y="-126.8" font-family="Times,serif" font-size="14.00">gini = 0.446</text>
<text text-anchor="middle" x="266.5" y="-111.8" font-family="Times,serif" font-size="14.00">samples = 2774</text>
<text text-anchor="middle" x="266.5" y="-96.8" font-family="Times,serif" font-size="14.00">value = [2011, 374, 220, 169]</text>
</g>
<!-- 2&#45;&gt;3 -->
<g id="edge3" class="edge"><title>2&#45;&gt;3</title>
<path fill="none" stroke="black" d="M446.813,-192.884C419.979,-182.633 390.257,-171.278 362.813,-160.794"/>
<polygon fill="black" stroke="black" points="363.799,-157.424 353.209,-157.125 361.301,-163.963 363.799,-157.424"/>
</g>
<!-- 6 -->
<g id="node7" class="node"><title>6</title>
<polygon fill="#399de5" fill-opacity="0.054902" stroke="black" points="614,-157 453,-157 453,-89 614,-89 614,-157"/>
<text text-anchor="middle" x="533.5" y="-141.8" font-family="Times,serif" font-size="14.00">triplePattern &lt;= 1.5</text>
<text text-anchor="middle" x="533.5" y="-126.8" font-family="Times,serif" font-size="14.00">gini = 0.599</text>
<text text-anchor="middle" x="533.5" y="-111.8" font-family="Times,serif" font-size="14.00">samples = 998</text>
<text text-anchor="middle" x="533.5" y="-96.8" font-family="Times,serif" font-size="14.00">value = [426, 26, 458, 88]</text>
</g>
<!-- 2&#45;&gt;6 -->
<g id="edge6" class="edge"><title>2&#45;&gt;6</title>
<path fill="none" stroke="black" d="M533.5,-192.884C533.5,-184.778 533.5,-175.982 533.5,-167.472"/>
<polygon fill="black" stroke="black" points="537,-167.299 533.5,-157.299 530,-167.299 537,-167.299"/>
</g>
<!-- 4 -->
<g id="node5" class="node"><title>4</title>
<polygon fill="#e58139" fill-opacity="0.686275" stroke="black" points="181,-53 0,-53 0,-0 181,-0 181,-53"/>
<text text-anchor="middle" x="90.5" y="-37.8" font-family="Times,serif" font-size="14.00">gini = 0.442</text>
<text text-anchor="middle" x="90.5" y="-22.8" font-family="Times,serif" font-size="14.00">samples = 2721</text>
<text text-anchor="middle" x="90.5" y="-7.8" font-family="Times,serif" font-size="14.00">value = [1981, 363, 213, 164]</text>
</g>
<!-- 3&#45;&gt;4 -->
<g id="edge4" class="edge"><title>3&#45;&gt;4</title>
<path fill="none" stroke="black" d="M204.944,-88.9485C186.117,-78.8399 165.511,-67.7756 147.035,-57.8555"/>
<polygon fill="black" stroke="black" points="148.62,-54.7337 138.154,-53.0867 145.308,-60.9009 148.62,-54.7337"/>
</g>
<!-- 5 -->
<g id="node6" class="node"><title>5</title>
<polygon fill="#e58139" fill-opacity="0.450980" stroke="black" points="333.5,-53 199.5,-53 199.5,-0 333.5,-0 333.5,-53"/>
<text text-anchor="middle" x="266.5" y="-37.8" font-family="Times,serif" font-size="14.00">gini = 0.61</text>
<text text-anchor="middle" x="266.5" y="-22.8" font-family="Times,serif" font-size="14.00">samples = 53</text>
<text text-anchor="middle" x="266.5" y="-7.8" font-family="Times,serif" font-size="14.00">value = [30, 11, 7, 5]</text>
</g>
<!-- 3&#45;&gt;5 -->
<g id="edge5" class="edge"><title>3&#45;&gt;5</title>
<path fill="none" stroke="black" d="M266.5,-88.9485C266.5,-80.7153 266.5,-71.848 266.5,-63.4814"/>
<polygon fill="black" stroke="black" points="270,-63.2367 266.5,-53.2367 263,-63.2367 270,-63.2367"/>
</g>
<!-- 7 -->
<g id="node8" class="node"><title>7</title>
<polygon fill="#399de5" fill-opacity="0.172549" stroke="black" points="513,-53 352,-53 352,-0 513,-0 513,-53"/>
<text text-anchor="middle" x="432.5" y="-37.8" font-family="Times,serif" font-size="14.00">gini = 0.585</text>
<text text-anchor="middle" x="432.5" y="-22.8" font-family="Times,serif" font-size="14.00">samples = 521</text>
<text text-anchor="middle" x="432.5" y="-7.8" font-family="Times,serif" font-size="14.00">value = [207, 13, 261, 40]</text>
</g>
<!-- 6&#45;&gt;7 -->
<g id="edge7" class="edge"><title>6&#45;&gt;7</title>
<path fill="none" stroke="black" d="M498.175,-88.9485C488.202,-79.6175 477.359,-69.4722 467.411,-60.1641"/>
<polygon fill="black" stroke="black" points="469.7,-57.5132 460.007,-53.2367 464.918,-62.6247 469.7,-57.5132"/>
</g>
<!-- 8 -->
<g id="node9" class="node"><title>8</title>
<polygon fill="#e58139" fill-opacity="0.078431" stroke="black" points="692,-53 531,-53 531,-0 692,-0 692,-53"/>
<text text-anchor="middle" x="611.5" y="-37.8" font-family="Times,serif" font-size="14.00">gini = 0.608</text>
<text text-anchor="middle" x="611.5" y="-22.8" font-family="Times,serif" font-size="14.00">samples = 477</text>
<text text-anchor="middle" x="611.5" y="-7.8" font-family="Times,serif" font-size="14.00">value = [219, 13, 197, 48]</text>
</g>
<!-- 6&#45;&gt;8 -->
<g id="edge8" class="edge"><title>6&#45;&gt;8</title>
<path fill="none" stroke="black" d="M560.781,-88.9485C568.256,-79.892 576.364,-70.0682 583.86,-60.9875"/>
<polygon fill="black" stroke="black" points="586.591,-63.1769 590.257,-53.2367 581.192,-58.721 586.591,-63.1769"/>
</g>
<!-- 10 -->
<g id="node11" class="node"><title>10</title>
<polygon fill="#47e539" fill-opacity="0.070588" stroke="black" points="1054.5,-157 880.5,-157 880.5,-89 1054.5,-89 1054.5,-157"/>
<text text-anchor="middle" x="967.5" y="-141.8" font-family="Times,serif" font-size="14.00">triplePattern &lt;= 6.5</text>
<text text-anchor="middle" x="967.5" y="-126.8" font-family="Times,serif" font-size="14.00">gini = 0.67</text>
<text text-anchor="middle" x="967.5" y="-111.8" font-family="Times,serif" font-size="14.00">samples = 1512</text>
<text text-anchor="middle" x="967.5" y="-96.8" font-family="Times,serif" font-size="14.00">value = [124, 621, 555, 212]</text>
</g>
<!-- 9&#45;&gt;10 -->
<g id="edge10" class="edge"><title>9&#45;&gt;10</title>
<path fill="none" stroke="black" d="M1031.66,-192.884C1023.28,-183.887 1014.11,-174.041 1005.39,-164.678"/>
<polygon fill="black" stroke="black" points="1007.89,-162.232 998.514,-157.299 1002.77,-167.003 1007.89,-162.232"/>
</g>
<!-- 13 -->
<g id="node14" class="node"><title>13</title>
<polygon fill="#399de5" fill-opacity="0.050980" stroke="black" points="1240,-157 1073,-157 1073,-89 1240,-89 1240,-157"/>
<text text-anchor="middle" x="1156.5" y="-141.8" font-family="Times,serif" font-size="14.00">triplePattern &lt;= 12.5</text>
<text text-anchor="middle" x="1156.5" y="-126.8" font-family="Times,serif" font-size="14.00">gini = 0.7</text>
<text text-anchor="middle" x="1156.5" y="-111.8" font-family="Times,serif" font-size="14.00">samples = 585</text>
<text text-anchor="middle" x="1156.5" y="-96.8" font-family="Times,serif" font-size="14.00">value = [173, 34, 199, 179]</text>
</g>
<!-- 9&#45;&gt;13 -->
<g id="edge13" class="edge"><title>9&#45;&gt;13</title>
<path fill="none" stroke="black" d="M1093.02,-192.884C1101.31,-183.887 1110.38,-174.041 1119.01,-164.678"/>
<polygon fill="black" stroke="black" points="1121.61,-167.025 1125.81,-157.299 1116.46,-162.281 1121.61,-167.025"/>
</g>
<!-- 11 -->
<g id="node12" class="node"><title>11</title>
<polygon fill="#399de5" fill-opacity="0.337255" stroke="black" points="877,-53 710,-53 710,-0 877,-0 877,-53"/>
<text text-anchor="middle" x="793.5" y="-37.8" font-family="Times,serif" font-size="14.00">gini = 0.599</text>
<text text-anchor="middle" x="793.5" y="-22.8" font-family="Times,serif" font-size="14.00">samples = 913</text>
<text text-anchor="middle" x="793.5" y="-7.8" font-family="Times,serif" font-size="14.00">value = [26, 278, 493, 116]</text>
</g>
<!-- 10&#45;&gt;11 -->
<g id="edge11" class="edge"><title>10&#45;&gt;11</title>
<path fill="none" stroke="black" d="M906.643,-88.9485C888.2,-78.9318 868.029,-67.9767 849.891,-58.1263"/>
<polygon fill="black" stroke="black" points="851.07,-54.7837 840.612,-53.0867 847.729,-60.935 851.07,-54.7837"/>
</g>
<!-- 12 -->
<g id="node13" class="node"><title>12</title>
<polygon fill="#47e539" fill-opacity="0.490196" stroke="black" points="1049.5,-53 895.5,-53 895.5,-0 1049.5,-0 1049.5,-53"/>
<text text-anchor="middle" x="972.5" y="-37.8" font-family="Times,serif" font-size="14.00">gini = 0.609</text>
<text text-anchor="middle" x="972.5" y="-22.8" font-family="Times,serif" font-size="14.00">samples = 599</text>
<text text-anchor="middle" x="972.5" y="-7.8" font-family="Times,serif" font-size="14.00">value = [98, 343, 62, 96]</text>
</g>
<!-- 10&#45;&gt;12 -->
<g id="edge12" class="edge"><title>10&#45;&gt;12</title>
<path fill="none" stroke="black" d="M969.249,-88.9485C969.684,-80.7153 970.154,-71.848 970.596,-63.4814"/>
<polygon fill="black" stroke="black" points="974.105,-63.4077 971.138,-53.2367 967.115,-63.0378 974.105,-63.4077"/>
</g>
<!-- 14 -->
<g id="node15" class="node"><title>14</title>
<polygon fill="#d739e5" fill-opacity="0.090196" stroke="black" points="1235,-53 1068,-53 1068,-0 1235,-0 1235,-53"/>
<text text-anchor="middle" x="1151.5" y="-37.8" font-family="Times,serif" font-size="14.00">gini = 0.701</text>
<text text-anchor="middle" x="1151.5" y="-22.8" font-family="Times,serif" font-size="14.00">samples = 423</text>
<text text-anchor="middle" x="1151.5" y="-7.8" font-family="Times,serif" font-size="14.00">value = [118, 28, 125, 152]</text>
</g>
<!-- 13&#45;&gt;14 -->
<g id="edge14" class="edge"><title>13&#45;&gt;14</title>
<path fill="none" stroke="black" d="M1154.75,-88.9485C1154.32,-80.7153 1153.85,-71.848 1153.4,-63.4814"/>
<polygon fill="black" stroke="black" points="1156.89,-63.0378 1152.86,-53.2367 1149.9,-63.4077 1156.89,-63.0378"/>
</g>
<!-- 15 -->
<g id="node16" class="node"><title>15</title>
<polygon fill="#399de5" fill-opacity="0.176471" stroke="black" points="1393.5,-53 1253.5,-53 1253.5,-0 1393.5,-0 1393.5,-53"/>
<text text-anchor="middle" x="1323.5" y="-37.8" font-family="Times,serif" font-size="14.00">gini = 0.647</text>
<text text-anchor="middle" x="1323.5" y="-22.8" font-family="Times,serif" font-size="14.00">samples = 162</text>
<text text-anchor="middle" x="1323.5" y="-7.8" font-family="Times,serif" font-size="14.00">value = [55, 6, 74, 27]</text>
</g>
<!-- 13&#45;&gt;15 -->
<g id="edge15" class="edge"><title>13&#45;&gt;15</title>
<path fill="none" stroke="black" d="M1214.91,-88.9485C1232.61,-78.9318 1251.97,-67.9767 1269.38,-58.1263"/>
<polygon fill="black" stroke="black" points="1271.3,-61.0577 1278.28,-53.0867 1267.86,-54.9655 1271.3,-61.0577"/>
</g>
<!-- 17 -->
<g id="node18" class="node"><title>17</title>
<polygon fill="#e58139" fill-opacity="0.886275" stroke="black" points="1800.5,-261 1626.5,-261 1626.5,-193 1800.5,-193 1800.5,-261"/>
<text text-anchor="middle" x="1713.5" y="-245.8" font-family="Times,serif" font-size="14.00">filter &lt;= 0.5</text>
<text text-anchor="middle" x="1713.5" y="-230.8" font-family="Times,serif" font-size="14.00">gini = 0.197</text>
<text text-anchor="middle" x="1713.5" y="-215.8" font-family="Times,serif" font-size="14.00">samples = 6529</text>
<text text-anchor="middle" x="1713.5" y="-200.8" font-family="Times,serif" font-size="14.00">value = [5833, 403, 98, 195]</text>
</g>
<!-- 16&#45;&gt;17 -->
<g id="edge17" class="edge"><title>16&#45;&gt;17</title>
<path fill="none" stroke="black" d="M1713.5,-296.884C1713.5,-288.778 1713.5,-279.982 1713.5,-271.472"/>
<polygon fill="black" stroke="black" points="1717,-271.299 1713.5,-261.299 1710,-271.299 1717,-271.299"/>
</g>
<!-- 24 -->
<g id="node25" class="node"><title>24</title>
<polygon fill="#47e539" fill-opacity="0.345098" stroke="black" points="2317,-261 2150,-261 2150,-193 2317,-193 2317,-261"/>
<text text-anchor="middle" x="2233.5" y="-245.8" font-family="Times,serif" font-size="14.00">filter_in &lt;= 3.0</text>
<text text-anchor="middle" x="2233.5" y="-230.8" font-family="Times,serif" font-size="14.00">gini = 0.651</text>
<text text-anchor="middle" x="2233.5" y="-215.8" font-family="Times,serif" font-size="14.00">samples = 660</text>
<text text-anchor="middle" x="2233.5" y="-200.8" font-family="Times,serif" font-size="14.00">value = [159, 332, 119, 50]</text>
</g>
<!-- 16&#45;&gt;24 -->
<g id="edge24" class="edge"><title>16&#45;&gt;24</title>
<path fill="none" stroke="black" d="M1804.08,-312.233C1898.22,-293.766 2044.87,-265.001 2140.06,-246.328"/>
<polygon fill="black" stroke="black" points="2140.83,-249.744 2149.97,-244.385 2139.48,-242.875 2140.83,-249.744"/>
</g>
<!-- 18 -->
<g id="node19" class="node"><title>18</title>
<polygon fill="#e58139" fill-opacity="0.996078" stroke="black" points="1696.5,-157 1556.5,-157 1556.5,-89 1696.5,-89 1696.5,-157"/>
<text text-anchor="middle" x="1626.5" y="-141.8" font-family="Times,serif" font-size="14.00">triplePattern &lt;= 7.0</text>
<text text-anchor="middle" x="1626.5" y="-126.8" font-family="Times,serif" font-size="14.00">gini = 0.007</text>
<text text-anchor="middle" x="1626.5" y="-111.8" font-family="Times,serif" font-size="14.00">samples = 3546</text>
<text text-anchor="middle" x="1626.5" y="-96.8" font-family="Times,serif" font-size="14.00">value = [3534, 7, 3, 2]</text>
</g>
<!-- 17&#45;&gt;18 -->
<g id="edge18" class="edge"><title>17&#45;&gt;18</title>
<path fill="none" stroke="black" d="M1685.25,-192.884C1677.66,-183.976 1669.35,-174.235 1661.43,-164.957"/>
<polygon fill="black" stroke="black" points="1664.05,-162.636 1654.9,-157.299 1658.73,-167.179 1664.05,-162.636"/>
</g>
<!-- 21 -->
<g id="node22" class="node"><title>21</title>
<polygon fill="#e58139" fill-opacity="0.737255" stroke="black" points="1888.5,-157 1714.5,-157 1714.5,-89 1888.5,-89 1888.5,-157"/>
<text text-anchor="middle" x="1801.5" y="-141.8" font-family="Times,serif" font-size="14.00">filter &lt;= 4.5</text>
<text text-anchor="middle" x="1801.5" y="-126.8" font-family="Times,serif" font-size="14.00">gini = 0.383</text>
<text text-anchor="middle" x="1801.5" y="-111.8" font-family="Times,serif" font-size="14.00">samples = 2983</text>
<text text-anchor="middle" x="1801.5" y="-96.8" font-family="Times,serif" font-size="14.00">value = [2299, 396, 95, 193]</text>
</g>
<!-- 17&#45;&gt;21 -->
<g id="edge21" class="edge"><title>17&#45;&gt;21</title>
<path fill="none" stroke="black" d="M1742.07,-192.884C1749.76,-183.976 1758.16,-174.235 1766.16,-164.957"/>
<polygon fill="black" stroke="black" points="1768.89,-167.157 1772.77,-157.299 1763.59,-162.585 1768.89,-167.157"/>
</g>
<!-- 19 -->
<g id="node20" class="node"><title>19</title>
<polygon fill="#e58139" fill-opacity="0.996078" stroke="black" points="1551.5,-53 1411.5,-53 1411.5,-0 1551.5,-0 1551.5,-53"/>
<text text-anchor="middle" x="1481.5" y="-37.8" font-family="Times,serif" font-size="14.00">gini = 0.006</text>
<text text-anchor="middle" x="1481.5" y="-22.8" font-family="Times,serif" font-size="14.00">samples = 3510</text>
<text text-anchor="middle" x="1481.5" y="-7.8" font-family="Times,serif" font-size="14.00">value = [3499, 6, 3, 2]</text>
</g>
<!-- 18&#45;&gt;19 -->
<g id="edge19" class="edge"><title>18&#45;&gt;19</title>
<path fill="none" stroke="black" d="M1575.79,-88.9485C1560.77,-79.1601 1544.37,-68.4756 1529.53,-58.8015"/>
<polygon fill="black" stroke="black" points="1531.28,-55.7645 1520.99,-53.2367 1527.46,-61.629 1531.28,-55.7645"/>
</g>
<!-- 20 -->
<g id="node21" class="node"><title>20</title>
<polygon fill="#e58139" fill-opacity="0.972549" stroke="black" points="1697,-53 1570,-53 1570,-0 1697,-0 1697,-53"/>
<text text-anchor="middle" x="1633.5" y="-37.8" font-family="Times,serif" font-size="14.00">gini = 0.054</text>
<text text-anchor="middle" x="1633.5" y="-22.8" font-family="Times,serif" font-size="14.00">samples = 36</text>
<text text-anchor="middle" x="1633.5" y="-7.8" font-family="Times,serif" font-size="14.00">value = [35, 1, 0, 0]</text>
</g>
<!-- 18&#45;&gt;20 -->
<g id="edge20" class="edge"><title>18&#45;&gt;20</title>
<path fill="none" stroke="black" d="M1628.95,-88.9485C1629.56,-80.7153 1630.21,-71.848 1630.83,-63.4814"/>
<polygon fill="black" stroke="black" points="1634.35,-63.468 1631.59,-53.2367 1627.36,-62.9508 1634.35,-63.468"/>
</g>
<!-- 22 -->
<g id="node23" class="node"><title>22</title>
<polygon fill="#e58139" fill-opacity="0.211765" stroke="black" points="1876,-53 1715,-53 1715,-0 1876,-0 1876,-53"/>
<text text-anchor="middle" x="1795.5" y="-37.8" font-family="Times,serif" font-size="14.00">gini = 0.567</text>
<text text-anchor="middle" x="1795.5" y="-22.8" font-family="Times,serif" font-size="14.00">samples = 619</text>
<text text-anchor="middle" x="1795.5" y="-7.8" font-family="Times,serif" font-size="14.00">value = [324, 244, 22, 29]</text>
</g>
<!-- 21&#45;&gt;22 -->
<g id="edge22" class="edge"><title>21&#45;&gt;22</title>
<path fill="none" stroke="black" d="M1799.4,-88.9485C1798.88,-80.7153 1798.32,-71.848 1797.78,-63.4814"/>
<polygon fill="black" stroke="black" points="1801.26,-62.9948 1797.13,-53.2367 1794.27,-63.4384 1801.26,-62.9948"/>
</g>
<!-- 23 -->
<g id="node24" class="node"><title>23</title>
<polygon fill="#e58139" fill-opacity="0.823529" stroke="black" points="2068.5,-53 1894.5,-53 1894.5,-0 2068.5,-0 2068.5,-53"/>
<text text-anchor="middle" x="1981.5" y="-37.8" font-family="Times,serif" font-size="14.00">gini = 0.292</text>
<text text-anchor="middle" x="1981.5" y="-22.8" font-family="Times,serif" font-size="14.00">samples = 2364</text>
<text text-anchor="middle" x="1981.5" y="-7.8" font-family="Times,serif" font-size="14.00">value = [1975, 152, 73, 164]</text>
</g>
<!-- 21&#45;&gt;23 -->
<g id="edge23" class="edge"><title>21&#45;&gt;23</title>
<path fill="none" stroke="black" d="M1864.46,-88.9485C1883.71,-78.8399 1904.78,-67.7756 1923.68,-57.8555"/>
<polygon fill="black" stroke="black" points="1925.54,-60.834 1932.76,-53.0867 1922.28,-54.6362 1925.54,-60.834"/>
</g>
<!-- 25 -->
<g id="node26" class="node"><title>25</title>
<polygon fill="#e58139" fill-opacity="0.121569" stroke="black" points="2314,-157 2153,-157 2153,-89 2314,-89 2314,-157"/>
<text text-anchor="middle" x="2233.5" y="-141.8" font-family="Times,serif" font-size="14.00">triplePattern &lt;= 20.5</text>
<text text-anchor="middle" x="2233.5" y="-126.8" font-family="Times,serif" font-size="14.00">gini = 0.713</text>
<text text-anchor="middle" x="2233.5" y="-111.8" font-family="Times,serif" font-size="14.00">samples = 402</text>
<text text-anchor="middle" x="2233.5" y="-96.8" font-family="Times,serif" font-size="14.00">value = [153, 82, 118, 49]</text>
</g>
<!-- 24&#45;&gt;25 -->
<g id="edge25" class="edge"><title>24&#45;&gt;25</title>
<path fill="none" stroke="black" d="M2233.5,-192.884C2233.5,-184.778 2233.5,-175.982 2233.5,-167.472"/>
<polygon fill="black" stroke="black" points="2237,-167.299 2233.5,-157.299 2230,-167.299 2237,-167.299"/>
</g>
<!-- 28 -->
<g id="node29" class="node"><title>28</title>
<polygon fill="#47e539" fill-opacity="0.968627" stroke="black" points="2537.5,-157 2403.5,-157 2403.5,-89 2537.5,-89 2537.5,-157"/>
<text text-anchor="middle" x="2470.5" y="-141.8" font-family="Times,serif" font-size="14.00">count &lt;= 0.5</text>
<text text-anchor="middle" x="2470.5" y="-126.8" font-family="Times,serif" font-size="14.00">gini = 0.06</text>
<text text-anchor="middle" x="2470.5" y="-111.8" font-family="Times,serif" font-size="14.00">samples = 258</text>
<text text-anchor="middle" x="2470.5" y="-96.8" font-family="Times,serif" font-size="14.00">value = [6, 250, 1, 1]</text>
</g>
<!-- 24&#45;&gt;28 -->
<g id="edge28" class="edge"><title>24&#45;&gt;28</title>
<path fill="none" stroke="black" d="M2310.45,-192.884C2337.17,-181.384 2367.11,-168.495 2393.81,-157.004"/>
<polygon fill="black" stroke="black" points="2395.31,-160.171 2403.11,-153.003 2392.54,-153.741 2395.31,-160.171"/>
</g>
<!-- 26 -->
<g id="node27" class="node"><title>26</title>
<polygon fill="#399de5" fill-opacity="0.176471" stroke="black" points="2240.5,-53 2086.5,-53 2086.5,-0 2240.5,-0 2240.5,-53"/>
<text text-anchor="middle" x="2163.5" y="-37.8" font-family="Times,serif" font-size="14.00">gini = 0.688</text>
<text text-anchor="middle" x="2163.5" y="-22.8" font-family="Times,serif" font-size="14.00">samples = 276</text>
<text text-anchor="middle" x="2163.5" y="-7.8" font-family="Times,serif" font-size="14.00">value = [84, 31, 118, 43]</text>
</g>
<!-- 25&#45;&gt;26 -->
<g id="edge26" class="edge"><title>25&#45;&gt;26</title>
<path fill="none" stroke="black" d="M2209.02,-88.9485C2202.44,-80.0749 2195.33,-70.4648 2188.71,-61.5388"/>
<polygon fill="black" stroke="black" points="2191.33,-59.189 2182.56,-53.2367 2185.7,-63.3556 2191.33,-59.189"/>
</g>
<!-- 27 -->
<g id="node28" class="node"><title>27</title>
<polygon fill="#e58139" fill-opacity="0.239216" stroke="black" points="2392.5,-53 2258.5,-53 2258.5,-0 2392.5,-0 2392.5,-53"/>
<text text-anchor="middle" x="2325.5" y="-37.8" font-family="Times,serif" font-size="14.00">gini = 0.534</text>
<text text-anchor="middle" x="2325.5" y="-22.8" font-family="Times,serif" font-size="14.00">samples = 126</text>
<text text-anchor="middle" x="2325.5" y="-7.8" font-family="Times,serif" font-size="14.00">value = [69, 51, 0, 6]</text>
</g>
<!-- 25&#45;&gt;27 -->
<g id="edge27" class="edge"><title>25&#45;&gt;27</title>
<path fill="none" stroke="black" d="M2265.68,-88.9485C2274.67,-79.709 2284.44,-69.671 2293.43,-60.4381"/>
<polygon fill="black" stroke="black" points="2295.98,-62.8434 2300.44,-53.2367 2290.96,-57.9605 2295.98,-62.8434"/>
</g>
<!-- 29 -->
<g id="node30" class="node"><title>29</title>
<polygon fill="#47e539" fill-opacity="0.800000" stroke="black" points="2530.5,-53 2410.5,-53 2410.5,-0 2530.5,-0 2530.5,-53"/>
<text text-anchor="middle" x="2470.5" y="-37.8" font-family="Times,serif" font-size="14.00">gini = 0.278</text>
<text text-anchor="middle" x="2470.5" y="-22.8" font-family="Times,serif" font-size="14.00">samples = 6</text>
<text text-anchor="middle" x="2470.5" y="-7.8" font-family="Times,serif" font-size="14.00">value = [1, 5, 0, 0]</text>
</g>
<!-- 28&#45;&gt;29 -->
<g id="edge29" class="edge"><title>28&#45;&gt;29</title>
<path fill="none" stroke="black" d="M2470.5,-88.9485C2470.5,-80.7153 2470.5,-71.848 2470.5,-63.4814"/>
<polygon fill="black" stroke="black" points="2474,-63.2367 2470.5,-53.2367 2467,-63.2367 2474,-63.2367"/>
</g>
<!-- 30 -->
<g id="node31" class="node"><title>30</title>
<polygon fill="#47e539" fill-opacity="0.972549" stroke="black" points="2682.5,-53 2548.5,-53 2548.5,-0 2682.5,-0 2682.5,-53"/>
<text text-anchor="middle" x="2615.5" y="-37.8" font-family="Times,serif" font-size="14.00">gini = 0.054</text>
<text text-anchor="middle" x="2615.5" y="-22.8" font-family="Times,serif" font-size="14.00">samples = 252</text>
<text text-anchor="middle" x="2615.5" y="-7.8" font-family="Times,serif" font-size="14.00">value = [5, 245, 1, 1]</text>
</g>
<!-- 28&#45;&gt;30 -->
<g id="edge30" class="edge"><title>28&#45;&gt;30</title>
<path fill="none" stroke="black" d="M2521.21,-88.9485C2536.23,-79.1601 2552.63,-68.4756 2567.47,-58.8015"/>
<polygon fill="black" stroke="black" points="2569.54,-61.629 2576.01,-53.2367 2565.72,-55.7645 2569.54,-61.629"/>
</g>
</g>
</svg>
