<?xml version="1.0" encoding="UTF-8" standalone="no"?>
<!DOCTYPE svg PUBLIC "-//W3C//DTD SVG 1.1//EN"
 "http://www.w3.org/Graphics/SVG/1.1/DTD/svg11.dtd">
<!-- Generated by graphviz version 2.38.0 (20140413.2041)
 -->
<!-- Title: Tree Pages: 1 -->
<svg width="1771pt" height="477pt"
 viewBox="0.00 0.00 1771.00 477.00" xmlns="http://www.w3.org/2000/svg" xmlns:xlink="http://www.w3.org/1999/xlink">
<g id="graph0" class="graph" transform="scale(1 1) rotate(0) translate(4 473)">
<title>Tree</title>
<polygon fill="white" stroke="none" points="-4,4 -4,-473 1767,-473 1767,4 -4,4"/>
<!-- 0 -->
<g id="node1" class="node"><title>0</title>
<polygon fill="#e58139" fill-opacity="0.027451" stroke="black" points="800.5,-469 687.5,-469 687.5,-401 800.5,-401 800.5,-469"/>
<text text-anchor="middle" x="744" y="-453.8" font-family="Times,serif" font-size="14.00">filter &lt;= 0.5</text>
<text text-anchor="middle" x="744" y="-438.8" font-family="Times,serif" font-size="14.00">mse = 12560.828</text>
<text text-anchor="middle" x="744" y="-423.8" font-family="Times,serif" font-size="14.00">samples = 13058</text>
<text text-anchor="middle" x="744" y="-408.8" font-family="Times,serif" font-size="14.00">value = 30.841</text>
</g>
<!-- 1 -->
<g id="node2" class="node"><title>1</title>
<polygon fill="#e58139" fill-opacity="0.015686" stroke="black" points="621.5,-365 496.5,-365 496.5,-297 621.5,-297 621.5,-365"/>
<text text-anchor="middle" x="559" y="-349.8" font-family="Times,serif" font-size="14.00">triplePattern &lt;= 3.5</text>
<text text-anchor="middle" x="559" y="-334.8" font-family="Times,serif" font-size="14.00">mse = 7829.548</text>
<text text-anchor="middle" x="559" y="-319.8" font-family="Times,serif" font-size="14.00">samples = 7255</text>
<text text-anchor="middle" x="559" y="-304.8" font-family="Times,serif" font-size="14.00">value = 18.75</text>
</g>
<!-- 0&#45;&gt;1 -->
<g id="edge1" class="edge"><title>0&#45;&gt;1</title>
<path fill="none" stroke="black" d="M687.489,-402.842C668.691,-392.478 647.543,-380.818 627.914,-369.996"/>
<polygon fill="black" stroke="black" points="629.463,-366.853 619.016,-365.09 626.084,-372.983 629.463,-366.853"/>
<text text-anchor="middle" x="625.962" y="-385.406" font-family="Times,serif" font-size="14.00">True</text>
</g>
<!-- 14 -->
<g id="node15" class="node"><title>14</title>
<polygon fill="#e58139" fill-opacity="0.047059" stroke="black" points="1054.5,-365 941.5,-365 941.5,-297 1054.5,-297 1054.5,-365"/>
<text text-anchor="middle" x="998" y="-349.8" font-family="Times,serif" font-size="14.00">group &lt;= 3.5</text>
<text text-anchor="middle" x="998" y="-334.8" font-family="Times,serif" font-size="14.00">mse = 18064.665</text>
<text text-anchor="middle" x="998" y="-319.8" font-family="Times,serif" font-size="14.00">samples = 5803</text>
<text text-anchor="middle" x="998" y="-304.8" font-family="Times,serif" font-size="14.00">value = 45.957</text>
</g>
<!-- 0&#45;&gt;14 -->
<g id="edge14" class="edge"><title>0&#45;&gt;14</title>
<path fill="none" stroke="black" d="M800.686,-411.236C839.616,-395.603 891.418,-374.801 932.175,-358.434"/>
<polygon fill="black" stroke="black" points="933.511,-361.669 941.487,-354.694 930.903,-355.173 933.511,-361.669"/>
<text text-anchor="middle" x="931.67" y="-373.986" font-family="Times,serif" font-size="14.00">False</text>
</g>
<!-- 2 -->
<g id="node3" class="node"><title>2</title>
<polygon fill="#e58139" fill-opacity="0.015686" stroke="black" points="388,-261 282,-261 282,-193 388,-193 388,-261"/>
<text text-anchor="middle" x="335" y="-245.8" font-family="Times,serif" font-size="14.00">order &lt;= 0.5</text>
<text text-anchor="middle" x="335" y="-230.8" font-family="Times,serif" font-size="14.00">mse = 7606.579</text>
<text text-anchor="middle" x="335" y="-215.8" font-family="Times,serif" font-size="14.00">samples = 7158</text>
<text text-anchor="middle" x="335" y="-200.8" font-family="Times,serif" font-size="14.00">value = 18.48</text>
</g>
<!-- 1&#45;&gt;2 -->
<g id="edge2" class="edge"><title>1&#45;&gt;2</title>
<path fill="none" stroke="black" d="M496.306,-301.452C465.457,-287.405 428.374,-270.519 397.546,-256.481"/>
<polygon fill="black" stroke="black" points="398.744,-253.181 388.193,-252.222 395.843,-259.551 398.744,-253.181"/>
</g>
<!-- 9 -->
<g id="node10" class="node"><title>9</title>
<polygon fill="#e58139" fill-opacity="0.039216" stroke="black" points="621.5,-261 496.5,-261 496.5,-193 621.5,-193 621.5,-261"/>
<text text-anchor="middle" x="559" y="-245.8" font-family="Times,serif" font-size="14.00">triplePattern &lt;= 7.0</text>
<text text-anchor="middle" x="559" y="-230.8" font-family="Times,serif" font-size="14.00">mse = 23882.758</text>
<text text-anchor="middle" x="559" y="-215.8" font-family="Times,serif" font-size="14.00">samples = 97</text>
<text text-anchor="middle" x="559" y="-200.8" font-family="Times,serif" font-size="14.00">value = 38.629</text>
</g>
<!-- 1&#45;&gt;9 -->
<g id="edge9" class="edge"><title>1&#45;&gt;9</title>
<path fill="none" stroke="black" d="M559,-296.884C559,-288.778 559,-279.982 559,-271.472"/>
<polygon fill="black" stroke="black" points="562.5,-271.299 559,-261.299 555.5,-271.299 562.5,-271.299"/>
</g>
<!-- 3 -->
<g id="node4" class="node"><title>3</title>
<polygon fill="#e58139" fill-opacity="0.015686" stroke="black" points="236.5,-157 111.5,-157 111.5,-89 236.5,-89 236.5,-157"/>
<text text-anchor="middle" x="174" y="-141.8" font-family="Times,serif" font-size="14.00">triplePattern &lt;= 2.5</text>
<text text-anchor="middle" x="174" y="-126.8" font-family="Times,serif" font-size="14.00">mse = 7395.951</text>
<text text-anchor="middle" x="174" y="-111.8" font-family="Times,serif" font-size="14.00">samples = 6656</text>
<text text-anchor="middle" x="174" y="-96.8" font-family="Times,serif" font-size="14.00">value = 18.267</text>
</g>
<!-- 2&#45;&gt;3 -->
<g id="edge3" class="edge"><title>2&#45;&gt;3</title>
<path fill="none" stroke="black" d="M282.728,-192.884C267.466,-183.214 250.654,-172.563 234.907,-162.587"/>
<polygon fill="black" stroke="black" points="236.606,-159.52 226.285,-157.125 232.859,-165.433 236.606,-159.52"/>
</g>
<!-- 6 -->
<g id="node7" class="node"><title>6</title>
<polygon fill="#e58139" fill-opacity="0.019608" stroke="black" points="391.5,-157 278.5,-157 278.5,-89 391.5,-89 391.5,-157"/>
<text text-anchor="middle" x="335" y="-141.8" font-family="Times,serif" font-size="14.00">graph &lt;= 0.5</text>
<text text-anchor="middle" x="335" y="-126.8" font-family="Times,serif" font-size="14.00">mse = 10390.676</text>
<text text-anchor="middle" x="335" y="-111.8" font-family="Times,serif" font-size="14.00">samples = 502</text>
<text text-anchor="middle" x="335" y="-96.8" font-family="Times,serif" font-size="14.00">value = 21.31</text>
</g>
<!-- 2&#45;&gt;6 -->
<g id="edge6" class="edge"><title>2&#45;&gt;6</title>
<path fill="none" stroke="black" d="M335,-192.884C335,-184.778 335,-175.982 335,-167.472"/>
<polygon fill="black" stroke="black" points="338.5,-167.299 335,-157.299 331.5,-167.299 338.5,-167.299"/>
</g>
<!-- 4 -->
<g id="node5" class="node"><title>4</title>
<polygon fill="#e58139" fill-opacity="0.015686" stroke="black" points="106,-53 7.10543e-15,-53 7.10543e-15,-0 106,-0 106,-53"/>
<text text-anchor="middle" x="53" y="-37.8" font-family="Times,serif" font-size="14.00">mse = 7424.588</text>
<text text-anchor="middle" x="53" y="-22.8" font-family="Times,serif" font-size="14.00">samples = 6629</text>
<text text-anchor="middle" x="53" y="-7.8" font-family="Times,serif" font-size="14.00">value = 18.313</text>
</g>
<!-- 3&#45;&gt;4 -->
<g id="edge4" class="edge"><title>3&#45;&gt;4</title>
<path fill="none" stroke="black" d="M131.68,-88.9485C119.498,-79.4346 106.232,-69.074 94.124,-59.6175"/>
<polygon fill="black" stroke="black" points="95.9895,-56.6335 85.9539,-53.2367 91.6808,-62.1504 95.9895,-56.6335"/>
</g>
<!-- 5 -->
<g id="node6" class="node"><title>5</title>
<polygon fill="none" stroke="black" points="223.5,-53 124.5,-53 124.5,-0 223.5,-0 223.5,-53"/>
<text text-anchor="middle" x="174" y="-37.8" font-family="Times,serif" font-size="14.00">mse = 233.549</text>
<text text-anchor="middle" x="174" y="-22.8" font-family="Times,serif" font-size="14.00">samples = 27</text>
<text text-anchor="middle" x="174" y="-7.8" font-family="Times,serif" font-size="14.00">value = 6.83</text>
</g>
<!-- 3&#45;&gt;5 -->
<g id="edge5" class="edge"><title>3&#45;&gt;5</title>
<path fill="none" stroke="black" d="M174,-88.9485C174,-80.7153 174,-71.848 174,-63.4814"/>
<polygon fill="black" stroke="black" points="177.5,-63.2367 174,-53.2367 170.5,-63.2367 177.5,-63.2367"/>
</g>
<!-- 7 -->
<g id="node8" class="node"><title>7</title>
<polygon fill="#e58139" fill-opacity="0.019608" stroke="black" points="354.5,-53 241.5,-53 241.5,-0 354.5,-0 354.5,-53"/>
<text text-anchor="middle" x="298" y="-37.8" font-family="Times,serif" font-size="14.00">mse = 10609.768</text>
<text text-anchor="middle" x="298" y="-22.8" font-family="Times,serif" font-size="14.00">samples = 491</text>
<text text-anchor="middle" x="298" y="-7.8" font-family="Times,serif" font-size="14.00">value = 21.645</text>
</g>
<!-- 6&#45;&gt;7 -->
<g id="edge7" class="edge"><title>6&#45;&gt;7</title>
<path fill="none" stroke="black" d="M322.059,-88.9485C318.728,-80.4408 315.132,-71.2562 311.761,-62.6464"/>
<polygon fill="black" stroke="black" points="314.982,-61.2723 308.077,-53.2367 308.464,-63.8245 314.982,-61.2723"/>
</g>
<!-- 8 -->
<g id="node9" class="node"><title>8</title>
<polygon fill="none" stroke="black" points="471.5,-53 372.5,-53 372.5,-0 471.5,-0 471.5,-53"/>
<text text-anchor="middle" x="422" y="-37.8" font-family="Times,serif" font-size="14.00">mse = 383.228</text>
<text text-anchor="middle" x="422" y="-22.8" font-family="Times,serif" font-size="14.00">samples = 11</text>
<text text-anchor="middle" x="422" y="-7.8" font-family="Times,serif" font-size="14.00">value = 6.377</text>
</g>
<!-- 6&#45;&gt;8 -->
<g id="edge8" class="edge"><title>6&#45;&gt;8</title>
<path fill="none" stroke="black" d="M365.428,-88.9485C373.85,-79.8005 382.993,-69.8697 391.423,-60.7126"/>
<polygon fill="black" stroke="black" points="394.108,-62.9643 398.306,-53.2367 388.958,-58.2231 394.108,-62.9643"/>
</g>
<!-- 10 -->
<g id="node11" class="node"><title>10</title>
<polygon fill="#e58139" fill-opacity="0.156863" stroke="black" points="552.5,-149.5 433.5,-149.5 433.5,-96.5 552.5,-96.5 552.5,-149.5"/>
<text text-anchor="middle" x="493" y="-134.3" font-family="Times,serif" font-size="14.00">mse = 100361.492</text>
<text text-anchor="middle" x="493" y="-119.3" font-family="Times,serif" font-size="14.00">samples = 15</text>
<text text-anchor="middle" x="493" y="-104.3" font-family="Times,serif" font-size="14.00">value = 137.197</text>
</g>
<!-- 9&#45;&gt;10 -->
<g id="edge10" class="edge"><title>9&#45;&gt;10</title>
<path fill="none" stroke="black" d="M537.572,-192.884C530.384,-181.776 522.358,-169.372 515.119,-158.184"/>
<polygon fill="black" stroke="black" points="517.884,-156.014 509.513,-149.52 512.007,-159.817 517.884,-156.014"/>
</g>
<!-- 11 -->
<g id="node12" class="node"><title>11</title>
<polygon fill="#e58139" fill-opacity="0.015686" stroke="black" points="677,-157 571,-157 571,-89 677,-89 677,-157"/>
<text text-anchor="middle" x="624" y="-141.8" font-family="Times,serif" font-size="14.00">graph &lt;= 0.5</text>
<text text-anchor="middle" x="624" y="-126.8" font-family="Times,serif" font-size="14.00">mse = 7790.357</text>
<text text-anchor="middle" x="624" y="-111.8" font-family="Times,serif" font-size="14.00">samples = 82</text>
<text text-anchor="middle" x="624" y="-96.8" font-family="Times,serif" font-size="14.00">value = 20.598</text>
</g>
<!-- 9&#45;&gt;11 -->
<g id="edge11" class="edge"><title>9&#45;&gt;11</title>
<path fill="none" stroke="black" d="M580.104,-192.884C585.61,-184.243 591.615,-174.819 597.367,-165.793"/>
<polygon fill="black" stroke="black" points="600.357,-167.614 602.78,-157.299 594.454,-163.852 600.357,-167.614"/>
</g>
<!-- 12 -->
<g id="node13" class="node"><title>12</title>
<polygon fill="#e58139" fill-opacity="0.019608" stroke="black" points="596,-53 490,-53 490,-0 596,-0 596,-53"/>
<text text-anchor="middle" x="543" y="-37.8" font-family="Times,serif" font-size="14.00">mse = 5376.015</text>
<text text-anchor="middle" x="543" y="-22.8" font-family="Times,serif" font-size="14.00">samples = 42</text>
<text text-anchor="middle" x="543" y="-7.8" font-family="Times,serif" font-size="14.00">value = 22.598</text>
</g>
<!-- 11&#45;&gt;12 -->
<g id="edge12" class="edge"><title>11&#45;&gt;12</title>
<path fill="none" stroke="black" d="M595.67,-88.9485C587.907,-79.892 579.487,-70.0682 571.704,-60.9875"/>
<polygon fill="black" stroke="black" points="574.225,-58.5515 565.06,-53.2367 568.911,-63.1071 574.225,-58.5515"/>
</g>
<!-- 13 -->
<g id="node14" class="node"><title>13</title>
<polygon fill="#e58139" fill-opacity="0.015686" stroke="black" points="727.5,-53 614.5,-53 614.5,-0 727.5,-0 727.5,-53"/>
<text text-anchor="middle" x="671" y="-37.8" font-family="Times,serif" font-size="14.00">mse = 10316.808</text>
<text text-anchor="middle" x="671" y="-22.8" font-family="Times,serif" font-size="14.00">samples = 40</text>
<text text-anchor="middle" x="671" y="-7.8" font-family="Times,serif" font-size="14.00">value = 18.498</text>
</g>
<!-- 11&#45;&gt;13 -->
<g id="edge13" class="edge"><title>11&#45;&gt;13</title>
<path fill="none" stroke="black" d="M640.438,-88.9485C644.715,-80.3494 649.336,-71.0586 653.658,-62.3689"/>
<polygon fill="black" stroke="black" points="656.88,-63.7491 658.2,-53.2367 650.613,-60.6318 656.88,-63.7491"/>
</g>
<!-- 15 -->
<g id="node16" class="node"><title>15</title>
<polygon fill="#e58139" fill-opacity="0.043137" stroke="black" points="1051,-261 945,-261 945,-193 1051,-193 1051,-261"/>
<text text-anchor="middle" x="998" y="-245.8" font-family="Times,serif" font-size="14.00">filter &lt;= 5.5</text>
<text text-anchor="middle" x="998" y="-230.8" font-family="Times,serif" font-size="14.00">mse = 16706.92</text>
<text text-anchor="middle" x="998" y="-215.8" font-family="Times,serif" font-size="14.00">samples = 5466</text>
<text text-anchor="middle" x="998" y="-200.8" font-family="Times,serif" font-size="14.00">value = 43.203</text>
</g>
<!-- 14&#45;&gt;15 -->
<g id="edge15" class="edge"><title>14&#45;&gt;15</title>
<path fill="none" stroke="black" d="M998,-296.884C998,-288.778 998,-279.982 998,-271.472"/>
<polygon fill="black" stroke="black" points="1001.5,-271.299 998,-261.299 994.5,-271.299 1001.5,-271.299"/>
</g>
<!-- 22 -->
<g id="node23" class="node"><title>22</title>
<polygon fill="#e58139" fill-opacity="0.101961" stroke="black" points="1441.5,-261 1328.5,-261 1328.5,-193 1441.5,-193 1441.5,-261"/>
<text text-anchor="middle" x="1385" y="-245.8" font-family="Times,serif" font-size="14.00">filter &lt;= 17.5</text>
<text text-anchor="middle" x="1385" y="-230.8" font-family="Times,serif" font-size="14.00">mse = 37968.289</text>
<text text-anchor="middle" x="1385" y="-215.8" font-family="Times,serif" font-size="14.00">samples = 337</text>
<text text-anchor="middle" x="1385" y="-200.8" font-family="Times,serif" font-size="14.00">value = 90.627</text>
</g>
<!-- 14&#45;&gt;22 -->
<g id="edge22" class="edge"><title>14&#45;&gt;22</title>
<path fill="none" stroke="black" d="M1054.69,-315.059C1124.91,-296.551 1244.35,-265.069 1318.74,-245.464"/>
<polygon fill="black" stroke="black" points="1319.7,-248.831 1328.48,-242.898 1317.91,-242.062 1319.7,-248.831"/>
</g>
<!-- 16 -->
<g id="node17" class="node"><title>16</title>
<polygon fill="#e58139" fill-opacity="0.066667" stroke="black" points="984.5,-157 871.5,-157 871.5,-89 984.5,-89 984.5,-157"/>
<text text-anchor="middle" x="928" y="-141.8" font-family="Times,serif" font-size="14.00">filter_in &lt;= 1.5</text>
<text text-anchor="middle" x="928" y="-126.8" font-family="Times,serif" font-size="14.00">mse = 23328.004</text>
<text text-anchor="middle" x="928" y="-111.8" font-family="Times,serif" font-size="14.00">samples = 1838</text>
<text text-anchor="middle" x="928" y="-96.8" font-family="Times,serif" font-size="14.00">value = 61.288</text>
</g>
<!-- 15&#45;&gt;16 -->
<g id="edge16" class="edge"><title>15&#45;&gt;16</title>
<path fill="none" stroke="black" d="M975.273,-192.884C969.343,-184.243 962.876,-174.819 956.681,-165.793"/>
<polygon fill="black" stroke="black" points="959.397,-163.564 950.853,-157.299 953.625,-167.525 959.397,-163.564"/>
</g>
<!-- 19 -->
<g id="node20" class="node"><title>19</title>
<polygon fill="#e58139" fill-opacity="0.031373" stroke="black" points="1133.5,-157 1002.5,-157 1002.5,-89 1133.5,-89 1133.5,-157"/>
<text text-anchor="middle" x="1068" y="-141.8" font-family="Times,serif" font-size="14.00">triplePattern &lt;= 12.5</text>
<text text-anchor="middle" x="1068" y="-126.8" font-family="Times,serif" font-size="14.00">mse = 13102.931</text>
<text text-anchor="middle" x="1068" y="-111.8" font-family="Times,serif" font-size="14.00">samples = 3628</text>
<text text-anchor="middle" x="1068" y="-96.8" font-family="Times,serif" font-size="14.00">value = 34.041</text>
</g>
<!-- 15&#45;&gt;19 -->
<g id="edge19" class="edge"><title>15&#45;&gt;19</title>
<path fill="none" stroke="black" d="M1020.73,-192.884C1026.66,-184.243 1033.12,-174.819 1039.32,-165.793"/>
<polygon fill="black" stroke="black" points="1042.37,-167.525 1045.15,-157.299 1036.6,-163.564 1042.37,-167.525"/>
</g>
<!-- 17 -->
<g id="node18" class="node"><title>17</title>
<polygon fill="#e58139" fill-opacity="0.043137" stroke="black" points="858.5,-53 745.5,-53 745.5,-0 858.5,-0 858.5,-53"/>
<text text-anchor="middle" x="802" y="-37.8" font-family="Times,serif" font-size="14.00">mse = 17402.172</text>
<text text-anchor="middle" x="802" y="-22.8" font-family="Times,serif" font-size="14.00">samples = 1557</text>
<text text-anchor="middle" x="802" y="-7.8" font-family="Times,serif" font-size="14.00">value = 43.431</text>
</g>
<!-- 16&#45;&gt;17 -->
<g id="edge17" class="edge"><title>16&#45;&gt;17</title>
<path fill="none" stroke="black" d="M883.931,-88.9485C871.124,-79.3431 857.166,-68.8747 844.46,-59.345"/>
<polygon fill="black" stroke="black" points="846.416,-56.4367 836.316,-53.2367 842.216,-62.0368 846.416,-56.4367"/>
</g>
<!-- 18 -->
<g id="node19" class="node"><title>18</title>
<polygon fill="#e58139" fill-opacity="0.184314" stroke="black" points="989.5,-53 876.5,-53 876.5,-0 989.5,-0 989.5,-53"/>
<text text-anchor="middle" x="933" y="-37.8" font-family="Times,serif" font-size="14.00">mse = 44605.152</text>
<text text-anchor="middle" x="933" y="-22.8" font-family="Times,serif" font-size="14.00">samples = 281</text>
<text text-anchor="middle" x="933" y="-7.8" font-family="Times,serif" font-size="14.00">value = 160.235</text>
</g>
<!-- 16&#45;&gt;18 -->
<g id="edge18" class="edge"><title>16&#45;&gt;18</title>
<path fill="none" stroke="black" d="M929.749,-88.9485C930.184,-80.7153 930.654,-71.848 931.096,-63.4814"/>
<polygon fill="black" stroke="black" points="934.605,-63.4077 931.638,-53.2367 927.615,-63.0378 934.605,-63.4077"/>
</g>
<!-- 20 -->
<g id="node21" class="node"><title>20</title>
<polygon fill="#e58139" fill-opacity="0.039216" stroke="black" points="1120.5,-53 1007.5,-53 1007.5,-0 1120.5,-0 1120.5,-53"/>
<text text-anchor="middle" x="1064" y="-37.8" font-family="Times,serif" font-size="14.00">mse = 15470.631</text>
<text text-anchor="middle" x="1064" y="-22.8" font-family="Times,serif" font-size="14.00">samples = 2604</text>
<text text-anchor="middle" x="1064" y="-7.8" font-family="Times,serif" font-size="14.00">value = 40.469</text>
</g>
<!-- 19&#45;&gt;20 -->
<g id="edge20" class="edge"><title>19&#45;&gt;20</title>
<path fill="none" stroke="black" d="M1066.6,-88.9485C1066.25,-80.7153 1065.88,-71.848 1065.52,-63.4814"/>
<polygon fill="black" stroke="black" points="1069.01,-63.0797 1065.09,-53.2367 1062.02,-63.3758 1069.01,-63.0797"/>
</g>
<!-- 21 -->
<g id="node22" class="node"><title>21</title>
<polygon fill="#e58139" fill-opacity="0.011765" stroke="black" points="1245,-53 1139,-53 1139,-0 1245,-0 1245,-53"/>
<text text-anchor="middle" x="1192" y="-37.8" font-family="Times,serif" font-size="14.00">mse = 6709.629</text>
<text text-anchor="middle" x="1192" y="-22.8" font-family="Times,serif" font-size="14.00">samples = 1024</text>
<text text-anchor="middle" x="1192" y="-7.8" font-family="Times,serif" font-size="14.00">value = 17.694</text>
</g>
<!-- 19&#45;&gt;21 -->
<g id="edge21" class="edge"><title>19&#45;&gt;21</title>
<path fill="none" stroke="black" d="M1111.37,-88.9485C1123.97,-79.3431 1137.71,-68.8747 1150.21,-59.345"/>
<polygon fill="black" stroke="black" points="1152.4,-62.0819 1158.23,-53.2367 1148.15,-56.5144 1152.4,-62.0819"/>
</g>
<!-- 23 -->
<g id="node24" class="node"><title>23</title>
<polygon fill="#e58139" fill-opacity="0.941176" stroke="black" points="1441.5,-157 1328.5,-157 1328.5,-89 1441.5,-89 1441.5,-157"/>
<text text-anchor="middle" x="1385" y="-141.8" font-family="Times,serif" font-size="14.00">optional &lt;= 3.5</text>
<text text-anchor="middle" x="1385" y="-126.8" font-family="Times,serif" font-size="14.00">mse = 20123.553</text>
<text text-anchor="middle" x="1385" y="-111.8" font-family="Times,serif" font-size="14.00">samples = 18</text>
<text text-anchor="middle" x="1385" y="-96.8" font-family="Times,serif" font-size="14.00">value = 794.547</text>
</g>
<!-- 22&#45;&gt;23 -->
<g id="edge23" class="edge"><title>22&#45;&gt;23</title>
<path fill="none" stroke="black" d="M1385,-192.884C1385,-184.778 1385,-175.982 1385,-167.472"/>
<polygon fill="black" stroke="black" points="1388.5,-167.299 1385,-157.299 1381.5,-167.299 1388.5,-167.299"/>
</g>
<!-- 26 -->
<g id="node27" class="node"><title>26</title>
<polygon fill="#e58139" fill-opacity="0.054902" stroke="black" points="1635,-157 1529,-157 1529,-89 1635,-89 1635,-157"/>
<text text-anchor="middle" x="1582" y="-141.8" font-family="Times,serif" font-size="14.00">filter &lt;= 23.5</text>
<text text-anchor="middle" x="1582" y="-126.8" font-family="Times,serif" font-size="14.00">mse = 9438.163</text>
<text text-anchor="middle" x="1582" y="-111.8" font-family="Times,serif" font-size="14.00">samples = 319</text>
<text text-anchor="middle" x="1582" y="-96.8" font-family="Times,serif" font-size="14.00">value = 50.907</text>
</g>
<!-- 22&#45;&gt;26 -->
<g id="edge26" class="edge"><title>22&#45;&gt;26</title>
<path fill="none" stroke="black" d="M1441.72,-196.634C1466.11,-184.002 1494.71,-169.196 1519.7,-156.259"/>
<polygon fill="black" stroke="black" points="1521.45,-159.291 1528.72,-151.585 1518.23,-153.074 1521.45,-159.291"/>
</g>
<!-- 24 -->
<g id="node25" class="node"><title>24</title>
<polygon fill="#e58139" fill-opacity="0.909804" stroke="black" points="1376.5,-53 1263.5,-53 1263.5,-0 1376.5,-0 1376.5,-53"/>
<text text-anchor="middle" x="1320" y="-37.8" font-family="Times,serif" font-size="14.00">mse = 16635.419</text>
<text text-anchor="middle" x="1320" y="-22.8" font-family="Times,serif" font-size="14.00">samples = 12</text>
<text text-anchor="middle" x="1320" y="-7.8" font-family="Times,serif" font-size="14.00">value = 769.346</text>
</g>
<!-- 23&#45;&gt;24 -->
<g id="edge24" class="edge"><title>23&#45;&gt;24</title>
<path fill="none" stroke="black" d="M1362.27,-88.9485C1356.16,-80.0749 1349.55,-70.4648 1343.41,-61.5388"/>
<polygon fill="black" stroke="black" points="1346.25,-59.4924 1337.7,-53.2367 1340.49,-63.4594 1346.25,-59.4924"/>
</g>
<!-- 25 -->
<g id="node26" class="node"><title>25</title>
<polygon fill="#e58139" stroke="black" points="1507.5,-53 1394.5,-53 1394.5,-0 1507.5,-0 1507.5,-53"/>
<text text-anchor="middle" x="1451" y="-37.8" font-family="Times,serif" font-size="14.00">mse = 23289.518</text>
<text text-anchor="middle" x="1451" y="-22.8" font-family="Times,serif" font-size="14.00">samples = 6</text>
<text text-anchor="middle" x="1451" y="-7.8" font-family="Times,serif" font-size="14.00">value = 844.947</text>
</g>
<!-- 23&#45;&gt;25 -->
<g id="edge25" class="edge"><title>23&#45;&gt;25</title>
<path fill="none" stroke="black" d="M1408.08,-88.9485C1414.28,-80.0749 1420.99,-70.4648 1427.23,-61.5388"/>
<polygon fill="black" stroke="black" points="1430.17,-63.4392 1433.03,-53.2367 1424.43,-59.4311 1430.17,-63.4392"/>
</g>
<!-- 27 -->
<g id="node28" class="node"><title>27</title>
<polygon fill="#e58139" fill-opacity="0.078431" stroke="black" points="1638.5,-53 1525.5,-53 1525.5,-0 1638.5,-0 1638.5,-53"/>
<text text-anchor="middle" x="1582" y="-37.8" font-family="Times,serif" font-size="14.00">mse = 11192.736</text>
<text text-anchor="middle" x="1582" y="-22.8" font-family="Times,serif" font-size="14.00">samples = 179</text>
<text text-anchor="middle" x="1582" y="-7.8" font-family="Times,serif" font-size="14.00">value = 73.681</text>
</g>
<!-- 26&#45;&gt;27 -->
<g id="edge27" class="edge"><title>26&#45;&gt;27</title>
<path fill="none" stroke="black" d="M1582,-88.9485C1582,-80.7153 1582,-71.848 1582,-63.4814"/>
<polygon fill="black" stroke="black" points="1585.5,-63.2367 1582,-53.2367 1578.5,-63.2367 1585.5,-63.2367"/>
</g>
<!-- 28 -->
<g id="node29" class="node"><title>28</title>
<polygon fill="#e58139" fill-opacity="0.019608" stroke="black" points="1763,-53 1657,-53 1657,-0 1763,-0 1763,-53"/>
<text text-anchor="middle" x="1710" y="-37.8" font-family="Times,serif" font-size="14.00">mse = 5683.861</text>
<text text-anchor="middle" x="1710" y="-22.8" font-family="Times,serif" font-size="14.00">samples = 140</text>
<text text-anchor="middle" x="1710" y="-7.8" font-family="Times,serif" font-size="14.00">value = 21.79</text>
</g>
<!-- 26&#45;&gt;28 -->
<g id="edge28" class="edge"><title>26&#45;&gt;28</title>
<path fill="none" stroke="black" d="M1626.77,-88.9485C1639.78,-79.3431 1653.96,-68.8747 1666.87,-59.345"/>
<polygon fill="black" stroke="black" points="1669.17,-61.992 1675.14,-53.2367 1665.02,-56.3605 1669.17,-61.992"/>
</g>
</g>
</svg>
