<?xml version="1.0" encoding="UTF-8" standalone="no"?>
<!DOCTYPE svg PUBLIC "-//W3C//DTD SVG 1.1//EN"
 "http://www.w3.org/Graphics/SVG/1.1/DTD/svg11.dtd">
<!-- Generated by graphviz version 2.38.0 (20140413.2041)
 -->
<!-- Title: Tree Pages: 1 -->
<svg width="469pt" height="269pt"
 viewBox="0.00 0.00 469.00 269.00" xmlns="http://www.w3.org/2000/svg" xmlns:xlink="http://www.w3.org/1999/xlink">
<g id="graph0" class="graph" transform="scale(1 1) rotate(0) translate(4 265)">
<title>Tree</title>
<polygon fill="white" stroke="none" points="-4,4 -4,-265 465,-265 465,4 -4,4"/>
<!-- 0 -->
<g id="node1" class="node"><title>0</title>
<polygon fill="#e58139" fill-opacity="0.917647" stroke="black" points="291,-261 179,-261 179,-193 291,-193 291,-261"/>
<text text-anchor="middle" x="235" y="-245.8" font-family="Times,serif" font-size="14.00">jsonSize &lt;= 5.5</text>
<text text-anchor="middle" x="235" y="-230.8" font-family="Times,serif" font-size="14.00">gini = 0.142</text>
<text text-anchor="middle" x="235" y="-215.8" font-family="Times,serif" font-size="14.00">samples = 468</text>
<text text-anchor="middle" x="235" y="-200.8" font-family="Times,serif" font-size="14.00">value = [432, 36]</text>
</g>
<!-- 1 -->
<g id="node2" class="node"><title>1</title>
<polygon fill="#e58139" fill-opacity="0.894118" stroke="black" points="228,-157 116,-157 116,-89 228,-89 228,-157"/>
<text text-anchor="middle" x="172" y="-141.8" font-family="Times,serif" font-size="14.00">query &lt;= 3.5</text>
<text text-anchor="middle" x="172" y="-126.8" font-family="Times,serif" font-size="14.00">gini = 0.175</text>
<text text-anchor="middle" x="172" y="-111.8" font-family="Times,serif" font-size="14.00">samples = 362</text>
<text text-anchor="middle" x="172" y="-96.8" font-family="Times,serif" font-size="14.00">value = [327, 35]</text>
</g>
<!-- 0&#45;&gt;1 -->
<g id="edge1" class="edge"><title>0&#45;&gt;1</title>
<path fill="none" stroke="black" d="M214.546,-192.884C209.264,-184.332 203.508,-175.013 197.986,-166.072"/>
<polygon fill="black" stroke="black" points="200.8,-163.968 192.567,-157.299 194.844,-167.647 200.8,-163.968"/>
<text text-anchor="middle" x="186.817" y="-177.929" font-family="Times,serif" font-size="14.00">True</text>
</g>
<!-- 4 -->
<g id="node5" class="node"><title>4</title>
<polygon fill="#e58139" fill-opacity="0.992157" stroke="black" points="351.5,-157 246.5,-157 246.5,-89 351.5,-89 351.5,-157"/>
<text text-anchor="middle" x="299" y="-141.8" font-family="Times,serif" font-size="14.00">filter &lt;= 12.5</text>
<text text-anchor="middle" x="299" y="-126.8" font-family="Times,serif" font-size="14.00">gini = 0.019</text>
<text text-anchor="middle" x="299" y="-111.8" font-family="Times,serif" font-size="14.00">samples = 106</text>
<text text-anchor="middle" x="299" y="-96.8" font-family="Times,serif" font-size="14.00">value = [105, 1]</text>
</g>
<!-- 0&#45;&gt;4 -->
<g id="edge4" class="edge"><title>0&#45;&gt;4</title>
<path fill="none" stroke="black" d="M255.779,-192.884C261.2,-184.243 267.113,-174.819 272.777,-165.793"/>
<polygon fill="black" stroke="black" points="275.756,-167.63 278.106,-157.299 269.827,-163.91 275.756,-167.63"/>
<text text-anchor="middle" x="283.685" y="-177.969" font-family="Times,serif" font-size="14.00">False</text>
</g>
<!-- 2 -->
<g id="node3" class="node"><title>2</title>
<polygon fill="#e58139" fill-opacity="0.898039" stroke="black" points="112,-53 0,-53 0,-0 112,-0 112,-53"/>
<text text-anchor="middle" x="56" y="-37.8" font-family="Times,serif" font-size="14.00">gini = 0.168</text>
<text text-anchor="middle" x="56" y="-22.8" font-family="Times,serif" font-size="14.00">samples = 357</text>
<text text-anchor="middle" x="56" y="-7.8" font-family="Times,serif" font-size="14.00">value = [324, 33]</text>
</g>
<!-- 1&#45;&gt;2 -->
<g id="edge2" class="edge"><title>1&#45;&gt;2</title>
<path fill="none" stroke="black" d="M131.429,-88.9485C119.75,-79.4346 107.033,-69.074 95.4247,-59.6175"/>
<polygon fill="black" stroke="black" points="97.5557,-56.8392 87.5921,-53.2367 93.1345,-62.2663 97.5557,-56.8392"/>
</g>
<!-- 3 -->
<g id="node4" class="node"><title>3</title>
<polygon fill="#e58139" fill-opacity="0.333333" stroke="black" points="222,-53 130,-53 130,-0 222,-0 222,-53"/>
<text text-anchor="middle" x="176" y="-37.8" font-family="Times,serif" font-size="14.00">gini = 0.48</text>
<text text-anchor="middle" x="176" y="-22.8" font-family="Times,serif" font-size="14.00">samples = 5</text>
<text text-anchor="middle" x="176" y="-7.8" font-family="Times,serif" font-size="14.00">value = [3, 2]</text>
</g>
<!-- 1&#45;&gt;3 -->
<g id="edge3" class="edge"><title>1&#45;&gt;3</title>
<path fill="none" stroke="black" d="M173.399,-88.9485C173.748,-80.7153 174.123,-71.848 174.477,-63.4814"/>
<polygon fill="black" stroke="black" points="177.984,-63.3758 174.911,-53.2367 170.991,-63.0797 177.984,-63.3758"/>
</g>
<!-- 5 -->
<g id="node6" class="node"><title>5</title>
<polygon fill="#e58139" fill-opacity="0.964706" stroke="black" points="345,-53 247,-53 247,-0 345,-0 345,-53"/>
<text text-anchor="middle" x="296" y="-37.8" font-family="Times,serif" font-size="14.00">gini = 0.067</text>
<text text-anchor="middle" x="296" y="-22.8" font-family="Times,serif" font-size="14.00">samples = 29</text>
<text text-anchor="middle" x="296" y="-7.8" font-family="Times,serif" font-size="14.00">value = [28, 1]</text>
</g>
<!-- 4&#45;&gt;5 -->
<g id="edge5" class="edge"><title>4&#45;&gt;5</title>
<path fill="none" stroke="black" d="M297.951,-88.9485C297.689,-80.7153 297.408,-71.848 297.142,-63.4814"/>
<polygon fill="black" stroke="black" points="300.633,-63.1206 296.817,-53.2367 293.636,-63.3428 300.633,-63.1206"/>
</g>
<!-- 6 -->
<g id="node7" class="node"><title>6</title>
<polygon fill="#e58139" stroke="black" points="461,-53 363,-53 363,-0 461,-0 461,-53"/>
<text text-anchor="middle" x="412" y="-37.8" font-family="Times,serif" font-size="14.00">gini = 0.0</text>
<text text-anchor="middle" x="412" y="-22.8" font-family="Times,serif" font-size="14.00">samples = 77</text>
<text text-anchor="middle" x="412" y="-7.8" font-family="Times,serif" font-size="14.00">value = [77, 0]</text>
</g>
<!-- 4&#45;&gt;6 -->
<g id="edge6" class="edge"><title>4&#45;&gt;6</title>
<path fill="none" stroke="black" d="M338.522,-88.9485C349.789,-79.526 362.049,-69.2731 373.268,-59.8906"/>
<polygon fill="black" stroke="black" points="375.799,-62.3368 381.225,-53.2367 371.308,-56.967 375.799,-62.3368"/>
</g>
</g>
</svg>
