<?xml version="1.0" encoding="UTF-8" standalone="no"?>
<!DOCTYPE svg PUBLIC "-//W3C//DTD SVG 1.1//EN"
 "http://www.w3.org/Graphics/SVG/1.1/DTD/svg11.dtd">
<!-- Generated by graphviz version 2.38.0 (20140413.2041)
 -->
<!-- Title: Tree Pages: 1 -->
<svg width="544pt" height="269pt"
 viewBox="0.00 0.00 544.00 269.00" xmlns="http://www.w3.org/2000/svg" xmlns:xlink="http://www.w3.org/1999/xlink">
<g id="graph0" class="graph" transform="scale(1 1) rotate(0) translate(4 265)">
<title>Tree</title>
<polygon fill="white" stroke="none" points="-4,4 -4,-265 540,-265 540,4 -4,4"/>
<!-- 0 -->
<g id="node1" class="node"><title>0</title>
<polygon fill="#e58139" fill-opacity="0.356863" stroke="black" points="331.5,-261 204.5,-261 204.5,-193 331.5,-193 331.5,-261"/>
<text text-anchor="middle" x="268" y="-245.8" font-family="Times,serif" font-size="14.00">filter_in &lt;= 0.5</text>
<text text-anchor="middle" x="268" y="-230.8" font-family="Times,serif" font-size="14.00">gini = 0.656</text>
<text text-anchor="middle" x="268" y="-215.8" font-family="Times,serif" font-size="14.00">samples = 36</text>
<text text-anchor="middle" x="268" y="-200.8" font-family="Times,serif" font-size="14.00">value = [18, 3, 8, 7]</text>
</g>
<!-- 1 -->
<g id="node2" class="node"><title>1</title>
<polygon fill="#e58139" fill-opacity="0.580392" stroke="black" points="260.5,-157 133.5,-157 133.5,-89 260.5,-89 260.5,-157"/>
<text text-anchor="middle" x="197" y="-141.8" font-family="Times,serif" font-size="14.00">triplePattern &lt;= 1.5</text>
<text text-anchor="middle" x="197" y="-126.8" font-family="Times,serif" font-size="14.00">gini = 0.497</text>
<text text-anchor="middle" x="197" y="-111.8" font-family="Times,serif" font-size="14.00">samples = 24</text>
<text text-anchor="middle" x="197" y="-96.8" font-family="Times,serif" font-size="14.00">value = [16, 3, 5, 0]</text>
</g>
<!-- 0&#45;&gt;1 -->
<g id="edge1" class="edge"><title>0&#45;&gt;1</title>
<path fill="none" stroke="black" d="M244.948,-192.884C238.872,-184.154 232.239,-174.625 225.897,-165.514"/>
<polygon fill="black" stroke="black" points="228.765,-163.507 220.179,-157.299 223.019,-167.506 228.765,-163.507"/>
<text text-anchor="middle" x="215.769" y="-178.207" font-family="Times,serif" font-size="14.00">True</text>
</g>
<!-- 4 -->
<g id="node5" class="node"><title>4</title>
<polygon fill="#d739e5" fill-opacity="0.443137" stroke="black" points="399,-157 279,-157 279,-89 399,-89 399,-157"/>
<text text-anchor="middle" x="339" y="-141.8" font-family="Times,serif" font-size="14.00">query &lt;= 3.5</text>
<text text-anchor="middle" x="339" y="-126.8" font-family="Times,serif" font-size="14.00">gini = 0.569</text>
<text text-anchor="middle" x="339" y="-111.8" font-family="Times,serif" font-size="14.00">samples = 12</text>
<text text-anchor="middle" x="339" y="-96.8" font-family="Times,serif" font-size="14.00">value = [2, 0, 3, 7]</text>
</g>
<!-- 0&#45;&gt;4 -->
<g id="edge4" class="edge"><title>0&#45;&gt;4</title>
<path fill="none" stroke="black" d="M291.052,-192.884C297.128,-184.154 303.761,-174.625 310.103,-165.514"/>
<polygon fill="black" stroke="black" points="312.981,-167.506 315.821,-157.299 307.235,-163.507 312.981,-167.506"/>
<text text-anchor="middle" x="320.231" y="-178.207" font-family="Times,serif" font-size="14.00">False</text>
</g>
<!-- 2 -->
<g id="node3" class="node"><title>2</title>
<polygon fill="#e58139" fill-opacity="0.501961" stroke="black" points="120,-53 7.10543e-15,-53 7.10543e-15,-0 120,-0 120,-53"/>
<text text-anchor="middle" x="60" y="-37.8" font-family="Times,serif" font-size="14.00">gini = 0.544</text>
<text text-anchor="middle" x="60" y="-22.8" font-family="Times,serif" font-size="14.00">samples = 13</text>
<text text-anchor="middle" x="60" y="-7.8" font-family="Times,serif" font-size="14.00">value = [8, 3, 2, 0]</text>
</g>
<!-- 1&#45;&gt;2 -->
<g id="edge2" class="edge"><title>1&#45;&gt;2</title>
<path fill="none" stroke="black" d="M149.084,-88.9485C135.026,-79.2516 119.693,-68.6752 105.772,-59.073"/>
<polygon fill="black" stroke="black" points="107.53,-56.0337 97.3114,-53.2367 103.556,-61.7959 107.53,-56.0337"/>
</g>
<!-- 3 -->
<g id="node4" class="node"><title>3</title>
<polygon fill="#e58139" fill-opacity="0.623529" stroke="black" points="258,-53 138,-53 138,-0 258,-0 258,-53"/>
<text text-anchor="middle" x="198" y="-37.8" font-family="Times,serif" font-size="14.00">gini = 0.397</text>
<text text-anchor="middle" x="198" y="-22.8" font-family="Times,serif" font-size="14.00">samples = 11</text>
<text text-anchor="middle" x="198" y="-7.8" font-family="Times,serif" font-size="14.00">value = [8, 0, 3, 0]</text>
</g>
<!-- 1&#45;&gt;3 -->
<g id="edge3" class="edge"><title>1&#45;&gt;3</title>
<path fill="none" stroke="black" d="M197.35,-88.9485C197.437,-80.7153 197.531,-71.848 197.619,-63.4814"/>
<polygon fill="black" stroke="black" points="201.122,-63.2732 197.728,-53.2367 194.122,-63.1991 201.122,-63.2732"/>
</g>
<!-- 5 -->
<g id="node6" class="node"><title>5</title>
<polygon fill="#d739e5" fill-opacity="0.623529" stroke="black" points="398,-53 278,-53 278,-0 398,-0 398,-53"/>
<text text-anchor="middle" x="338" y="-37.8" font-family="Times,serif" font-size="14.00">gini = 0.46</text>
<text text-anchor="middle" x="338" y="-22.8" font-family="Times,serif" font-size="14.00">samples = 10</text>
<text text-anchor="middle" x="338" y="-7.8" font-family="Times,serif" font-size="14.00">value = [1, 0, 2, 7]</text>
</g>
<!-- 4&#45;&gt;5 -->
<g id="edge5" class="edge"><title>4&#45;&gt;5</title>
<path fill="none" stroke="black" d="M338.65,-88.9485C338.563,-80.7153 338.469,-71.848 338.381,-63.4814"/>
<polygon fill="black" stroke="black" points="341.878,-63.1991 338.272,-53.2367 334.878,-63.2732 341.878,-63.1991"/>
</g>
<!-- 6 -->
<g id="node7" class="node"><title>6</title>
<polygon fill="none" stroke="black" points="536,-53 416,-53 416,-0 536,-0 536,-53"/>
<text text-anchor="middle" x="476" y="-37.8" font-family="Times,serif" font-size="14.00">gini = 0.5</text>
<text text-anchor="middle" x="476" y="-22.8" font-family="Times,serif" font-size="14.00">samples = 2</text>
<text text-anchor="middle" x="476" y="-7.8" font-family="Times,serif" font-size="14.00">value = [1, 0, 1, 0]</text>
</g>
<!-- 4&#45;&gt;6 -->
<g id="edge6" class="edge"><title>4&#45;&gt;6</title>
<path fill="none" stroke="black" d="M386.916,-88.9485C400.974,-79.2516 416.307,-68.6752 430.228,-59.073"/>
<polygon fill="black" stroke="black" points="432.444,-61.7959 438.689,-53.2367 428.47,-56.0337 432.444,-61.7959"/>
</g>
</g>
</svg>
