<?xml version="1.0" encoding="UTF-8" standalone="no"?>
<!DOCTYPE svg PUBLIC "-//W3C//DTD SVG 1.1//EN"
 "http://www.w3.org/Graphics/SVG/1.1/DTD/svg11.dtd">
<!-- Generated by graphviz version 2.38.0 (20140413.2041)
 -->
<!-- Title: Tree Pages: 1 -->
<svg width="279pt" height="269pt"
 viewBox="0.00 0.00 278.50 269.00" xmlns="http://www.w3.org/2000/svg" xmlns:xlink="http://www.w3.org/1999/xlink">
<g id="graph0" class="graph" transform="scale(1 1) rotate(0) translate(4 265)">
<title>Tree</title>
<polygon fill="white" stroke="none" points="-4,4 -4,-265 274.5,-265 274.5,4 -4,4"/>
<!-- 0 -->
<g id="node1" class="node"><title>0</title>
<polygon fill="#399de5" fill-opacity="0.996078" stroke="black" points="163,-261 58,-261 58,-193 163,-193 163,-261"/>
<text text-anchor="middle" x="110.5" y="-245.8" font-family="Times,serif" font-size="14.00">graph &lt;= 0.5</text>
<text text-anchor="middle" x="110.5" y="-230.8" font-family="Times,serif" font-size="14.00">gini = 0.005</text>
<text text-anchor="middle" x="110.5" y="-215.8" font-family="Times,serif" font-size="14.00">samples = 432</text>
<text text-anchor="middle" x="110.5" y="-200.8" font-family="Times,serif" font-size="14.00">value = [1, 431]</text>
</g>
<!-- 1 -->
<g id="node2" class="node"><title>1</title>
<polygon fill="#399de5" stroke="black" points="105,-149.5 0,-149.5 0,-96.5 105,-96.5 105,-149.5"/>
<text text-anchor="middle" x="52.5" y="-134.3" font-family="Times,serif" font-size="14.00">gini = 0.0</text>
<text text-anchor="middle" x="52.5" y="-119.3" font-family="Times,serif" font-size="14.00">samples = 428</text>
<text text-anchor="middle" x="52.5" y="-104.3" font-family="Times,serif" font-size="14.00">value = [0, 428]</text>
</g>
<!-- 0&#45;&gt;1 -->
<g id="edge1" class="edge"><title>0&#45;&gt;1</title>
<path fill="none" stroke="black" d="M91.6691,-192.884C85.4154,-181.886 78.4393,-169.617 72.127,-158.517"/>
<polygon fill="black" stroke="black" points="74.9969,-156.483 67.0113,-149.52 68.9119,-159.943 74.9969,-156.483"/>
<text text-anchor="middle" x="60.3824" y="-169.925" font-family="Times,serif" font-size="14.00">True</text>
</g>
<!-- 2 -->
<g id="node3" class="node"><title>2</title>
<polygon fill="#399de5" fill-opacity="0.666667" stroke="black" points="215.5,-157 123.5,-157 123.5,-89 215.5,-89 215.5,-157"/>
<text text-anchor="middle" x="169.5" y="-141.8" font-family="Times,serif" font-size="14.00">filter &lt;= 0.5</text>
<text text-anchor="middle" x="169.5" y="-126.8" font-family="Times,serif" font-size="14.00">gini = 0.375</text>
<text text-anchor="middle" x="169.5" y="-111.8" font-family="Times,serif" font-size="14.00">samples = 4</text>
<text text-anchor="middle" x="169.5" y="-96.8" font-family="Times,serif" font-size="14.00">value = [1, 3]</text>
</g>
<!-- 0&#45;&gt;2 -->
<g id="edge2" class="edge"><title>0&#45;&gt;2</title>
<path fill="none" stroke="black" d="M129.656,-192.884C134.602,-184.332 139.992,-175.013 145.164,-166.072"/>
<polygon fill="black" stroke="black" points="148.261,-167.708 150.239,-157.299 142.202,-164.203 148.261,-167.708"/>
<text text-anchor="middle" x="156.69" y="-177.753" font-family="Times,serif" font-size="14.00">False</text>
</g>
<!-- 3 -->
<g id="node4" class="node"><title>3</title>
<polygon fill="#399de5" stroke="black" points="160.5,-53 68.5,-53 68.5,-0 160.5,-0 160.5,-53"/>
<text text-anchor="middle" x="114.5" y="-37.8" font-family="Times,serif" font-size="14.00">gini = 0.0</text>
<text text-anchor="middle" x="114.5" y="-22.8" font-family="Times,serif" font-size="14.00">samples = 1</text>
<text text-anchor="middle" x="114.5" y="-7.8" font-family="Times,serif" font-size="14.00">value = [0, 1]</text>
</g>
<!-- 2&#45;&gt;3 -->
<g id="edge3" class="edge"><title>2&#45;&gt;3</title>
<path fill="none" stroke="black" d="M150.264,-88.9485C145.206,-80.2579 139.736,-70.8608 134.633,-62.0917"/>
<polygon fill="black" stroke="black" points="137.534,-60.1189 129.479,-53.2367 131.484,-63.6401 137.534,-60.1189"/>
</g>
<!-- 4 -->
<g id="node5" class="node"><title>4</title>
<polygon fill="#399de5" fill-opacity="0.498039" stroke="black" points="270.5,-53 178.5,-53 178.5,-0 270.5,-0 270.5,-53"/>
<text text-anchor="middle" x="224.5" y="-37.8" font-family="Times,serif" font-size="14.00">gini = 0.444</text>
<text text-anchor="middle" x="224.5" y="-22.8" font-family="Times,serif" font-size="14.00">samples = 3</text>
<text text-anchor="middle" x="224.5" y="-7.8" font-family="Times,serif" font-size="14.00">value = [1, 2]</text>
</g>
<!-- 2&#45;&gt;4 -->
<g id="edge4" class="edge"><title>2&#45;&gt;4</title>
<path fill="none" stroke="black" d="M188.736,-88.9485C193.794,-80.2579 199.264,-70.8608 204.367,-62.0917"/>
<polygon fill="black" stroke="black" points="207.516,-63.6401 209.521,-53.2367 201.466,-60.1189 207.516,-63.6401"/>
</g>
</g>
</svg>
