<?xml version="1.0" encoding="UTF-8" standalone="no"?>
<!DOCTYPE svg PUBLIC "-//W3C//DTD SVG 1.1//EN"
 "http://www.w3.org/Graphics/SVG/1.1/DTD/svg11.dtd">
<!-- Generated by graphviz version 2.38.0 (20140413.2041)
 -->
<!-- Title: Tree Pages: 1 -->
<svg width="599pt" height="269pt"
 viewBox="0.00 0.00 598.50 269.00" xmlns="http://www.w3.org/2000/svg" xmlns:xlink="http://www.w3.org/1999/xlink">
<g id="graph0" class="graph" transform="scale(1 1) rotate(0) translate(4 265)">
<title>Tree</title>
<polygon fill="white" stroke="none" points="-4,4 -4,-265 594.5,-265 594.5,4 -4,4"/>
<!-- 0 -->
<g id="node1" class="node"><title>0</title>
<polygon fill="#39e581" fill-opacity="0.313725" stroke="black" points="362.5,-261 216.5,-261 216.5,-193 362.5,-193 362.5,-261"/>
<text text-anchor="middle" x="289.5" y="-245.8" font-family="Times,serif" font-size="14.00">query &lt;= 2.5</text>
<text text-anchor="middle" x="289.5" y="-230.8" font-family="Times,serif" font-size="14.00">gini = 0.483</text>
<text text-anchor="middle" x="289.5" y="-215.8" font-family="Times,serif" font-size="14.00">samples = 3088</text>
<text text-anchor="middle" x="289.5" y="-200.8" font-family="Times,serif" font-size="14.00">value = [1, 1830, 1257]</text>
</g>
<!-- 1 -->
<g id="node2" class="node"><title>1</title>
<polygon fill="#8139e5" fill-opacity="0.419608" stroke="black" points="279,-157 146,-157 146,-89 279,-89 279,-157"/>
<text text-anchor="middle" x="212.5" y="-141.8" font-family="Times,serif" font-size="14.00">query &lt;= 1.5</text>
<text text-anchor="middle" x="212.5" y="-126.8" font-family="Times,serif" font-size="14.00">gini = 0.465</text>
<text text-anchor="middle" x="212.5" y="-111.8" font-family="Times,serif" font-size="14.00">samples = 1455</text>
<text text-anchor="middle" x="212.5" y="-96.8" font-family="Times,serif" font-size="14.00">value = [1, 534, 920]</text>
</g>
<!-- 0&#45;&gt;1 -->
<g id="edge1" class="edge"><title>0&#45;&gt;1</title>
<path fill="none" stroke="black" d="M264.5,-192.884C257.911,-184.154 250.717,-174.625 243.839,-165.514"/>
<polygon fill="black" stroke="black" points="246.456,-163.172 237.638,-157.299 240.869,-167.389 246.456,-163.172"/>
<text text-anchor="middle" x="234.18" y="-178.359" font-family="Times,serif" font-size="14.00">True</text>
</g>
<!-- 4 -->
<g id="node5" class="node"><title>4</title>
<polygon fill="#39e581" fill-opacity="0.741176" stroke="black" points="437.5,-157 297.5,-157 297.5,-89 437.5,-89 437.5,-157"/>
<text text-anchor="middle" x="367.5" y="-141.8" font-family="Times,serif" font-size="14.00">optional &lt;= 1.5</text>
<text text-anchor="middle" x="367.5" y="-126.8" font-family="Times,serif" font-size="14.00">gini = 0.328</text>
<text text-anchor="middle" x="367.5" y="-111.8" font-family="Times,serif" font-size="14.00">samples = 1633</text>
<text text-anchor="middle" x="367.5" y="-96.8" font-family="Times,serif" font-size="14.00">value = [0, 1296, 337]</text>
</g>
<!-- 0&#45;&gt;4 -->
<g id="edge4" class="edge"><title>0&#45;&gt;4</title>
<path fill="none" stroke="black" d="M314.824,-192.884C321.5,-184.154 328.787,-174.625 335.754,-165.514"/>
<polygon fill="black" stroke="black" points="338.742,-167.369 342.036,-157.299 333.181,-163.117 338.742,-167.369"/>
<text text-anchor="middle" x="345.34" y="-178.38" font-family="Times,serif" font-size="14.00">False</text>
</g>
<!-- 2 -->
<g id="node3" class="node"><title>2</title>
<polygon fill="#8139e5" fill-opacity="0.345098" stroke="black" points="133,-53 0,-53 0,-0 133,-0 133,-53"/>
<text text-anchor="middle" x="66.5" y="-37.8" font-family="Times,serif" font-size="14.00">gini = 0.479</text>
<text text-anchor="middle" x="66.5" y="-22.8" font-family="Times,serif" font-size="14.00">samples = 1209</text>
<text text-anchor="middle" x="66.5" y="-7.8" font-family="Times,serif" font-size="14.00">value = [1, 478, 730]</text>
</g>
<!-- 1&#45;&gt;2 -->
<g id="edge2" class="edge"><title>1&#45;&gt;2</title>
<path fill="none" stroke="black" d="M161.436,-88.9485C146.314,-79.1601 129.806,-68.4756 114.86,-58.8015"/>
<polygon fill="black" stroke="black" points="116.559,-55.7322 106.263,-53.2367 112.756,-61.6087 116.559,-55.7322"/>
</g>
<!-- 3 -->
<g id="node4" class="node"><title>3</title>
<polygon fill="#8139e5" fill-opacity="0.705882" stroke="black" points="277.5,-53 151.5,-53 151.5,-0 277.5,-0 277.5,-53"/>
<text text-anchor="middle" x="214.5" y="-37.8" font-family="Times,serif" font-size="14.00">gini = 0.352</text>
<text text-anchor="middle" x="214.5" y="-22.8" font-family="Times,serif" font-size="14.00">samples = 246</text>
<text text-anchor="middle" x="214.5" y="-7.8" font-family="Times,serif" font-size="14.00">value = [0, 56, 190]</text>
</g>
<!-- 1&#45;&gt;3 -->
<g id="edge3" class="edge"><title>1&#45;&gt;3</title>
<path fill="none" stroke="black" d="M213.2,-88.9485C213.374,-80.7153 213.561,-71.848 213.738,-63.4814"/>
<polygon fill="black" stroke="black" points="217.243,-63.3086 213.955,-53.2367 210.244,-63.1604 217.243,-63.3086"/>
</g>
<!-- 5 -->
<g id="node6" class="node"><title>5</title>
<polygon fill="#39e581" fill-opacity="0.447059" stroke="black" points="432,-53 299,-53 299,-0 432,-0 432,-53"/>
<text text-anchor="middle" x="365.5" y="-37.8" font-family="Times,serif" font-size="14.00">gini = 0.459</text>
<text text-anchor="middle" x="365.5" y="-22.8" font-family="Times,serif" font-size="14.00">samples = 457</text>
<text text-anchor="middle" x="365.5" y="-7.8" font-family="Times,serif" font-size="14.00">value = [0, 294, 163]</text>
</g>
<!-- 4&#45;&gt;5 -->
<g id="edge5" class="edge"><title>4&#45;&gt;5</title>
<path fill="none" stroke="black" d="M366.8,-88.9485C366.626,-80.7153 366.439,-71.848 366.262,-63.4814"/>
<polygon fill="black" stroke="black" points="369.756,-63.1604 366.045,-53.2367 362.757,-63.3086 369.756,-63.1604"/>
</g>
<!-- 6 -->
<g id="node7" class="node"><title>6</title>
<polygon fill="#39e581" fill-opacity="0.827451" stroke="black" points="590.5,-53 450.5,-53 450.5,-0 590.5,-0 590.5,-53"/>
<text text-anchor="middle" x="520.5" y="-37.8" font-family="Times,serif" font-size="14.00">gini = 0.252</text>
<text text-anchor="middle" x="520.5" y="-22.8" font-family="Times,serif" font-size="14.00">samples = 1176</text>
<text text-anchor="middle" x="520.5" y="-7.8" font-family="Times,serif" font-size="14.00">value = [0, 1002, 174]</text>
</g>
<!-- 4&#45;&gt;6 -->
<g id="edge6" class="edge"><title>4&#45;&gt;6</title>
<path fill="none" stroke="black" d="M421.012,-88.9485C437.008,-79.0686 454.482,-68.2758 470.26,-58.5305"/>
<polygon fill="black" stroke="black" points="472.162,-61.4695 478.831,-53.2367 468.484,-55.5139 472.162,-61.4695"/>
</g>
</g>
</svg>
