<?xml version="1.0" encoding="UTF-8" standalone="no"?>
<!DOCTYPE svg PUBLIC "-//W3C//DTD SVG 1.1//EN"
 "http://www.w3.org/Graphics/SVG/1.1/DTD/svg11.dtd">
<!-- Generated by graphviz version 2.38.0 (20140413.2041)
 -->
<!-- Title: Tree Pages: 1 -->
<svg width="519pt" height="269pt"
 viewBox="0.00 0.00 519.00 269.00" xmlns="http://www.w3.org/2000/svg" xmlns:xlink="http://www.w3.org/1999/xlink">
<g id="graph0" class="graph" transform="scale(1 1) rotate(0) translate(4 265)">
<title>Tree</title>
<polygon fill="white" stroke="none" points="-4,4 -4,-265 515,-265 515,4 -4,4"/>
<!-- 0 -->
<g id="node1" class="node"><title>0</title>
<polygon fill="#399de5" fill-opacity="0.274510" stroke="black" points="314,-261 182,-261 182,-193 314,-193 314,-261"/>
<text text-anchor="middle" x="248" y="-245.8" font-family="Times,serif" font-size="14.00">query &lt;= 1.5</text>
<text text-anchor="middle" x="248" y="-230.8" font-family="Times,serif" font-size="14.00">gini = 0.487</text>
<text text-anchor="middle" x="248" y="-215.8" font-family="Times,serif" font-size="14.00">samples = 7338</text>
<text text-anchor="middle" x="248" y="-200.8" font-family="Times,serif" font-size="14.00">value = [3088, 4250]</text>
</g>
<!-- 1 -->
<g id="node2" class="node"><title>1</title>
<polygon fill="#399de5" fill-opacity="0.670588" stroke="black" points="241,-157 109,-157 109,-89 241,-89 241,-157"/>
<text text-anchor="middle" x="175" y="-141.8" font-family="Times,serif" font-size="14.00">triplePattern &lt;= 0.5</text>
<text text-anchor="middle" x="175" y="-126.8" font-family="Times,serif" font-size="14.00">gini = 0.373</text>
<text text-anchor="middle" x="175" y="-111.8" font-family="Times,serif" font-size="14.00">samples = 4878</text>
<text text-anchor="middle" x="175" y="-96.8" font-family="Times,serif" font-size="14.00">value = [1209, 3669]</text>
</g>
<!-- 0&#45;&gt;1 -->
<g id="edge1" class="edge"><title>0&#45;&gt;1</title>
<path fill="none" stroke="black" d="M224.299,-192.884C218.052,-184.154 211.231,-174.625 204.711,-165.514"/>
<polygon fill="black" stroke="black" points="207.498,-163.394 198.832,-157.299 201.806,-167.468 207.498,-163.394"/>
<text text-anchor="middle" x="194.745" y="-178.263" font-family="Times,serif" font-size="14.00">True</text>
</g>
<!-- 4 -->
<g id="node5" class="node"><title>4</title>
<polygon fill="#e58139" fill-opacity="0.690196" stroke="black" points="384.5,-157 259.5,-157 259.5,-89 384.5,-89 384.5,-157"/>
<text text-anchor="middle" x="322" y="-141.8" font-family="Times,serif" font-size="14.00">optional &lt;= 1.5</text>
<text text-anchor="middle" x="322" y="-126.8" font-family="Times,serif" font-size="14.00">gini = 0.361</text>
<text text-anchor="middle" x="322" y="-111.8" font-family="Times,serif" font-size="14.00">samples = 2460</text>
<text text-anchor="middle" x="322" y="-96.8" font-family="Times,serif" font-size="14.00">value = [1879, 581]</text>
</g>
<!-- 0&#45;&gt;4 -->
<g id="edge4" class="edge"><title>0&#45;&gt;4</title>
<path fill="none" stroke="black" d="M272.026,-192.884C278.359,-184.154 285.272,-174.625 291.882,-165.514"/>
<polygon fill="black" stroke="black" points="294.802,-167.449 297.842,-157.299 289.136,-163.338 294.802,-167.449"/>
<text text-anchor="middle" x="301.77" y="-178.289" font-family="Times,serif" font-size="14.00">False</text>
</g>
<!-- 2 -->
<g id="node3" class="node"><title>2</title>
<polygon fill="#e58139" stroke="black" points="92,-53 0,-53 0,-0 92,-0 92,-53"/>
<text text-anchor="middle" x="46" y="-37.8" font-family="Times,serif" font-size="14.00">gini = 0.0</text>
<text text-anchor="middle" x="46" y="-22.8" font-family="Times,serif" font-size="14.00">samples = 6</text>
<text text-anchor="middle" x="46" y="-7.8" font-family="Times,serif" font-size="14.00">value = [6, 0]</text>
</g>
<!-- 1&#45;&gt;2 -->
<g id="edge2" class="edge"><title>1&#45;&gt;2</title>
<path fill="none" stroke="black" d="M129.882,-88.9485C116.77,-79.3431 102.48,-68.8747 89.4709,-59.345"/>
<polygon fill="black" stroke="black" points="91.2681,-56.3228 81.1326,-53.2367 87.1313,-61.9698 91.2681,-56.3228"/>
</g>
<!-- 3 -->
<g id="node4" class="node"><title>3</title>
<polygon fill="#399de5" fill-opacity="0.670588" stroke="black" points="242,-53 110,-53 110,-0 242,-0 242,-53"/>
<text text-anchor="middle" x="176" y="-37.8" font-family="Times,serif" font-size="14.00">gini = 0.372</text>
<text text-anchor="middle" x="176" y="-22.8" font-family="Times,serif" font-size="14.00">samples = 4872</text>
<text text-anchor="middle" x="176" y="-7.8" font-family="Times,serif" font-size="14.00">value = [1203, 3669]</text>
</g>
<!-- 1&#45;&gt;3 -->
<g id="edge3" class="edge"><title>1&#45;&gt;3</title>
<path fill="none" stroke="black" d="M175.35,-88.9485C175.437,-80.7153 175.531,-71.848 175.619,-63.4814"/>
<polygon fill="black" stroke="black" points="179.122,-63.2732 175.728,-53.2367 172.122,-63.1991 179.122,-63.2732"/>
</g>
<!-- 5 -->
<g id="node6" class="node"><title>5</title>
<polygon fill="#399de5" fill-opacity="0.078431" stroke="black" points="380.5,-53 261.5,-53 261.5,-0 380.5,-0 380.5,-53"/>
<text text-anchor="middle" x="321" y="-37.8" font-family="Times,serif" font-size="14.00">gini = 0.499</text>
<text text-anchor="middle" x="321" y="-22.8" font-family="Times,serif" font-size="14.00">samples = 1116</text>
<text text-anchor="middle" x="321" y="-7.8" font-family="Times,serif" font-size="14.00">value = [535, 581]</text>
</g>
<!-- 4&#45;&gt;5 -->
<g id="edge5" class="edge"><title>4&#45;&gt;5</title>
<path fill="none" stroke="black" d="M321.65,-88.9485C321.563,-80.7153 321.469,-71.848 321.381,-63.4814"/>
<polygon fill="black" stroke="black" points="324.878,-63.1991 321.272,-53.2367 317.878,-63.2732 324.878,-63.1991"/>
</g>
<!-- 6 -->
<g id="node7" class="node"><title>6</title>
<polygon fill="#e58139" stroke="black" points="511,-53 399,-53 399,-0 511,-0 511,-53"/>
<text text-anchor="middle" x="455" y="-37.8" font-family="Times,serif" font-size="14.00">gini = 0.0</text>
<text text-anchor="middle" x="455" y="-22.8" font-family="Times,serif" font-size="14.00">samples = 1344</text>
<text text-anchor="middle" x="455" y="-7.8" font-family="Times,serif" font-size="14.00">value = [1344, 0]</text>
</g>
<!-- 4&#45;&gt;6 -->
<g id="edge6" class="edge"><title>4&#45;&gt;6</title>
<path fill="none" stroke="black" d="M368.517,-88.9485C382.164,-79.2516 397.05,-68.6752 410.564,-59.073"/>
<polygon fill="black" stroke="black" points="412.653,-61.882 418.778,-53.2367 408.599,-56.1757 412.653,-61.882"/>
</g>
</g>
</svg>
