<?xml version="1.0" encoding="UTF-8" standalone="no"?>
<!DOCTYPE svg PUBLIC "-//W3C//DTD SVG 1.1//EN"
 "http://www.w3.org/Graphics/SVG/1.1/DTD/svg11.dtd">
<!-- Generated by graphviz version 2.38.0 (20140413.2041)
 -->
<!-- Title: Tree Pages: 1 -->
<svg width="713pt" height="269pt"
 viewBox="0.00 0.00 712.50 269.00" xmlns="http://www.w3.org/2000/svg" xmlns:xlink="http://www.w3.org/1999/xlink">
<g id="graph0" class="graph" transform="scale(1 1) rotate(0) translate(4 265)">
<title>Tree</title>
<polygon fill="white" stroke="none" points="-4,4 -4,-265 708.5,-265 708.5,4 -4,4"/>
<!-- 0 -->
<g id="node1" class="node"><title>0</title>
<polygon fill="#e58139" fill-opacity="0.345098" stroke="black" points="448,-261 267,-261 267,-193 448,-193 448,-261"/>
<text text-anchor="middle" x="357.5" y="-245.8" font-family="Times,serif" font-size="14.00">filter &lt;= 1.5</text>
<text text-anchor="middle" x="357.5" y="-230.8" font-family="Times,serif" font-size="14.00">gini = 0.657</text>
<text text-anchor="middle" x="357.5" y="-215.8" font-family="Times,serif" font-size="14.00">samples = 4250</text>
<text text-anchor="middle" x="357.5" y="-200.8" font-family="Times,serif" font-size="14.00">value = [2117, 992, 767, 374]</text>
</g>
<!-- 1 -->
<g id="node2" class="node"><title>1</title>
<polygon fill="#e58139" fill-opacity="0.682353" stroke="black" points="350,-157 169,-157 169,-89 350,-89 350,-157"/>
<text text-anchor="middle" x="259.5" y="-141.8" font-family="Times,serif" font-size="14.00">triplePattern &lt;= 3.5</text>
<text text-anchor="middle" x="259.5" y="-126.8" font-family="Times,serif" font-size="14.00">gini = 0.446</text>
<text text-anchor="middle" x="259.5" y="-111.8" font-family="Times,serif" font-size="14.00">samples = 2750</text>
<text text-anchor="middle" x="259.5" y="-96.8" font-family="Times,serif" font-size="14.00">value = [1995, 371, 215, 169]</text>
</g>
<!-- 0&#45;&gt;1 -->
<g id="edge1" class="edge"><title>0&#45;&gt;1</title>
<path fill="none" stroke="black" d="M325.682,-192.884C317.039,-183.887 307.578,-174.041 298.583,-164.678"/>
<polygon fill="black" stroke="black" points="300.946,-162.086 291.494,-157.299 295.898,-166.935 300.946,-162.086"/>
<text text-anchor="middle" x="290.994" y="-178.594" font-family="Times,serif" font-size="14.00">True</text>
</g>
<!-- 4 -->
<g id="node5" class="node"><title>4</title>
<polygon fill="#47e539" fill-opacity="0.074510" stroke="black" points="542.5,-157 368.5,-157 368.5,-89 542.5,-89 542.5,-157"/>
<text text-anchor="middle" x="455.5" y="-141.8" font-family="Times,serif" font-size="14.00">triplePattern &lt;= 6.5</text>
<text text-anchor="middle" x="455.5" y="-126.8" font-family="Times,serif" font-size="14.00">gini = 0.668</text>
<text text-anchor="middle" x="455.5" y="-111.8" font-family="Times,serif" font-size="14.00">samples = 1500</text>
<text text-anchor="middle" x="455.5" y="-96.8" font-family="Times,serif" font-size="14.00">value = [122, 621, 552, 205]</text>
</g>
<!-- 0&#45;&gt;4 -->
<g id="edge4" class="edge"><title>0&#45;&gt;4</title>
<path fill="none" stroke="black" d="M389.318,-192.884C397.961,-183.887 407.422,-174.041 416.417,-164.678"/>
<polygon fill="black" stroke="black" points="419.102,-166.935 423.506,-157.299 414.054,-162.086 419.102,-166.935"/>
<text text-anchor="middle" x="424.006" y="-178.594" font-family="Times,serif" font-size="14.00">False</text>
</g>
<!-- 2 -->
<g id="node3" class="node"><title>2</title>
<polygon fill="#e58139" fill-opacity="0.686275" stroke="black" points="181,-53 0,-53 0,-0 181,-0 181,-53"/>
<text text-anchor="middle" x="90.5" y="-37.8" font-family="Times,serif" font-size="14.00">gini = 0.442</text>
<text text-anchor="middle" x="90.5" y="-22.8" font-family="Times,serif" font-size="14.00">samples = 2697</text>
<text text-anchor="middle" x="90.5" y="-7.8" font-family="Times,serif" font-size="14.00">value = [1965, 360, 208, 164]</text>
</g>
<!-- 1&#45;&gt;2 -->
<g id="edge2" class="edge"><title>1&#45;&gt;2</title>
<path fill="none" stroke="black" d="M200.392,-88.9485C182.479,-78.9318 162.887,-67.9767 145.271,-58.1263"/>
<polygon fill="black" stroke="black" points="146.695,-54.9124 136.258,-53.0867 143.278,-61.0221 146.695,-54.9124"/>
</g>
<!-- 3 -->
<g id="node4" class="node"><title>3</title>
<polygon fill="#e58139" fill-opacity="0.450980" stroke="black" points="333.5,-53 199.5,-53 199.5,-0 333.5,-0 333.5,-53"/>
<text text-anchor="middle" x="266.5" y="-37.8" font-family="Times,serif" font-size="14.00">gini = 0.61</text>
<text text-anchor="middle" x="266.5" y="-22.8" font-family="Times,serif" font-size="14.00">samples = 53</text>
<text text-anchor="middle" x="266.5" y="-7.8" font-family="Times,serif" font-size="14.00">value = [30, 11, 7, 5]</text>
</g>
<!-- 1&#45;&gt;3 -->
<g id="edge3" class="edge"><title>1&#45;&gt;3</title>
<path fill="none" stroke="black" d="M261.948,-88.9485C262.558,-80.7153 263.215,-71.848 263.835,-63.4814"/>
<polygon fill="black" stroke="black" points="267.345,-63.468 264.594,-53.2367 260.364,-62.9508 267.345,-63.468"/>
</g>
<!-- 5 -->
<g id="node6" class="node"><title>5</title>
<polygon fill="#399de5" fill-opacity="0.337255" stroke="black" points="532,-53 365,-53 365,-0 532,-0 532,-53"/>
<text text-anchor="middle" x="448.5" y="-37.8" font-family="Times,serif" font-size="14.00">gini = 0.597</text>
<text text-anchor="middle" x="448.5" y="-22.8" font-family="Times,serif" font-size="14.00">samples = 907</text>
<text text-anchor="middle" x="448.5" y="-7.8" font-family="Times,serif" font-size="14.00">value = [26, 278, 491, 112]</text>
</g>
<!-- 4&#45;&gt;5 -->
<g id="edge5" class="edge"><title>4&#45;&gt;5</title>
<path fill="none" stroke="black" d="M453.052,-88.9485C452.442,-80.7153 451.785,-71.848 451.165,-63.4814"/>
<polygon fill="black" stroke="black" points="454.636,-62.9508 450.406,-53.2367 447.655,-63.468 454.636,-62.9508"/>
</g>
<!-- 6 -->
<g id="node7" class="node"><title>6</title>
<polygon fill="#47e539" fill-opacity="0.498039" stroke="black" points="704.5,-53 550.5,-53 550.5,-0 704.5,-0 704.5,-53"/>
<text text-anchor="middle" x="627.5" y="-37.8" font-family="Times,serif" font-size="14.00">gini = 0.604</text>
<text text-anchor="middle" x="627.5" y="-22.8" font-family="Times,serif" font-size="14.00">samples = 593</text>
<text text-anchor="middle" x="627.5" y="-7.8" font-family="Times,serif" font-size="14.00">value = [96, 343, 61, 93]</text>
</g>
<!-- 4&#45;&gt;6 -->
<g id="edge6" class="edge"><title>4&#45;&gt;6</title>
<path fill="none" stroke="black" d="M515.657,-88.9485C533.889,-78.9318 553.828,-67.9767 571.757,-58.1263"/>
<polygon fill="black" stroke="black" points="573.851,-60.9695 580.93,-53.0867 570.48,-54.8345 573.851,-60.9695"/>
</g>
</g>
</svg>
