<?xml version="1.0" encoding="UTF-8" standalone="no"?>
<!DOCTYPE svg PUBLIC "-//W3C//DTD SVG 1.1//EN"
 "http://www.w3.org/Graphics/SVG/1.1/DTD/svg11.dtd">
<!-- Generated by graphviz version 2.38.0 (20140413.2041)
 -->
<!-- Title: Tree Pages: 1 -->
<svg width="527pt" height="269pt"
 viewBox="0.00 0.00 526.50 269.00" xmlns="http://www.w3.org/2000/svg" xmlns:xlink="http://www.w3.org/1999/xlink">
<g id="graph0" class="graph" transform="scale(1 1) rotate(0) translate(4 265)">
<title>Tree</title>
<polygon fill="white" stroke="none" points="-4,4 -4,-265 522.5,-265 522.5,4 -4,4"/>
<!-- 0 -->
<g id="node1" class="node"><title>0</title>
<polygon fill="#e58139" fill-opacity="0.333333" stroke="black" points="323.5,-261 191.5,-261 191.5,-193 323.5,-193 323.5,-261"/>
<text text-anchor="middle" x="257.5" y="-245.8" font-family="Times,serif" font-size="14.00">filter &lt;= 1.5</text>
<text text-anchor="middle" x="257.5" y="-230.8" font-family="Times,serif" font-size="14.00">gini = 0.48</text>
<text text-anchor="middle" x="257.5" y="-215.8" font-family="Times,serif" font-size="14.00">samples = 3955</text>
<text text-anchor="middle" x="257.5" y="-200.8" font-family="Times,serif" font-size="14.00">value = [2372, 1583]</text>
</g>
<!-- 1 -->
<g id="node2" class="node"><title>1</title>
<polygon fill="#399de5" fill-opacity="0.062745" stroke="black" points="247,-157 128,-157 128,-89 247,-89 247,-157"/>
<text text-anchor="middle" x="187.5" y="-141.8" font-family="Times,serif" font-size="14.00">optional &lt;= 0.5</text>
<text text-anchor="middle" x="187.5" y="-126.8" font-family="Times,serif" font-size="14.00">gini = 0.5</text>
<text text-anchor="middle" x="187.5" y="-111.8" font-family="Times,serif" font-size="14.00">samples = 1935</text>
<text text-anchor="middle" x="187.5" y="-96.8" font-family="Times,serif" font-size="14.00">value = [937, 998]</text>
</g>
<!-- 0&#45;&gt;1 -->
<g id="edge1" class="edge"><title>0&#45;&gt;1</title>
<path fill="none" stroke="black" d="M234.773,-192.884C228.843,-184.243 222.376,-174.819 216.181,-165.793"/>
<polygon fill="black" stroke="black" points="218.897,-163.564 210.353,-157.299 213.125,-167.525 218.897,-163.564"/>
<text text-anchor="middle" x="205.78" y="-178.178" font-family="Times,serif" font-size="14.00">True</text>
</g>
<!-- 4 -->
<g id="node5" class="node"><title>4</title>
<polygon fill="#e58139" fill-opacity="0.592157" stroke="black" points="390,-157 265,-157 265,-89 390,-89 390,-157"/>
<text text-anchor="middle" x="327.5" y="-141.8" font-family="Times,serif" font-size="14.00">query &lt;= 3.5</text>
<text text-anchor="middle" x="327.5" y="-126.8" font-family="Times,serif" font-size="14.00">gini = 0.411</text>
<text text-anchor="middle" x="327.5" y="-111.8" font-family="Times,serif" font-size="14.00">samples = 2020</text>
<text text-anchor="middle" x="327.5" y="-96.8" font-family="Times,serif" font-size="14.00">value = [1435, 585]</text>
</g>
<!-- 0&#45;&gt;4 -->
<g id="edge4" class="edge"><title>0&#45;&gt;4</title>
<path fill="none" stroke="black" d="M280.227,-192.884C286.157,-184.243 292.624,-174.819 298.819,-165.793"/>
<polygon fill="black" stroke="black" points="301.875,-167.525 304.647,-157.299 296.103,-163.564 301.875,-167.525"/>
<text text-anchor="middle" x="309.22" y="-178.178" font-family="Times,serif" font-size="14.00">False</text>
</g>
<!-- 2 -->
<g id="node3" class="node"><title>2</title>
<polygon fill="#399de5" fill-opacity="0.047059" stroke="black" points="119,-53 0,-53 0,-0 119,-0 119,-53"/>
<text text-anchor="middle" x="59.5" y="-37.8" font-family="Times,serif" font-size="14.00">gini = 0.5</text>
<text text-anchor="middle" x="59.5" y="-22.8" font-family="Times,serif" font-size="14.00">samples = 1880</text>
<text text-anchor="middle" x="59.5" y="-7.8" font-family="Times,serif" font-size="14.00">value = [917, 963]</text>
</g>
<!-- 1&#45;&gt;2 -->
<g id="edge2" class="edge"><title>1&#45;&gt;2</title>
<path fill="none" stroke="black" d="M142.732,-88.9485C129.721,-79.3431 115.542,-68.8747 102.634,-59.345"/>
<polygon fill="black" stroke="black" points="104.484,-56.3605 94.3603,-53.2367 100.327,-61.992 104.484,-56.3605"/>
</g>
<!-- 3 -->
<g id="node4" class="node"><title>3</title>
<polygon fill="#399de5" fill-opacity="0.427451" stroke="black" points="242,-53 137,-53 137,-0 242,-0 242,-53"/>
<text text-anchor="middle" x="189.5" y="-37.8" font-family="Times,serif" font-size="14.00">gini = 0.463</text>
<text text-anchor="middle" x="189.5" y="-22.8" font-family="Times,serif" font-size="14.00">samples = 55</text>
<text text-anchor="middle" x="189.5" y="-7.8" font-family="Times,serif" font-size="14.00">value = [20, 35]</text>
</g>
<!-- 1&#45;&gt;3 -->
<g id="edge3" class="edge"><title>1&#45;&gt;3</title>
<path fill="none" stroke="black" d="M188.2,-88.9485C188.374,-80.7153 188.561,-71.848 188.738,-63.4814"/>
<polygon fill="black" stroke="black" points="192.243,-63.3086 188.955,-53.2367 185.244,-63.1604 192.243,-63.3086"/>
</g>
<!-- 5 -->
<g id="node6" class="node"><title>5</title>
<polygon fill="#e58139" fill-opacity="0.509804" stroke="black" points="388,-53 263,-53 263,-0 388,-0 388,-53"/>
<text text-anchor="middle" x="325.5" y="-37.8" font-family="Times,serif" font-size="14.00">gini = 0.442</text>
<text text-anchor="middle" x="325.5" y="-22.8" font-family="Times,serif" font-size="14.00">samples = 1747</text>
<text text-anchor="middle" x="325.5" y="-7.8" font-family="Times,serif" font-size="14.00">value = [1172, 575]</text>
</g>
<!-- 4&#45;&gt;5 -->
<g id="edge5" class="edge"><title>4&#45;&gt;5</title>
<path fill="none" stroke="black" d="M326.8,-88.9485C326.626,-80.7153 326.439,-71.848 326.262,-63.4814"/>
<polygon fill="black" stroke="black" points="329.756,-63.1604 326.045,-53.2367 322.757,-63.3086 329.756,-63.1604"/>
</g>
<!-- 6 -->
<g id="node7" class="node"><title>6</title>
<polygon fill="#e58139" fill-opacity="0.960784" stroke="black" points="518.5,-53 406.5,-53 406.5,-0 518.5,-0 518.5,-53"/>
<text text-anchor="middle" x="462.5" y="-37.8" font-family="Times,serif" font-size="14.00">gini = 0.071</text>
<text text-anchor="middle" x="462.5" y="-22.8" font-family="Times,serif" font-size="14.00">samples = 273</text>
<text text-anchor="middle" x="462.5" y="-7.8" font-family="Times,serif" font-size="14.00">value = [263, 10]</text>
</g>
<!-- 4&#45;&gt;6 -->
<g id="edge6" class="edge"><title>4&#45;&gt;6</title>
<path fill="none" stroke="black" d="M374.716,-88.9485C388.569,-79.2516 403.678,-68.6752 417.396,-59.073"/>
<polygon fill="black" stroke="black" points="419.548,-61.8387 425.733,-53.2367 415.534,-56.1041 419.548,-61.8387"/>
</g>
</g>
</svg>
