<?xml version="1.0" encoding="UTF-8" standalone="no"?>
<!DOCTYPE svg PUBLIC "-//W3C//DTD SVG 1.1//EN"
 "http://www.w3.org/Graphics/SVG/1.1/DTD/svg11.dtd">
<!-- Generated by graphviz version 2.38.0 (20140413.2041)
 -->
<!-- Title: Tree Pages: 1 -->
<svg width="703pt" height="269pt"
 viewBox="0.00 0.00 703.00 269.00" xmlns="http://www.w3.org/2000/svg" xmlns:xlink="http://www.w3.org/1999/xlink">
<g id="graph0" class="graph" transform="scale(1 1) rotate(0) translate(4 265)">
<title>Tree</title>
<polygon fill="white" stroke="none" points="-4,4 -4,-265 699,-265 699,4 -4,4"/>
<!-- 0 -->
<g id="node1" class="node"><title>0</title>
<polygon fill="#399de5" fill-opacity="0.058824" stroke="black" points="432,-261 265,-261 265,-193 432,-193 432,-261"/>
<text text-anchor="middle" x="348.5" y="-245.8" font-family="Times,serif" font-size="14.00">filter &lt;= 0.5</text>
<text text-anchor="middle" x="348.5" y="-230.8" font-family="Times,serif" font-size="14.00">gini = 0.655</text>
<text text-anchor="middle" x="348.5" y="-215.8" font-family="Times,serif" font-size="14.00">samples = 1583</text>
<text text-anchor="middle" x="348.5" y="-200.8" font-family="Times,serif" font-size="14.00">value = [599, 60, 657, 267]</text>
</g>
<!-- 1 -->
<g id="node2" class="node"><title>1</title>
<polygon fill="#399de5" fill-opacity="0.054902" stroke="black" points="338,-157 177,-157 177,-89 338,-89 338,-157"/>
<text text-anchor="middle" x="257.5" y="-141.8" font-family="Times,serif" font-size="14.00">triplePattern &lt;= 1.5</text>
<text text-anchor="middle" x="257.5" y="-126.8" font-family="Times,serif" font-size="14.00">gini = 0.596</text>
<text text-anchor="middle" x="257.5" y="-111.8" font-family="Times,serif" font-size="14.00">samples = 978</text>
<text text-anchor="middle" x="257.5" y="-96.8" font-family="Times,serif" font-size="14.00">value = [420, 26, 450, 82]</text>
</g>
<!-- 0&#45;&gt;1 -->
<g id="edge1" class="edge"><title>0&#45;&gt;1</title>
<path fill="none" stroke="black" d="M318.955,-192.884C311.008,-183.976 302.318,-174.235 294.04,-164.957"/>
<polygon fill="black" stroke="black" points="296.477,-162.431 287.208,-157.299 291.254,-167.091 296.477,-162.431"/>
<text text-anchor="middle" x="285.786" y="-178.559" font-family="Times,serif" font-size="14.00">True</text>
</g>
<!-- 4 -->
<g id="node5" class="node"><title>4</title>
<polygon fill="#399de5" fill-opacity="0.050980" stroke="black" points="523,-157 356,-157 356,-89 523,-89 523,-157"/>
<text text-anchor="middle" x="439.5" y="-141.8" font-family="Times,serif" font-size="14.00">triplePattern &lt;= 6.5</text>
<text text-anchor="middle" x="439.5" y="-126.8" font-family="Times,serif" font-size="14.00">gini = 0.699</text>
<text text-anchor="middle" x="439.5" y="-111.8" font-family="Times,serif" font-size="14.00">samples = 605</text>
<text text-anchor="middle" x="439.5" y="-96.8" font-family="Times,serif" font-size="14.00">value = [179, 34, 207, 185]</text>
</g>
<!-- 0&#45;&gt;4 -->
<g id="edge4" class="edge"><title>0&#45;&gt;4</title>
<path fill="none" stroke="black" d="M378.045,-192.884C385.992,-183.976 394.682,-174.235 402.96,-164.957"/>
<polygon fill="black" stroke="black" points="405.746,-167.091 409.792,-157.299 400.523,-162.431 405.746,-167.091"/>
<text text-anchor="middle" x="411.214" y="-178.559" font-family="Times,serif" font-size="14.00">False</text>
</g>
<!-- 2 -->
<g id="node3" class="node"><title>2</title>
<polygon fill="#399de5" fill-opacity="0.172549" stroke="black" points="161,-53 0,-53 0,-0 161,-0 161,-53"/>
<text text-anchor="middle" x="80.5" y="-37.8" font-family="Times,serif" font-size="14.00">gini = 0.585</text>
<text text-anchor="middle" x="80.5" y="-22.8" font-family="Times,serif" font-size="14.00">samples = 521</text>
<text text-anchor="middle" x="80.5" y="-7.8" font-family="Times,serif" font-size="14.00">value = [207, 13, 261, 40]</text>
</g>
<!-- 1&#45;&gt;2 -->
<g id="edge2" class="edge"><title>1&#45;&gt;2</title>
<path fill="none" stroke="black" d="M195.594,-88.9485C176.661,-78.8399 155.937,-67.7756 137.356,-57.8555"/>
<polygon fill="black" stroke="black" points="138.894,-54.709 128.424,-53.0867 135.597,-60.884 138.894,-54.709"/>
</g>
<!-- 3 -->
<g id="node4" class="node"><title>3</title>
<polygon fill="#e58139" fill-opacity="0.090196" stroke="black" points="340,-53 179,-53 179,-0 340,-0 340,-53"/>
<text text-anchor="middle" x="259.5" y="-37.8" font-family="Times,serif" font-size="14.00">gini = 0.602</text>
<text text-anchor="middle" x="259.5" y="-22.8" font-family="Times,serif" font-size="14.00">samples = 457</text>
<text text-anchor="middle" x="259.5" y="-7.8" font-family="Times,serif" font-size="14.00">value = [213, 13, 189, 42]</text>
</g>
<!-- 1&#45;&gt;3 -->
<g id="edge3" class="edge"><title>1&#45;&gt;3</title>
<path fill="none" stroke="black" d="M258.2,-88.9485C258.374,-80.7153 258.561,-71.848 258.738,-63.4814"/>
<polygon fill="black" stroke="black" points="262.243,-63.3086 258.955,-53.2367 255.244,-63.1604 262.243,-63.3086"/>
</g>
<!-- 5 -->
<g id="node6" class="node"><title>5</title>
<polygon fill="#d739e5" fill-opacity="0.152941" stroke="black" points="515.5,-53 361.5,-53 361.5,-0 515.5,-0 515.5,-53"/>
<text text-anchor="middle" x="438.5" y="-37.8" font-family="Times,serif" font-size="14.00">gini = 0.677</text>
<text text-anchor="middle" x="438.5" y="-22.8" font-family="Times,serif" font-size="14.00">samples = 247</text>
<text text-anchor="middle" x="438.5" y="-7.8" font-family="Times,serif" font-size="14.00">value = [55, 12, 77, 103]</text>
</g>
<!-- 4&#45;&gt;5 -->
<g id="edge5" class="edge"><title>4&#45;&gt;5</title>
<path fill="none" stroke="black" d="M439.15,-88.9485C439.063,-80.7153 438.969,-71.848 438.881,-63.4814"/>
<polygon fill="black" stroke="black" points="442.378,-63.1991 438.772,-53.2367 435.378,-63.2732 442.378,-63.1991"/>
</g>
<!-- 6 -->
<g id="node7" class="node"><title>6</title>
<polygon fill="#399de5" fill-opacity="0.027451" stroke="black" points="695,-53 534,-53 534,-0 695,-0 695,-53"/>
<text text-anchor="middle" x="614.5" y="-37.8" font-family="Times,serif" font-size="14.00">gini = 0.692</text>
<text text-anchor="middle" x="614.5" y="-22.8" font-family="Times,serif" font-size="14.00">samples = 358</text>
<text text-anchor="middle" x="614.5" y="-7.8" font-family="Times,serif" font-size="14.00">value = [124, 22, 130, 82]</text>
</g>
<!-- 4&#45;&gt;6 -->
<g id="edge6" class="edge"><title>4&#45;&gt;6</title>
<path fill="none" stroke="black" d="M500.707,-88.9485C519.426,-78.8399 539.916,-67.7756 558.286,-57.8555"/>
<polygon fill="black" stroke="black" points="559.981,-60.9179 567.117,-53.0867 556.655,-54.7586 559.981,-60.9179"/>
</g>
</g>
</svg>
