<?xml version="1.0" encoding="UTF-8" standalone="no"?>
<!DOCTYPE svg PUBLIC "-//W3C//DTD SVG 1.1//EN"
 "http://www.w3.org/Graphics/SVG/1.1/DTD/svg11.dtd">
<!-- Generated by graphviz version 2.38.0 (20140413.2041)
 -->
<!-- Title: Tree Pages: 1 -->
<svg width="316pt" height="269pt"
 viewBox="0.00 0.00 315.50 269.00" xmlns="http://www.w3.org/2000/svg" xmlns:xlink="http://www.w3.org/1999/xlink">
<g id="graph0" class="graph" transform="scale(1 1) rotate(0) translate(4 265)">
<title>Tree</title>
<polygon fill="white" stroke="none" points="-4,4 -4,-265 311.5,-265 311.5,4 -4,4"/>
<!-- 0 -->
<g id="node1" class="node"><title>0</title>
<polygon fill="#399de5" fill-opacity="0.980392" stroke="black" points="259,-261 128,-261 128,-193 259,-193 259,-261"/>
<text text-anchor="middle" x="193.5" y="-245.8" font-family="Times,serif" font-size="14.00">triplePattern &lt;= 36.0</text>
<text text-anchor="middle" x="193.5" y="-230.8" font-family="Times,serif" font-size="14.00">gini = 0.04</text>
<text text-anchor="middle" x="193.5" y="-215.8" font-family="Times,serif" font-size="14.00">samples = 7338</text>
<text text-anchor="middle" x="193.5" y="-200.8" font-family="Times,serif" font-size="14.00">value = [149, 7189]</text>
</g>
<!-- 1 -->
<g id="node2" class="node"><title>1</title>
<polygon fill="#399de5" fill-opacity="0.980392" stroke="black" points="191,-157 66,-157 66,-89 191,-89 191,-157"/>
<text text-anchor="middle" x="128.5" y="-141.8" font-family="Times,serif" font-size="14.00">optional &lt;= 5.5</text>
<text text-anchor="middle" x="128.5" y="-126.8" font-family="Times,serif" font-size="14.00">gini = 0.035</text>
<text text-anchor="middle" x="128.5" y="-111.8" font-family="Times,serif" font-size="14.00">samples = 7320</text>
<text text-anchor="middle" x="128.5" y="-96.8" font-family="Times,serif" font-size="14.00">value = [131, 7189]</text>
</g>
<!-- 0&#45;&gt;1 -->
<g id="edge1" class="edge"><title>0&#45;&gt;1</title>
<path fill="none" stroke="black" d="M172.396,-192.884C166.89,-184.243 160.885,-174.819 155.133,-165.793"/>
<polygon fill="black" stroke="black" points="158.046,-163.852 149.72,-157.299 152.143,-167.614 158.046,-163.852"/>
<text text-anchor="middle" x="144.312" y="-178.007" font-family="Times,serif" font-size="14.00">True</text>
</g>
<!-- 4 -->
<g id="node5" class="node"><title>4</title>
<polygon fill="#e58139" stroke="black" points="307.5,-149.5 209.5,-149.5 209.5,-96.5 307.5,-96.5 307.5,-149.5"/>
<text text-anchor="middle" x="258.5" y="-134.3" font-family="Times,serif" font-size="14.00">gini = 0.0</text>
<text text-anchor="middle" x="258.5" y="-119.3" font-family="Times,serif" font-size="14.00">samples = 18</text>
<text text-anchor="middle" x="258.5" y="-104.3" font-family="Times,serif" font-size="14.00">value = [18, 0]</text>
</g>
<!-- 0&#45;&gt;4 -->
<g id="edge4" class="edge"><title>0&#45;&gt;4</title>
<path fill="none" stroke="black" d="M214.604,-192.884C221.682,-181.776 229.587,-169.372 236.716,-158.184"/>
<polygon fill="black" stroke="black" points="239.815,-159.834 242.237,-149.52 233.912,-156.072 239.815,-159.834"/>
<text text-anchor="middle" x="247.645" y="-170.228" font-family="Times,serif" font-size="14.00">False</text>
</g>
<!-- 2 -->
<g id="node3" class="node"><title>2</title>
<polygon fill="#399de5" fill-opacity="0.984314" stroke="black" points="125,-53 7.10543e-15,-53 7.10543e-15,-0 125,-0 125,-53"/>
<text text-anchor="middle" x="62.5" y="-37.8" font-family="Times,serif" font-size="14.00">gini = 0.027</text>
<text text-anchor="middle" x="62.5" y="-22.8" font-family="Times,serif" font-size="14.00">samples = 7254</text>
<text text-anchor="middle" x="62.5" y="-7.8" font-family="Times,serif" font-size="14.00">value = [101, 7153]</text>
</g>
<!-- 1&#45;&gt;2 -->
<g id="edge2" class="edge"><title>1&#45;&gt;2</title>
<path fill="none" stroke="black" d="M105.416,-88.9485C99.219,-80.0749 92.5072,-70.4648 86.2731,-61.5388"/>
<polygon fill="black" stroke="black" points="89.0702,-59.4311 80.4748,-53.2367 83.3313,-63.4392 89.0702,-59.4311"/>
</g>
<!-- 3 -->
<g id="node4" class="node"><title>3</title>
<polygon fill="#399de5" fill-opacity="0.164706" stroke="black" points="248,-53 143,-53 143,-0 248,-0 248,-53"/>
<text text-anchor="middle" x="195.5" y="-37.8" font-family="Times,serif" font-size="14.00">gini = 0.496</text>
<text text-anchor="middle" x="195.5" y="-22.8" font-family="Times,serif" font-size="14.00">samples = 66</text>
<text text-anchor="middle" x="195.5" y="-7.8" font-family="Times,serif" font-size="14.00">value = [30, 36]</text>
</g>
<!-- 1&#45;&gt;3 -->
<g id="edge3" class="edge"><title>1&#45;&gt;3</title>
<path fill="none" stroke="black" d="M151.933,-88.9485C158.225,-80.0749 165.038,-70.4648 171.367,-61.5388"/>
<polygon fill="black" stroke="black" points="174.324,-63.4188 177.253,-53.2367 168.614,-59.3701 174.324,-63.4188"/>
</g>
</g>
</svg>
