<?xml version="1.0" encoding="UTF-8" standalone="no"?>
<!DOCTYPE svg PUBLIC "-//W3C//DTD SVG 1.1//EN"
 "http://www.w3.org/Graphics/SVG/1.1/DTD/svg11.dtd">
<!-- Generated by graphviz version 2.38.0 (20140413.2041)
 -->
<!-- Title: Tree Pages: 1 -->
<svg width="512pt" height="269pt"
 viewBox="0.00 0.00 512.00 269.00" xmlns="http://www.w3.org/2000/svg" xmlns:xlink="http://www.w3.org/1999/xlink">
<g id="graph0" class="graph" transform="scale(1 1) rotate(0) translate(4 265)">
<title>Tree</title>
<polygon fill="white" stroke="none" points="-4,4 -4,-265 508,-265 508,4 -4,4"/>
<!-- 0 -->
<g id="node1" class="node"><title>0</title>
<polygon fill="#e58139" fill-opacity="0.117647" stroke="black" points="318,-261 187,-261 187,-193 318,-193 318,-261"/>
<text text-anchor="middle" x="252.5" y="-245.8" font-family="Times,serif" font-size="14.00">triplePattern &lt;= 21.5</text>
<text text-anchor="middle" x="252.5" y="-230.8" font-family="Times,serif" font-size="14.00">gini = 0.658</text>
<text text-anchor="middle" x="252.5" y="-215.8" font-family="Times,serif" font-size="14.00">samples = 149</text>
<text text-anchor="middle" x="252.5" y="-200.8" font-family="Times,serif" font-size="14.00">value = [60, 48, 41]</text>
</g>
<!-- 1 -->
<g id="node2" class="node"><title>1</title>
<polygon fill="#e58139" fill-opacity="0.145098" stroke="black" points="244,-157 125,-157 125,-89 244,-89 244,-157"/>
<text text-anchor="middle" x="184.5" y="-141.8" font-family="Times,serif" font-size="14.00">filter_in &lt;= 1.5</text>
<text text-anchor="middle" x="184.5" y="-126.8" font-family="Times,serif" font-size="14.00">gini = 0.497</text>
<text text-anchor="middle" x="184.5" y="-111.8" font-family="Times,serif" font-size="14.00">samples = 89</text>
<text text-anchor="middle" x="184.5" y="-96.8" font-family="Times,serif" font-size="14.00">value = [48, 0, 41]</text>
</g>
<!-- 0&#45;&gt;1 -->
<g id="edge1" class="edge"><title>0&#45;&gt;1</title>
<path fill="none" stroke="black" d="M230.422,-192.884C224.662,-184.243 218.379,-174.819 212.362,-165.793"/>
<polygon fill="black" stroke="black" points="215.159,-163.678 206.7,-157.299 209.334,-167.561 215.159,-163.678"/>
<text text-anchor="middle" x="201.797" y="-178.114" font-family="Times,serif" font-size="14.00">True</text>
</g>
<!-- 4 -->
<g id="node5" class="node"><title>4</title>
<polygon fill="#39e581" fill-opacity="0.749020" stroke="black" points="381,-157 262,-157 262,-89 381,-89 381,-157"/>
<text text-anchor="middle" x="321.5" y="-141.8" font-family="Times,serif" font-size="14.00">order &lt;= 0.5</text>
<text text-anchor="middle" x="321.5" y="-126.8" font-family="Times,serif" font-size="14.00">gini = 0.32</text>
<text text-anchor="middle" x="321.5" y="-111.8" font-family="Times,serif" font-size="14.00">samples = 60</text>
<text text-anchor="middle" x="321.5" y="-96.8" font-family="Times,serif" font-size="14.00">value = [12, 48, 0]</text>
</g>
<!-- 0&#45;&gt;4 -->
<g id="edge4" class="edge"><title>0&#45;&gt;4</title>
<path fill="none" stroke="black" d="M274.902,-192.884C280.747,-184.243 287.122,-174.819 293.228,-165.793"/>
<polygon fill="black" stroke="black" points="296.27,-167.543 298.974,-157.299 290.472,-163.621 296.27,-167.543"/>
<text text-anchor="middle" x="303.711" y="-178.146" font-family="Times,serif" font-size="14.00">False</text>
</g>
<!-- 2 -->
<g id="node3" class="node"><title>2</title>
<polygon fill="#e58139" stroke="black" points="113,-53 0,-53 0,-0 113,-0 113,-53"/>
<text text-anchor="middle" x="56.5" y="-37.8" font-family="Times,serif" font-size="14.00">gini = 0.0</text>
<text text-anchor="middle" x="56.5" y="-22.8" font-family="Times,serif" font-size="14.00">samples = 42</text>
<text text-anchor="middle" x="56.5" y="-7.8" font-family="Times,serif" font-size="14.00">value = [42, 0, 0]</text>
</g>
<!-- 1&#45;&gt;2 -->
<g id="edge2" class="edge"><title>1&#45;&gt;2</title>
<path fill="none" stroke="black" d="M139.732,-88.9485C126.721,-79.3431 112.542,-68.8747 99.634,-59.345"/>
<polygon fill="black" stroke="black" points="101.484,-56.3605 91.3603,-53.2367 97.3265,-61.992 101.484,-56.3605"/>
</g>
<!-- 3 -->
<g id="node4" class="node"><title>3</title>
<polygon fill="#8139e5" fill-opacity="0.854902" stroke="black" points="244,-53 131,-53 131,-0 244,-0 244,-53"/>
<text text-anchor="middle" x="187.5" y="-37.8" font-family="Times,serif" font-size="14.00">gini = 0.223</text>
<text text-anchor="middle" x="187.5" y="-22.8" font-family="Times,serif" font-size="14.00">samples = 47</text>
<text text-anchor="middle" x="187.5" y="-7.8" font-family="Times,serif" font-size="14.00">value = [6, 0, 41]</text>
</g>
<!-- 1&#45;&gt;3 -->
<g id="edge3" class="edge"><title>1&#45;&gt;3</title>
<path fill="none" stroke="black" d="M185.549,-88.9485C185.811,-80.7153 186.092,-71.848 186.358,-63.4814"/>
<polygon fill="black" stroke="black" points="189.864,-63.3428 186.683,-53.2367 182.867,-63.1206 189.864,-63.3428"/>
</g>
<!-- 5 -->
<g id="node6" class="node"><title>5</title>
<polygon fill="#e58139" stroke="black" points="372.5,-53 266.5,-53 266.5,-0 372.5,-0 372.5,-53"/>
<text text-anchor="middle" x="319.5" y="-37.8" font-family="Times,serif" font-size="14.00">gini = 0.0</text>
<text text-anchor="middle" x="319.5" y="-22.8" font-family="Times,serif" font-size="14.00">samples = 6</text>
<text text-anchor="middle" x="319.5" y="-7.8" font-family="Times,serif" font-size="14.00">value = [6, 0, 0]</text>
</g>
<!-- 4&#45;&gt;5 -->
<g id="edge5" class="edge"><title>4&#45;&gt;5</title>
<path fill="none" stroke="black" d="M320.8,-88.9485C320.626,-80.7153 320.439,-71.848 320.262,-63.4814"/>
<polygon fill="black" stroke="black" points="323.756,-63.1604 320.045,-53.2367 316.757,-63.3086 323.756,-63.1604"/>
</g>
<!-- 6 -->
<g id="node7" class="node"><title>6</title>
<polygon fill="#39e581" fill-opacity="0.874510" stroke="black" points="504,-53 391,-53 391,-0 504,-0 504,-53"/>
<text text-anchor="middle" x="447.5" y="-37.8" font-family="Times,serif" font-size="14.00">gini = 0.198</text>
<text text-anchor="middle" x="447.5" y="-22.8" font-family="Times,serif" font-size="14.00">samples = 54</text>
<text text-anchor="middle" x="447.5" y="-7.8" font-family="Times,serif" font-size="14.00">value = [6, 48, 0]</text>
</g>
<!-- 4&#45;&gt;6 -->
<g id="edge6" class="edge"><title>4&#45;&gt;6</title>
<path fill="none" stroke="black" d="M365.569,-88.9485C378.376,-79.3431 392.334,-68.8747 405.04,-59.345"/>
<polygon fill="black" stroke="black" points="407.284,-62.0368 413.184,-53.2367 403.084,-56.4367 407.284,-62.0368"/>
</g>
</g>
</svg>
