<?xml version="1.0" encoding="UTF-8" standalone="no"?>
<!DOCTYPE svg PUBLIC "-//W3C//DTD SVG 1.1//EN"
 "http://www.w3.org/Graphics/SVG/1.1/DTD/svg11.dtd">
<!-- Generated by graphviz version 2.38.0 (20140413.2041)
 -->
<!-- Title: Tree Pages: 1 -->
<svg width="653pt" height="269pt"
 viewBox="0.00 0.00 653.00 269.00" xmlns="http://www.w3.org/2000/svg" xmlns:xlink="http://www.w3.org/1999/xlink">
<g id="graph0" class="graph" transform="scale(1 1) rotate(0) translate(4 265)">
<title>Tree</title>
<polygon fill="white" stroke="none" points="-4,4 -4,-265 649,-265 649,4 -4,4"/>
<!-- 0 -->
<g id="node1" class="node"><title>0</title>
<polygon fill="#e58139" fill-opacity="0.843137" stroke="black" points="417,-261 243,-261 243,-193 417,-193 417,-261"/>
<text text-anchor="middle" x="330" y="-245.8" font-family="Times,serif" font-size="14.00">triplePattern &lt;= 15.5</text>
<text text-anchor="middle" x="330" y="-230.8" font-family="Times,serif" font-size="14.00">gini = 0.252</text>
<text text-anchor="middle" x="330" y="-215.8" font-family="Times,serif" font-size="14.00">samples = 4110</text>
<text text-anchor="middle" x="330" y="-200.8" font-family="Times,serif" font-size="14.00">value = [3530, 380, 149, 51]</text>
</g>
<!-- 1 -->
<g id="node2" class="node"><title>1</title>
<polygon fill="#e58139" fill-opacity="0.913725" stroke="black" points="324.5,-157 157.5,-157 157.5,-89 324.5,-89 324.5,-157"/>
<text text-anchor="middle" x="241" y="-141.8" font-family="Times,serif" font-size="14.00">filter &lt;= 0.5</text>
<text text-anchor="middle" x="241" y="-126.8" font-family="Times,serif" font-size="14.00">gini = 0.156</text>
<text text-anchor="middle" x="241" y="-111.8" font-family="Times,serif" font-size="14.00">samples = 3766</text>
<text text-anchor="middle" x="241" y="-96.8" font-family="Times,serif" font-size="14.00">value = [3453, 180, 99, 34]</text>
</g>
<!-- 0&#45;&gt;1 -->
<g id="edge1" class="edge"><title>0&#45;&gt;1</title>
<path fill="none" stroke="black" d="M301.104,-192.884C293.332,-183.976 284.833,-174.235 276.737,-164.957"/>
<polygon fill="black" stroke="black" points="279.267,-162.533 270.055,-157.299 273.993,-167.135 279.267,-162.533"/>
<text text-anchor="middle" x="268.358" y="-178.542" font-family="Times,serif" font-size="14.00">True</text>
</g>
<!-- 4 -->
<g id="node5" class="node"><title>4</title>
<polygon fill="#47e539" fill-opacity="0.458824" stroke="black" points="497,-157 343,-157 343,-89 497,-89 497,-157"/>
<text text-anchor="middle" x="420" y="-141.8" font-family="Times,serif" font-size="14.00">filter_in &lt;= 3.0</text>
<text text-anchor="middle" x="420" y="-126.8" font-family="Times,serif" font-size="14.00">gini = 0.588</text>
<text text-anchor="middle" x="420" y="-111.8" font-family="Times,serif" font-size="14.00">samples = 344</text>
<text text-anchor="middle" x="420" y="-96.8" font-family="Times,serif" font-size="14.00">value = [77, 200, 50, 17]</text>
</g>
<!-- 0&#45;&gt;4 -->
<g id="edge4" class="edge"><title>0&#45;&gt;4</title>
<path fill="none" stroke="black" d="M359.22,-192.884C367.08,-183.976 375.675,-174.235 383.862,-164.957"/>
<polygon fill="black" stroke="black" points="386.626,-167.113 390.618,-157.299 381.378,-162.482 386.626,-167.113"/>
<text text-anchor="middle" x="392.178" y="-178.551" font-family="Times,serif" font-size="14.00">False</text>
</g>
<!-- 2 -->
<g id="node3" class="node"><title>2</title>
<polygon fill="#e58139" fill-opacity="0.996078" stroke="black" points="140,-53 0,-53 0,-0 140,-0 140,-53"/>
<text text-anchor="middle" x="70" y="-37.8" font-family="Times,serif" font-size="14.00">gini = 0.008</text>
<text text-anchor="middle" x="70" y="-22.8" font-family="Times,serif" font-size="14.00">samples = 2099</text>
<text text-anchor="middle" x="70" y="-7.8" font-family="Times,serif" font-size="14.00">value = [2091, 6, 2, 0]</text>
</g>
<!-- 1&#45;&gt;2 -->
<g id="edge2" class="edge"><title>1&#45;&gt;2</title>
<path fill="none" stroke="black" d="M181.192,-88.9485C163.067,-78.9318 143.244,-67.9767 125.419,-58.1263"/>
<polygon fill="black" stroke="black" points="126.745,-54.8602 116.3,-53.0867 123.359,-60.9869 126.745,-54.8602"/>
</g>
<!-- 3 -->
<g id="node4" class="node"><title>3</title>
<polygon fill="#e58139" fill-opacity="0.796078" stroke="black" points="325.5,-53 158.5,-53 158.5,-0 325.5,-0 325.5,-53"/>
<text text-anchor="middle" x="242" y="-37.8" font-family="Times,serif" font-size="14.00">gini = 0.318</text>
<text text-anchor="middle" x="242" y="-22.8" font-family="Times,serif" font-size="14.00">samples = 1667</text>
<text text-anchor="middle" x="242" y="-7.8" font-family="Times,serif" font-size="14.00">value = [1362, 174, 97, 34]</text>
</g>
<!-- 1&#45;&gt;3 -->
<g id="edge3" class="edge"><title>1&#45;&gt;3</title>
<path fill="none" stroke="black" d="M241.35,-88.9485C241.437,-80.7153 241.531,-71.848 241.619,-63.4814"/>
<polygon fill="black" stroke="black" points="245.122,-63.2732 241.728,-53.2367 238.122,-63.1991 245.122,-63.2732"/>
</g>
<!-- 5 -->
<g id="node6" class="node"><title>5</title>
<polygon fill="#e58139" fill-opacity="0.078431" stroke="black" points="492.5,-53 345.5,-53 345.5,-0 492.5,-0 492.5,-53"/>
<text text-anchor="middle" x="419" y="-37.8" font-family="Times,serif" font-size="14.00">gini = 0.708</text>
<text text-anchor="middle" x="419" y="-22.8" font-family="Times,serif" font-size="14.00">samples = 198</text>
<text text-anchor="middle" x="419" y="-7.8" font-family="Times,serif" font-size="14.00">value = [71, 60, 50, 17]</text>
</g>
<!-- 4&#45;&gt;5 -->
<g id="edge5" class="edge"><title>4&#45;&gt;5</title>
<path fill="none" stroke="black" d="M419.65,-88.9485C419.563,-80.7153 419.469,-71.848 419.381,-63.4814"/>
<polygon fill="black" stroke="black" points="422.878,-63.1991 419.272,-53.2367 415.878,-63.2732 422.878,-63.1991"/>
</g>
<!-- 6 -->
<g id="node7" class="node"><title>6</title>
<polygon fill="#47e539" fill-opacity="0.956863" stroke="black" points="645,-53 511,-53 511,-0 645,-0 645,-53"/>
<text text-anchor="middle" x="578" y="-37.8" font-family="Times,serif" font-size="14.00">gini = 0.079</text>
<text text-anchor="middle" x="578" y="-22.8" font-family="Times,serif" font-size="14.00">samples = 146</text>
<text text-anchor="middle" x="578" y="-7.8" font-family="Times,serif" font-size="14.00">value = [6, 140, 0, 0]</text>
</g>
<!-- 4&#45;&gt;6 -->
<g id="edge6" class="edge"><title>4&#45;&gt;6</title>
<path fill="none" stroke="black" d="M475.261,-88.9485C491.854,-79.0237 509.989,-68.1776 526.34,-58.3977"/>
<polygon fill="black" stroke="black" points="528.435,-61.2234 535.22,-53.0867 524.841,-55.216 528.435,-61.2234"/>
</g>
</g>
</svg>
