<?xml version="1.0" encoding="UTF-8" standalone="no"?>
<!DOCTYPE svg PUBLIC "-//W3C//DTD SVG 1.1//EN"
 "http://www.w3.org/Graphics/SVG/1.1/DTD/svg11.dtd">
<!-- Generated by graphviz version 2.38.0 (20140413.2041)
 -->
<!-- Title: Tree Pages: 1 -->
<svg width="546pt" height="269pt"
 viewBox="0.00 0.00 545.50 269.00" xmlns="http://www.w3.org/2000/svg" xmlns:xlink="http://www.w3.org/1999/xlink">
<g id="graph0" class="graph" transform="scale(1 1) rotate(0) translate(4 265)">
<title>Tree</title>
<polygon fill="white" stroke="none" points="-4,4 -4,-265 541.5,-265 541.5,4 -4,4"/>
<!-- 0 -->
<g id="node1" class="node"><title>0</title>
<polygon fill="#39e581" fill-opacity="0.984314" stroke="black" points="348,-261 208,-261 208,-193 348,-193 348,-261"/>
<text text-anchor="middle" x="278" y="-245.8" font-family="Times,serif" font-size="14.00">graph &lt;= 0.5</text>
<text text-anchor="middle" x="278" y="-230.8" font-family="Times,serif" font-size="14.00">gini = 0.028</text>
<text text-anchor="middle" x="278" y="-215.8" font-family="Times,serif" font-size="14.00">samples = 3228</text>
<text text-anchor="middle" x="278" y="-200.8" font-family="Times,serif" font-size="14.00">value = [27, 3182, 19]</text>
</g>
<!-- 1 -->
<g id="node2" class="node"><title>1</title>
<polygon fill="#39e581" fill-opacity="0.992157" stroke="black" points="274,-157 134,-157 134,-89 274,-89 274,-157"/>
<text text-anchor="middle" x="204" y="-141.8" font-family="Times,serif" font-size="14.00">group &lt;= 3.5</text>
<text text-anchor="middle" x="204" y="-126.8" font-family="Times,serif" font-size="14.00">gini = 0.019</text>
<text text-anchor="middle" x="204" y="-111.8" font-family="Times,serif" font-size="14.00">samples = 3194</text>
<text text-anchor="middle" x="204" y="-96.8" font-family="Times,serif" font-size="14.00">value = [12, 3163, 19]</text>
</g>
<!-- 0&#45;&gt;1 -->
<g id="edge1" class="edge"><title>0&#45;&gt;1</title>
<path fill="none" stroke="black" d="M253.974,-192.884C247.641,-184.154 240.728,-174.625 234.118,-165.514"/>
<polygon fill="black" stroke="black" points="236.864,-163.338 228.158,-157.299 231.198,-167.449 236.864,-163.338"/>
<text text-anchor="middle" x="224.23" y="-178.289" font-family="Times,serif" font-size="14.00">True</text>
</g>
<!-- 4 -->
<g id="node5" class="node"><title>4</title>
<polygon fill="#39e581" fill-opacity="0.211765" stroke="black" points="411.5,-157 292.5,-157 292.5,-89 411.5,-89 411.5,-157"/>
<text text-anchor="middle" x="352" y="-141.8" font-family="Times,serif" font-size="14.00">filter &lt;= 0.5</text>
<text text-anchor="middle" x="352" y="-126.8" font-family="Times,serif" font-size="14.00">gini = 0.493</text>
<text text-anchor="middle" x="352" y="-111.8" font-family="Times,serif" font-size="14.00">samples = 34</text>
<text text-anchor="middle" x="352" y="-96.8" font-family="Times,serif" font-size="14.00">value = [15, 19, 0]</text>
</g>
<!-- 0&#45;&gt;4 -->
<g id="edge4" class="edge"><title>0&#45;&gt;4</title>
<path fill="none" stroke="black" d="M302.026,-192.884C308.359,-184.154 315.272,-174.625 321.882,-165.514"/>
<polygon fill="black" stroke="black" points="324.802,-167.449 327.842,-157.299 319.136,-163.338 324.802,-167.449"/>
<text text-anchor="middle" x="331.77" y="-178.289" font-family="Times,serif" font-size="14.00">False</text>
</g>
<!-- 2 -->
<g id="node3" class="node"><title>2</title>
<polygon fill="#39e581" stroke="black" points="126,-53 0,-53 0,-0 126,-0 126,-53"/>
<text text-anchor="middle" x="63" y="-37.8" font-family="Times,serif" font-size="14.00">gini = 0.002</text>
<text text-anchor="middle" x="63" y="-22.8" font-family="Times,serif" font-size="14.00">samples = 3007</text>
<text text-anchor="middle" x="63" y="-7.8" font-family="Times,serif" font-size="14.00">value = [3, 3004, 0]</text>
</g>
<!-- 1&#45;&gt;2 -->
<g id="edge2" class="edge"><title>1&#45;&gt;2</title>
<path fill="none" stroke="black" d="M154.685,-88.9485C140.217,-79.2516 124.436,-68.6752 110.109,-59.073"/>
<polygon fill="black" stroke="black" points="111.656,-55.8967 101.401,-53.2367 107.759,-61.7115 111.656,-55.8967"/>
</g>
<!-- 3 -->
<g id="node4" class="node"><title>3</title>
<polygon fill="#39e581" fill-opacity="0.831373" stroke="black" points="270,-53 144,-53 144,-0 270,-0 270,-53"/>
<text text-anchor="middle" x="207" y="-37.8" font-family="Times,serif" font-size="14.00">gini = 0.264</text>
<text text-anchor="middle" x="207" y="-22.8" font-family="Times,serif" font-size="14.00">samples = 187</text>
<text text-anchor="middle" x="207" y="-7.8" font-family="Times,serif" font-size="14.00">value = [9, 159, 19]</text>
</g>
<!-- 1&#45;&gt;3 -->
<g id="edge3" class="edge"><title>1&#45;&gt;3</title>
<path fill="none" stroke="black" d="M205.049,-88.9485C205.311,-80.7153 205.592,-71.848 205.858,-63.4814"/>
<polygon fill="black" stroke="black" points="209.364,-63.3428 206.183,-53.2367 202.367,-63.1206 209.364,-63.3428"/>
</g>
<!-- 5 -->
<g id="node6" class="node"><title>5</title>
<polygon fill="#39e581" stroke="black" points="406.5,-53 293.5,-53 293.5,-0 406.5,-0 406.5,-53"/>
<text text-anchor="middle" x="350" y="-37.8" font-family="Times,serif" font-size="14.00">gini = 0.0</text>
<text text-anchor="middle" x="350" y="-22.8" font-family="Times,serif" font-size="14.00">samples = 10</text>
<text text-anchor="middle" x="350" y="-7.8" font-family="Times,serif" font-size="14.00">value = [0, 10, 0]</text>
</g>
<!-- 4&#45;&gt;5 -->
<g id="edge5" class="edge"><title>4&#45;&gt;5</title>
<path fill="none" stroke="black" d="M351.3,-88.9485C351.126,-80.7153 350.939,-71.848 350.762,-63.4814"/>
<polygon fill="black" stroke="black" points="354.256,-63.1604 350.545,-53.2367 347.257,-63.3086 354.256,-63.1604"/>
</g>
<!-- 6 -->
<g id="node7" class="node"><title>6</title>
<polygon fill="#e58139" fill-opacity="0.400000" stroke="black" points="537.5,-53 424.5,-53 424.5,-0 537.5,-0 537.5,-53"/>
<text text-anchor="middle" x="481" y="-37.8" font-family="Times,serif" font-size="14.00">gini = 0.469</text>
<text text-anchor="middle" x="481" y="-22.8" font-family="Times,serif" font-size="14.00">samples = 24</text>
<text text-anchor="middle" x="481" y="-7.8" font-family="Times,serif" font-size="14.00">value = [15, 9, 0]</text>
</g>
<!-- 4&#45;&gt;6 -->
<g id="edge6" class="edge"><title>4&#45;&gt;6</title>
<path fill="none" stroke="black" d="M397.118,-88.9485C410.23,-79.3431 424.52,-68.8747 437.529,-59.345"/>
<polygon fill="black" stroke="black" points="439.869,-61.9698 445.867,-53.2367 435.732,-56.3228 439.869,-61.9698"/>
</g>
</g>
</svg>
