<?xml version="1.0" encoding="UTF-8" standalone="no"?>
<!DOCTYPE svg PUBLIC "-//W3C//DTD SVG 1.1//EN"
 "http://www.w3.org/Graphics/SVG/1.1/DTD/svg11.dtd">
<!-- Generated by graphviz version 2.38.0 (20140413.2041)
 -->
<!-- Title: Tree Pages: 1 -->
<svg width="312pt" height="269pt"
 viewBox="0.00 0.00 311.50 269.00" xmlns="http://www.w3.org/2000/svg" xmlns:xlink="http://www.w3.org/1999/xlink">
<g id="graph0" class="graph" transform="scale(1 1) rotate(0) translate(4 265)">
<title>Tree</title>
<polygon fill="white" stroke="none" points="-4,4 -4,-265 307.5,-265 307.5,4 -4,4"/>
<!-- 0 -->
<g id="node1" class="node"><title>0</title>
<polygon fill="#399de5" fill-opacity="0.980392" stroke="black" points="255,-261 124,-261 124,-193 255,-193 255,-261"/>
<text text-anchor="middle" x="189.5" y="-245.8" font-family="Times,serif" font-size="14.00">triplePattern &lt;= 36.0</text>
<text text-anchor="middle" x="189.5" y="-230.8" font-family="Times,serif" font-size="14.00">gini = 0.039</text>
<text text-anchor="middle" x="189.5" y="-215.8" font-family="Times,serif" font-size="14.00">samples = 7338</text>
<text text-anchor="middle" x="189.5" y="-200.8" font-family="Times,serif" font-size="14.00">value = [147, 7191]</text>
</g>
<!-- 1 -->
<g id="node2" class="node"><title>1</title>
<polygon fill="#399de5" fill-opacity="0.980392" stroke="black" points="187,-157 62,-157 62,-89 187,-89 187,-157"/>
<text text-anchor="middle" x="124.5" y="-141.8" font-family="Times,serif" font-size="14.00">optional &lt;= 5.5</text>
<text text-anchor="middle" x="124.5" y="-126.8" font-family="Times,serif" font-size="14.00">gini = 0.035</text>
<text text-anchor="middle" x="124.5" y="-111.8" font-family="Times,serif" font-size="14.00">samples = 7320</text>
<text text-anchor="middle" x="124.5" y="-96.8" font-family="Times,serif" font-size="14.00">value = [129, 7191]</text>
</g>
<!-- 0&#45;&gt;1 -->
<g id="edge1" class="edge"><title>0&#45;&gt;1</title>
<path fill="none" stroke="black" d="M168.396,-192.884C162.89,-184.243 156.885,-174.819 151.133,-165.793"/>
<polygon fill="black" stroke="black" points="154.046,-163.852 145.72,-157.299 148.143,-167.614 154.046,-163.852"/>
<text text-anchor="middle" x="140.312" y="-178.007" font-family="Times,serif" font-size="14.00">True</text>
</g>
<!-- 4 -->
<g id="node5" class="node"><title>4</title>
<polygon fill="#e58139" stroke="black" points="303.5,-149.5 205.5,-149.5 205.5,-96.5 303.5,-96.5 303.5,-149.5"/>
<text text-anchor="middle" x="254.5" y="-134.3" font-family="Times,serif" font-size="14.00">gini = 0.0</text>
<text text-anchor="middle" x="254.5" y="-119.3" font-family="Times,serif" font-size="14.00">samples = 18</text>
<text text-anchor="middle" x="254.5" y="-104.3" font-family="Times,serif" font-size="14.00">value = [18, 0]</text>
</g>
<!-- 0&#45;&gt;4 -->
<g id="edge4" class="edge"><title>0&#45;&gt;4</title>
<path fill="none" stroke="black" d="M210.604,-192.884C217.682,-181.776 225.587,-169.372 232.716,-158.184"/>
<polygon fill="black" stroke="black" points="235.815,-159.834 238.237,-149.52 229.912,-156.072 235.815,-159.834"/>
<text text-anchor="middle" x="243.645" y="-170.228" font-family="Times,serif" font-size="14.00">False</text>
</g>
<!-- 2 -->
<g id="node3" class="node"><title>2</title>
<polygon fill="#399de5" fill-opacity="0.984314" stroke="black" points="119,-53 0,-53 0,-0 119,-0 119,-53"/>
<text text-anchor="middle" x="59.5" y="-37.8" font-family="Times,serif" font-size="14.00">gini = 0.027</text>
<text text-anchor="middle" x="59.5" y="-22.8" font-family="Times,serif" font-size="14.00">samples = 7254</text>
<text text-anchor="middle" x="59.5" y="-7.8" font-family="Times,serif" font-size="14.00">value = [99, 7155]</text>
</g>
<!-- 1&#45;&gt;2 -->
<g id="edge2" class="edge"><title>1&#45;&gt;2</title>
<path fill="none" stroke="black" d="M101.766,-88.9485C95.6626,-80.0749 89.0525,-70.4648 82.9129,-61.5388"/>
<polygon fill="black" stroke="black" points="85.7534,-59.4924 77.2025,-53.2367 79.986,-63.4594 85.7534,-59.4924"/>
</g>
<!-- 3 -->
<g id="node4" class="node"><title>3</title>
<polygon fill="#399de5" fill-opacity="0.164706" stroke="black" points="242,-53 137,-53 137,-0 242,-0 242,-53"/>
<text text-anchor="middle" x="189.5" y="-37.8" font-family="Times,serif" font-size="14.00">gini = 0.496</text>
<text text-anchor="middle" x="189.5" y="-22.8" font-family="Times,serif" font-size="14.00">samples = 66</text>
<text text-anchor="middle" x="189.5" y="-7.8" font-family="Times,serif" font-size="14.00">value = [30, 36]</text>
</g>
<!-- 1&#45;&gt;3 -->
<g id="edge3" class="edge"><title>1&#45;&gt;3</title>
<path fill="none" stroke="black" d="M147.234,-88.9485C153.337,-80.0749 159.947,-70.4648 166.087,-61.5388"/>
<polygon fill="black" stroke="black" points="169.014,-63.4594 171.798,-53.2367 163.247,-59.4924 169.014,-63.4594"/>
</g>
</g>
</svg>
