<?xml version="1.0" encoding="UTF-8" standalone="no"?>
<!DOCTYPE svg PUBLIC "-//W3C//DTD SVG 1.1//EN"
 "http://www.w3.org/Graphics/SVG/1.1/DTD/svg11.dtd">
<!-- Generated by graphviz version 2.38.0 (20140413.2041)
 -->
<!-- Title: Tree Pages: 1 -->
<svg width="543pt" height="269pt"
 viewBox="0.00 0.00 542.50 269.00" xmlns="http://www.w3.org/2000/svg" xmlns:xlink="http://www.w3.org/1999/xlink">
<g id="graph0" class="graph" transform="scale(1 1) rotate(0) translate(4 265)">
<title>Tree</title>
<polygon fill="white" stroke="none" points="-4,4 -4,-265 538.5,-265 538.5,4 -4,4"/>
<!-- 0 -->
<g id="node1" class="node"><title>0</title>
<polygon fill="#399de5" fill-opacity="0.215686" stroke="black" points="338,-261 206,-261 206,-193 338,-193 338,-261"/>
<text text-anchor="middle" x="272" y="-245.8" font-family="Times,serif" font-size="14.00">query &lt;= 3.5</text>
<text text-anchor="middle" x="272" y="-230.8" font-family="Times,serif" font-size="14.00">gini = 0.493</text>
<text text-anchor="middle" x="272" y="-215.8" font-family="Times,serif" font-size="14.00">samples = 7338</text>
<text text-anchor="middle" x="272" y="-200.8" font-family="Times,serif" font-size="14.00">value = [3228, 4110]</text>
</g>
<!-- 1 -->
<g id="node2" class="node"><title>1</title>
<polygon fill="#399de5" fill-opacity="0.266667" stroke="black" points="263,-157 131,-157 131,-89 263,-89 263,-157"/>
<text text-anchor="middle" x="197" y="-141.8" font-family="Times,serif" font-size="14.00">graph &lt;= 0.5</text>
<text text-anchor="middle" x="197" y="-126.8" font-family="Times,serif" font-size="14.00">gini = 0.488</text>
<text text-anchor="middle" x="197" y="-111.8" font-family="Times,serif" font-size="14.00">samples = 6822</text>
<text text-anchor="middle" x="197" y="-96.8" font-family="Times,serif" font-size="14.00">value = [2888, 3934]</text>
</g>
<!-- 0&#45;&gt;1 -->
<g id="edge1" class="edge"><title>0&#45;&gt;1</title>
<path fill="none" stroke="black" d="M247.65,-192.884C241.231,-184.154 234.224,-174.625 227.525,-165.514"/>
<polygon fill="black" stroke="black" points="230.229,-163.283 221.485,-157.299 224.589,-167.429 230.229,-163.283"/>
<text text-anchor="middle" x="217.715" y="-178.313" font-family="Times,serif" font-size="14.00">True</text>
</g>
<!-- 4 -->
<g id="node5" class="node"><title>4</title>
<polygon fill="#e58139" fill-opacity="0.482353" stroke="black" points="412.5,-157 281.5,-157 281.5,-89 412.5,-89 412.5,-157"/>
<text text-anchor="middle" x="347" y="-141.8" font-family="Times,serif" font-size="14.00">triplePattern &lt;= 29.0</text>
<text text-anchor="middle" x="347" y="-126.8" font-family="Times,serif" font-size="14.00">gini = 0.449</text>
<text text-anchor="middle" x="347" y="-111.8" font-family="Times,serif" font-size="14.00">samples = 516</text>
<text text-anchor="middle" x="347" y="-96.8" font-family="Times,serif" font-size="14.00">value = [340, 176]</text>
</g>
<!-- 0&#45;&gt;4 -->
<g id="edge4" class="edge"><title>0&#45;&gt;4</title>
<path fill="none" stroke="black" d="M296.35,-192.884C302.769,-184.154 309.776,-174.625 316.475,-165.514"/>
<polygon fill="black" stroke="black" points="319.411,-167.429 322.515,-157.299 313.771,-163.283 319.411,-167.429"/>
<text text-anchor="middle" x="326.285" y="-178.313" font-family="Times,serif" font-size="14.00">False</text>
</g>
<!-- 2 -->
<g id="node3" class="node"><title>2</title>
<polygon fill="#399de5" fill-opacity="0.270588" stroke="black" points="132,-53 0,-53 0,-0 132,-0 132,-53"/>
<text text-anchor="middle" x="66" y="-37.8" font-family="Times,serif" font-size="14.00">gini = 0.488</text>
<text text-anchor="middle" x="66" y="-22.8" font-family="Times,serif" font-size="14.00">samples = 6774</text>
<text text-anchor="middle" x="66" y="-7.8" font-family="Times,serif" font-size="14.00">value = [2854, 3920]</text>
</g>
<!-- 1&#45;&gt;2 -->
<g id="edge2" class="edge"><title>1&#45;&gt;2</title>
<path fill="none" stroke="black" d="M151.183,-88.9485C137.867,-79.3431 123.355,-68.8747 110.145,-59.345"/>
<polygon fill="black" stroke="black" points="111.835,-56.2486 101.677,-53.2367 107.74,-61.9257 111.835,-56.2486"/>
</g>
<!-- 3 -->
<g id="node4" class="node"><title>3</title>
<polygon fill="#e58139" fill-opacity="0.588235" stroke="black" points="255.5,-53 150.5,-53 150.5,-0 255.5,-0 255.5,-53"/>
<text text-anchor="middle" x="203" y="-37.8" font-family="Times,serif" font-size="14.00">gini = 0.413</text>
<text text-anchor="middle" x="203" y="-22.8" font-family="Times,serif" font-size="14.00">samples = 48</text>
<text text-anchor="middle" x="203" y="-7.8" font-family="Times,serif" font-size="14.00">value = [34, 14]</text>
</g>
<!-- 1&#45;&gt;3 -->
<g id="edge3" class="edge"><title>1&#45;&gt;3</title>
<path fill="none" stroke="black" d="M199.099,-88.9485C199.621,-80.7153 200.184,-71.848 200.715,-63.4814"/>
<polygon fill="black" stroke="black" points="204.225,-63.4384 201.366,-53.2367 197.239,-62.9948 204.225,-63.4384"/>
</g>
<!-- 5 -->
<g id="node6" class="node"><title>5</title>
<polygon fill="#e58139" fill-opacity="0.850980" stroke="black" points="397,-53 285,-53 285,-0 397,-0 397,-53"/>
<text text-anchor="middle" x="341" y="-37.8" font-family="Times,serif" font-size="14.00">gini = 0.224</text>
<text text-anchor="middle" x="341" y="-22.8" font-family="Times,serif" font-size="14.00">samples = 264</text>
<text text-anchor="middle" x="341" y="-7.8" font-family="Times,serif" font-size="14.00">value = [230, 34]</text>
</g>
<!-- 4&#45;&gt;5 -->
<g id="edge5" class="edge"><title>4&#45;&gt;5</title>
<path fill="none" stroke="black" d="M344.901,-88.9485C344.379,-80.7153 343.816,-71.848 343.285,-63.4814"/>
<polygon fill="black" stroke="black" points="346.761,-62.9948 342.634,-53.2367 339.775,-63.4384 346.761,-62.9948"/>
</g>
<!-- 6 -->
<g id="node7" class="node"><title>6</title>
<polygon fill="#399de5" fill-opacity="0.223529" stroke="black" points="534.5,-53 415.5,-53 415.5,-0 534.5,-0 534.5,-53"/>
<text text-anchor="middle" x="475" y="-37.8" font-family="Times,serif" font-size="14.00">gini = 0.492</text>
<text text-anchor="middle" x="475" y="-22.8" font-family="Times,serif" font-size="14.00">samples = 252</text>
<text text-anchor="middle" x="475" y="-7.8" font-family="Times,serif" font-size="14.00">value = [110, 142]</text>
</g>
<!-- 4&#45;&gt;6 -->
<g id="edge6" class="edge"><title>4&#45;&gt;6</title>
<path fill="none" stroke="black" d="M391.768,-88.9485C404.779,-79.3431 418.958,-68.8747 431.866,-59.345"/>
<polygon fill="black" stroke="black" points="434.173,-61.992 440.14,-53.2367 430.016,-56.3605 434.173,-61.992"/>
</g>
</g>
</svg>
