<?xml version="1.0" encoding="UTF-8" standalone="no"?>
<!DOCTYPE svg PUBLIC "-//W3C//DTD SVG 1.1//EN"
 "http://www.w3.org/Graphics/SVG/1.1/DTD/svg11.dtd">
<!-- Generated by graphviz version 2.38.0 (20140413.2041)
 -->
<!-- Title: Tree Pages: 1 -->
<svg width="668pt" height="269pt"
 viewBox="0.00 0.00 668.00 269.00" xmlns="http://www.w3.org/2000/svg" xmlns:xlink="http://www.w3.org/1999/xlink">
<g id="graph0" class="graph" transform="scale(1 1) rotate(0) translate(4 265)">
<title>Tree</title>
<polygon fill="white" stroke="none" points="-4,4 -4,-265 664,-265 664,4 -4,4"/>
<!-- 0 -->
<g id="node1" class="node"><title>0</title>
<polygon fill="#e58139" fill-opacity="0.815686" stroke="black" points="440.5,-261 259.5,-261 259.5,-193 440.5,-193 440.5,-261"/>
<text text-anchor="middle" x="350" y="-245.8" font-family="Times,serif" font-size="14.00">triplePattern &lt;= 23.5</text>
<text text-anchor="middle" x="350" y="-230.8" font-family="Times,serif" font-size="14.00">gini = 0.306</text>
<text text-anchor="middle" x="350" y="-215.8" font-family="Times,serif" font-size="14.00">samples = 7191</text>
<text text-anchor="middle" x="350" y="-200.8" font-family="Times,serif" font-size="14.00">value = [5947, 499, 459, 286]</text>
</g>
<!-- 1 -->
<g id="node2" class="node"><title>1</title>
<polygon fill="#e58139" fill-opacity="0.843137" stroke="black" points="351.5,-157 170.5,-157 170.5,-89 351.5,-89 351.5,-157"/>
<text text-anchor="middle" x="261" y="-141.8" font-family="Times,serif" font-size="14.00">filter &lt;= 0.5</text>
<text text-anchor="middle" x="261" y="-126.8" font-family="Times,serif" font-size="14.00">gini = 0.262</text>
<text text-anchor="middle" x="261" y="-111.8" font-family="Times,serif" font-size="14.00">samples = 6927</text>
<text text-anchor="middle" x="261" y="-96.8" font-family="Times,serif" font-size="14.00">value = [5920, 264, 458, 285]</text>
</g>
<!-- 0&#45;&gt;1 -->
<g id="edge1" class="edge"><title>0&#45;&gt;1</title>
<path fill="none" stroke="black" d="M321.104,-192.884C313.332,-183.976 304.833,-174.235 296.737,-164.957"/>
<polygon fill="black" stroke="black" points="299.267,-162.533 290.055,-157.299 293.993,-167.135 299.267,-162.533"/>
<text text-anchor="middle" x="288.358" y="-178.542" font-family="Times,serif" font-size="14.00">True</text>
</g>
<!-- 4 -->
<g id="node5" class="node"><title>4</title>
<polygon fill="#47e539" fill-opacity="0.878431" stroke="black" points="510,-157 370,-157 370,-89 510,-89 510,-157"/>
<text text-anchor="middle" x="440" y="-141.8" font-family="Times,serif" font-size="14.00">jsonSize &lt;= 55.0</text>
<text text-anchor="middle" x="440" y="-126.8" font-family="Times,serif" font-size="14.00">gini = 0.197</text>
<text text-anchor="middle" x="440" y="-111.8" font-family="Times,serif" font-size="14.00">samples = 264</text>
<text text-anchor="middle" x="440" y="-96.8" font-family="Times,serif" font-size="14.00">value = [27, 235, 1, 1]</text>
</g>
<!-- 0&#45;&gt;4 -->
<g id="edge4" class="edge"><title>0&#45;&gt;4</title>
<path fill="none" stroke="black" d="M379.22,-192.884C387.08,-183.976 395.675,-174.235 403.862,-164.957"/>
<polygon fill="black" stroke="black" points="406.626,-167.113 410.618,-157.299 401.378,-162.482 406.626,-167.113"/>
<text text-anchor="middle" x="412.178" y="-178.551" font-family="Times,serif" font-size="14.00">False</text>
</g>
<!-- 2 -->
<g id="node3" class="node"><title>2</title>
<polygon fill="#e58139" fill-opacity="0.992157" stroke="black" points="154,-53 0,-53 0,-0 154,-0 154,-53"/>
<text text-anchor="middle" x="77" y="-37.8" font-family="Times,serif" font-size="14.00">gini = 0.014</text>
<text text-anchor="middle" x="77" y="-22.8" font-family="Times,serif" font-size="14.00">samples = 3546</text>
<text text-anchor="middle" x="77" y="-7.8" font-family="Times,serif" font-size="14.00">value = [3521, 11, 12, 2]</text>
</g>
<!-- 1&#45;&gt;2 -->
<g id="edge2" class="edge"><title>1&#45;&gt;2</title>
<path fill="none" stroke="black" d="M196.646,-88.9485C176.874,-78.794 155.224,-67.675 135.842,-57.7203"/>
<polygon fill="black" stroke="black" points="137.314,-54.5419 126.82,-53.0867 134.116,-60.7687 137.314,-54.5419"/>
</g>
<!-- 3 -->
<g id="node4" class="node"><title>3</title>
<polygon fill="#e58139" fill-opacity="0.666667" stroke="black" points="353.5,-53 172.5,-53 172.5,-0 353.5,-0 353.5,-53"/>
<text text-anchor="middle" x="263" y="-37.8" font-family="Times,serif" font-size="14.00">gini = 0.467</text>
<text text-anchor="middle" x="263" y="-22.8" font-family="Times,serif" font-size="14.00">samples = 3381</text>
<text text-anchor="middle" x="263" y="-7.8" font-family="Times,serif" font-size="14.00">value = [2399, 253, 446, 283]</text>
</g>
<!-- 1&#45;&gt;3 -->
<g id="edge3" class="edge"><title>1&#45;&gt;3</title>
<path fill="none" stroke="black" d="M261.7,-88.9485C261.874,-80.7153 262.061,-71.848 262.238,-63.4814"/>
<polygon fill="black" stroke="black" points="265.743,-63.3086 262.455,-53.2367 258.744,-63.1604 265.743,-63.3086"/>
</g>
<!-- 5 -->
<g id="node6" class="node"><title>5</title>
<polygon fill="#e58139" fill-opacity="0.364706" stroke="black" points="501.5,-53 374.5,-53 374.5,-0 501.5,-0 501.5,-53"/>
<text text-anchor="middle" x="438" y="-37.8" font-family="Times,serif" font-size="14.00">gini = 0.475</text>
<text text-anchor="middle" x="438" y="-22.8" font-family="Times,serif" font-size="14.00">samples = 18</text>
<text text-anchor="middle" x="438" y="-7.8" font-family="Times,serif" font-size="14.00">value = [11, 7, 0, 0]</text>
</g>
<!-- 4&#45;&gt;5 -->
<g id="edge5" class="edge"><title>4&#45;&gt;5</title>
<path fill="none" stroke="black" d="M439.3,-88.9485C439.126,-80.7153 438.939,-71.848 438.762,-63.4814"/>
<polygon fill="black" stroke="black" points="442.256,-63.1604 438.545,-53.2367 435.257,-63.3086 442.256,-63.1604"/>
</g>
<!-- 6 -->
<g id="node7" class="node"><title>6</title>
<polygon fill="#47e539" fill-opacity="0.921569" stroke="black" points="660,-53 520,-53 520,-0 660,-0 660,-53"/>
<text text-anchor="middle" x="590" y="-37.8" font-family="Times,serif" font-size="14.00">gini = 0.137</text>
<text text-anchor="middle" x="590" y="-22.8" font-family="Times,serif" font-size="14.00">samples = 246</text>
<text text-anchor="middle" x="590" y="-7.8" font-family="Times,serif" font-size="14.00">value = [16, 228, 1, 1]</text>
</g>
<!-- 4&#45;&gt;6 -->
<g id="edge6" class="edge"><title>4&#45;&gt;6</title>
<path fill="none" stroke="black" d="M492.463,-88.9485C508,-79.1601 524.959,-68.4756 540.315,-58.8015"/>
<polygon fill="black" stroke="black" points="542.553,-61.5285 549.148,-53.2367 538.822,-55.6058 542.553,-61.5285"/>
</g>
</g>
</svg>
