<?xml version="1.0" encoding="UTF-8" standalone="no"?>
<!DOCTYPE svg PUBLIC "-//W3C//DTD SVG 1.1//EN"
 "http://www.w3.org/Graphics/SVG/1.1/DTD/svg11.dtd">
<!-- Generated by graphviz version 2.38.0 (20140413.2041)
 -->
<!-- Title: Tree Pages: 1 -->
<svg width="505pt" height="269pt"
 viewBox="0.00 0.00 504.50 269.00" xmlns="http://www.w3.org/2000/svg" xmlns:xlink="http://www.w3.org/1999/xlink">
<g id="graph0" class="graph" transform="scale(1 1) rotate(0) translate(4 265)">
<title>Tree</title>
<polygon fill="white" stroke="none" points="-4,4 -4,-265 500.5,-265 500.5,4 -4,4"/>
<!-- 0 -->
<g id="node1" class="node"><title>0</title>
<polygon fill="#e58139" fill-opacity="0.764706" stroke="black" points="312,-261 187,-261 187,-193 312,-193 312,-261"/>
<text text-anchor="middle" x="249.5" y="-245.8" font-family="Times,serif" font-size="14.00">filter_in &lt;= 1.5</text>
<text text-anchor="middle" x="249.5" y="-230.8" font-family="Times,serif" font-size="14.00">gini = 0.307</text>
<text text-anchor="middle" x="249.5" y="-215.8" font-family="Times,serif" font-size="14.00">samples = 3354</text>
<text text-anchor="middle" x="249.5" y="-200.8" font-family="Times,serif" font-size="14.00">value = [2718, 636]</text>
</g>
<!-- 1 -->
<g id="node2" class="node"><title>1</title>
<polygon fill="#e58139" fill-opacity="0.980392" stroke="black" points="242,-157 123,-157 123,-89 242,-89 242,-157"/>
<text text-anchor="middle" x="182.5" y="-141.8" font-family="Times,serif" font-size="14.00">query &lt;= 2.5</text>
<text text-anchor="middle" x="182.5" y="-126.8" font-family="Times,serif" font-size="14.00">gini = 0.039</text>
<text text-anchor="middle" x="182.5" y="-111.8" font-family="Times,serif" font-size="14.00">samples = 2730</text>
<text text-anchor="middle" x="182.5" y="-96.8" font-family="Times,serif" font-size="14.00">value = [2676, 54]</text>
</g>
<!-- 0&#45;&gt;1 -->
<g id="edge1" class="edge"><title>0&#45;&gt;1</title>
<path fill="none" stroke="black" d="M227.747,-192.884C222.072,-184.243 215.881,-174.819 209.952,-165.793"/>
<polygon fill="black" stroke="black" points="212.789,-163.736 204.373,-157.299 206.938,-167.579 212.789,-163.736"/>
<text text-anchor="middle" x="199.303" y="-178.08" font-family="Times,serif" font-size="14.00">True</text>
</g>
<!-- 4 -->
<g id="node5" class="node"><title>4</title>
<polygon fill="#399de5" fill-opacity="0.929412" stroke="black" points="372.5,-157 260.5,-157 260.5,-89 372.5,-89 372.5,-157"/>
<text text-anchor="middle" x="316.5" y="-141.8" font-family="Times,serif" font-size="14.00">count &lt;= 0.5</text>
<text text-anchor="middle" x="316.5" y="-126.8" font-family="Times,serif" font-size="14.00">gini = 0.126</text>
<text text-anchor="middle" x="316.5" y="-111.8" font-family="Times,serif" font-size="14.00">samples = 624</text>
<text text-anchor="middle" x="316.5" y="-96.8" font-family="Times,serif" font-size="14.00">value = [42, 582]</text>
</g>
<!-- 0&#45;&gt;4 -->
<g id="edge4" class="edge"><title>0&#45;&gt;4</title>
<path fill="none" stroke="black" d="M271.253,-192.884C276.928,-184.243 283.119,-174.819 289.048,-165.793"/>
<polygon fill="black" stroke="black" points="292.062,-167.579 294.627,-157.299 286.211,-163.736 292.062,-167.579"/>
<text text-anchor="middle" x="299.697" y="-178.08" font-family="Times,serif" font-size="14.00">False</text>
</g>
<!-- 2 -->
<g id="node3" class="node"><title>2</title>
<polygon fill="#e58139" fill-opacity="0.992157" stroke="black" points="119,-53 0,-53 0,-0 119,-0 119,-53"/>
<text text-anchor="middle" x="59.5" y="-37.8" font-family="Times,serif" font-size="14.00">gini = 0.018</text>
<text text-anchor="middle" x="59.5" y="-22.8" font-family="Times,serif" font-size="14.00">samples = 2700</text>
<text text-anchor="middle" x="59.5" y="-7.8" font-family="Times,serif" font-size="14.00">value = [2676, 24]</text>
</g>
<!-- 1&#45;&gt;2 -->
<g id="edge2" class="edge"><title>1&#45;&gt;2</title>
<path fill="none" stroke="black" d="M139.481,-88.9485C126.978,-79.3431 113.353,-68.8747 100.949,-59.345"/>
<polygon fill="black" stroke="black" points="103.061,-56.5537 92.9986,-53.2367 98.7961,-62.1046 103.061,-56.5537"/>
</g>
<!-- 3 -->
<g id="node4" class="node"><title>3</title>
<polygon fill="#399de5" stroke="black" points="235.5,-53 137.5,-53 137.5,-0 235.5,-0 235.5,-53"/>
<text text-anchor="middle" x="186.5" y="-37.8" font-family="Times,serif" font-size="14.00">gini = 0.0</text>
<text text-anchor="middle" x="186.5" y="-22.8" font-family="Times,serif" font-size="14.00">samples = 30</text>
<text text-anchor="middle" x="186.5" y="-7.8" font-family="Times,serif" font-size="14.00">value = [0, 30]</text>
</g>
<!-- 1&#45;&gt;3 -->
<g id="edge3" class="edge"><title>1&#45;&gt;3</title>
<path fill="none" stroke="black" d="M183.899,-88.9485C184.248,-80.7153 184.623,-71.848 184.977,-63.4814"/>
<polygon fill="black" stroke="black" points="188.484,-63.3758 185.411,-53.2367 181.491,-63.0797 188.484,-63.3758"/>
</g>
<!-- 5 -->
<g id="node6" class="node"><title>5</title>
<polygon fill="#e58139" fill-opacity="0.333333" stroke="black" points="366,-53 261,-53 261,-0 366,-0 366,-53"/>
<text text-anchor="middle" x="313.5" y="-37.8" font-family="Times,serif" font-size="14.00">gini = 0.48</text>
<text text-anchor="middle" x="313.5" y="-22.8" font-family="Times,serif" font-size="14.00">samples = 30</text>
<text text-anchor="middle" x="313.5" y="-7.8" font-family="Times,serif" font-size="14.00">value = [18, 12]</text>
</g>
<!-- 4&#45;&gt;5 -->
<g id="edge5" class="edge"><title>4&#45;&gt;5</title>
<path fill="none" stroke="black" d="M315.451,-88.9485C315.189,-80.7153 314.908,-71.848 314.642,-63.4814"/>
<polygon fill="black" stroke="black" points="318.133,-63.1206 314.317,-53.2367 311.136,-63.3428 318.133,-63.1206"/>
</g>
<!-- 6 -->
<g id="node7" class="node"><title>6</title>
<polygon fill="#399de5" fill-opacity="0.956863" stroke="black" points="496.5,-53 384.5,-53 384.5,-0 496.5,-0 496.5,-53"/>
<text text-anchor="middle" x="440.5" y="-37.8" font-family="Times,serif" font-size="14.00">gini = 0.078</text>
<text text-anchor="middle" x="440.5" y="-22.8" font-family="Times,serif" font-size="14.00">samples = 594</text>
<text text-anchor="middle" x="440.5" y="-7.8" font-family="Times,serif" font-size="14.00">value = [24, 570]</text>
</g>
<!-- 4&#45;&gt;6 -->
<g id="edge6" class="edge"><title>4&#45;&gt;6</title>
<path fill="none" stroke="black" d="M359.869,-88.9485C372.473,-79.3431 386.209,-68.8747 398.714,-59.345"/>
<polygon fill="black" stroke="black" points="400.897,-62.0819 406.729,-53.2367 396.654,-56.5144 400.897,-62.0819"/>
</g>
</g>
</svg>
