<?xml version="1.0" encoding="UTF-8" standalone="no"?>
<!DOCTYPE svg PUBLIC "-//W3C//DTD SVG 1.1//EN"
 "http://www.w3.org/Graphics/SVG/1.1/DTD/svg11.dtd">
<!-- Generated by graphviz version 2.38.0 (20140413.2041)
 -->
<!-- Title: Tree Pages: 1 -->
<svg width="532pt" height="269pt"
 viewBox="0.00 0.00 532.00 269.00" xmlns="http://www.w3.org/2000/svg" xmlns:xlink="http://www.w3.org/1999/xlink">
<g id="graph0" class="graph" transform="scale(1 1) rotate(0) translate(4 265)">
<title>Tree</title>
<polygon fill="white" stroke="none" points="-4,4 -4,-265 528,-265 528,4 -4,4"/>
<!-- 0 -->
<g id="node1" class="node"><title>0</title>
<polygon fill="#399de5" fill-opacity="0.156863" stroke="black" points="323,-261 191,-261 191,-193 323,-193 323,-261"/>
<text text-anchor="middle" x="257" y="-245.8" font-family="Times,serif" font-size="14.00">triplePattern &lt;= 1.5</text>
<text text-anchor="middle" x="257" y="-230.8" font-family="Times,serif" font-size="14.00">gini = 0.496</text>
<text text-anchor="middle" x="257" y="-215.8" font-family="Times,serif" font-size="14.00">samples = 7338</text>
<text text-anchor="middle" x="257" y="-200.8" font-family="Times,serif" font-size="14.00">value = [3354, 3984]</text>
</g>
<!-- 1 -->
<g id="node2" class="node"><title>1</title>
<polygon fill="#e58139" fill-opacity="0.992157" stroke="black" points="244.5,-157 125.5,-157 125.5,-89 244.5,-89 244.5,-157"/>
<text text-anchor="middle" x="185" y="-141.8" font-family="Times,serif" font-size="14.00">order &lt;= 0.5</text>
<text text-anchor="middle" x="185" y="-126.8" font-family="Times,serif" font-size="14.00">gini = 0.019</text>
<text text-anchor="middle" x="185" y="-111.8" font-family="Times,serif" font-size="14.00">samples = 1872</text>
<text text-anchor="middle" x="185" y="-96.8" font-family="Times,serif" font-size="14.00">value = [1854, 18]</text>
</g>
<!-- 0&#45;&gt;1 -->
<g id="edge1" class="edge"><title>0&#45;&gt;1</title>
<path fill="none" stroke="black" d="M233.624,-192.884C227.462,-184.154 220.735,-174.625 214.304,-165.514"/>
<polygon fill="black" stroke="black" points="217.132,-163.451 208.505,-157.299 211.413,-167.487 217.132,-163.451"/>
<text text-anchor="middle" x="204.258" y="-178.236" font-family="Times,serif" font-size="14.00">True</text>
</g>
<!-- 4 -->
<g id="node5" class="node"><title>4</title>
<polygon fill="#399de5" fill-opacity="0.623529" stroke="black" points="395,-157 263,-157 263,-89 395,-89 395,-157"/>
<text text-anchor="middle" x="329" y="-141.8" font-family="Times,serif" font-size="14.00">order &lt;= 0.5</text>
<text text-anchor="middle" x="329" y="-126.8" font-family="Times,serif" font-size="14.00">gini = 0.398</text>
<text text-anchor="middle" x="329" y="-111.8" font-family="Times,serif" font-size="14.00">samples = 5466</text>
<text text-anchor="middle" x="329" y="-96.8" font-family="Times,serif" font-size="14.00">value = [1500, 3966]</text>
</g>
<!-- 0&#45;&gt;4 -->
<g id="edge4" class="edge"><title>0&#45;&gt;4</title>
<path fill="none" stroke="black" d="M280.376,-192.884C286.538,-184.154 293.265,-174.625 299.696,-165.514"/>
<polygon fill="black" stroke="black" points="302.587,-167.487 305.495,-157.299 296.868,-163.451 302.587,-167.487"/>
<text text-anchor="middle" x="309.742" y="-178.236" font-family="Times,serif" font-size="14.00">False</text>
</g>
<!-- 2 -->
<g id="node3" class="node"><title>2</title>
<polygon fill="#e58139" stroke="black" points="112,-53 0,-53 0,-0 112,-0 112,-53"/>
<text text-anchor="middle" x="56" y="-37.8" font-family="Times,serif" font-size="14.00">gini = 0.0</text>
<text text-anchor="middle" x="56" y="-22.8" font-family="Times,serif" font-size="14.00">samples = 1626</text>
<text text-anchor="middle" x="56" y="-7.8" font-family="Times,serif" font-size="14.00">value = [1626, 0]</text>
</g>
<!-- 1&#45;&gt;2 -->
<g id="edge2" class="edge"><title>1&#45;&gt;2</title>
<path fill="none" stroke="black" d="M139.882,-88.9485C126.77,-79.3431 112.48,-68.8747 99.4709,-59.345"/>
<polygon fill="black" stroke="black" points="101.268,-56.3228 91.1326,-53.2367 97.1313,-61.9698 101.268,-56.3228"/>
</g>
<!-- 3 -->
<g id="node4" class="node"><title>3</title>
<polygon fill="#e58139" fill-opacity="0.921569" stroke="black" points="242,-53 130,-53 130,-0 242,-0 242,-53"/>
<text text-anchor="middle" x="186" y="-37.8" font-family="Times,serif" font-size="14.00">gini = 0.136</text>
<text text-anchor="middle" x="186" y="-22.8" font-family="Times,serif" font-size="14.00">samples = 246</text>
<text text-anchor="middle" x="186" y="-7.8" font-family="Times,serif" font-size="14.00">value = [228, 18]</text>
</g>
<!-- 1&#45;&gt;3 -->
<g id="edge3" class="edge"><title>1&#45;&gt;3</title>
<path fill="none" stroke="black" d="M185.35,-88.9485C185.437,-80.7153 185.531,-71.848 185.619,-63.4814"/>
<polygon fill="black" stroke="black" points="189.122,-63.2732 185.728,-53.2367 182.122,-63.1991 189.122,-63.2732"/>
</g>
<!-- 5 -->
<g id="node6" class="node"><title>5</title>
<polygon fill="#399de5" fill-opacity="0.745098" stroke="black" points="394,-53 262,-53 262,-0 394,-0 394,-53"/>
<text text-anchor="middle" x="328" y="-37.8" font-family="Times,serif" font-size="14.00">gini = 0.325</text>
<text text-anchor="middle" x="328" y="-22.8" font-family="Times,serif" font-size="14.00">samples = 4908</text>
<text text-anchor="middle" x="328" y="-7.8" font-family="Times,serif" font-size="14.00">value = [1002, 3906]</text>
</g>
<!-- 4&#45;&gt;5 -->
<g id="edge5" class="edge"><title>4&#45;&gt;5</title>
<path fill="none" stroke="black" d="M328.65,-88.9485C328.563,-80.7153 328.469,-71.848 328.381,-63.4814"/>
<polygon fill="black" stroke="black" points="331.878,-63.1991 328.272,-53.2367 324.878,-63.2732 331.878,-63.1991"/>
</g>
<!-- 6 -->
<g id="node7" class="node"><title>6</title>
<polygon fill="#e58139" fill-opacity="0.878431" stroke="black" points="524,-53 412,-53 412,-0 524,-0 524,-53"/>
<text text-anchor="middle" x="468" y="-37.8" font-family="Times,serif" font-size="14.00">gini = 0.192</text>
<text text-anchor="middle" x="468" y="-22.8" font-family="Times,serif" font-size="14.00">samples = 558</text>
<text text-anchor="middle" x="468" y="-7.8" font-family="Times,serif" font-size="14.00">value = [498, 60]</text>
</g>
<!-- 4&#45;&gt;6 -->
<g id="edge6" class="edge"><title>4&#45;&gt;6</title>
<path fill="none" stroke="black" d="M377.615,-88.9485C391.879,-79.2516 407.435,-68.6752 421.559,-59.073"/>
<polygon fill="black" stroke="black" points="423.842,-61.7535 430.144,-53.2367 419.906,-55.9646 423.842,-61.7535"/>
</g>
</g>
</svg>
