<?xml version="1.0" encoding="UTF-8" standalone="no"?>
<!DOCTYPE svg PUBLIC "-//W3C//DTD SVG 1.1//EN"
 "http://www.w3.org/Graphics/SVG/1.1/DTD/svg11.dtd">
<!-- Generated by graphviz version 2.38.0 (20140413.2041)
 -->
<!-- Title: Tree Pages: 1 -->
<svg width="673pt" height="269pt"
 viewBox="0.00 0.00 673.00 269.00" xmlns="http://www.w3.org/2000/svg" xmlns:xlink="http://www.w3.org/1999/xlink">
<g id="graph0" class="graph" transform="scale(1 1) rotate(0) translate(4 265)">
<title>Tree</title>
<polygon fill="white" stroke="none" points="-4,4 -4,-265 669,-265 669,4 -4,4"/>
<!-- 0 -->
<g id="node1" class="node"><title>0</title>
<polygon fill="#e58139" fill-opacity="0.815686" stroke="black" points="428.5,-261 247.5,-261 247.5,-193 428.5,-193 428.5,-261"/>
<text text-anchor="middle" x="338" y="-245.8" font-family="Times,serif" font-size="14.00">triplePattern &lt;= 14.5</text>
<text text-anchor="middle" x="338" y="-230.8" font-family="Times,serif" font-size="14.00">gini = 0.293</text>
<text text-anchor="middle" x="338" y="-215.8" font-family="Times,serif" font-size="14.00">samples = 7189</text>
<text text-anchor="middle" x="338" y="-200.8" font-family="Times,serif" font-size="14.00">value = [5992, 735, 217, 245]</text>
</g>
<!-- 1 -->
<g id="node2" class="node"><title>1</title>
<polygon fill="#e58139" fill-opacity="0.886275" stroke="black" points="331,-157 157,-157 157,-89 331,-89 331,-157"/>
<text text-anchor="middle" x="244" y="-141.8" font-family="Times,serif" font-size="14.00">filter &lt;= 0.5</text>
<text text-anchor="middle" x="244" y="-126.8" font-family="Times,serif" font-size="14.00">gini = 0.197</text>
<text text-anchor="middle" x="244" y="-111.8" font-family="Times,serif" font-size="14.00">samples = 6529</text>
<text text-anchor="middle" x="244" y="-96.8" font-family="Times,serif" font-size="14.00">value = [5833, 403, 98, 195]</text>
</g>
<!-- 0&#45;&gt;1 -->
<g id="edge1" class="edge"><title>0&#45;&gt;1</title>
<path fill="none" stroke="black" d="M307.481,-192.884C299.19,-183.887 290.116,-174.041 281.488,-164.678"/>
<polygon fill="black" stroke="black" points="284.038,-162.281 274.688,-157.299 278.891,-167.025 284.038,-162.281"/>
<text text-anchor="middle" x="273.668" y="-178.579" font-family="Times,serif" font-size="14.00">True</text>
</g>
<!-- 4 -->
<g id="node5" class="node"><title>4</title>
<polygon fill="#47e539" fill-opacity="0.345098" stroke="black" points="516.5,-157 349.5,-157 349.5,-89 516.5,-89 516.5,-157"/>
<text text-anchor="middle" x="433" y="-141.8" font-family="Times,serif" font-size="14.00">filter_in &lt;= 3.0</text>
<text text-anchor="middle" x="433" y="-126.8" font-family="Times,serif" font-size="14.00">gini = 0.651</text>
<text text-anchor="middle" x="433" y="-111.8" font-family="Times,serif" font-size="14.00">samples = 660</text>
<text text-anchor="middle" x="433" y="-96.8" font-family="Times,serif" font-size="14.00">value = [159, 332, 119, 50]</text>
</g>
<!-- 0&#45;&gt;4 -->
<g id="edge4" class="edge"><title>0&#45;&gt;4</title>
<path fill="none" stroke="black" d="M368.844,-192.884C377.223,-183.887 386.394,-174.041 395.113,-164.678"/>
<polygon fill="black" stroke="black" points="397.732,-167.003 401.986,-157.299 392.609,-162.232 397.732,-167.003"/>
<text text-anchor="middle" x="402.874" y="-178.584" font-family="Times,serif" font-size="14.00">False</text>
</g>
<!-- 2 -->
<g id="node3" class="node"><title>2</title>
<polygon fill="#e58139" fill-opacity="0.996078" stroke="black" points="140,-53 0,-53 0,-0 140,-0 140,-53"/>
<text text-anchor="middle" x="70" y="-37.8" font-family="Times,serif" font-size="14.00">gini = 0.007</text>
<text text-anchor="middle" x="70" y="-22.8" font-family="Times,serif" font-size="14.00">samples = 3546</text>
<text text-anchor="middle" x="70" y="-7.8" font-family="Times,serif" font-size="14.00">value = [3534, 7, 3, 2]</text>
</g>
<!-- 1&#45;&gt;2 -->
<g id="edge2" class="edge"><title>1&#45;&gt;2</title>
<path fill="none" stroke="black" d="M183.143,-88.9485C164.7,-78.9318 144.529,-67.9767 126.391,-58.1263"/>
<polygon fill="black" stroke="black" points="127.57,-54.7837 117.112,-53.0867 124.229,-60.935 127.57,-54.7837"/>
</g>
<!-- 3 -->
<g id="node4" class="node"><title>3</title>
<polygon fill="#e58139" fill-opacity="0.737255" stroke="black" points="332,-53 158,-53 158,-0 332,-0 332,-53"/>
<text text-anchor="middle" x="245" y="-37.8" font-family="Times,serif" font-size="14.00">gini = 0.383</text>
<text text-anchor="middle" x="245" y="-22.8" font-family="Times,serif" font-size="14.00">samples = 2983</text>
<text text-anchor="middle" x="245" y="-7.8" font-family="Times,serif" font-size="14.00">value = [2299, 396, 95, 193]</text>
</g>
<!-- 1&#45;&gt;3 -->
<g id="edge3" class="edge"><title>1&#45;&gt;3</title>
<path fill="none" stroke="black" d="M244.35,-88.9485C244.437,-80.7153 244.531,-71.848 244.619,-63.4814"/>
<polygon fill="black" stroke="black" points="248.122,-63.2732 244.728,-53.2367 241.122,-63.1991 248.122,-63.2732"/>
</g>
<!-- 5 -->
<g id="node6" class="node"><title>5</title>
<polygon fill="#e58139" fill-opacity="0.121569" stroke="black" points="512.5,-53 351.5,-53 351.5,-0 512.5,-0 512.5,-53"/>
<text text-anchor="middle" x="432" y="-37.8" font-family="Times,serif" font-size="14.00">gini = 0.713</text>
<text text-anchor="middle" x="432" y="-22.8" font-family="Times,serif" font-size="14.00">samples = 402</text>
<text text-anchor="middle" x="432" y="-7.8" font-family="Times,serif" font-size="14.00">value = [153, 82, 118, 49]</text>
</g>
<!-- 4&#45;&gt;5 -->
<g id="edge5" class="edge"><title>4&#45;&gt;5</title>
<path fill="none" stroke="black" d="M432.65,-88.9485C432.563,-80.7153 432.469,-71.848 432.381,-63.4814"/>
<polygon fill="black" stroke="black" points="435.878,-63.1991 432.272,-53.2367 428.878,-63.2732 435.878,-63.1991"/>
</g>
<!-- 6 -->
<g id="node7" class="node"><title>6</title>
<polygon fill="#47e539" fill-opacity="0.968627" stroke="black" points="665,-53 531,-53 531,-0 665,-0 665,-53"/>
<text text-anchor="middle" x="598" y="-37.8" font-family="Times,serif" font-size="14.00">gini = 0.06</text>
<text text-anchor="middle" x="598" y="-22.8" font-family="Times,serif" font-size="14.00">samples = 258</text>
<text text-anchor="middle" x="598" y="-7.8" font-family="Times,serif" font-size="14.00">value = [6, 250, 1, 1]</text>
</g>
<!-- 4&#45;&gt;6 -->
<g id="edge6" class="edge"><title>4&#45;&gt;6</title>
<path fill="none" stroke="black" d="M490.709,-88.9485C508.198,-78.9318 527.326,-67.9767 544.526,-58.1263"/>
<polygon fill="black" stroke="black" points="546.387,-61.0938 553.325,-53.0867 542.908,-55.0195 546.387,-61.0938"/>
</g>
</g>
</svg>
