<?xml version="1.0" encoding="UTF-8" standalone="no"?>
<!DOCTYPE svg PUBLIC "-//W3C//DTD SVG 1.1//EN"
 "http://www.w3.org/Graphics/SVG/1.1/DTD/svg11.dtd">
<!-- Generated by graphviz version 2.38.0 (20140413.2041)
 -->
<!-- Title: Tree Pages: 1 -->
<svg width="2033pt" height="477pt"
 viewBox="0.00 0.00 2033.00 477.00" xmlns="http://www.w3.org/2000/svg" xmlns:xlink="http://www.w3.org/1999/xlink">
<g id="graph0" class="graph" transform="scale(1 1) rotate(0) translate(4 473)">
<title>Tree</title>
<polygon fill="white" stroke="none" points="-4,4 -4,-473 2029,-473 2029,4 -4,4"/>
<!-- 0 -->
<g id="node1" class="node"><title>0</title>
<polygon fill="#e58139" fill-opacity="0.090196" stroke="black" points="1094,-469 981,-469 981,-401 1094,-401 1094,-469"/>
<text text-anchor="middle" x="1037.5" y="-453.8" font-family="Times,serif" font-size="14.00">sim &lt;= 2.5</text>
<text text-anchor="middle" x="1037.5" y="-438.8" font-family="Times,serif" font-size="14.00">mse = 12560.828</text>
<text text-anchor="middle" x="1037.5" y="-423.8" font-family="Times,serif" font-size="14.00">samples = 13058</text>
<text text-anchor="middle" x="1037.5" y="-408.8" font-family="Times,serif" font-size="14.00">value = 30.841</text>
</g>
<!-- 1 -->
<g id="node2" class="node"><title>1</title>
<polygon fill="#e58139" fill-opacity="0.160784" stroke="black" points="840,-365 727,-365 727,-297 840,-297 840,-365"/>
<text text-anchor="middle" x="783.5" y="-349.8" font-family="Times,serif" font-size="14.00">sim &lt;= 1.5</text>
<text text-anchor="middle" x="783.5" y="-334.8" font-family="Times,serif" font-size="14.00">mse = 21768.875</text>
<text text-anchor="middle" x="783.5" y="-319.8" font-family="Times,serif" font-size="14.00">samples = 5869</text>
<text text-anchor="middle" x="783.5" y="-304.8" font-family="Times,serif" font-size="14.00">value = 54.561</text>
</g>
<!-- 0&#45;&gt;1 -->
<g id="edge1" class="edge"><title>0&#45;&gt;1</title>
<path fill="none" stroke="black" d="M980.814,-411.236C941.884,-395.603 890.082,-374.801 849.325,-358.434"/>
<polygon fill="black" stroke="black" points="850.597,-355.173 840.013,-354.694 847.989,-361.669 850.597,-355.173"/>
<text text-anchor="middle" x="849.83" y="-373.986" font-family="Times,serif" font-size="14.00">True</text>
</g>
<!-- 16 -->
<g id="node17" class="node"><title>16</title>
<polygon fill="#e58139" fill-opacity="0.035294" stroke="black" points="1341.5,-365 1235.5,-365 1235.5,-297 1341.5,-297 1341.5,-365"/>
<text text-anchor="middle" x="1288.5" y="-349.8" font-family="Times,serif" font-size="14.00">filter_in &lt;= 1.5</text>
<text text-anchor="middle" x="1288.5" y="-334.8" font-family="Times,serif" font-size="14.00">mse = 4209.139</text>
<text text-anchor="middle" x="1288.5" y="-319.8" font-family="Times,serif" font-size="14.00">samples = 7189</text>
<text text-anchor="middle" x="1288.5" y="-304.8" font-family="Times,serif" font-size="14.00">value = 11.475</text>
</g>
<!-- 0&#45;&gt;16 -->
<g id="edge16" class="edge"><title>0&#45;&gt;16</title>
<path fill="none" stroke="black" d="M1094.14,-410.982C1133.36,-395.044 1185.58,-373.825 1226.01,-357.394"/>
<polygon fill="black" stroke="black" points="1227.55,-360.547 1235.5,-353.54 1224.91,-354.062 1227.55,-360.547"/>
<text text-anchor="middle" x="1225.77" y="-372.872" font-family="Times,serif" font-size="14.00">False</text>
</g>
<!-- 2 -->
<g id="node3" class="node"><title>2</title>
<polygon fill="#e58139" fill-opacity="0.117647" stroke="black" points="447,-261 334,-261 334,-193 447,-193 447,-261"/>
<text text-anchor="middle" x="390.5" y="-245.8" font-family="Times,serif" font-size="14.00">filter_in &lt;= 0.5</text>
<text text-anchor="middle" x="390.5" y="-230.8" font-family="Times,serif" font-size="14.00">mse = 15207.492</text>
<text text-anchor="middle" x="390.5" y="-215.8" font-family="Times,serif" font-size="14.00">samples = 4286</text>
<text text-anchor="middle" x="390.5" y="-200.8" font-family="Times,serif" font-size="14.00">value = 39.832</text>
</g>
<!-- 1&#45;&gt;2 -->
<g id="edge2" class="edge"><title>1&#45;&gt;2</title>
<path fill="none" stroke="black" d="M726.774,-315.277C655.369,-296.745 532.91,-264.961 457.125,-245.292"/>
<polygon fill="black" stroke="black" points="457.767,-241.843 447.209,-242.718 456.009,-248.618 457.767,-241.843"/>
</g>
<!-- 9 -->
<g id="node10" class="node"><title>9</title>
<polygon fill="#e58139" fill-opacity="0.278431" stroke="black" points="840,-261 727,-261 727,-193 840,-193 840,-261"/>
<text text-anchor="middle" x="783.5" y="-245.8" font-family="Times,serif" font-size="14.00">filter &lt;= 0.5</text>
<text text-anchor="middle" x="783.5" y="-230.8" font-family="Times,serif" font-size="14.00">mse = 37356.231</text>
<text text-anchor="middle" x="783.5" y="-215.8" font-family="Times,serif" font-size="14.00">samples = 1583</text>
<text text-anchor="middle" x="783.5" y="-200.8" font-family="Times,serif" font-size="14.00">value = 94.44</text>
</g>
<!-- 1&#45;&gt;9 -->
<g id="edge9" class="edge"><title>1&#45;&gt;9</title>
<path fill="none" stroke="black" d="M783.5,-296.884C783.5,-288.778 783.5,-279.982 783.5,-271.472"/>
<polygon fill="black" stroke="black" points="787,-271.299 783.5,-261.299 780,-271.299 787,-271.299"/>
</g>
<!-- 3 -->
<g id="node4" class="node"><title>3</title>
<polygon fill="#e58139" fill-opacity="0.082353" stroke="black" points="250,-157 125,-157 125,-89 250,-89 250,-157"/>
<text text-anchor="middle" x="187.5" y="-141.8" font-family="Times,serif" font-size="14.00">triplePattern &lt;= 3.5</text>
<text text-anchor="middle" x="187.5" y="-126.8" font-family="Times,serif" font-size="14.00">mse = 12902.969</text>
<text text-anchor="middle" x="187.5" y="-111.8" font-family="Times,serif" font-size="14.00">samples = 2759</text>
<text text-anchor="middle" x="187.5" y="-96.8" font-family="Times,serif" font-size="14.00">value = 28.269</text>
</g>
<!-- 2&#45;&gt;3 -->
<g id="edge3" class="edge"><title>2&#45;&gt;3</title>
<path fill="none" stroke="black" d="M333.953,-197.587C310.859,-185.983 283.874,-172.425 259.405,-160.129"/>
<polygon fill="black" stroke="black" points="260.67,-156.848 250.163,-155.486 257.527,-163.103 260.67,-156.848"/>
</g>
<!-- 6 -->
<g id="node7" class="node"><title>6</title>
<polygon fill="#e58139" fill-opacity="0.176471" stroke="black" points="447,-157 334,-157 334,-89 447,-89 447,-157"/>
<text text-anchor="middle" x="390.5" y="-141.8" font-family="Times,serif" font-size="14.00">sim &lt;= 0.5</text>
<text text-anchor="middle" x="390.5" y="-126.8" font-family="Times,serif" font-size="14.00">mse = 18693.258</text>
<text text-anchor="middle" x="390.5" y="-111.8" font-family="Times,serif" font-size="14.00">samples = 1527</text>
<text text-anchor="middle" x="390.5" y="-96.8" font-family="Times,serif" font-size="14.00">value = 60.725</text>
</g>
<!-- 2&#45;&gt;6 -->
<g id="edge6" class="edge"><title>2&#45;&gt;6</title>
<path fill="none" stroke="black" d="M390.5,-192.884C390.5,-184.778 390.5,-175.982 390.5,-167.472"/>
<polygon fill="black" stroke="black" points="394,-167.299 390.5,-157.299 387,-167.299 394,-167.299"/>
</g>
<!-- 4 -->
<g id="node5" class="node"><title>4</title>
<polygon fill="#e58139" fill-opacity="0.082353" stroke="black" points="113,-53 0,-53 0,-0 113,-0 113,-53"/>
<text text-anchor="middle" x="56.5" y="-37.8" font-family="Times,serif" font-size="14.00">mse = 12138.092</text>
<text text-anchor="middle" x="56.5" y="-22.8" font-family="Times,serif" font-size="14.00">samples = 2694</text>
<text text-anchor="middle" x="56.5" y="-7.8" font-family="Times,serif" font-size="14.00">value = 27.441</text>
</g>
<!-- 3&#45;&gt;4 -->
<g id="edge4" class="edge"><title>3&#45;&gt;4</title>
<path fill="none" stroke="black" d="M141.683,-88.9485C128.367,-79.3431 113.855,-68.8747 100.645,-59.345"/>
<polygon fill="black" stroke="black" points="102.335,-56.2486 92.1773,-53.2367 98.2398,-61.9257 102.335,-56.2486"/>
</g>
<!-- 5 -->
<g id="node6" class="node"><title>5</title>
<polygon fill="#e58139" fill-opacity="0.184314" stroke="black" points="244,-53 131,-53 131,-0 244,-0 244,-53"/>
<text text-anchor="middle" x="187.5" y="-37.8" font-family="Times,serif" font-size="14.00">mse = 43397.983</text>
<text text-anchor="middle" x="187.5" y="-22.8" font-family="Times,serif" font-size="14.00">samples = 65</text>
<text text-anchor="middle" x="187.5" y="-7.8" font-family="Times,serif" font-size="14.00">value = 62.588</text>
</g>
<!-- 3&#45;&gt;5 -->
<g id="edge5" class="edge"><title>3&#45;&gt;5</title>
<path fill="none" stroke="black" d="M187.5,-88.9485C187.5,-80.7153 187.5,-71.848 187.5,-63.4814"/>
<polygon fill="black" stroke="black" points="191,-63.2367 187.5,-53.2367 184,-63.2367 191,-63.2367"/>
</g>
<!-- 7 -->
<g id="node8" class="node"><title>7</title>
<polygon fill="#e58139" fill-opacity="0.784314" stroke="black" points="381,-53 262,-53 262,-0 381,-0 381,-53"/>
<text text-anchor="middle" x="321.5" y="-37.8" font-family="Times,serif" font-size="14.00">mse = 111580.438</text>
<text text-anchor="middle" x="321.5" y="-22.8" font-family="Times,serif" font-size="14.00">samples = 12</text>
<text text-anchor="middle" x="321.5" y="-7.8" font-family="Times,serif" font-size="14.00">value = 266.626</text>
</g>
<!-- 6&#45;&gt;7 -->
<g id="edge7" class="edge"><title>6&#45;&gt;7</title>
<path fill="none" stroke="black" d="M366.367,-88.9485C359.888,-80.0749 352.871,-70.4648 346.354,-61.5388"/>
<polygon fill="black" stroke="black" points="349.016,-59.249 340.292,-53.2367 343.362,-63.3769 349.016,-59.249"/>
</g>
<!-- 8 -->
<g id="node9" class="node"><title>8</title>
<polygon fill="#e58139" fill-opacity="0.172549" stroke="black" points="512,-53 399,-53 399,-0 512,-0 512,-53"/>
<text text-anchor="middle" x="455.5" y="-37.8" font-family="Times,serif" font-size="14.00">mse = 17619.052</text>
<text text-anchor="middle" x="455.5" y="-22.8" font-family="Times,serif" font-size="14.00">samples = 1515</text>
<text text-anchor="middle" x="455.5" y="-7.8" font-family="Times,serif" font-size="14.00">value = 59.094</text>
</g>
<!-- 6&#45;&gt;8 -->
<g id="edge8" class="edge"><title>6&#45;&gt;8</title>
<path fill="none" stroke="black" d="M413.234,-88.9485C419.337,-80.0749 425.947,-70.4648 432.087,-61.5388"/>
<polygon fill="black" stroke="black" points="435.014,-63.4594 437.798,-53.2367 429.247,-59.4924 435.014,-63.4594"/>
</g>
<!-- 10 -->
<g id="node11" class="node"><title>10</title>
<polygon fill="#e58139" fill-opacity="0.176471" stroke="black" points="771,-157 658,-157 658,-89 771,-89 771,-157"/>
<text text-anchor="middle" x="714.5" y="-141.8" font-family="Times,serif" font-size="14.00">order &lt;= 0.5</text>
<text text-anchor="middle" x="714.5" y="-126.8" font-family="Times,serif" font-size="14.00">mse = 19103.432</text>
<text text-anchor="middle" x="714.5" y="-111.8" font-family="Times,serif" font-size="14.00">samples = 978</text>
<text text-anchor="middle" x="714.5" y="-96.8" font-family="Times,serif" font-size="14.00">value = 59.892</text>
</g>
<!-- 9&#45;&gt;10 -->
<g id="edge10" class="edge"><title>9&#45;&gt;10</title>
<path fill="none" stroke="black" d="M761.098,-192.884C755.253,-184.243 748.878,-174.819 742.772,-165.793"/>
<polygon fill="black" stroke="black" points="745.528,-163.621 737.026,-157.299 739.73,-167.543 745.528,-163.621"/>
</g>
<!-- 13 -->
<g id="node14" class="node"><title>13</title>
<polygon fill="#e58139" fill-opacity="0.443137" stroke="black" points="914,-157 789,-157 789,-89 914,-89 914,-157"/>
<text text-anchor="middle" x="851.5" y="-141.8" font-family="Times,serif" font-size="14.00">triplePattern &lt;= 6.5</text>
<text text-anchor="middle" x="851.5" y="-126.8" font-family="Times,serif" font-size="14.00">mse = 61813.849</text>
<text text-anchor="middle" x="851.5" y="-111.8" font-family="Times,serif" font-size="14.00">samples = 605</text>
<text text-anchor="middle" x="851.5" y="-96.8" font-family="Times,serif" font-size="14.00">value = 150.289</text>
</g>
<!-- 9&#45;&gt;13 -->
<g id="edge13" class="edge"><title>9&#45;&gt;13</title>
<path fill="none" stroke="black" d="M805.578,-192.884C811.338,-184.243 817.621,-174.819 823.638,-165.793"/>
<polygon fill="black" stroke="black" points="826.666,-167.561 829.3,-157.299 820.841,-163.678 826.666,-167.561"/>
</g>
<!-- 11 -->
<g id="node12" class="node"><title>11</title>
<polygon fill="#e58139" fill-opacity="0.168627" stroke="black" points="643,-53 530,-53 530,-0 643,-0 643,-53"/>
<text text-anchor="middle" x="586.5" y="-37.8" font-family="Times,serif" font-size="14.00">mse = 17436.744</text>
<text text-anchor="middle" x="586.5" y="-22.8" font-family="Times,serif" font-size="14.00">samples = 897</text>
<text text-anchor="middle" x="586.5" y="-7.8" font-family="Times,serif" font-size="14.00">value = 57.747</text>
</g>
<!-- 10&#45;&gt;11 -->
<g id="edge11" class="edge"><title>10&#45;&gt;11</title>
<path fill="none" stroke="black" d="M669.732,-88.9485C656.721,-79.3431 642.542,-68.8747 629.634,-59.345"/>
<polygon fill="black" stroke="black" points="631.484,-56.3605 621.36,-53.2367 627.327,-61.992 631.484,-56.3605"/>
</g>
<!-- 12 -->
<g id="node13" class="node"><title>12</title>
<polygon fill="#e58139" fill-opacity="0.247059" stroke="black" points="774,-53 661,-53 661,-0 774,-0 774,-53"/>
<text text-anchor="middle" x="717.5" y="-37.8" font-family="Times,serif" font-size="14.00">mse = 36945.276</text>
<text text-anchor="middle" x="717.5" y="-22.8" font-family="Times,serif" font-size="14.00">samples = 81</text>
<text text-anchor="middle" x="717.5" y="-7.8" font-family="Times,serif" font-size="14.00">value = 83.645</text>
</g>
<!-- 10&#45;&gt;12 -->
<g id="edge12" class="edge"><title>10&#45;&gt;12</title>
<path fill="none" stroke="black" d="M715.549,-88.9485C715.811,-80.7153 716.092,-71.848 716.358,-63.4814"/>
<polygon fill="black" stroke="black" points="719.864,-63.3428 716.683,-53.2367 712.867,-63.1206 719.864,-63.3428"/>
</g>
<!-- 14 -->
<g id="node15" class="node"><title>14</title>
<polygon fill="#e58139" fill-opacity="0.611765" stroke="black" points="905,-53 792,-53 792,-0 905,-0 905,-53"/>
<text text-anchor="middle" x="848.5" y="-37.8" font-family="Times,serif" font-size="14.00">mse = 86601.438</text>
<text text-anchor="middle" x="848.5" y="-22.8" font-family="Times,serif" font-size="14.00">samples = 247</text>
<text text-anchor="middle" x="848.5" y="-7.8" font-family="Times,serif" font-size="14.00">value = 207.761</text>
</g>
<!-- 13&#45;&gt;14 -->
<g id="edge14" class="edge"><title>13&#45;&gt;14</title>
<path fill="none" stroke="black" d="M850.451,-88.9485C850.189,-80.7153 849.908,-71.848 849.642,-63.4814"/>
<polygon fill="black" stroke="black" points="853.133,-63.1206 849.317,-53.2367 846.136,-63.3428 853.133,-63.1206"/>
</g>
<!-- 15 -->
<g id="node16" class="node"><title>15</title>
<polygon fill="#e58139" fill-opacity="0.325490" stroke="black" points="1036,-53 923,-53 923,-0 1036,-0 1036,-53"/>
<text text-anchor="middle" x="979.5" y="-37.8" font-family="Times,serif" font-size="14.00">mse = 40860.489</text>
<text text-anchor="middle" x="979.5" y="-22.8" font-family="Times,serif" font-size="14.00">samples = 358</text>
<text text-anchor="middle" x="979.5" y="-7.8" font-family="Times,serif" font-size="14.00">value = 110.636</text>
</g>
<!-- 13&#45;&gt;15 -->
<g id="edge15" class="edge"><title>13&#45;&gt;15</title>
<path fill="none" stroke="black" d="M896.268,-88.9485C909.279,-79.3431 923.458,-68.8747 936.366,-59.345"/>
<polygon fill="black" stroke="black" points="938.673,-61.992 944.64,-53.2367 934.516,-56.3605 938.673,-61.992"/>
</g>
<!-- 17 -->
<g id="node18" class="node"><title>17</title>
<polygon fill="none" stroke="black" points="1340.5,-261 1236.5,-261 1236.5,-193 1340.5,-193 1340.5,-261"/>
<text text-anchor="middle" x="1288.5" y="-245.8" font-family="Times,serif" font-size="14.00">query &lt;= 2.5</text>
<text text-anchor="middle" x="1288.5" y="-230.8" font-family="Times,serif" font-size="14.00">mse = 28.623</text>
<text text-anchor="middle" x="1288.5" y="-215.8" font-family="Times,serif" font-size="14.00">samples = 5016</text>
<text text-anchor="middle" x="1288.5" y="-200.8" font-family="Times,serif" font-size="14.00">value = 0.636</text>
</g>
<!-- 16&#45;&gt;17 -->
<g id="edge17" class="edge"><title>16&#45;&gt;17</title>
<path fill="none" stroke="black" d="M1288.5,-296.884C1288.5,-288.778 1288.5,-279.982 1288.5,-271.472"/>
<polygon fill="black" stroke="black" points="1292,-271.299 1288.5,-261.299 1285,-271.299 1292,-271.299"/>
</g>
<!-- 24 -->
<g id="node25" class="node"><title>24</title>
<polygon fill="#e58139" fill-opacity="0.105882" stroke="black" points="1705,-261 1592,-261 1592,-193 1705,-193 1705,-261"/>
<text text-anchor="middle" x="1648.5" y="-245.8" font-family="Times,serif" font-size="14.00">filter &lt;= 8.5</text>
<text text-anchor="middle" x="1648.5" y="-230.8" font-family="Times,serif" font-size="14.00">mse = 12961.969</text>
<text text-anchor="middle" x="1648.5" y="-215.8" font-family="Times,serif" font-size="14.00">samples = 2173</text>
<text text-anchor="middle" x="1648.5" y="-200.8" font-family="Times,serif" font-size="14.00">value = 36.495</text>
</g>
<!-- 16&#45;&gt;24 -->
<g id="edge24" class="edge"><title>16&#45;&gt;24</title>
<path fill="none" stroke="black" d="M1341.62,-314.95C1405.47,-296.859 1512.65,-266.491 1581.95,-246.855"/>
<polygon fill="black" stroke="black" points="1583.23,-250.132 1591.89,-244.038 1581.32,-243.397 1583.23,-250.132"/>
</g>
<!-- 18 -->
<g id="node19" class="node"><title>18</title>
<polygon fill="none" stroke="black" points="1280.5,-157 1176.5,-157 1176.5,-89 1280.5,-89 1280.5,-157"/>
<text text-anchor="middle" x="1228.5" y="-141.8" font-family="Times,serif" font-size="14.00">filter_in &lt;= 0.5</text>
<text text-anchor="middle" x="1228.5" y="-126.8" font-family="Times,serif" font-size="14.00">mse = 27.172</text>
<text text-anchor="middle" x="1228.5" y="-111.8" font-family="Times,serif" font-size="14.00">samples = 4998</text>
<text text-anchor="middle" x="1228.5" y="-96.8" font-family="Times,serif" font-size="14.00">value = 0.563</text>
</g>
<!-- 17&#45;&gt;18 -->
<g id="edge18" class="edge"><title>17&#45;&gt;18</title>
<path fill="none" stroke="black" d="M1269.02,-192.884C1263.99,-184.332 1258.51,-175.013 1253.25,-166.072"/>
<polygon fill="black" stroke="black" points="1256.17,-164.144 1248.09,-157.299 1250.14,-167.693 1256.17,-164.144"/>
</g>
<!-- 21 -->
<g id="node22" class="node"><title>21</title>
<polygon fill="#e58139" fill-opacity="0.062745" stroke="black" points="1398,-157 1299,-157 1299,-89 1398,-89 1398,-157"/>
<text text-anchor="middle" x="1348.5" y="-141.8" font-family="Times,serif" font-size="14.00">filter &lt;= 6.0</text>
<text text-anchor="middle" x="1348.5" y="-126.8" font-family="Times,serif" font-size="14.00">mse = 13.55</text>
<text text-anchor="middle" x="1348.5" y="-111.8" font-family="Times,serif" font-size="14.00">samples = 18</text>
<text text-anchor="middle" x="1348.5" y="-96.8" font-family="Times,serif" font-size="14.00">value = 21.047</text>
</g>
<!-- 17&#45;&gt;21 -->
<g id="edge21" class="edge"><title>17&#45;&gt;21</title>
<path fill="none" stroke="black" d="M1307.98,-192.884C1313.01,-184.332 1318.49,-175.013 1323.75,-166.072"/>
<polygon fill="black" stroke="black" points="1326.86,-167.693 1328.91,-157.299 1320.83,-164.144 1326.86,-167.693"/>
</g>
<!-- 19 -->
<g id="node20" class="node"><title>19</title>
<polygon fill="none" stroke="black" points="1158.5,-53 1054.5,-53 1054.5,-0 1158.5,-0 1158.5,-53"/>
<text text-anchor="middle" x="1106.5" y="-37.8" font-family="Times,serif" font-size="14.00">mse = 10.479</text>
<text text-anchor="middle" x="1106.5" y="-22.8" font-family="Times,serif" font-size="14.00">samples = 3564</text>
<text text-anchor="middle" x="1106.5" y="-7.8" font-family="Times,serif" font-size="14.00">value = 0.122</text>
</g>
<!-- 18&#45;&gt;19 -->
<g id="edge19" class="edge"><title>18&#45;&gt;19</title>
<path fill="none" stroke="black" d="M1185.83,-88.9485C1173.55,-79.4346 1160.17,-69.074 1147.96,-59.6175"/>
<polygon fill="black" stroke="black" points="1149.78,-56.5934 1139.73,-53.2367 1145.49,-62.1274 1149.78,-56.5934"/>
</g>
<!-- 20 -->
<g id="node21" class="node"><title>20</title>
<polygon fill="#e58139" fill-opacity="0.003922" stroke="black" points="1280.5,-53 1176.5,-53 1176.5,-0 1280.5,-0 1280.5,-53"/>
<text text-anchor="middle" x="1228.5" y="-37.8" font-family="Times,serif" font-size="14.00">mse = 66.974</text>
<text text-anchor="middle" x="1228.5" y="-22.8" font-family="Times,serif" font-size="14.00">samples = 1434</text>
<text text-anchor="middle" x="1228.5" y="-7.8" font-family="Times,serif" font-size="14.00">value = 1.659</text>
</g>
<!-- 18&#45;&gt;20 -->
<g id="edge20" class="edge"><title>18&#45;&gt;20</title>
<path fill="none" stroke="black" d="M1228.5,-88.9485C1228.5,-80.7153 1228.5,-71.848 1228.5,-63.4814"/>
<polygon fill="black" stroke="black" points="1232,-63.2367 1228.5,-53.2367 1225,-63.2367 1232,-63.2367"/>
</g>
<!-- 22 -->
<g id="node23" class="node"><title>22</title>
<polygon fill="#e58139" fill-opacity="0.058824" stroke="black" points="1398,-53 1299,-53 1299,-0 1398,-0 1398,-53"/>
<text text-anchor="middle" x="1348.5" y="-37.8" font-family="Times,serif" font-size="14.00">mse = 8.288</text>
<text text-anchor="middle" x="1348.5" y="-22.8" font-family="Times,serif" font-size="14.00">samples = 6</text>
<text text-anchor="middle" x="1348.5" y="-7.8" font-family="Times,serif" font-size="14.00">value = 20.201</text>
</g>
<!-- 21&#45;&gt;22 -->
<g id="edge22" class="edge"><title>21&#45;&gt;22</title>
<path fill="none" stroke="black" d="M1348.5,-88.9485C1348.5,-80.7153 1348.5,-71.848 1348.5,-63.4814"/>
<polygon fill="black" stroke="black" points="1352,-63.2367 1348.5,-53.2367 1345,-63.2367 1352,-63.2367"/>
</g>
<!-- 23 -->
<g id="node24" class="node"><title>23</title>
<polygon fill="#e58139" fill-opacity="0.062745" stroke="black" points="1508.5,-53 1416.5,-53 1416.5,-0 1508.5,-0 1508.5,-53"/>
<text text-anchor="middle" x="1462.5" y="-37.8" font-family="Times,serif" font-size="14.00">mse = 15.644</text>
<text text-anchor="middle" x="1462.5" y="-22.8" font-family="Times,serif" font-size="14.00">samples = 12</text>
<text text-anchor="middle" x="1462.5" y="-7.8" font-family="Times,serif" font-size="14.00">value = 21.47</text>
</g>
<!-- 21&#45;&gt;23 -->
<g id="edge23" class="edge"><title>21&#45;&gt;23</title>
<path fill="none" stroke="black" d="M1388.37,-88.9485C1399.74,-79.526 1412.11,-69.2731 1423.43,-59.8906"/>
<polygon fill="black" stroke="black" points="1425.99,-62.3132 1431.45,-53.2367 1421.52,-56.924 1425.99,-62.3132"/>
</g>
<!-- 25 -->
<g id="node26" class="node"><title>25</title>
<polygon fill="#e58139" fill-opacity="0.392157" stroke="black" points="1705,-157 1592,-157 1592,-89 1705,-89 1705,-157"/>
<text text-anchor="middle" x="1648.5" y="-141.8" font-family="Times,serif" font-size="14.00">filter &lt;= 4.5</text>
<text text-anchor="middle" x="1648.5" y="-126.8" font-family="Times,serif" font-size="14.00">mse = 28778.759</text>
<text text-anchor="middle" x="1648.5" y="-111.8" font-family="Times,serif" font-size="14.00">samples = 373</text>
<text text-anchor="middle" x="1648.5" y="-96.8" font-family="Times,serif" font-size="14.00">value = 133.85</text>
</g>
<!-- 24&#45;&gt;25 -->
<g id="edge25" class="edge"><title>24&#45;&gt;25</title>
<path fill="none" stroke="black" d="M1648.5,-192.884C1648.5,-184.778 1648.5,-175.982 1648.5,-167.472"/>
<polygon fill="black" stroke="black" points="1652,-167.299 1648.5,-157.299 1645,-167.299 1652,-167.299"/>
</g>
<!-- 28 -->
<g id="node29" class="node"><title>28</title>
<polygon fill="#e58139" fill-opacity="0.047059" stroke="black" points="1894.5,-157 1788.5,-157 1788.5,-89 1894.5,-89 1894.5,-157"/>
<text text-anchor="middle" x="1841.5" y="-141.8" font-family="Times,serif" font-size="14.00">group &lt;= 3.0</text>
<text text-anchor="middle" x="1841.5" y="-126.8" font-family="Times,serif" font-size="14.00">mse = 7313.361</text>
<text text-anchor="middle" x="1841.5" y="-111.8" font-family="Times,serif" font-size="14.00">samples = 1800</text>
<text text-anchor="middle" x="1841.5" y="-96.8" font-family="Times,serif" font-size="14.00">value = 16.321</text>
</g>
<!-- 24&#45;&gt;28 -->
<g id="edge28" class="edge"><title>24&#45;&gt;28</title>
<path fill="none" stroke="black" d="M1705.1,-196.086C1728.38,-183.784 1755.41,-169.497 1779.25,-156.901"/>
<polygon fill="black" stroke="black" points="1781,-159.931 1788.21,-152.164 1777.73,-153.742 1781,-159.931"/>
</g>
<!-- 26 -->
<g id="node27" class="node"><title>26</title>
<polygon fill="#e58139" stroke="black" points="1640,-53 1527,-53 1527,-0 1640,-0 1640,-53"/>
<text text-anchor="middle" x="1583.5" y="-37.8" font-family="Times,serif" font-size="14.00">mse = 23381.371</text>
<text text-anchor="middle" x="1583.5" y="-22.8" font-family="Times,serif" font-size="14.00">samples = 25</text>
<text text-anchor="middle" x="1583.5" y="-7.8" font-family="Times,serif" font-size="14.00">value = 339.8</text>
</g>
<!-- 25&#45;&gt;26 -->
<g id="edge26" class="edge"><title>25&#45;&gt;26</title>
<path fill="none" stroke="black" d="M1625.77,-88.9485C1619.66,-80.0749 1613.05,-70.4648 1606.91,-61.5388"/>
<polygon fill="black" stroke="black" points="1609.75,-59.4924 1601.2,-53.2367 1603.99,-63.4594 1609.75,-59.4924"/>
</g>
<!-- 27 -->
<g id="node28" class="node"><title>27</title>
<polygon fill="#e58139" fill-opacity="0.349020" stroke="black" points="1771,-53 1658,-53 1658,-0 1771,-0 1771,-53"/>
<text text-anchor="middle" x="1714.5" y="-37.8" font-family="Times,serif" font-size="14.00">mse = 25900.492</text>
<text text-anchor="middle" x="1714.5" y="-22.8" font-family="Times,serif" font-size="14.00">samples = 348</text>
<text text-anchor="middle" x="1714.5" y="-7.8" font-family="Times,serif" font-size="14.00">value = 119.054</text>
</g>
<!-- 25&#45;&gt;27 -->
<g id="edge27" class="edge"><title>25&#45;&gt;27</title>
<path fill="none" stroke="black" d="M1671.58,-88.9485C1677.78,-80.0749 1684.49,-70.4648 1690.73,-61.5388"/>
<polygon fill="black" stroke="black" points="1693.67,-63.4392 1696.53,-53.2367 1687.93,-59.4311 1693.67,-63.4392"/>
</g>
<!-- 29 -->
<g id="node30" class="node"><title>29</title>
<polygon fill="#e58139" fill-opacity="0.007843" stroke="black" points="1893.5,-53 1789.5,-53 1789.5,-0 1893.5,-0 1893.5,-53"/>
<text text-anchor="middle" x="1841.5" y="-37.8" font-family="Times,serif" font-size="14.00">mse = 113.975</text>
<text text-anchor="middle" x="1841.5" y="-22.8" font-family="Times,serif" font-size="14.00">samples = 1512</text>
<text text-anchor="middle" x="1841.5" y="-7.8" font-family="Times,serif" font-size="14.00">value = 2.507</text>
</g>
<!-- 28&#45;&gt;29 -->
<g id="edge29" class="edge"><title>28&#45;&gt;29</title>
<path fill="none" stroke="black" d="M1841.5,-88.9485C1841.5,-80.7153 1841.5,-71.848 1841.5,-63.4814"/>
<polygon fill="black" stroke="black" points="1845,-63.2367 1841.5,-53.2367 1838,-63.2367 1845,-63.2367"/>
</g>
<!-- 30 -->
<g id="node31" class="node"><title>30</title>
<polygon fill="#e58139" fill-opacity="0.262745" stroke="black" points="2025,-53 1912,-53 1912,-0 2025,-0 2025,-53"/>
<text text-anchor="middle" x="1968.5" y="-37.8" font-family="Times,serif" font-size="14.00">mse = 38848.623</text>
<text text-anchor="middle" x="1968.5" y="-22.8" font-family="Times,serif" font-size="14.00">samples = 288</text>
<text text-anchor="middle" x="1968.5" y="-7.8" font-family="Times,serif" font-size="14.00">value = 88.845</text>
</g>
<!-- 28&#45;&gt;30 -->
<g id="edge30" class="edge"><title>28&#45;&gt;30</title>
<path fill="none" stroke="black" d="M1885.92,-88.9485C1898.83,-79.3431 1912.9,-68.8747 1925.7,-59.345"/>
<polygon fill="black" stroke="black" points="1927.98,-62.0143 1933.91,-53.2367 1923.8,-56.3984 1927.98,-62.0143"/>
</g>
</g>
</svg>
