<?xml version="1.0" encoding="utf-8" standalone="no"?>
<!DOCTYPE svg PUBLIC "-//W3C//DTD SVG 1.1//EN"
  "http://www.w3.org/Graphics/SVG/1.1/DTD/svg11.dtd">
<!-- Created with matplotlib (http://matplotlib.org/) -->
<svg height="583pt" version="1.1" viewBox="0 0 1337 583" width="1337pt" xmlns="http://www.w3.org/2000/svg" xmlns:xlink="http://www.w3.org/1999/xlink">
 <defs>
  <style type="text/css">
*{stroke-linecap:butt;stroke-linejoin:round;}
  </style>
 </defs>
 <g id="figure_1">
  <g id="patch_1">
   <path d="M 0 583.011381 
L 1337.316714 583.011381 
L 1337.316714 0 
L 0 0 
z
" style="fill:#ffffff;"/>
  </g>
  <g id="axes_1">
   <g id="patch_2">
    <path d="M 210.616714 554.3 
L 1326.616714 554.3 
L 1326.616714 10.7 
L 210.616714 10.7 
z
" style="fill:#ffffff;"/>
   </g>
   <g id="matplotlib.axis_1">
    <g id="xtick_1">
     <g id="line2d_1">
      <defs>
       <path d="M 0 0 
L 0 3.5 
" id="m06735ad052" style="stroke:#555555;stroke-width:0.8;"/>
      </defs>
      <g>
       <use style="fill:#555555;stroke:#555555;stroke-width:0.8;" x="210.616714" xlink:href="#m06735ad052" y="554.3"/>
      </g>
     </g>
     <g id="text_1">
      <!-- 0 -->
      <defs>
       <path d="M 31.78125 66.40625 
Q 24.171875 66.40625 20.328125 58.90625 
Q 16.5 51.421875 16.5 36.375 
Q 16.5 21.390625 20.328125 13.890625 
Q 24.171875 6.390625 31.78125 6.390625 
Q 39.453125 6.390625 43.28125 13.890625 
Q 47.125 21.390625 47.125 36.375 
Q 47.125 51.421875 43.28125 58.90625 
Q 39.453125 66.40625 31.78125 66.40625 
z
M 31.78125 74.21875 
Q 44.046875 74.21875 50.515625 64.515625 
Q 56.984375 54.828125 56.984375 36.375 
Q 56.984375 17.96875 50.515625 8.265625 
Q 44.046875 -1.421875 31.78125 -1.421875 
Q 19.53125 -1.421875 13.0625 8.265625 
Q 6.59375 17.96875 6.59375 36.375 
Q 6.59375 54.828125 13.0625 64.515625 
Q 19.53125 74.21875 31.78125 74.21875 
z
" id="DejaVuSans-30"/>
      </defs>
      <g style="fill:#555555;" transform="translate(205.846748 572.693097)scale(0.14994 -0.14994)">
       <use xlink:href="#DejaVuSans-30"/>
      </g>
     </g>
    </g>
    <g id="xtick_2">
     <g id="line2d_2">
      <g>
       <use style="fill:#555555;stroke:#555555;stroke-width:0.8;" x="355.459607" xlink:href="#m06735ad052" y="554.3"/>
      </g>
     </g>
     <g id="text_2">
      <!-- 1000 -->
      <defs>
       <path d="M 12.40625 8.296875 
L 28.515625 8.296875 
L 28.515625 63.921875 
L 10.984375 60.40625 
L 10.984375 69.390625 
L 28.421875 72.90625 
L 38.28125 72.90625 
L 38.28125 8.296875 
L 54.390625 8.296875 
L 54.390625 0 
L 12.40625 0 
z
" id="DejaVuSans-31"/>
      </defs>
      <g style="fill:#555555;" transform="translate(336.379742 572.693097)scale(0.14994 -0.14994)">
       <use xlink:href="#DejaVuSans-31"/>
       <use x="63.623047" xlink:href="#DejaVuSans-30"/>
       <use x="127.246094" xlink:href="#DejaVuSans-30"/>
       <use x="190.869141" xlink:href="#DejaVuSans-30"/>
      </g>
     </g>
    </g>
    <g id="xtick_3">
     <g id="line2d_3">
      <g>
       <use style="fill:#555555;stroke:#555555;stroke-width:0.8;" x="500.302499" xlink:href="#m06735ad052" y="554.3"/>
      </g>
     </g>
     <g id="text_3">
      <!-- 2000 -->
      <defs>
       <path d="M 19.1875 8.296875 
L 53.609375 8.296875 
L 53.609375 0 
L 7.328125 0 
L 7.328125 8.296875 
Q 12.9375 14.109375 22.625 23.890625 
Q 32.328125 33.6875 34.8125 36.53125 
Q 39.546875 41.84375 41.421875 45.53125 
Q 43.3125 49.21875 43.3125 52.78125 
Q 43.3125 58.59375 39.234375 62.25 
Q 35.15625 65.921875 28.609375 65.921875 
Q 23.96875 65.921875 18.8125 64.3125 
Q 13.671875 62.703125 7.8125 59.421875 
L 7.8125 69.390625 
Q 13.765625 71.78125 18.9375 73 
Q 24.125 74.21875 28.421875 74.21875 
Q 39.75 74.21875 46.484375 68.546875 
Q 53.21875 62.890625 53.21875 53.421875 
Q 53.21875 48.921875 51.53125 44.890625 
Q 49.859375 40.875 45.40625 35.40625 
Q 44.1875 33.984375 37.640625 27.21875 
Q 31.109375 20.453125 19.1875 8.296875 
z
" id="DejaVuSans-32"/>
      </defs>
      <g style="fill:#555555;" transform="translate(481.222634 572.693097)scale(0.14994 -0.14994)">
       <use xlink:href="#DejaVuSans-32"/>
       <use x="63.623047" xlink:href="#DejaVuSans-30"/>
       <use x="127.246094" xlink:href="#DejaVuSans-30"/>
       <use x="190.869141" xlink:href="#DejaVuSans-30"/>
      </g>
     </g>
    </g>
    <g id="xtick_4">
     <g id="line2d_4">
      <g>
       <use style="fill:#555555;stroke:#555555;stroke-width:0.8;" x="645.145391" xlink:href="#m06735ad052" y="554.3"/>
      </g>
     </g>
     <g id="text_4">
      <!-- 3000 -->
      <defs>
       <path d="M 40.578125 39.3125 
Q 47.65625 37.796875 51.625 33 
Q 55.609375 28.21875 55.609375 21.1875 
Q 55.609375 10.40625 48.1875 4.484375 
Q 40.765625 -1.421875 27.09375 -1.421875 
Q 22.515625 -1.421875 17.65625 -0.515625 
Q 12.796875 0.390625 7.625 2.203125 
L 7.625 11.71875 
Q 11.71875 9.328125 16.59375 8.109375 
Q 21.484375 6.890625 26.8125 6.890625 
Q 36.078125 6.890625 40.9375 10.546875 
Q 45.796875 14.203125 45.796875 21.1875 
Q 45.796875 27.640625 41.28125 31.265625 
Q 36.765625 34.90625 28.71875 34.90625 
L 20.21875 34.90625 
L 20.21875 43.015625 
L 29.109375 43.015625 
Q 36.375 43.015625 40.234375 45.921875 
Q 44.09375 48.828125 44.09375 54.296875 
Q 44.09375 59.90625 40.109375 62.90625 
Q 36.140625 65.921875 28.71875 65.921875 
Q 24.65625 65.921875 20.015625 65.03125 
Q 15.375 64.15625 9.8125 62.3125 
L 9.8125 71.09375 
Q 15.4375 72.65625 20.34375 73.4375 
Q 25.25 74.21875 29.59375 74.21875 
Q 40.828125 74.21875 47.359375 69.109375 
Q 53.90625 64.015625 53.90625 55.328125 
Q 53.90625 49.265625 50.4375 45.09375 
Q 46.96875 40.921875 40.578125 39.3125 
z
" id="DejaVuSans-33"/>
      </defs>
      <g style="fill:#555555;" transform="translate(626.065526 572.693097)scale(0.14994 -0.14994)">
       <use xlink:href="#DejaVuSans-33"/>
       <use x="63.623047" xlink:href="#DejaVuSans-30"/>
       <use x="127.246094" xlink:href="#DejaVuSans-30"/>
       <use x="190.869141" xlink:href="#DejaVuSans-30"/>
      </g>
     </g>
    </g>
    <g id="xtick_5">
     <g id="line2d_5">
      <g>
       <use style="fill:#555555;stroke:#555555;stroke-width:0.8;" x="789.988283" xlink:href="#m06735ad052" y="554.3"/>
      </g>
     </g>
     <g id="text_5">
      <!-- 4000 -->
      <defs>
       <path d="M 37.796875 64.3125 
L 12.890625 25.390625 
L 37.796875 25.390625 
z
M 35.203125 72.90625 
L 47.609375 72.90625 
L 47.609375 25.390625 
L 58.015625 25.390625 
L 58.015625 17.1875 
L 47.609375 17.1875 
L 47.609375 0 
L 37.796875 0 
L 37.796875 17.1875 
L 4.890625 17.1875 
L 4.890625 26.703125 
z
" id="DejaVuSans-34"/>
      </defs>
      <g style="fill:#555555;" transform="translate(770.908418 572.693097)scale(0.14994 -0.14994)">
       <use xlink:href="#DejaVuSans-34"/>
       <use x="63.623047" xlink:href="#DejaVuSans-30"/>
       <use x="127.246094" xlink:href="#DejaVuSans-30"/>
       <use x="190.869141" xlink:href="#DejaVuSans-30"/>
      </g>
     </g>
    </g>
    <g id="xtick_6">
     <g id="line2d_6">
      <g>
       <use style="fill:#555555;stroke:#555555;stroke-width:0.8;" x="934.831175" xlink:href="#m06735ad052" y="554.3"/>
      </g>
     </g>
     <g id="text_6">
      <!-- 5000 -->
      <defs>
       <path d="M 10.796875 72.90625 
L 49.515625 72.90625 
L 49.515625 64.59375 
L 19.828125 64.59375 
L 19.828125 46.734375 
Q 21.96875 47.46875 24.109375 47.828125 
Q 26.265625 48.1875 28.421875 48.1875 
Q 40.625 48.1875 47.75 41.5 
Q 54.890625 34.8125 54.890625 23.390625 
Q 54.890625 11.625 47.5625 5.09375 
Q 40.234375 -1.421875 26.90625 -1.421875 
Q 22.3125 -1.421875 17.546875 -0.640625 
Q 12.796875 0.140625 7.71875 1.703125 
L 7.71875 11.625 
Q 12.109375 9.234375 16.796875 8.0625 
Q 21.484375 6.890625 26.703125 6.890625 
Q 35.15625 6.890625 40.078125 11.328125 
Q 45.015625 15.765625 45.015625 23.390625 
Q 45.015625 31 40.078125 35.4375 
Q 35.15625 39.890625 26.703125 39.890625 
Q 22.75 39.890625 18.8125 39.015625 
Q 14.890625 38.140625 10.796875 36.28125 
z
" id="DejaVuSans-35"/>
      </defs>
      <g style="fill:#555555;" transform="translate(915.75131 572.693097)scale(0.14994 -0.14994)">
       <use xlink:href="#DejaVuSans-35"/>
       <use x="63.623047" xlink:href="#DejaVuSans-30"/>
       <use x="127.246094" xlink:href="#DejaVuSans-30"/>
       <use x="190.869141" xlink:href="#DejaVuSans-30"/>
      </g>
     </g>
    </g>
    <g id="xtick_7">
     <g id="line2d_7">
      <g>
       <use style="fill:#555555;stroke:#555555;stroke-width:0.8;" x="1079.674067" xlink:href="#m06735ad052" y="554.3"/>
      </g>
     </g>
     <g id="text_7">
      <!-- 6000 -->
      <defs>
       <path d="M 33.015625 40.375 
Q 26.375 40.375 22.484375 35.828125 
Q 18.609375 31.296875 18.609375 23.390625 
Q 18.609375 15.53125 22.484375 10.953125 
Q 26.375 6.390625 33.015625 6.390625 
Q 39.65625 6.390625 43.53125 10.953125 
Q 47.40625 15.53125 47.40625 23.390625 
Q 47.40625 31.296875 43.53125 35.828125 
Q 39.65625 40.375 33.015625 40.375 
z
M 52.59375 71.296875 
L 52.59375 62.3125 
Q 48.875 64.0625 45.09375 64.984375 
Q 41.3125 65.921875 37.59375 65.921875 
Q 27.828125 65.921875 22.671875 59.328125 
Q 17.53125 52.734375 16.796875 39.40625 
Q 19.671875 43.65625 24.015625 45.921875 
Q 28.375 48.1875 33.59375 48.1875 
Q 44.578125 48.1875 50.953125 41.515625 
Q 57.328125 34.859375 57.328125 23.390625 
Q 57.328125 12.15625 50.6875 5.359375 
Q 44.046875 -1.421875 33.015625 -1.421875 
Q 20.359375 -1.421875 13.671875 8.265625 
Q 6.984375 17.96875 6.984375 36.375 
Q 6.984375 53.65625 15.1875 63.9375 
Q 23.390625 74.21875 37.203125 74.21875 
Q 40.921875 74.21875 44.703125 73.484375 
Q 48.484375 72.75 52.59375 71.296875 
z
" id="DejaVuSans-36"/>
      </defs>
      <g style="fill:#555555;" transform="translate(1060.594202 572.693097)scale(0.14994 -0.14994)">
       <use xlink:href="#DejaVuSans-36"/>
       <use x="63.623047" xlink:href="#DejaVuSans-30"/>
       <use x="127.246094" xlink:href="#DejaVuSans-30"/>
       <use x="190.869141" xlink:href="#DejaVuSans-30"/>
      </g>
     </g>
    </g>
    <g id="xtick_8">
     <g id="line2d_8">
      <g>
       <use style="fill:#555555;stroke:#555555;stroke-width:0.8;" x="1224.51696" xlink:href="#m06735ad052" y="554.3"/>
      </g>
     </g>
     <g id="text_8">
      <!-- 7000 -->
      <defs>
       <path d="M 8.203125 72.90625 
L 55.078125 72.90625 
L 55.078125 68.703125 
L 28.609375 0 
L 18.3125 0 
L 43.21875 64.59375 
L 8.203125 64.59375 
z
" id="DejaVuSans-37"/>
      </defs>
      <g style="fill:#555555;" transform="translate(1205.437095 572.693097)scale(0.14994 -0.14994)">
       <use xlink:href="#DejaVuSans-37"/>
       <use x="63.623047" xlink:href="#DejaVuSans-30"/>
       <use x="127.246094" xlink:href="#DejaVuSans-30"/>
       <use x="190.869141" xlink:href="#DejaVuSans-30"/>
      </g>
     </g>
    </g>
   </g>
   <g id="matplotlib.axis_2">
    <g id="ytick_1">
     <g id="line2d_9">
      <defs>
       <path d="M 0 0 
L -3.5 0 
" id="m8261021845" style="stroke:#555555;stroke-width:0.8;"/>
      </defs>
      <g>
       <use style="fill:#555555;stroke:#555555;stroke-width:0.8;" x="210.616714" xlink:href="#m8261021845" y="537.3125"/>
      </g>
     </g>
     <g id="text_9">
      <!-- Vir_N1_32_Ont_Opt -->
      <defs>
       <path d="M 28.609375 0 
L 0.78125 72.90625 
L 11.078125 72.90625 
L 34.1875 11.53125 
L 57.328125 72.90625 
L 67.578125 72.90625 
L 39.796875 0 
z
" id="DejaVuSans-56"/>
       <path d="M 9.421875 54.6875 
L 18.40625 54.6875 
L 18.40625 0 
L 9.421875 0 
z
M 9.421875 75.984375 
L 18.40625 75.984375 
L 18.40625 64.59375 
L 9.421875 64.59375 
z
" id="DejaVuSans-69"/>
       <path d="M 41.109375 46.296875 
Q 39.59375 47.171875 37.8125 47.578125 
Q 36.03125 48 33.890625 48 
Q 26.265625 48 22.1875 43.046875 
Q 18.109375 38.09375 18.109375 28.8125 
L 18.109375 0 
L 9.078125 0 
L 9.078125 54.6875 
L 18.109375 54.6875 
L 18.109375 46.1875 
Q 20.953125 51.171875 25.484375 53.578125 
Q 30.03125 56 36.53125 56 
Q 37.453125 56 38.578125 55.875 
Q 39.703125 55.765625 41.0625 55.515625 
z
" id="DejaVuSans-72"/>
       <path d="M 50.984375 -16.609375 
L 50.984375 -23.578125 
L -0.984375 -23.578125 
L -0.984375 -16.609375 
z
" id="DejaVuSans-5f"/>
       <path d="M 9.8125 72.90625 
L 23.09375 72.90625 
L 55.421875 11.921875 
L 55.421875 72.90625 
L 64.984375 72.90625 
L 64.984375 0 
L 51.703125 0 
L 19.390625 60.984375 
L 19.390625 0 
L 9.8125 0 
z
" id="DejaVuSans-4e"/>
       <path d="M 39.40625 66.21875 
Q 28.65625 66.21875 22.328125 58.203125 
Q 16.015625 50.203125 16.015625 36.375 
Q 16.015625 22.609375 22.328125 14.59375 
Q 28.65625 6.59375 39.40625 6.59375 
Q 50.140625 6.59375 56.421875 14.59375 
Q 62.703125 22.609375 62.703125 36.375 
Q 62.703125 50.203125 56.421875 58.203125 
Q 50.140625 66.21875 39.40625 66.21875 
z
M 39.40625 74.21875 
Q 54.734375 74.21875 63.90625 63.9375 
Q 73.09375 53.65625 73.09375 36.375 
Q 73.09375 19.140625 63.90625 8.859375 
Q 54.734375 -1.421875 39.40625 -1.421875 
Q 24.03125 -1.421875 14.8125 8.828125 
Q 5.609375 19.09375 5.609375 36.375 
Q 5.609375 53.65625 14.8125 63.9375 
Q 24.03125 74.21875 39.40625 74.21875 
z
" id="DejaVuSans-4f"/>
       <path d="M 54.890625 33.015625 
L 54.890625 0 
L 45.90625 0 
L 45.90625 32.71875 
Q 45.90625 40.484375 42.875 44.328125 
Q 39.84375 48.1875 33.796875 48.1875 
Q 26.515625 48.1875 22.3125 43.546875 
Q 18.109375 38.921875 18.109375 30.90625 
L 18.109375 0 
L 9.078125 0 
L 9.078125 54.6875 
L 18.109375 54.6875 
L 18.109375 46.1875 
Q 21.34375 51.125 25.703125 53.5625 
Q 30.078125 56 35.796875 56 
Q 45.21875 56 50.046875 50.171875 
Q 54.890625 44.34375 54.890625 33.015625 
z
" id="DejaVuSans-6e"/>
       <path d="M 18.3125 70.21875 
L 18.3125 54.6875 
L 36.8125 54.6875 
L 36.8125 47.703125 
L 18.3125 47.703125 
L 18.3125 18.015625 
Q 18.3125 11.328125 20.140625 9.421875 
Q 21.96875 7.515625 27.59375 7.515625 
L 36.8125 7.515625 
L 36.8125 0 
L 27.59375 0 
Q 17.1875 0 13.234375 3.875 
Q 9.28125 7.765625 9.28125 18.015625 
L 9.28125 47.703125 
L 2.6875 47.703125 
L 2.6875 54.6875 
L 9.28125 54.6875 
L 9.28125 70.21875 
z
" id="DejaVuSans-74"/>
       <path d="M 18.109375 8.203125 
L 18.109375 -20.796875 
L 9.078125 -20.796875 
L 9.078125 54.6875 
L 18.109375 54.6875 
L 18.109375 46.390625 
Q 20.953125 51.265625 25.265625 53.625 
Q 29.59375 56 35.59375 56 
Q 45.5625 56 51.78125 48.09375 
Q 58.015625 40.1875 58.015625 27.296875 
Q 58.015625 14.40625 51.78125 6.484375 
Q 45.5625 -1.421875 35.59375 -1.421875 
Q 29.59375 -1.421875 25.265625 0.953125 
Q 20.953125 3.328125 18.109375 8.203125 
z
M 48.6875 27.296875 
Q 48.6875 37.203125 44.609375 42.84375 
Q 40.53125 48.484375 33.40625 48.484375 
Q 26.265625 48.484375 22.1875 42.84375 
Q 18.109375 37.203125 18.109375 27.296875 
Q 18.109375 17.390625 22.1875 11.75 
Q 26.265625 6.109375 33.40625 6.109375 
Q 40.53125 6.109375 44.609375 11.75 
Q 48.6875 17.390625 48.6875 27.296875 
z
" id="DejaVuSans-70"/>
      </defs>
      <g style="fill:#555555;" transform="translate(58.826216 543.009049)scale(0.14994 -0.14994)">
       <use xlink:href="#DejaVuSans-56"/>
       <use x="68.376953" xlink:href="#DejaVuSans-69"/>
       <use x="96.160156" xlink:href="#DejaVuSans-72"/>
       <use x="137.273438" xlink:href="#DejaVuSans-5f"/>
       <use x="187.273438" xlink:href="#DejaVuSans-4e"/>
       <use x="262.078125" xlink:href="#DejaVuSans-31"/>
       <use x="325.701172" xlink:href="#DejaVuSans-5f"/>
       <use x="375.701172" xlink:href="#DejaVuSans-33"/>
       <use x="439.324219" xlink:href="#DejaVuSans-32"/>
       <use x="502.947266" xlink:href="#DejaVuSans-5f"/>
       <use x="552.947266" xlink:href="#DejaVuSans-4f"/>
       <use x="631.658203" xlink:href="#DejaVuSans-6e"/>
       <use x="695.037109" xlink:href="#DejaVuSans-74"/>
       <use x="734.246094" xlink:href="#DejaVuSans-5f"/>
       <use x="784.246094" xlink:href="#DejaVuSans-4f"/>
       <use x="862.957031" xlink:href="#DejaVuSans-70"/>
       <use x="926.433594" xlink:href="#DejaVuSans-74"/>
      </g>
     </g>
    </g>
    <g id="ytick_2">
     <g id="line2d_10">
      <g>
       <use style="fill:#555555;stroke:#555555;stroke-width:0.8;" x="210.616714" xlink:href="#m8261021845" y="503.3375"/>
      </g>
     </g>
     <g id="text_10">
      <!-- Vir_N1_32_Ont_Opt_VWall -->
      <defs>
       <path d="M 3.328125 72.90625 
L 13.28125 72.90625 
L 28.609375 11.28125 
L 43.890625 72.90625 
L 54.984375 72.90625 
L 70.3125 11.28125 
L 85.59375 72.90625 
L 95.609375 72.90625 
L 77.296875 0 
L 64.890625 0 
L 49.515625 63.28125 
L 33.984375 0 
L 21.578125 0 
z
" id="DejaVuSans-57"/>
       <path d="M 34.28125 27.484375 
Q 23.390625 27.484375 19.1875 25 
Q 14.984375 22.515625 14.984375 16.5 
Q 14.984375 11.71875 18.140625 8.90625 
Q 21.296875 6.109375 26.703125 6.109375 
Q 34.1875 6.109375 38.703125 11.40625 
Q 43.21875 16.703125 43.21875 25.484375 
L 43.21875 27.484375 
z
M 52.203125 31.203125 
L 52.203125 0 
L 43.21875 0 
L 43.21875 8.296875 
Q 40.140625 3.328125 35.546875 0.953125 
Q 30.953125 -1.421875 24.3125 -1.421875 
Q 15.921875 -1.421875 10.953125 3.296875 
Q 6 8.015625 6 15.921875 
Q 6 25.140625 12.171875 29.828125 
Q 18.359375 34.515625 30.609375 34.515625 
L 43.21875 34.515625 
L 43.21875 35.40625 
Q 43.21875 41.609375 39.140625 45 
Q 35.0625 48.390625 27.6875 48.390625 
Q 23 48.390625 18.546875 47.265625 
Q 14.109375 46.140625 10.015625 43.890625 
L 10.015625 52.203125 
Q 14.9375 54.109375 19.578125 55.046875 
Q 24.21875 56 28.609375 56 
Q 40.484375 56 46.34375 49.84375 
Q 52.203125 43.703125 52.203125 31.203125 
z
" id="DejaVuSans-61"/>
       <path d="M 9.421875 75.984375 
L 18.40625 75.984375 
L 18.40625 0 
L 9.421875 0 
z
" id="DejaVuSans-6c"/>
      </defs>
      <g style="fill:#555555;" transform="translate(8.741571 509.034049)scale(0.14994 -0.14994)">
       <use xlink:href="#DejaVuSans-56"/>
       <use x="68.376953" xlink:href="#DejaVuSans-69"/>
       <use x="96.160156" xlink:href="#DejaVuSans-72"/>
       <use x="137.273438" xlink:href="#DejaVuSans-5f"/>
       <use x="187.273438" xlink:href="#DejaVuSans-4e"/>
       <use x="262.078125" xlink:href="#DejaVuSans-31"/>
       <use x="325.701172" xlink:href="#DejaVuSans-5f"/>
       <use x="375.701172" xlink:href="#DejaVuSans-33"/>
       <use x="439.324219" xlink:href="#DejaVuSans-32"/>
       <use x="502.947266" xlink:href="#DejaVuSans-5f"/>
       <use x="552.947266" xlink:href="#DejaVuSans-4f"/>
       <use x="631.658203" xlink:href="#DejaVuSans-6e"/>
       <use x="695.037109" xlink:href="#DejaVuSans-74"/>
       <use x="734.246094" xlink:href="#DejaVuSans-5f"/>
       <use x="784.246094" xlink:href="#DejaVuSans-4f"/>
       <use x="862.957031" xlink:href="#DejaVuSans-70"/>
       <use x="926.433594" xlink:href="#DejaVuSans-74"/>
       <use x="965.642578" xlink:href="#DejaVuSans-5f"/>
       <use x="1015.642578" xlink:href="#DejaVuSans-56"/>
       <use x="1084.050781" xlink:href="#DejaVuSans-57"/>
       <use x="1182.833984" xlink:href="#DejaVuSans-61"/>
       <use x="1244.113281" xlink:href="#DejaVuSans-6c"/>
       <use x="1271.896484" xlink:href="#DejaVuSans-6c"/>
      </g>
     </g>
    </g>
    <g id="ytick_3">
     <g id="line2d_11">
      <g>
       <use style="fill:#555555;stroke:#555555;stroke-width:0.8;" x="210.616714" xlink:href="#m8261021845" y="469.3625"/>
      </g>
     </g>
     <g id="text_11">
      <!-- Vir_N1_64_Ont_Opt -->
      <g style="fill:#555555;" transform="translate(58.826216 475.059049)scale(0.14994 -0.14994)">
       <use xlink:href="#DejaVuSans-56"/>
       <use x="68.376953" xlink:href="#DejaVuSans-69"/>
       <use x="96.160156" xlink:href="#DejaVuSans-72"/>
       <use x="137.273438" xlink:href="#DejaVuSans-5f"/>
       <use x="187.273438" xlink:href="#DejaVuSans-4e"/>
       <use x="262.078125" xlink:href="#DejaVuSans-31"/>
       <use x="325.701172" xlink:href="#DejaVuSans-5f"/>
       <use x="375.701172" xlink:href="#DejaVuSans-36"/>
       <use x="439.324219" xlink:href="#DejaVuSans-34"/>
       <use x="502.947266" xlink:href="#DejaVuSans-5f"/>
       <use x="552.947266" xlink:href="#DejaVuSans-4f"/>
       <use x="631.658203" xlink:href="#DejaVuSans-6e"/>
       <use x="695.037109" xlink:href="#DejaVuSans-74"/>
       <use x="734.246094" xlink:href="#DejaVuSans-5f"/>
       <use x="784.246094" xlink:href="#DejaVuSans-4f"/>
       <use x="862.957031" xlink:href="#DejaVuSans-70"/>
       <use x="926.433594" xlink:href="#DejaVuSans-74"/>
      </g>
     </g>
    </g>
    <g id="ytick_4">
     <g id="line2d_12">
      <g>
       <use style="fill:#555555;stroke:#555555;stroke-width:0.8;" x="210.616714" xlink:href="#m8261021845" y="435.3875"/>
      </g>
     </g>
     <g id="text_12">
      <!-- Vir_N1_64_Ont_Opt_VWall -->
      <g style="fill:#555555;" transform="translate(8.741571 441.084049)scale(0.14994 -0.14994)">
       <use xlink:href="#DejaVuSans-56"/>
       <use x="68.376953" xlink:href="#DejaVuSans-69"/>
       <use x="96.160156" xlink:href="#DejaVuSans-72"/>
       <use x="137.273438" xlink:href="#DejaVuSans-5f"/>
       <use x="187.273438" xlink:href="#DejaVuSans-4e"/>
       <use x="262.078125" xlink:href="#DejaVuSans-31"/>
       <use x="325.701172" xlink:href="#DejaVuSans-5f"/>
       <use x="375.701172" xlink:href="#DejaVuSans-36"/>
       <use x="439.324219" xlink:href="#DejaVuSans-34"/>
       <use x="502.947266" xlink:href="#DejaVuSans-5f"/>
       <use x="552.947266" xlink:href="#DejaVuSans-4f"/>
       <use x="631.658203" xlink:href="#DejaVuSans-6e"/>
       <use x="695.037109" xlink:href="#DejaVuSans-74"/>
       <use x="734.246094" xlink:href="#DejaVuSans-5f"/>
       <use x="784.246094" xlink:href="#DejaVuSans-4f"/>
       <use x="862.957031" xlink:href="#DejaVuSans-70"/>
       <use x="926.433594" xlink:href="#DejaVuSans-74"/>
       <use x="965.642578" xlink:href="#DejaVuSans-5f"/>
       <use x="1015.642578" xlink:href="#DejaVuSans-56"/>
       <use x="1084.050781" xlink:href="#DejaVuSans-57"/>
       <use x="1182.833984" xlink:href="#DejaVuSans-61"/>
       <use x="1244.113281" xlink:href="#DejaVuSans-6c"/>
       <use x="1271.896484" xlink:href="#DejaVuSans-6c"/>
      </g>
     </g>
    </g>
    <g id="ytick_5">
     <g id="line2d_13">
      <g>
       <use style="fill:#555555;stroke:#555555;stroke-width:0.8;" x="210.616714" xlink:href="#m8261021845" y="401.4125"/>
      </g>
     </g>
     <g id="text_13">
      <!-- Vir_N3_64_Ont_Opt_0 -->
      <g style="fill:#555555;" transform="translate(41.789284 407.109049)scale(0.14994 -0.14994)">
       <use xlink:href="#DejaVuSans-56"/>
       <use x="68.376953" xlink:href="#DejaVuSans-69"/>
       <use x="96.160156" xlink:href="#DejaVuSans-72"/>
       <use x="137.273438" xlink:href="#DejaVuSans-5f"/>
       <use x="187.273438" xlink:href="#DejaVuSans-4e"/>
       <use x="262.078125" xlink:href="#DejaVuSans-33"/>
       <use x="325.701172" xlink:href="#DejaVuSans-5f"/>
       <use x="375.701172" xlink:href="#DejaVuSans-36"/>
       <use x="439.324219" xlink:href="#DejaVuSans-34"/>
       <use x="502.947266" xlink:href="#DejaVuSans-5f"/>
       <use x="552.947266" xlink:href="#DejaVuSans-4f"/>
       <use x="631.658203" xlink:href="#DejaVuSans-6e"/>
       <use x="695.037109" xlink:href="#DejaVuSans-74"/>
       <use x="734.246094" xlink:href="#DejaVuSans-5f"/>
       <use x="784.246094" xlink:href="#DejaVuSans-4f"/>
       <use x="862.957031" xlink:href="#DejaVuSans-70"/>
       <use x="926.433594" xlink:href="#DejaVuSans-74"/>
       <use x="965.642578" xlink:href="#DejaVuSans-5f"/>
       <use x="1015.642578" xlink:href="#DejaVuSans-30"/>
      </g>
     </g>
    </g>
    <g id="ytick_6">
     <g id="line2d_14">
      <g>
       <use style="fill:#555555;stroke:#555555;stroke-width:0.8;" x="210.616714" xlink:href="#m8261021845" y="367.4375"/>
      </g>
     </g>
     <g id="text_14">
      <!-- Vir_N3_64_Ont_Opt_1 -->
      <g style="fill:#555555;" transform="translate(41.789284 373.134049)scale(0.14994 -0.14994)">
       <use xlink:href="#DejaVuSans-56"/>
       <use x="68.376953" xlink:href="#DejaVuSans-69"/>
       <use x="96.160156" xlink:href="#DejaVuSans-72"/>
       <use x="137.273438" xlink:href="#DejaVuSans-5f"/>
       <use x="187.273438" xlink:href="#DejaVuSans-4e"/>
       <use x="262.078125" xlink:href="#DejaVuSans-33"/>
       <use x="325.701172" xlink:href="#DejaVuSans-5f"/>
       <use x="375.701172" xlink:href="#DejaVuSans-36"/>
       <use x="439.324219" xlink:href="#DejaVuSans-34"/>
       <use x="502.947266" xlink:href="#DejaVuSans-5f"/>
       <use x="552.947266" xlink:href="#DejaVuSans-4f"/>
       <use x="631.658203" xlink:href="#DejaVuSans-6e"/>
       <use x="695.037109" xlink:href="#DejaVuSans-74"/>
       <use x="734.246094" xlink:href="#DejaVuSans-5f"/>
       <use x="784.246094" xlink:href="#DejaVuSans-4f"/>
       <use x="862.957031" xlink:href="#DejaVuSans-70"/>
       <use x="926.433594" xlink:href="#DejaVuSans-74"/>
       <use x="965.642578" xlink:href="#DejaVuSans-5f"/>
       <use x="1015.642578" xlink:href="#DejaVuSans-31"/>
      </g>
     </g>
    </g>
    <g id="ytick_7">
     <g id="line2d_15">
      <g>
       <use style="fill:#555555;stroke:#555555;stroke-width:0.8;" x="210.616714" xlink:href="#m8261021845" y="333.4625"/>
      </g>
     </g>
     <g id="text_15">
      <!-- Vir_N3_64_Ont_Opt_2 -->
      <g style="fill:#555555;" transform="translate(41.789284 339.159049)scale(0.14994 -0.14994)">
       <use xlink:href="#DejaVuSans-56"/>
       <use x="68.376953" xlink:href="#DejaVuSans-69"/>
       <use x="96.160156" xlink:href="#DejaVuSans-72"/>
       <use x="137.273438" xlink:href="#DejaVuSans-5f"/>
       <use x="187.273438" xlink:href="#DejaVuSans-4e"/>
       <use x="262.078125" xlink:href="#DejaVuSans-33"/>
       <use x="325.701172" xlink:href="#DejaVuSans-5f"/>
       <use x="375.701172" xlink:href="#DejaVuSans-36"/>
       <use x="439.324219" xlink:href="#DejaVuSans-34"/>
       <use x="502.947266" xlink:href="#DejaVuSans-5f"/>
       <use x="552.947266" xlink:href="#DejaVuSans-4f"/>
       <use x="631.658203" xlink:href="#DejaVuSans-6e"/>
       <use x="695.037109" xlink:href="#DejaVuSans-74"/>
       <use x="734.246094" xlink:href="#DejaVuSans-5f"/>
       <use x="784.246094" xlink:href="#DejaVuSans-4f"/>
       <use x="862.957031" xlink:href="#DejaVuSans-70"/>
       <use x="926.433594" xlink:href="#DejaVuSans-74"/>
       <use x="965.642578" xlink:href="#DejaVuSans-5f"/>
       <use x="1015.642578" xlink:href="#DejaVuSans-32"/>
      </g>
     </g>
    </g>
    <g id="ytick_8">
     <g id="line2d_16">
      <g>
       <use style="fill:#555555;stroke:#555555;stroke-width:0.8;" x="210.616714" xlink:href="#m8261021845" y="299.4875"/>
      </g>
     </g>
     <g id="text_16">
      <!-- Vir_N3_64_Ont_Opt_AWS1 -->
      <defs>
       <path d="M 34.1875 63.1875 
L 20.796875 26.90625 
L 47.609375 26.90625 
z
M 28.609375 72.90625 
L 39.796875 72.90625 
L 67.578125 0 
L 57.328125 0 
L 50.6875 18.703125 
L 17.828125 18.703125 
L 11.1875 0 
L 0.78125 0 
z
" id="DejaVuSans-41"/>
       <path d="M 53.515625 70.515625 
L 53.515625 60.890625 
Q 47.90625 63.578125 42.921875 64.890625 
Q 37.9375 66.21875 33.296875 66.21875 
Q 25.25 66.21875 20.875 63.09375 
Q 16.5 59.96875 16.5 54.203125 
Q 16.5 49.359375 19.40625 46.890625 
Q 22.3125 44.4375 30.421875 42.921875 
L 36.375 41.703125 
Q 47.40625 39.59375 52.65625 34.296875 
Q 57.90625 29 57.90625 20.125 
Q 57.90625 9.515625 50.796875 4.046875 
Q 43.703125 -1.421875 29.984375 -1.421875 
Q 24.8125 -1.421875 18.96875 -0.25 
Q 13.140625 0.921875 6.890625 3.21875 
L 6.890625 13.375 
Q 12.890625 10.015625 18.65625 8.296875 
Q 24.421875 6.59375 29.984375 6.59375 
Q 38.421875 6.59375 43.015625 9.90625 
Q 47.609375 13.234375 47.609375 19.390625 
Q 47.609375 24.75 44.3125 27.78125 
Q 41.015625 30.8125 33.5 32.328125 
L 27.484375 33.5 
Q 16.453125 35.6875 11.515625 40.375 
Q 6.59375 45.0625 6.59375 53.421875 
Q 6.59375 63.09375 13.40625 68.65625 
Q 20.21875 74.21875 32.171875 74.21875 
Q 37.3125 74.21875 42.625 73.28125 
Q 47.953125 72.359375 53.515625 70.515625 
z
" id="DejaVuSans-53"/>
      </defs>
      <g style="fill:#555555;" transform="translate(7.2 305.184049)scale(0.14994 -0.14994)">
       <use xlink:href="#DejaVuSans-56"/>
       <use x="68.376953" xlink:href="#DejaVuSans-69"/>
       <use x="96.160156" xlink:href="#DejaVuSans-72"/>
       <use x="137.273438" xlink:href="#DejaVuSans-5f"/>
       <use x="187.273438" xlink:href="#DejaVuSans-4e"/>
       <use x="262.078125" xlink:href="#DejaVuSans-33"/>
       <use x="325.701172" xlink:href="#DejaVuSans-5f"/>
       <use x="375.701172" xlink:href="#DejaVuSans-36"/>
       <use x="439.324219" xlink:href="#DejaVuSans-34"/>
       <use x="502.947266" xlink:href="#DejaVuSans-5f"/>
       <use x="552.947266" xlink:href="#DejaVuSans-4f"/>
       <use x="631.658203" xlink:href="#DejaVuSans-6e"/>
       <use x="695.037109" xlink:href="#DejaVuSans-74"/>
       <use x="734.246094" xlink:href="#DejaVuSans-5f"/>
       <use x="784.246094" xlink:href="#DejaVuSans-4f"/>
       <use x="862.957031" xlink:href="#DejaVuSans-70"/>
       <use x="926.433594" xlink:href="#DejaVuSans-74"/>
       <use x="965.642578" xlink:href="#DejaVuSans-5f"/>
       <use x="1015.642578" xlink:href="#DejaVuSans-41"/>
       <use x="1083.972656" xlink:href="#DejaVuSans-57"/>
       <use x="1182.849609" xlink:href="#DejaVuSans-53"/>
       <use x="1246.326172" xlink:href="#DejaVuSans-31"/>
      </g>
     </g>
    </g>
    <g id="ytick_9">
     <g id="line2d_17">
      <g>
       <use style="fill:#555555;stroke:#555555;stroke-width:0.8;" x="210.616714" xlink:href="#m8261021845" y="265.5125"/>
      </g>
     </g>
     <g id="text_17">
      <!-- Vir_N3_64_Ont_Opt_AWS2 -->
      <g style="fill:#555555;" transform="translate(7.2 271.209049)scale(0.14994 -0.14994)">
       <use xlink:href="#DejaVuSans-56"/>
       <use x="68.376953" xlink:href="#DejaVuSans-69"/>
       <use x="96.160156" xlink:href="#DejaVuSans-72"/>
       <use x="137.273438" xlink:href="#DejaVuSans-5f"/>
       <use x="187.273438" xlink:href="#DejaVuSans-4e"/>
       <use x="262.078125" xlink:href="#DejaVuSans-33"/>
       <use x="325.701172" xlink:href="#DejaVuSans-5f"/>
       <use x="375.701172" xlink:href="#DejaVuSans-36"/>
       <use x="439.324219" xlink:href="#DejaVuSans-34"/>
       <use x="502.947266" xlink:href="#DejaVuSans-5f"/>
       <use x="552.947266" xlink:href="#DejaVuSans-4f"/>
       <use x="631.658203" xlink:href="#DejaVuSans-6e"/>
       <use x="695.037109" xlink:href="#DejaVuSans-74"/>
       <use x="734.246094" xlink:href="#DejaVuSans-5f"/>
       <use x="784.246094" xlink:href="#DejaVuSans-4f"/>
       <use x="862.957031" xlink:href="#DejaVuSans-70"/>
       <use x="926.433594" xlink:href="#DejaVuSans-74"/>
       <use x="965.642578" xlink:href="#DejaVuSans-5f"/>
       <use x="1015.642578" xlink:href="#DejaVuSans-41"/>
       <use x="1083.972656" xlink:href="#DejaVuSans-57"/>
       <use x="1182.849609" xlink:href="#DejaVuSans-53"/>
       <use x="1246.326172" xlink:href="#DejaVuSans-32"/>
      </g>
     </g>
    </g>
    <g id="ytick_10">
     <g id="line2d_18">
      <g>
       <use style="fill:#555555;stroke:#555555;stroke-width:0.8;" x="210.616714" xlink:href="#m8261021845" y="231.5375"/>
      </g>
     </g>
     <g id="text_18">
      <!-- Vir_N3_64_Ont_Opt_AWS3 -->
      <g style="fill:#555555;" transform="translate(7.2 237.234049)scale(0.14994 -0.14994)">
       <use xlink:href="#DejaVuSans-56"/>
       <use x="68.376953" xlink:href="#DejaVuSans-69"/>
       <use x="96.160156" xlink:href="#DejaVuSans-72"/>
       <use x="137.273438" xlink:href="#DejaVuSans-5f"/>
       <use x="187.273438" xlink:href="#DejaVuSans-4e"/>
       <use x="262.078125" xlink:href="#DejaVuSans-33"/>
       <use x="325.701172" xlink:href="#DejaVuSans-5f"/>
       <use x="375.701172" xlink:href="#DejaVuSans-36"/>
       <use x="439.324219" xlink:href="#DejaVuSans-34"/>
       <use x="502.947266" xlink:href="#DejaVuSans-5f"/>
       <use x="552.947266" xlink:href="#DejaVuSans-4f"/>
       <use x="631.658203" xlink:href="#DejaVuSans-6e"/>
       <use x="695.037109" xlink:href="#DejaVuSans-74"/>
       <use x="734.246094" xlink:href="#DejaVuSans-5f"/>
       <use x="784.246094" xlink:href="#DejaVuSans-4f"/>
       <use x="862.957031" xlink:href="#DejaVuSans-70"/>
       <use x="926.433594" xlink:href="#DejaVuSans-74"/>
       <use x="965.642578" xlink:href="#DejaVuSans-5f"/>
       <use x="1015.642578" xlink:href="#DejaVuSans-41"/>
       <use x="1083.972656" xlink:href="#DejaVuSans-57"/>
       <use x="1182.849609" xlink:href="#DejaVuSans-53"/>
       <use x="1246.326172" xlink:href="#DejaVuSans-33"/>
      </g>
     </g>
    </g>
    <g id="ytick_11">
     <g id="line2d_19">
      <g>
       <use style="fill:#555555;stroke:#555555;stroke-width:0.8;" x="210.616714" xlink:href="#m8261021845" y="197.5625"/>
      </g>
     </g>
     <g id="text_19">
      <!-- Fus_N1_64_Ont_Def -->
      <defs>
       <path d="M 9.8125 72.90625 
L 51.703125 72.90625 
L 51.703125 64.59375 
L 19.671875 64.59375 
L 19.671875 43.109375 
L 48.578125 43.109375 
L 48.578125 34.8125 
L 19.671875 34.8125 
L 19.671875 0 
L 9.8125 0 
z
" id="DejaVuSans-46"/>
       <path d="M 8.5 21.578125 
L 8.5 54.6875 
L 17.484375 54.6875 
L 17.484375 21.921875 
Q 17.484375 14.15625 20.5 10.265625 
Q 23.53125 6.390625 29.59375 6.390625 
Q 36.859375 6.390625 41.078125 11.03125 
Q 45.3125 15.671875 45.3125 23.6875 
L 45.3125 54.6875 
L 54.296875 54.6875 
L 54.296875 0 
L 45.3125 0 
L 45.3125 8.40625 
Q 42.046875 3.421875 37.71875 1 
Q 33.40625 -1.421875 27.6875 -1.421875 
Q 18.265625 -1.421875 13.375 4.4375 
Q 8.5 10.296875 8.5 21.578125 
z
M 31.109375 56 
z
" id="DejaVuSans-75"/>
       <path d="M 44.28125 53.078125 
L 44.28125 44.578125 
Q 40.484375 46.53125 36.375 47.5 
Q 32.28125 48.484375 27.875 48.484375 
Q 21.1875 48.484375 17.84375 46.4375 
Q 14.5 44.390625 14.5 40.28125 
Q 14.5 37.15625 16.890625 35.375 
Q 19.28125 33.59375 26.515625 31.984375 
L 29.59375 31.296875 
Q 39.15625 29.25 43.1875 25.515625 
Q 47.21875 21.78125 47.21875 15.09375 
Q 47.21875 7.46875 41.1875 3.015625 
Q 35.15625 -1.421875 24.609375 -1.421875 
Q 20.21875 -1.421875 15.453125 -0.5625 
Q 10.6875 0.296875 5.421875 2 
L 5.421875 11.28125 
Q 10.40625 8.6875 15.234375 7.390625 
Q 20.0625 6.109375 24.8125 6.109375 
Q 31.15625 6.109375 34.5625 8.28125 
Q 37.984375 10.453125 37.984375 14.40625 
Q 37.984375 18.0625 35.515625 20.015625 
Q 33.0625 21.96875 24.703125 23.78125 
L 21.578125 24.515625 
Q 13.234375 26.265625 9.515625 29.90625 
Q 5.8125 33.546875 5.8125 39.890625 
Q 5.8125 47.609375 11.28125 51.796875 
Q 16.75 56 26.8125 56 
Q 31.78125 56 36.171875 55.265625 
Q 40.578125 54.546875 44.28125 53.078125 
z
" id="DejaVuSans-73"/>
       <path d="M 19.671875 64.796875 
L 19.671875 8.109375 
L 31.59375 8.109375 
Q 46.6875 8.109375 53.6875 14.9375 
Q 60.6875 21.78125 60.6875 36.53125 
Q 60.6875 51.171875 53.6875 57.984375 
Q 46.6875 64.796875 31.59375 64.796875 
z
M 9.8125 72.90625 
L 30.078125 72.90625 
Q 51.265625 72.90625 61.171875 64.09375 
Q 71.09375 55.28125 71.09375 36.53125 
Q 71.09375 17.671875 61.125 8.828125 
Q 51.171875 0 30.078125 0 
L 9.8125 0 
z
" id="DejaVuSans-44"/>
       <path d="M 56.203125 29.59375 
L 56.203125 25.203125 
L 14.890625 25.203125 
Q 15.484375 15.921875 20.484375 11.0625 
Q 25.484375 6.203125 34.421875 6.203125 
Q 39.59375 6.203125 44.453125 7.46875 
Q 49.3125 8.734375 54.109375 11.28125 
L 54.109375 2.78125 
Q 49.265625 0.734375 44.1875 -0.34375 
Q 39.109375 -1.421875 33.890625 -1.421875 
Q 20.796875 -1.421875 13.15625 6.1875 
Q 5.515625 13.8125 5.515625 26.8125 
Q 5.515625 40.234375 12.765625 48.109375 
Q 20.015625 56 32.328125 56 
Q 43.359375 56 49.78125 48.890625 
Q 56.203125 41.796875 56.203125 29.59375 
z
M 47.21875 32.234375 
Q 47.125 39.59375 43.09375 43.984375 
Q 39.0625 48.390625 32.421875 48.390625 
Q 24.90625 48.390625 20.390625 44.140625 
Q 15.875 39.890625 15.1875 32.171875 
z
" id="DejaVuSans-65"/>
       <path d="M 37.109375 75.984375 
L 37.109375 68.5 
L 28.515625 68.5 
Q 23.6875 68.5 21.796875 66.546875 
Q 19.921875 64.59375 19.921875 59.515625 
L 19.921875 54.6875 
L 34.71875 54.6875 
L 34.71875 47.703125 
L 19.921875 47.703125 
L 19.921875 0 
L 10.890625 0 
L 10.890625 47.703125 
L 2.296875 47.703125 
L 2.296875 54.6875 
L 10.890625 54.6875 
L 10.890625 58.5 
Q 10.890625 67.625 15.140625 71.796875 
Q 19.390625 75.984375 28.609375 75.984375 
z
" id="DejaVuSans-66"/>
      </defs>
      <g style="fill:#555555;" transform="translate(54.632582 203.259049)scale(0.14994 -0.14994)">
       <use xlink:href="#DejaVuSans-46"/>
       <use x="57.441406" xlink:href="#DejaVuSans-75"/>
       <use x="120.820312" xlink:href="#DejaVuSans-73"/>
       <use x="172.919922" xlink:href="#DejaVuSans-5f"/>
       <use x="222.919922" xlink:href="#DejaVuSans-4e"/>
       <use x="297.724609" xlink:href="#DejaVuSans-31"/>
       <use x="361.347656" xlink:href="#DejaVuSans-5f"/>
       <use x="411.347656" xlink:href="#DejaVuSans-36"/>
       <use x="474.970703" xlink:href="#DejaVuSans-34"/>
       <use x="538.59375" xlink:href="#DejaVuSans-5f"/>
       <use x="588.59375" xlink:href="#DejaVuSans-4f"/>
       <use x="667.304688" xlink:href="#DejaVuSans-6e"/>
       <use x="730.683594" xlink:href="#DejaVuSans-74"/>
       <use x="769.892578" xlink:href="#DejaVuSans-5f"/>
       <use x="819.892578" xlink:href="#DejaVuSans-44"/>
       <use x="896.894531" xlink:href="#DejaVuSans-65"/>
       <use x="958.417969" xlink:href="#DejaVuSans-66"/>
      </g>
     </g>
    </g>
    <g id="ytick_12">
     <g id="line2d_20">
      <g>
       <use style="fill:#555555;stroke:#555555;stroke-width:0.8;" x="210.616714" xlink:href="#m8261021845" y="163.5875"/>
      </g>
     </g>
     <g id="text_20">
      <!-- Flu_N1_64_Ont_Def_1 -->
      <g style="fill:#555555;" transform="translate(41.229352 169.284049)scale(0.14994 -0.14994)">
       <use xlink:href="#DejaVuSans-46"/>
       <use x="57.519531" xlink:href="#DejaVuSans-6c"/>
       <use x="85.302734" xlink:href="#DejaVuSans-75"/>
       <use x="148.681641" xlink:href="#DejaVuSans-5f"/>
       <use x="198.681641" xlink:href="#DejaVuSans-4e"/>
       <use x="273.486328" xlink:href="#DejaVuSans-31"/>
       <use x="337.109375" xlink:href="#DejaVuSans-5f"/>
       <use x="387.109375" xlink:href="#DejaVuSans-36"/>
       <use x="450.732422" xlink:href="#DejaVuSans-34"/>
       <use x="514.355469" xlink:href="#DejaVuSans-5f"/>
       <use x="564.355469" xlink:href="#DejaVuSans-4f"/>
       <use x="643.066406" xlink:href="#DejaVuSans-6e"/>
       <use x="706.445312" xlink:href="#DejaVuSans-74"/>
       <use x="745.654297" xlink:href="#DejaVuSans-5f"/>
       <use x="795.654297" xlink:href="#DejaVuSans-44"/>
       <use x="872.65625" xlink:href="#DejaVuSans-65"/>
       <use x="934.179688" xlink:href="#DejaVuSans-66"/>
       <use x="969.384766" xlink:href="#DejaVuSans-5f"/>
       <use x="1019.384766" xlink:href="#DejaVuSans-31"/>
      </g>
     </g>
    </g>
    <g id="ytick_13">
     <g id="line2d_21">
      <g>
       <use style="fill:#555555;stroke:#555555;stroke-width:0.8;" x="210.616714" xlink:href="#m8261021845" y="129.6125"/>
      </g>
     </g>
     <g id="text_21">
      <!-- Flu_N1_64_Ont_Def_2 -->
      <g style="fill:#555555;" transform="translate(41.229352 135.309049)scale(0.14994 -0.14994)">
       <use xlink:href="#DejaVuSans-46"/>
       <use x="57.519531" xlink:href="#DejaVuSans-6c"/>
       <use x="85.302734" xlink:href="#DejaVuSans-75"/>
       <use x="148.681641" xlink:href="#DejaVuSans-5f"/>
       <use x="198.681641" xlink:href="#DejaVuSans-4e"/>
       <use x="273.486328" xlink:href="#DejaVuSans-31"/>
       <use x="337.109375" xlink:href="#DejaVuSans-5f"/>
       <use x="387.109375" xlink:href="#DejaVuSans-36"/>
       <use x="450.732422" xlink:href="#DejaVuSans-34"/>
       <use x="514.355469" xlink:href="#DejaVuSans-5f"/>
       <use x="564.355469" xlink:href="#DejaVuSans-4f"/>
       <use x="643.066406" xlink:href="#DejaVuSans-6e"/>
       <use x="706.445312" xlink:href="#DejaVuSans-74"/>
       <use x="745.654297" xlink:href="#DejaVuSans-5f"/>
       <use x="795.654297" xlink:href="#DejaVuSans-44"/>
       <use x="872.65625" xlink:href="#DejaVuSans-65"/>
       <use x="934.179688" xlink:href="#DejaVuSans-66"/>
       <use x="969.384766" xlink:href="#DejaVuSans-5f"/>
       <use x="1019.384766" xlink:href="#DejaVuSans-32"/>
      </g>
     </g>
    </g>
    <g id="ytick_14">
     <g id="line2d_22">
      <g>
       <use style="fill:#555555;stroke:#555555;stroke-width:0.8;" x="210.616714" xlink:href="#m8261021845" y="95.6375"/>
      </g>
     </g>
     <g id="text_22">
      <!-- Flu_N1_64_Ont_Def_3 -->
      <g style="fill:#555555;" transform="translate(41.229352 101.334049)scale(0.14994 -0.14994)">
       <use xlink:href="#DejaVuSans-46"/>
       <use x="57.519531" xlink:href="#DejaVuSans-6c"/>
       <use x="85.302734" xlink:href="#DejaVuSans-75"/>
       <use x="148.681641" xlink:href="#DejaVuSans-5f"/>
       <use x="198.681641" xlink:href="#DejaVuSans-4e"/>
       <use x="273.486328" xlink:href="#DejaVuSans-31"/>
       <use x="337.109375" xlink:href="#DejaVuSans-5f"/>
       <use x="387.109375" xlink:href="#DejaVuSans-36"/>
       <use x="450.732422" xlink:href="#DejaVuSans-34"/>
       <use x="514.355469" xlink:href="#DejaVuSans-5f"/>
       <use x="564.355469" xlink:href="#DejaVuSans-4f"/>
       <use x="643.066406" xlink:href="#DejaVuSans-6e"/>
       <use x="706.445312" xlink:href="#DejaVuSans-74"/>
       <use x="745.654297" xlink:href="#DejaVuSans-5f"/>
       <use x="795.654297" xlink:href="#DejaVuSans-44"/>
       <use x="872.65625" xlink:href="#DejaVuSans-65"/>
       <use x="934.179688" xlink:href="#DejaVuSans-66"/>
       <use x="969.384766" xlink:href="#DejaVuSans-5f"/>
       <use x="1019.384766" xlink:href="#DejaVuSans-33"/>
      </g>
     </g>
    </g>
    <g id="ytick_15">
     <g id="line2d_23">
      <g>
       <use style="fill:#555555;stroke:#555555;stroke-width:0.8;" x="210.616714" xlink:href="#m8261021845" y="61.6625"/>
      </g>
     </g>
     <g id="text_23">
      <!-- Flu_N3_64_Ont_Def_1 -->
      <g style="fill:#555555;" transform="translate(41.229352 67.359049)scale(0.14994 -0.14994)">
       <use xlink:href="#DejaVuSans-46"/>
       <use x="57.519531" xlink:href="#DejaVuSans-6c"/>
       <use x="85.302734" xlink:href="#DejaVuSans-75"/>
       <use x="148.681641" xlink:href="#DejaVuSans-5f"/>
       <use x="198.681641" xlink:href="#DejaVuSans-4e"/>
       <use x="273.486328" xlink:href="#DejaVuSans-33"/>
       <use x="337.109375" xlink:href="#DejaVuSans-5f"/>
       <use x="387.109375" xlink:href="#DejaVuSans-36"/>
       <use x="450.732422" xlink:href="#DejaVuSans-34"/>
       <use x="514.355469" xlink:href="#DejaVuSans-5f"/>
       <use x="564.355469" xlink:href="#DejaVuSans-4f"/>
       <use x="643.066406" xlink:href="#DejaVuSans-6e"/>
       <use x="706.445312" xlink:href="#DejaVuSans-74"/>
       <use x="745.654297" xlink:href="#DejaVuSans-5f"/>
       <use x="795.654297" xlink:href="#DejaVuSans-44"/>
       <use x="872.65625" xlink:href="#DejaVuSans-65"/>
       <use x="934.179688" xlink:href="#DejaVuSans-66"/>
       <use x="969.384766" xlink:href="#DejaVuSans-5f"/>
       <use x="1019.384766" xlink:href="#DejaVuSans-31"/>
      </g>
     </g>
    </g>
    <g id="ytick_16">
     <g id="line2d_24">
      <g>
       <use style="fill:#555555;stroke:#555555;stroke-width:0.8;" x="210.616714" xlink:href="#m8261021845" y="27.6875"/>
      </g>
     </g>
     <g id="text_24">
      <!-- Flu_N3_64_Ont_Def_2 -->
      <g style="fill:#555555;" transform="translate(41.229352 33.384049)scale(0.14994 -0.14994)">
       <use xlink:href="#DejaVuSans-46"/>
       <use x="57.519531" xlink:href="#DejaVuSans-6c"/>
       <use x="85.302734" xlink:href="#DejaVuSans-75"/>
       <use x="148.681641" xlink:href="#DejaVuSans-5f"/>
       <use x="198.681641" xlink:href="#DejaVuSans-4e"/>
       <use x="273.486328" xlink:href="#DejaVuSans-33"/>
       <use x="337.109375" xlink:href="#DejaVuSans-5f"/>
       <use x="387.109375" xlink:href="#DejaVuSans-36"/>
       <use x="450.732422" xlink:href="#DejaVuSans-34"/>
       <use x="514.355469" xlink:href="#DejaVuSans-5f"/>
       <use x="564.355469" xlink:href="#DejaVuSans-4f"/>
       <use x="643.066406" xlink:href="#DejaVuSans-6e"/>
       <use x="706.445312" xlink:href="#DejaVuSans-74"/>
       <use x="745.654297" xlink:href="#DejaVuSans-5f"/>
       <use x="795.654297" xlink:href="#DejaVuSans-44"/>
       <use x="872.65625" xlink:href="#DejaVuSans-65"/>
       <use x="934.179688" xlink:href="#DejaVuSans-66"/>
       <use x="969.384766" xlink:href="#DejaVuSans-5f"/>
       <use x="1019.384766" xlink:href="#DejaVuSans-32"/>
      </g>
     </g>
    </g>
   </g>
   <g id="patch_3">
    <path clip-path="url(#p51caa3549a)" d="M 210.616714 545.80625 
L 1273.473857 545.80625 
L 1273.473857 528.81875 
L 210.616714 528.81875 
z
" style="fill:#e24a33;"/>
   </g>
   <g id="patch_4">
    <path clip-path="url(#p51caa3549a)" d="M 210.616714 511.83125 
L 1273.473857 511.83125 
L 1273.473857 494.84375 
L 210.616714 494.84375 
z
" style="fill:#e24a33;"/>
   </g>
   <g id="patch_5">
    <path clip-path="url(#p51caa3549a)" d="M 210.616714 477.85625 
L 1273.473857 477.85625 
L 1273.473857 460.86875 
L 210.616714 460.86875 
z
" style="fill:#e24a33;"/>
   </g>
   <g id="patch_6">
    <path clip-path="url(#p51caa3549a)" d="M 210.616714 443.88125 
L 1273.473857 443.88125 
L 1273.473857 426.89375 
L 210.616714 426.89375 
z
" style="fill:#e24a33;"/>
   </g>
   <g id="patch_7">
    <path clip-path="url(#p51caa3549a)" d="M 210.616714 409.90625 
L 835.324108 409.90625 
L 835.324108 392.91875 
L 210.616714 392.91875 
z
" style="fill:#e24a33;"/>
   </g>
   <g id="patch_8">
    <path clip-path="url(#p51caa3549a)" d="M 210.616714 375.93125 
L 236.543592 375.93125 
L 236.543592 358.94375 
L 210.616714 358.94375 
z
" style="fill:#e24a33;"/>
   </g>
   <g id="patch_9">
    <path clip-path="url(#p51caa3549a)" d="M 210.616714 341.95625 
L 1273.473857 341.95625 
L 1273.473857 324.96875 
L 210.616714 324.96875 
z
" style="fill:#e24a33;"/>
   </g>
   <g id="patch_10">
    <path clip-path="url(#p51caa3549a)" d="M 210.616714 307.98125 
L 227.41849 307.98125 
L 227.41849 290.99375 
L 210.616714 290.99375 
z
" style="fill:#e24a33;"/>
   </g>
   <g id="patch_11">
    <path clip-path="url(#p51caa3549a)" d="M 210.616714 274.00625 
L 243.061522 274.00625 
L 243.061522 257.01875 
L 210.616714 257.01875 
z
" style="fill:#e24a33;"/>
   </g>
   <g id="patch_12">
    <path clip-path="url(#p51caa3549a)" d="M 210.616714 240.03125 
L 243.640894 240.03125 
L 243.640894 223.04375 
L 210.616714 223.04375 
z
" style="fill:#e24a33;"/>
   </g>
   <g id="patch_13">
    <path clip-path="url(#p51caa3549a)" d="M 210.616714 206.05625 
L 338.657831 206.05625 
L 338.657831 189.06875 
L 210.616714 189.06875 
z
" style="fill:#e24a33;"/>
   </g>
   <g id="patch_14">
    <path clip-path="url(#p51caa3549a)" d="M 210.616714 172.08125 
L 588.946349 172.08125 
L 588.946349 155.09375 
L 210.616714 155.09375 
z
" style="fill:#e24a33;"/>
   </g>
   <g id="patch_15">
    <path clip-path="url(#p51caa3549a)" d="M 210.616714 138.10625 
L 235.819378 138.10625 
L 235.819378 121.11875 
L 210.616714 121.11875 
z
" style="fill:#e24a33;"/>
   </g>
   <g id="patch_16">
    <path clip-path="url(#p51caa3549a)" d="M 210.616714 104.13125 
L 1271.735743 104.13125 
L 1271.735743 87.14375 
L 210.616714 87.14375 
z
" style="fill:#e24a33;"/>
   </g>
   <g id="patch_17">
    <path clip-path="url(#p51caa3549a)" d="M 210.616714 70.15625 
L 212.065143 70.15625 
L 212.065143 53.16875 
L 210.616714 53.16875 
z
" style="fill:#e24a33;"/>
   </g>
   <g id="patch_18">
    <path clip-path="url(#p51caa3549a)" d="M 210.616714 36.18125 
L 211.340929 36.18125 
L 211.340929 19.19375 
L 210.616714 19.19375 
z
" style="fill:#e24a33;"/>
   </g>
   <g id="line2d_25">
    <path clip-path="url(#p51caa3549a)" d="M 387.759572 571.2875 
L 387.759572 -1 
" style="fill:none;stroke:#000000;stroke-dasharray:7.4,3.2;stroke-dashoffset:0;stroke-width:2;"/>
   </g>
   <g id="patch_19">
    <path d="M 210.616714 554.3 
L 210.616714 10.7 
" style="fill:none;stroke:#ffffff;stroke-linecap:square;stroke-linejoin:miter;"/>
   </g>
   <g id="patch_20">
    <path d="M 1326.616714 554.3 
L 1326.616714 10.7 
" style="fill:none;stroke:#ffffff;stroke-linecap:square;stroke-linejoin:miter;"/>
   </g>
   <g id="patch_21">
    <path d="M 210.616714 554.3 
L 1326.616714 554.3 
" style="fill:none;stroke:#ffffff;stroke-linecap:square;stroke-linejoin:miter;"/>
   </g>
   <g id="patch_22">
    <path d="M 210.616714 10.7 
L 1326.616714 10.7 
" style="fill:none;stroke:#ffffff;stroke-linecap:square;stroke-linejoin:miter;"/>
   </g>
   <g id="text_25">
    <!-- Warmup -->
    <defs>
     <path d="M 52 44.1875 
Q 55.375 50.25 60.0625 53.125 
Q 64.75 56 71.09375 56 
Q 79.640625 56 84.28125 50.015625 
Q 88.921875 44.046875 88.921875 33.015625 
L 88.921875 0 
L 79.890625 0 
L 79.890625 32.71875 
Q 79.890625 40.578125 77.09375 44.375 
Q 74.3125 48.1875 68.609375 48.1875 
Q 61.625 48.1875 57.5625 43.546875 
Q 53.515625 38.921875 53.515625 30.90625 
L 53.515625 0 
L 44.484375 0 
L 44.484375 32.71875 
Q 44.484375 40.625 41.703125 44.40625 
Q 38.921875 48.1875 33.109375 48.1875 
Q 26.21875 48.1875 22.15625 43.53125 
Q 18.109375 38.875 18.109375 30.90625 
L 18.109375 0 
L 9.078125 0 
L 9.078125 54.6875 
L 18.109375 54.6875 
L 18.109375 46.1875 
Q 21.1875 51.21875 25.484375 53.609375 
Q 29.78125 56 35.6875 56 
Q 41.65625 56 45.828125 52.96875 
Q 50 49.953125 52 44.1875 
z
" id="DejaVuSans-6d"/>
    </defs>
    <g transform="translate(396.616714 292.6925)scale(0.18 -0.18)">
     <use xlink:href="#DejaVuSans-57"/>
     <use x="98.783203" xlink:href="#DejaVuSans-61"/>
     <use x="160.0625" xlink:href="#DejaVuSans-72"/>
     <use x="201.160156" xlink:href="#DejaVuSans-6d"/>
     <use x="298.572266" xlink:href="#DejaVuSans-75"/>
     <use x="361.951172" xlink:href="#DejaVuSans-70"/>
    </g>
   </g>
  </g>
 </g>
 <defs>
  <clipPath id="p51caa3549a">
   <rect height="543.6" width="1116" x="210.616714" y="10.7"/>
  </clipPath>
 </defs>
</svg>
