<?xml version="1.0" encoding="utf-8" standalone="no"?>
<!DOCTYPE svg PUBLIC "-//W3C//DTD SVG 1.1//EN"
  "http://www.w3.org/Graphics/SVG/1.1/DTD/svg11.dtd">
<!-- Created with matplotlib (http://matplotlib.org/) -->
<svg height="583pt" version="1.1" viewBox="0 0 1167 583" width="1167pt" xmlns="http://www.w3.org/2000/svg" xmlns:xlink="http://www.w3.org/1999/xlink">
 <defs>
  <style type="text/css">
*{stroke-linecap:butt;stroke-linejoin:round;}
  </style>
 </defs>
 <g id="figure_1">
  <g id="patch_1">
   <path d="M 0 583.011381 
L 1167.28944 583.011381 
L 1167.28944 0 
L 0 0 
z
" style="fill:#ffffff;"/>
  </g>
  <g id="axes_1">
   <g id="patch_2">
    <path d="M 40.58944 554.3 
L 1156.58944 554.3 
L 1156.58944 10.7 
L 40.58944 10.7 
z
" style="fill:#ffffff;"/>
   </g>
   <g id="matplotlib.axis_1">
    <g id="xtick_1">
     <g id="line2d_1">
      <path clip-path="url(#p8e981e4ded)" d="M 204.707087 554.3 
L 204.707087 10.7 
" style="fill:none;stroke:#000000;stroke-dasharray:0.5,0.825;stroke-dashoffset:0;stroke-width:0.5;"/>
     </g>
     <g id="line2d_2">
      <defs>
       <path d="M 0 0 
L 0 3.5 
" id="m2b7dc71db2" style="stroke:#555555;stroke-width:0.8;"/>
      </defs>
      <g>
       <use style="fill:#555555;stroke:#555555;stroke-width:0.8;" x="204.707087" xlink:href="#m2b7dc71db2" y="554.3"/>
      </g>
     </g>
     <g id="text_1">
      <!-- C -->
      <defs>
       <path d="M 64.40625 67.28125 
L 64.40625 56.890625 
Q 59.421875 61.53125 53.78125 63.8125 
Q 48.140625 66.109375 41.796875 66.109375 
Q 29.296875 66.109375 22.65625 58.46875 
Q 16.015625 50.828125 16.015625 36.375 
Q 16.015625 21.96875 22.65625 14.328125 
Q 29.296875 6.6875 41.796875 6.6875 
Q 48.140625 6.6875 53.78125 8.984375 
Q 59.421875 11.28125 64.40625 15.921875 
L 64.40625 5.609375 
Q 59.234375 2.09375 53.4375 0.328125 
Q 47.65625 -1.421875 41.21875 -1.421875 
Q 24.65625 -1.421875 15.125 8.703125 
Q 5.609375 18.84375 5.609375 36.375 
Q 5.609375 53.953125 15.125 64.078125 
Q 24.65625 74.21875 41.21875 74.21875 
Q 47.75 74.21875 53.53125 72.484375 
Q 59.328125 70.75 64.40625 67.28125 
z
" id="DejaVuSans-43"/>
      </defs>
      <g style="fill:#555555;" transform="translate(199.472073 572.693097)scale(0.14994 -0.14994)">
       <use xlink:href="#DejaVuSans-43"/>
      </g>
     </g>
    </g>
    <g id="xtick_2">
     <g id="line2d_3">
      <path clip-path="url(#p8e981e4ded)" d="M 467.295322 554.3 
L 467.295322 10.7 
" style="fill:none;stroke:#000000;stroke-dasharray:0.5,0.825;stroke-dashoffset:0;stroke-width:0.5;"/>
     </g>
     <g id="line2d_4">
      <g>
       <use style="fill:#555555;stroke:#555555;stroke-width:0.8;" x="467.295322" xlink:href="#m2b7dc71db2" y="554.3"/>
      </g>
     </g>
     <g id="text_2">
      <!-- F -->
      <defs>
       <path d="M 9.8125 72.90625 
L 51.703125 72.90625 
L 51.703125 64.59375 
L 19.671875 64.59375 
L 19.671875 43.109375 
L 48.578125 43.109375 
L 48.578125 34.8125 
L 19.671875 34.8125 
L 19.671875 0 
L 9.8125 0 
z
" id="DejaVuSans-46"/>
      </defs>
      <g style="fill:#555555;" transform="translate(462.983376 572.693097)scale(0.14994 -0.14994)">
       <use xlink:href="#DejaVuSans-46"/>
      </g>
     </g>
    </g>
    <g id="xtick_3">
     <g id="line2d_5">
      <path clip-path="url(#p8e981e4ded)" d="M 729.883558 554.3 
L 729.883558 10.7 
" style="fill:none;stroke:#000000;stroke-dasharray:0.5,0.825;stroke-dashoffset:0;stroke-width:0.5;"/>
     </g>
     <g id="line2d_6">
      <g>
       <use style="fill:#555555;stroke:#555555;stroke-width:0.8;" x="729.883558" xlink:href="#m2b7dc71db2" y="554.3"/>
      </g>
     </g>
     <g id="text_3">
      <!-- L -->
      <defs>
       <path d="M 9.8125 72.90625 
L 19.671875 72.90625 
L 19.671875 8.296875 
L 55.171875 8.296875 
L 55.171875 0 
L 9.8125 0 
z
" id="DejaVuSans-4c"/>
      </defs>
      <g style="fill:#555555;" transform="translate(725.706323 572.693097)scale(0.14994 -0.14994)">
       <use xlink:href="#DejaVuSans-4c"/>
      </g>
     </g>
    </g>
    <g id="xtick_4">
     <g id="line2d_7">
      <path clip-path="url(#p8e981e4ded)" d="M 992.471793 554.3 
L 992.471793 10.7 
" style="fill:none;stroke:#000000;stroke-dasharray:0.5,0.825;stroke-dashoffset:0;stroke-width:0.5;"/>
     </g>
     <g id="line2d_8">
      <g>
       <use style="fill:#555555;stroke:#555555;stroke-width:0.8;" x="992.471793" xlink:href="#m2b7dc71db2" y="554.3"/>
      </g>
     </g>
     <g id="text_4">
      <!-- S -->
      <defs>
       <path d="M 53.515625 70.515625 
L 53.515625 60.890625 
Q 47.90625 63.578125 42.921875 64.890625 
Q 37.9375 66.21875 33.296875 66.21875 
Q 25.25 66.21875 20.875 63.09375 
Q 16.5 59.96875 16.5 54.203125 
Q 16.5 49.359375 19.40625 46.890625 
Q 22.3125 44.4375 30.421875 42.921875 
L 36.375 41.703125 
Q 47.40625 39.59375 52.65625 34.296875 
Q 57.90625 29 57.90625 20.125 
Q 57.90625 9.515625 50.796875 4.046875 
Q 43.703125 -1.421875 29.984375 -1.421875 
Q 24.8125 -1.421875 18.96875 -0.25 
Q 13.140625 0.921875 6.890625 3.21875 
L 6.890625 13.375 
Q 12.890625 10.015625 18.65625 8.296875 
Q 24.421875 6.59375 29.984375 6.59375 
Q 38.421875 6.59375 43.015625 9.90625 
Q 47.609375 13.234375 47.609375 19.390625 
Q 47.609375 24.75 44.3125 27.78125 
Q 41.015625 30.8125 33.5 32.328125 
L 27.484375 33.5 
Q 16.453125 35.6875 11.515625 40.375 
Q 6.59375 45.0625 6.59375 53.421875 
Q 6.59375 63.09375 13.40625 68.65625 
Q 20.21875 74.21875 32.171875 74.21875 
Q 37.3125 74.21875 42.625 73.28125 
Q 47.953125 72.359375 53.515625 70.515625 
z
" id="DejaVuSans-53"/>
      </defs>
      <g style="fill:#555555;" transform="translate(987.712369 572.693097)scale(0.14994 -0.14994)">
       <use xlink:href="#DejaVuSans-53"/>
      </g>
     </g>
    </g>
   </g>
   <g id="matplotlib.axis_2">
    <g id="ytick_1">
     <g id="line2d_9">
      <path clip-path="url(#p8e981e4ded)" d="M 40.58944 441.207812 
L 1156.58944 441.207812 
" style="fill:none;stroke:#000000;stroke-dasharray:0.5,0.825;stroke-dashoffset:0;stroke-width:0.5;"/>
     </g>
     <g id="line2d_10">
      <defs>
       <path d="M 0 0 
L -3.5 0 
" id="m09ca252167" style="stroke:#555555;stroke-width:0.8;"/>
      </defs>
      <g>
       <use style="fill:#555555;stroke:#555555;stroke-width:0.8;" x="40.58944" xlink:href="#m09ca252167" y="441.207812"/>
      </g>
     </g>
     <g id="text_5">
      <!-- $\mathdefault{10^{0}}$ -->
      <defs>
       <path d="M 12.40625 8.296875 
L 28.515625 8.296875 
L 28.515625 63.921875 
L 10.984375 60.40625 
L 10.984375 69.390625 
L 28.421875 72.90625 
L 38.28125 72.90625 
L 38.28125 8.296875 
L 54.390625 8.296875 
L 54.390625 0 
L 12.40625 0 
z
" id="DejaVuSans-31"/>
       <path d="M 31.78125 66.40625 
Q 24.171875 66.40625 20.328125 58.90625 
Q 16.5 51.421875 16.5 36.375 
Q 16.5 21.390625 20.328125 13.890625 
Q 24.171875 6.390625 31.78125 6.390625 
Q 39.453125 6.390625 43.28125 13.890625 
Q 47.125 21.390625 47.125 36.375 
Q 47.125 51.421875 43.28125 58.90625 
Q 39.453125 66.40625 31.78125 66.40625 
z
M 31.78125 74.21875 
Q 44.046875 74.21875 50.515625 64.515625 
Q 56.984375 54.828125 56.984375 36.375 
Q 56.984375 17.96875 50.515625 8.265625 
Q 44.046875 -1.421875 31.78125 -1.421875 
Q 19.53125 -1.421875 13.0625 8.265625 
Q 6.59375 17.96875 6.59375 36.375 
Q 6.59375 54.828125 13.0625 64.515625 
Q 19.53125 74.21875 31.78125 74.21875 
z
" id="DejaVuSans-30"/>
      </defs>
      <g style="fill:#555555;" transform="translate(7.2 446.90436)scale(0.14994 -0.14994)">
       <use transform="translate(0 0.765625)" xlink:href="#DejaVuSans-31"/>
       <use transform="translate(63.623047 0.765625)" xlink:href="#DejaVuSans-30"/>
       <use transform="translate(128.203125 39.046875)scale(0.7)" xlink:href="#DejaVuSans-30"/>
      </g>
     </g>
    </g>
    <g id="ytick_2">
     <g id="line2d_11">
      <path clip-path="url(#p8e981e4ded)" d="M 40.58944 277.389137 
L 1156.58944 277.389137 
" style="fill:none;stroke:#000000;stroke-dasharray:0.5,0.825;stroke-dashoffset:0;stroke-width:0.5;"/>
     </g>
     <g id="line2d_12">
      <g>
       <use style="fill:#555555;stroke:#555555;stroke-width:0.8;" x="40.58944" xlink:href="#m09ca252167" y="277.389137"/>
      </g>
     </g>
     <g id="text_6">
      <!-- $\mathdefault{10^{1}}$ -->
      <g style="fill:#555555;" transform="translate(7.2 283.085686)scale(0.14994 -0.14994)">
       <use transform="translate(0 0.684375)" xlink:href="#DejaVuSans-31"/>
       <use transform="translate(63.623047 0.684375)" xlink:href="#DejaVuSans-30"/>
       <use transform="translate(128.203125 38.965625)scale(0.7)" xlink:href="#DejaVuSans-31"/>
      </g>
     </g>
    </g>
    <g id="ytick_3">
     <g id="line2d_13">
      <path clip-path="url(#p8e981e4ded)" d="M 40.58944 113.570462 
L 1156.58944 113.570462 
" style="fill:none;stroke:#000000;stroke-dasharray:0.5,0.825;stroke-dashoffset:0;stroke-width:0.5;"/>
     </g>
     <g id="line2d_14">
      <g>
       <use style="fill:#555555;stroke:#555555;stroke-width:0.8;" x="40.58944" xlink:href="#m09ca252167" y="113.570462"/>
      </g>
     </g>
     <g id="text_7">
      <!-- $\mathdefault{10^{2}}$ -->
      <defs>
       <path d="M 19.1875 8.296875 
L 53.609375 8.296875 
L 53.609375 0 
L 7.328125 0 
L 7.328125 8.296875 
Q 12.9375 14.109375 22.625 23.890625 
Q 32.328125 33.6875 34.8125 36.53125 
Q 39.546875 41.84375 41.421875 45.53125 
Q 43.3125 49.21875 43.3125 52.78125 
Q 43.3125 58.59375 39.234375 62.25 
Q 35.15625 65.921875 28.609375 65.921875 
Q 23.96875 65.921875 18.8125 64.3125 
Q 13.671875 62.703125 7.8125 59.421875 
L 7.8125 69.390625 
Q 13.765625 71.78125 18.9375 73 
Q 24.125 74.21875 28.421875 74.21875 
Q 39.75 74.21875 46.484375 68.546875 
Q 53.21875 62.890625 53.21875 53.421875 
Q 53.21875 48.921875 51.53125 44.890625 
Q 49.859375 40.875 45.40625 35.40625 
Q 44.1875 33.984375 37.640625 27.21875 
Q 31.109375 20.453125 19.1875 8.296875 
z
" id="DejaVuSans-32"/>
      </defs>
      <g style="fill:#555555;" transform="translate(7.2 119.267011)scale(0.14994 -0.14994)">
       <use transform="translate(0 0.765625)" xlink:href="#DejaVuSans-31"/>
       <use transform="translate(63.623047 0.765625)" xlink:href="#DejaVuSans-30"/>
       <use transform="translate(128.203125 39.046875)scale(0.7)" xlink:href="#DejaVuSans-32"/>
      </g>
     </g>
    </g>
    <g id="ytick_4">
     <g id="line2d_15">
      <defs>
       <path d="M 0 0 
L -2 0 
" id="mceea00c815" style="stroke:#555555;stroke-width:0.6;"/>
      </defs>
      <g>
       <use style="fill:#555555;stroke:#555555;stroke-width:0.6;" x="40.58944" xlink:href="#mceea00c815" y="526.865115"/>
      </g>
     </g>
    </g>
    <g id="ytick_5">
     <g id="line2d_16">
      <g>
       <use style="fill:#555555;stroke:#555555;stroke-width:0.6;" x="40.58944" xlink:href="#mceea00c815" y="506.397816"/>
      </g>
     </g>
    </g>
    <g id="ytick_6">
     <g id="line2d_17">
      <g>
       <use style="fill:#555555;stroke:#555555;stroke-width:0.6;" x="40.58944" xlink:href="#mceea00c815" y="490.522147"/>
      </g>
     </g>
    </g>
    <g id="ytick_7">
     <g id="line2d_18">
      <g>
       <use style="fill:#555555;stroke:#555555;stroke-width:0.6;" x="40.58944" xlink:href="#mceea00c815" y="477.55078"/>
      </g>
     </g>
    </g>
    <g id="ytick_8">
     <g id="line2d_19">
      <g>
       <use style="fill:#555555;stroke:#555555;stroke-width:0.6;" x="40.58944" xlink:href="#mceea00c815" y="466.583645"/>
      </g>
     </g>
    </g>
    <g id="ytick_9">
     <g id="line2d_20">
      <g>
       <use style="fill:#555555;stroke:#555555;stroke-width:0.6;" x="40.58944" xlink:href="#mceea00c815" y="457.083482"/>
      </g>
     </g>
    </g>
    <g id="ytick_10">
     <g id="line2d_21">
      <g>
       <use style="fill:#555555;stroke:#555555;stroke-width:0.6;" x="40.58944" xlink:href="#mceea00c815" y="448.703743"/>
      </g>
     </g>
    </g>
    <g id="ytick_11">
     <g id="line2d_22">
      <g>
       <use style="fill:#555555;stroke:#555555;stroke-width:0.6;" x="40.58944" xlink:href="#mceea00c815" y="391.893477"/>
      </g>
     </g>
    </g>
    <g id="ytick_12">
     <g id="line2d_23">
      <g>
       <use style="fill:#555555;stroke:#555555;stroke-width:0.6;" x="40.58944" xlink:href="#mceea00c815" y="363.04644"/>
      </g>
     </g>
    </g>
    <g id="ytick_13">
     <g id="line2d_24">
      <g>
       <use style="fill:#555555;stroke:#555555;stroke-width:0.6;" x="40.58944" xlink:href="#mceea00c815" y="342.579142"/>
      </g>
     </g>
    </g>
    <g id="ytick_14">
     <g id="line2d_25">
      <g>
       <use style="fill:#555555;stroke:#555555;stroke-width:0.6;" x="40.58944" xlink:href="#mceea00c815" y="326.703472"/>
      </g>
     </g>
    </g>
    <g id="ytick_15">
     <g id="line2d_26">
      <g>
       <use style="fill:#555555;stroke:#555555;stroke-width:0.6;" x="40.58944" xlink:href="#mceea00c815" y="313.732105"/>
      </g>
     </g>
    </g>
    <g id="ytick_16">
     <g id="line2d_27">
      <g>
       <use style="fill:#555555;stroke:#555555;stroke-width:0.6;" x="40.58944" xlink:href="#mceea00c815" y="302.764971"/>
      </g>
     </g>
    </g>
    <g id="ytick_17">
     <g id="line2d_28">
      <g>
       <use style="fill:#555555;stroke:#555555;stroke-width:0.6;" x="40.58944" xlink:href="#mceea00c815" y="293.264807"/>
      </g>
     </g>
    </g>
    <g id="ytick_18">
     <g id="line2d_29">
      <g>
       <use style="fill:#555555;stroke:#555555;stroke-width:0.6;" x="40.58944" xlink:href="#mceea00c815" y="284.885069"/>
      </g>
     </g>
    </g>
    <g id="ytick_19">
     <g id="line2d_30">
      <g>
       <use style="fill:#555555;stroke:#555555;stroke-width:0.6;" x="40.58944" xlink:href="#mceea00c815" y="228.074802"/>
      </g>
     </g>
    </g>
    <g id="ytick_20">
     <g id="line2d_31">
      <g>
       <use style="fill:#555555;stroke:#555555;stroke-width:0.6;" x="40.58944" xlink:href="#mceea00c815" y="199.227766"/>
      </g>
     </g>
    </g>
    <g id="ytick_21">
     <g id="line2d_32">
      <g>
       <use style="fill:#555555;stroke:#555555;stroke-width:0.6;" x="40.58944" xlink:href="#mceea00c815" y="178.760467"/>
      </g>
     </g>
    </g>
    <g id="ytick_22">
     <g id="line2d_33">
      <g>
       <use style="fill:#555555;stroke:#555555;stroke-width:0.6;" x="40.58944" xlink:href="#mceea00c815" y="162.884797"/>
      </g>
     </g>
    </g>
    <g id="ytick_23">
     <g id="line2d_34">
      <g>
       <use style="fill:#555555;stroke:#555555;stroke-width:0.6;" x="40.58944" xlink:href="#mceea00c815" y="149.913431"/>
      </g>
     </g>
    </g>
    <g id="ytick_24">
     <g id="line2d_35">
      <g>
       <use style="fill:#555555;stroke:#555555;stroke-width:0.6;" x="40.58944" xlink:href="#mceea00c815" y="138.946296"/>
      </g>
     </g>
    </g>
    <g id="ytick_25">
     <g id="line2d_36">
      <g>
       <use style="fill:#555555;stroke:#555555;stroke-width:0.6;" x="40.58944" xlink:href="#mceea00c815" y="129.446132"/>
      </g>
     </g>
    </g>
    <g id="ytick_26">
     <g id="line2d_37">
      <g>
       <use style="fill:#555555;stroke:#555555;stroke-width:0.6;" x="40.58944" xlink:href="#mceea00c815" y="121.066394"/>
      </g>
     </g>
    </g>
    <g id="ytick_27">
     <g id="line2d_38">
      <g>
       <use style="fill:#555555;stroke:#555555;stroke-width:0.6;" x="40.58944" xlink:href="#mceea00c815" y="64.256128"/>
      </g>
     </g>
    </g>
    <g id="ytick_28">
     <g id="line2d_39">
      <g>
       <use style="fill:#555555;stroke:#555555;stroke-width:0.6;" x="40.58944" xlink:href="#mceea00c815" y="35.409091"/>
      </g>
     </g>
    </g>
    <g id="ytick_29">
     <g id="line2d_40">
      <g>
       <use style="fill:#555555;stroke:#555555;stroke-width:0.6;" x="40.58944" xlink:href="#mceea00c815" y="14.941793"/>
      </g>
     </g>
    </g>
   </g>
   <g id="patch_3">
    <path clip-path="url(#p8e981e4ded)" d="M 106.236499 49586.810192 
L 145.624734 49586.810192 
L 145.624734 268.372394 
L 106.236499 268.372394 
z
" style="fill:#ff00ff;"/>
   </g>
   <g id="patch_4">
    <path clip-path="url(#p8e981e4ded)" d="M 368.824734 49586.810192 
L 408.212969 49586.810192 
L 408.212969 464.594003 
L 368.824734 464.594003 
z
" style="fill:#ff00ff;"/>
   </g>
   <g id="patch_5">
    <path clip-path="url(#p8e981e4ded)" d="M 631.412969 49586.810192 
L 670.801205 49586.810192 
L 670.801205 432.545913 
L 631.412969 432.545913 
z
" style="fill:#ff00ff;"/>
   </g>
   <g id="patch_6">
    <path clip-path="url(#p8e981e4ded)" d="M 894.001205 49586.810192 
L 933.38944 49586.810192 
L 933.38944 464.944816 
L 894.001205 464.944816 
z
" style="fill:#ff00ff;"/>
   </g>
   <g id="patch_7">
    <path clip-path="url(#p8e981e4ded)" d="M 145.624734 49586.810192 
L 185.012969 49586.810192 
L 185.012969 191.557652 
L 145.624734 191.557652 
z
" style="fill:#007d00;"/>
   </g>
   <g id="patch_8">
    <path clip-path="url(#p8e981e4ded)" d="M 408.212969 49586.810192 
L 447.601205 49586.810192 
L 447.601205 320.073814 
L 408.212969 320.073814 
z
" style="fill:#007d00;"/>
   </g>
   <g id="patch_9">
    <path clip-path="url(#p8e981e4ded)" d="M 670.801205 49586.810192 
L 710.18944 49586.810192 
L 710.18944 350.639535 
L 670.801205 350.639535 
z
" style="fill:#007d00;"/>
   </g>
   <g id="patch_10">
    <path clip-path="url(#p8e981e4ded)" d="M 933.38944 49586.810192 
L 972.777675 49586.810192 
L 972.777675 432.031054 
L 933.38944 432.031054 
z
" style="fill:#007d00;"/>
   </g>
   <g id="patch_11">
    <path clip-path="url(#p8e981e4ded)" d="M 185.012969 49586.810192 
L 224.401205 49586.810192 
L 224.401205 35.409091 
L 185.012969 35.409091 
z
" style="fill:#0000ff;"/>
   </g>
   <g id="patch_12">
    <path clip-path="url(#p8e981e4ded)" d="M 447.601205 49586.810192 
L 486.98944 49586.810192 
L 486.98944 86.796006 
L 447.601205 86.796006 
z
" style="fill:#0000ff;"/>
   </g>
   <g id="patch_13">
    <path clip-path="url(#p8e981e4ded)" d="M 710.18944 49586.810192 
L 749.577675 49586.810192 
L 749.577675 177.738496 
L 710.18944 177.738496 
z
" style="fill:#0000ff;"/>
   </g>
   <g id="patch_14">
    <path clip-path="url(#p8e981e4ded)" d="M 972.777675 49586.810192 
L 1012.165911 49586.810192 
L 1012.165911 146.967564 
L 972.777675 146.967564 
z
" style="fill:#0000ff;"/>
   </g>
   <g id="patch_15">
    <path clip-path="url(#p8e981e4ded)" d="M 224.401205 49586.810192 
L 263.78944 49586.810192 
L 263.78944 198.945326 
L 224.401205 198.945326 
z
" style="fill:#ff7d00;"/>
   </g>
   <g id="patch_16">
    <path clip-path="url(#p8e981e4ded)" d="M 486.98944 49586.810192 
L 526.377675 49586.810192 
L 526.377675 387.431426 
L 486.98944 387.431426 
z
" style="fill:#ff7d00;"/>
   </g>
   <g id="patch_17">
    <path clip-path="url(#p8e981e4ded)" d="M 749.577675 49586.810192 
L 788.965911 49586.810192 
L 788.965911 529.590909 
L 749.577675 529.590909 
z
" style="fill:#ff7d00;"/>
   </g>
   <g id="patch_18">
    <path clip-path="url(#p8e981e4ded)" d="M 1012.165911 49586.810192 
L 1051.554146 49586.810192 
L 1051.554146 469.587638 
L 1012.165911 469.587638 
z
" style="fill:#ff7d00;"/>
   </g>
   <g id="patch_19">
    <path clip-path="url(#p8e981e4ded)" d="M 263.78944 49586.810192 
L 303.177675 49586.810192 
L 303.177675 35.409091 
L 263.78944 35.409091 
z
" style="fill:#ff0000;"/>
   </g>
   <g id="patch_20">
    <path clip-path="url(#p8e981e4ded)" d="M 526.377675 49586.810192 
L 565.765911 49586.810192 
L 565.765911 54.219279 
L 526.377675 54.219279 
z
" style="fill:#ff0000;"/>
   </g>
   <g id="patch_21">
    <path clip-path="url(#p8e981e4ded)" d="M 788.965911 49586.810192 
L 828.354146 49586.810192 
L 828.354146 71.349955 
L 788.965911 71.349955 
z
" style="fill:#ff0000;"/>
   </g>
   <g id="patch_22">
    <path clip-path="url(#p8e981e4ded)" d="M 1051.554146 49586.810192 
L 1090.942381 49586.810192 
L 1090.942381 62.148604 
L 1051.554146 62.148604 
z
" style="fill:#ff0000;"/>
   </g>
   <g id="patch_23">
    <path d="M 40.58944 554.3 
L 40.58944 10.7 
" style="fill:none;stroke:#ffffff;stroke-linecap:square;stroke-linejoin:miter;"/>
   </g>
   <g id="patch_24">
    <path d="M 1156.58944 554.3 
L 1156.58944 10.7 
" style="fill:none;stroke:#ffffff;stroke-linecap:square;stroke-linejoin:miter;"/>
   </g>
   <g id="patch_25">
    <path d="M 40.58944 554.3 
L 1156.58944 554.3 
" style="fill:none;stroke:#ffffff;stroke-linecap:square;stroke-linejoin:miter;"/>
   </g>
   <g id="patch_26">
    <path d="M 40.58944 10.7 
L 1156.58944 10.7 
" style="fill:none;stroke:#ffffff;stroke-linecap:square;stroke-linejoin:miter;"/>
   </g>
  </g>
 </g>
 <defs>
  <clipPath id="p8e981e4ded">
   <rect height="543.6" width="1116" x="40.58944" y="10.7"/>
  </clipPath>
 </defs>
</svg>
